<?xml version="1.0" encoding="utf-8"?>
<!-- Generator: Adobe Illustrator 25.4.1, SVG Export Plug-In . SVG Version: 6.00 Build 0)  -->
<svg version="1.1" id="Layer_1" xmlns="http://www.w3.org/2000/svg" xmlns:xlink="http://www.w3.org/1999/xlink" x="0px" y="0px"
	 viewBox="0 0 500 500" style="enable-background:new 0 0 500 500;" xml:space="preserve">
<style type="text/css">
	.st0{fill:#302C82;}
	.st1{fill:#B88417;}
	.st2{fill:#3C3C3B;}
	.st3{fill:#302D82;}
	.st4{fill:#FFFFFF;}
	.st5{fill:#2A3885;}
	.st6{fill:#2B3788;}
	.st7{fill:#B08129;}
	.st8{fill:#43AD4B;}
	.st9{fill:#030405;}
	.st10{fill:none;stroke:#FFFFFF;stroke-width:12;stroke-miterlimit:10;}
	.st11{fill:#B1812A;}
	.st12{fill:#FEFEFE;}
	.st13{fill:#3D4594;}
	.st14{fill:#666566;}
	.st15{fill:#5C5B5B;}
	.st16{fill:#707070;}
	.st17{fill:#EFEEEE;}
	.st18{fill:#8C8C8C;}
	.st19{fill:none;stroke:#FFFFFF;stroke-width:10;}
	.st20{fill:#F8AF41;}
	.st21{fill:none;stroke:#FFFFFF;stroke-width:2;}
	.st22{fill:#FFFFFF;stroke:#FFFFFF;stroke-width:8;stroke-miterlimit:10;}
	.st23{opacity:0.502;enable-background:new    ;}
	.st24{clip-path:url(#SVGID_00000161609602827005675900000005700608952688407992_);}
	.st25{clip-path:url(#SVGID_00000081605460499220037880000000912548803712265380_);enable-background:new    ;}
	.st26{clip-path:url(#SVGID_00000073718233918177776930000008186917421744862906_);fill:url(#);}
	.st27{fill:#D0D2D2;}
	.st28{fill:none;stroke:#595A5C;stroke-width:5;stroke-miterlimit:10;}
	.st29{fill:none;stroke:#595A5C;stroke-width:7;stroke-miterlimit:10;}
	.st30{fill:#595A5C;}
	.st31{fill:#2D3889;}
	.st32{fill:none;stroke:#404041;stroke-width:4;stroke-miterlimit:10;}
</style>
<g>
	<path class="st19" d="M250,63.1c6.1,0,12.2,0.3,18.3,0.9c6.1,0.6,12.1,1.5,18.1,2.7c6,1.2,11.9,2.7,17.8,4.5
		c5.9,1.8,11.6,3.8,17.3,6.2c5.7,2.3,11.2,5,16.6,7.8c5.4,2.9,10.6,6,15.7,9.4c5.1,3.4,10,7,14.7,10.9c4.7,3.9,9.3,8,13.6,12.3
		c4.3,4.3,8.4,8.9,12.3,13.6c3.9,4.7,7.5,9.6,10.9,14.7c3.4,5.1,6.5,10.3,9.4,15.7c2.9,5.4,5.5,10.9,7.8,16.6
		c2.3,5.7,4.4,11.4,6.2,17.3c1.8,5.9,3.3,11.8,4.5,17.8c1.2,6,2.1,12,2.7,18.1c0.6,6.1,0.9,12.2,0.9,18.3c0,6.1-0.3,12.2-0.9,18.3
		c-0.6,6.1-1.5,12.1-2.7,18.1c-1.2,6-2.7,11.9-4.5,17.8c-1.8,5.9-3.8,11.6-6.2,17.3c-2.3,5.7-5,11.2-7.8,16.6
		c-2.9,5.4-6,10.6-9.4,15.7c-3.4,5.1-7,10-10.9,14.7c-3.9,4.7-8,9.3-12.3,13.6c-4.3,4.3-8.9,8.4-13.6,12.3
		c-4.7,3.9-9.6,7.5-14.7,10.9c-5.1,3.4-10.3,6.5-15.7,9.4c-5.4,2.9-10.9,5.5-16.6,7.8c-5.7,2.3-11.4,4.4-17.3,6.2
		c-5.9,1.8-11.8,3.3-17.8,4.5c-6,1.2-12,2.1-18.1,2.7c-6.1,0.6-12.2,0.9-18.3,0.9c-6.1,0-12.2-0.3-18.3-0.9
		c-6.1-0.6-12.1-1.5-18.1-2.7c-6-1.2-11.9-2.7-17.8-4.5c-5.9-1.8-11.6-3.8-17.3-6.2c-5.7-2.3-11.2-5-16.6-7.8
		c-5.4-2.9-10.6-6-15.7-9.4c-5.1-3.4-10-7-14.7-10.9c-4.7-3.9-9.3-8-13.6-12.3c-4.3-4.3-8.4-8.9-12.3-13.6
		c-3.9-4.7-7.5-9.6-10.9-14.7c-3.4-5.1-6.5-10.3-9.4-15.7c-2.9-5.4-5.5-10.9-7.8-16.6c-2.3-5.7-4.4-11.4-6.2-17.3
		c-1.8-5.9-3.3-11.8-4.5-17.8c-1.2-6-2.1-12-2.7-18.1c-0.6-6.1-0.9-12.2-0.9-18.3c0-6.1,0.3-12.2,0.9-18.3
		c0.6-6.1,1.5-12.1,2.7-18.1c1.2-6,2.7-11.9,4.5-17.8c1.8-5.9,3.8-11.6,6.2-17.3c2.3-5.7,5-11.2,7.8-16.6c2.9-5.4,6-10.6,9.4-15.7
		c3.4-5.1,7-10,10.9-14.7c3.9-4.7,8-9.3,12.3-13.6c4.3-4.3,8.9-8.4,13.6-12.3c4.7-3.9,9.6-7.5,14.7-10.9c5.1-3.4,10.3-6.5,15.7-9.4
		c5.4-2.9,10.9-5.5,16.6-7.8c5.7-2.3,11.4-4.4,17.3-6.2c5.9-1.8,11.8-3.3,17.8-4.5c6-1.2,12-2.1,18.1-2.7
		C237.8,63.4,243.9,63.1,250,63.1z"/>
	<path class="st4" d="M265.1,299.3c0.5-2.6,0.8-4.9,1.3-7.1c2.3-10.4,4.8-20.7,7.1-31.1c0.8-3.5,1.5-6.9,2.2-10.4
		c0.3-1.4,0.9-2,2.4-2c19,0,37.9,0,56.9,0c1.7,0,2.3,0.8,2.5,2.2c2.6,12.3,5.3,24.6,7.9,36.9c0.8,3.7,1.7,7.3,2.7,11.5H265.1z
		 M248.7,303.8c-0.2,0-0.5,0-0.7,0c-4-18.2-8-36.3-12.1-54.9h25.1C256.8,267.3,252.7,285.6,248.7,303.8z M199.9,299.4L199.9,299.4
		l-42.2-0.1c-0.1,0-0.1-0.1-0.2-0.1c0,0-0.1,0.1-0.1,0.1h-3.8c0,0-0.1-0.1-0.1-0.1c0,0-0.1,0.1-0.1,0.1h-2.8
		c-0.4-0.6-0.9-1.2-1.4-1.9c0.9-4.2,2.2-10,3.5-15.8c2.3-10.2,4.6-20.5,6.7-30.7c0.3-1.5,0.9-2.2,2.5-2.2c19,0,38,0,56.9,0
		c1.5,0,2.1,0.6,2.4,2c2.3,10.6,4.6,21.1,7,31.7c1.2,5.5,2.4,11,3.8,17H199.9z M207.4,230.8c1.8-8.1,3.5-16.2,5.3-24.3
		c1.3-5.9,2.6-11.7,4-17.5c1.4-5.7,1.5-5.7,7.4-5.7c17.3,0,34.6,0,51.9-0.1c2.2,0,3,0.8,3.4,2.7c2.1,10.2,4.3,20.3,6.5,30.5
		c1.1,5,2.3,10,3.4,15.1c0.2,0.7,0.3,1.4,0.5,2.5h-3c-25.6,0-51.2,0-76.8,0C206.7,234,206.7,233.9,207.4,230.8z M364.5,304.8
		c-1.2-5.5-2.5-11-3.8-16.6c-3.4-15.7-6.8-31.4-10.3-47c-1.2-5.5-3.6-7.2-9.3-7.2c-11.1,0-22.2-0.1-33.3,0c-2,0-2.9-0.7-3.3-2.6
		c-0.5-2.7-1.1-5.3-1.7-7.9c-3.5-15.9-7-31.8-10.6-47.7c-1.3-5.8-3.2-7.2-9.1-7.2c-23,0-46.1,0-69.1,0c-0.9,0-1.9,0-2.8,0.1
		c-2.8,0.3-5.5,2.4-6.1,5c-1.5,6.4-3,12.8-4.5,19.2c-2.8,12.6-5.6,25.2-8.2,37.9c-0.5,2.5-1.5,3.4-4.2,3.3
		c-11.2-0.2-22.4-0.1-33.6-0.1c-4.4,0-6.9,1.8-8,6c-1.5,5.8-2.7,11.7-4,17.5c-1.9,8.5-3.7,17-5.6,25.5c-1.7,7.5-3.4,15-5,22.5
		c-0.1,0.4-0.1,0.9-0.1,1.3l0,0c0,0,0,0,0,0.1c0,1.3,0.3,2.4,0.9,3.5c1.2,2.3,3.7,3.9,6.5,3.9h6.7c0.1,0,0.2,0.1,0.2,0.1
		c0,0,0-0.1,0-0.1h4.8c0.5,0.1,1,0.1,1.6,0.1c29.1-0.1,58.3-0.1,87.4,0c3.8,0,6.5-1.4,8.4-5.3c2.2,4.6,5.8,5.3,10,5.3
		c20.4-0.1,40.8-0.1,61.3,0c12.5,0,24.9,0,37.4,0C362.5,314.3,365.7,310,364.5,304.8z"/>
</g>
</svg>
