<svg id="Layer_1" data-name="Layer 1" xmlns="http://www.w3.org/2000/svg" viewBox="0 0 23.21 23.21"><title>pinterest</title><rect width="23.21" height="23.21" rx="3.5" ry="3.5" fill="#cb1f24"/><path d="M12,.88A11.11,11.11,0,0,0,7.56,22.17a9.91,9.91,0,0,1,.19-2.57c.23-.92,1.42-6.05,1.42-6.05a4.44,4.44,0,0,1-.35-1.76c0-1.65,1-2.87,2.15-2.87a1.5,1.5,0,0,1,1.49,1.68,23.28,23.28,0,0,1-1,4,1.73,1.73,0,0,0,1.77,2.14c2.1,0,3.52-2.72,3.52-5.9,0-2.45-1.65-4.25-4.64-4.25a5.27,5.27,0,0,0-5.47,5.33,3.2,3.2,0,0,0,.73,2.18.53.53,0,0,1,.15.61c0,.19-.19.69-.23.88a.39.39,0,0,1-.57.27c-1.58-.65-2.26-2.34-2.26-4.25,0-3.14,2.64-6.93,7.92-6.93,4.25,0,7,3.06,7,6.36,0,4.36-2.41,7.62-6,7.62a3.24,3.24,0,0,1-2.72-1.38s-.65,2.56-.77,3.06a9.3,9.3,0,0,1-1.11,2.38,11,11,0,0,0,3.14.46A11.13,11.13,0,0,0,12,.88" transform="translate(-0.4 -0.4)" fill="#fff"/></svg>