<svg id="Layer_1" data-name="Layer 1" xmlns="http://www.w3.org/2000/svg" viewBox="0 0 20 22.52"><title>Amount</title><path d="M12,12.62A5.94,5.94,0,1,0,6.06,6.68,6,6,0,0,0,12,12.62Zm0-5.28a2,2,0,0,1-.66-3.84V2.72a.66.66,0,0,1,1.32,0V3.5A2,2,0,0,1,14,5.36a.66.66,0,1,1-1.32,0A.66.66,0,1,0,12,6a2,2,0,0,1,.66,3.84v.78a.66.66,0,0,1-1.32,0V9.86A2,2,0,0,1,10,8a.66.66,0,0,1,1.32,0A.66.66,0,1,0,12,7.34Z" transform="translate(-2 -0.74)" fill="#ea9600"/><path d="M21.63,15a1.3,1.3,0,0,0-1.86,0l-1.94,2.08C16.56,18.51,16.14,19.3,15,19.3H10.51a.66.66,0,1,1,0-1.32h3.36a1.32,1.32,0,1,0,0-2.64H12.09l-.25-.1a4.62,4.62,0,0,0-6.29-.19L3.71,16.66h-1a.65.65,0,0,0-.66.66V22.6a.66.66,0,0,0,.66.66H14.53a4.62,4.62,0,0,0,3.69-1.85l3.53-4.7A1.28,1.28,0,0,0,21.63,15Z" transform="translate(-2 -0.74)" fill="#ea9600"/></svg>