<svg id="Layer_1" data-name="Layer 1" xmlns="http://www.w3.org/2000/svg" viewBox="0 0 22.58 21.22"><title>weight</title><path d="M19.25,6.61a.65.65,0,0,0-.37-.32L14,4.5A1.94,1.94,0,0,0,13.4,3a2,2,0,0,0-3,.18L5.55,1.43h0a.66.66,0,0,0-.81.33L1.63,7.91H3.11L5.32,3.52,7.56,7.91H9.05L6.67,3.25,10,4.47a2,2,0,0,0,1.33,1.84V19.16a.66.66,0,1,0,1.32,0V6.31a2,2,0,0,0,.84-.58l4.23,1.54L15,12.81h1.48l2.23-4.43,2.23,4.43h1.48ZM12.47,4.9A.66.66,0,0,1,11.53,4a.68.68,0,0,1,.94,0A.66.66,0,0,1,12.47,4.9Z" transform="translate(-0.71 -1.39)" fill="#ea9600"/><path d="M12.78,18.54H11.22A3.41,3.41,0,0,0,7.81,22a.67.67,0,0,0,.66.66h7.06a.67.67,0,0,0,.66-.66A3.41,3.41,0,0,0,12.78,18.54Z" transform="translate(-0.71 -1.39)" fill="#ea9600"/><path d="M22.63,14.13H14.69a.66.66,0,0,0-.66.66,4.63,4.63,0,0,0,9.26,0A.67.67,0,0,0,22.63,14.13Z" transform="translate(-0.71 -1.39)" fill="#ea9600"/><path d="M9.31,9.23H1.37a.67.67,0,0,0-.66.66,4.64,4.64,0,1,0,9.27,0A.67.67,0,0,0,9.31,9.23Z" transform="translate(-0.71 -1.39)" fill="#ea9600"/></svg>