<svg id="Layer_1" data-name="Layer 1" xmlns="http://www.w3.org/2000/svg" viewBox="0 0 46.9 34.39"><title>Aadhar Card</title><path d="M44.15,6.8H3.85a3.3,3.3,0,0,0-3.3,3.3V37.9a3.3,3.3,0,0,0,3.3,3.3h40.3a3.3,3.3,0,0,0,3.3-3.3V10.1A3.3,3.3,0,0,0,44.15,6.8Zm1.74,31.1a1.73,1.73,0,0,1-1.74,1.73H3.85A1.73,1.73,0,0,1,2.11,37.9V10.1A1.73,1.73,0,0,1,3.85,8.37h40.3a1.73,1.73,0,0,1,1.74,1.73Z" transform="translate(-0.55 -6.8)" fill="#db2032"/><path d="M13.87,17.58,12.66,17v-.13a2.37,2.37,0,0,0,1.13-1.45,1,1,0,0,0,.53-.87v-.33a1,1,0,0,0-.38-.78c-.21-1.26-1.09-1.89-2.61-1.89h-.21a1.65,1.65,0,0,1-1.07-.24A1.22,1.22,0,0,1,9.74,11a.39.39,0,0,0-.46-.12.4.4,0,0,0-.25.41c0,.13,0,.27.07.43.07.32.07.32,0,.52a2.61,2.61,0,0,0-.13.28,3.56,3.56,0,0,0-.23.88,1,1,0,0,0-.38.78v.33a1,1,0,0,0,.53.87A2.37,2.37,0,0,0,10,16.83V17l-1.25.61A1.42,1.42,0,0,0,8,18.82v.44c0,.27,0,.89,3.32.89s3.32-.62,3.32-.89v-.41A1.41,1.41,0,0,0,13.87,17.58ZM14,19.19a7.43,7.43,0,0,1-2.66.3,7.43,7.43,0,0,1-2.66-.3v-.37a.76.76,0,0,1,.39-.66l1.28-.63a.57.57,0,0,0,.32-.52v-.6l-.2-.09a1.77,1.77,0,0,1-1-1.27l0-.17-.18-.06A.32.32,0,0,1,9,14.51v-.33a.31.31,0,0,1,.17-.29l.16-.09,0-.17a2.93,2.93,0,0,1,.21-.86l.11-.25a1,1,0,0,0,.12-.62,2.47,2.47,0,0,0,1.37.28h.16c1.24,0,1.85.45,2,1.46l0,.17.15.08a.35.35,0,0,1,.18.3v.33a.32.32,0,0,1-.23.31l-.18.06,0,.17a1.76,1.76,0,0,1-1,1.27l-.2.09V17a.6.6,0,0,0,.32.52l1.26.64a.75.75,0,0,1,.42.68Z" transform="translate(-0.55 -6.8)" fill="#fab60f"/><path d="M5.62,26.77h6.91a.69.69,0,0,0,0-1.38H5.62a.69.69,0,1,0,0,1.38Z" transform="translate(-0.55 -6.8)" fill="#fab60f"/><path d="M15.3,26.77H16a.69.69,0,1,0,0-1.38H15.3a.69.69,0,1,0,0,1.38Z" transform="translate(-0.55 -6.8)" fill="#fab60f"/><path d="M6.31,35.14H5.62a.69.69,0,0,0,0,1.38h.69a.69.69,0,0,0,0-1.38Z" transform="translate(-0.55 -6.8)" fill="#fab60f"/><path d="M10.46,35.14H9.07a.69.69,0,1,0,0,1.38h1.39a.69.69,0,1,0,0-1.38Z" transform="translate(-0.55 -6.8)" fill="#fab60f"/><path d="M13.91,35.14h-.69a.69.69,0,0,0,0,1.38h.69a.69.69,0,1,0,0-1.38Z" transform="translate(-0.55 -6.8)" fill="#fab60f"/><path d="M18.06,35.14H16.68a.69.69,0,1,0,0,1.38h1.38a.69.69,0,0,0,0-1.38Z" transform="translate(-0.55 -6.8)" fill="#fab60f"/><path d="M20.33,35.34a.7.7,0,0,0,0,1,.7.7,0,0,0,1,0,.69.69,0,1,0-1-1Z" transform="translate(-0.55 -6.8)" fill="#fab60f"/><path d="M20.82,28.54H5.62a.69.69,0,1,0,0,1.38h15.2a.69.69,0,1,0,0-1.38Z" transform="translate(-0.55 -6.8)" fill="#fab60f"/><path d="M20.82,31.68H5.62a.7.7,0,0,0,0,1.39h15.2a.7.7,0,1,0,0-1.39Z" transform="translate(-0.55 -6.8)" fill="#fab60f"/><path d="M15.64,21.59H7a1.4,1.4,0,0,1-1.4-1.4V10.75A1.4,1.4,0,0,1,7,9.35h8.62a1.4,1.4,0,0,1,1.4,1.4v9.44A1.4,1.4,0,0,1,15.64,21.59ZM7,10.15a.6.6,0,0,0-.6.6v9.44a.6.6,0,0,0,.6.6h8.62a.6.6,0,0,0,.6-.6V10.75a.6.6,0,0,0-.6-.6Z" transform="translate(-0.55 -6.8)" fill="#db2032"/><g id="layer1"><g id="g10"><g id="g12"><path id="path14" d="M41.48,15.53h0a1.68,1.68,0,0,0-.19.61,3.42,3.42,0,0,1-.19.78,2,2,0,0,1-.64.91A8.88,8.88,0,0,0,39,15.26a2.07,2.07,0,0,1,1.11-.1,3.58,3.58,0,0,1,.77.23,1.55,1.55,0,0,0,.62.14Z" transform="translate(-0.55 -6.8)" fill="#fab60f"/><path id="path16" d="M37.6,11.64h0a1.6,1.6,0,0,0,.14.63A4.89,4.89,0,0,1,38,13a2.09,2.09,0,0,1-.11,1.11,8.83,8.83,0,0,0-2.56-1.48,2,2,0,0,1,.91-.65,4,4,0,0,1,.78-.18,1.57,1.57,0,0,0,.61-.2Z" transform="translate(-0.55 -6.8)" fill="#fab60f"/><path id="path18" d="M40.87,19.35a2.11,2.11,0,0,1,1,.47,3.78,3.78,0,0,1,.55.58,1.4,1.4,0,0,0,.48.43H41A8.07,8.07,0,0,0,40.87,19.35Z" transform="translate(-0.55 -6.8)" fill="#fab60f"/><path id="path20" d="M27,11.64h0a1.47,1.47,0,0,0,.61.2,4.39,4.39,0,0,1,.78.18,2.15,2.15,0,0,1,.91.65,8.88,8.88,0,0,0-2.57,1.48,2,2,0,0,1-.1-1.11,3.42,3.42,0,0,1,.23-.77A1.6,1.6,0,0,0,27,11.64Z" transform="translate(-0.55 -6.8)" fill="#fab60f"/><path id="path22" d="M23.1,15.53h0a1.6,1.6,0,0,0,.63-.14,3.42,3.42,0,0,1,.77-.23,2.08,2.08,0,0,1,1.11.1,8.91,8.91,0,0,0-1.49,2.57,2.12,2.12,0,0,1-.64-.91,4,4,0,0,1-.19-.78,1.37,1.37,0,0,0-.19-.61Z" transform="translate(-0.55 -6.8)" fill="#fab60f"/><path id="path24" d="M21.68,20.83a1.37,1.37,0,0,0,.47-.43,3.78,3.78,0,0,1,.55-.58,2.11,2.11,0,0,1,1-.47,10.31,10.31,0,0,0-.13,1.48Z" transform="translate(-0.55 -6.8)" fill="#fab60f"/><path id="path26" d="M32.29,10.22h0a1.6,1.6,0,0,0,.43.47,4.48,4.48,0,0,1,.59.56,2,2,0,0,1,.46,1,9.19,9.19,0,0,0-3,0,2,2,0,0,1,.47-1,4.4,4.4,0,0,1,.58-.56,1.47,1.47,0,0,0,.43-.47Z" transform="translate(-0.55 -6.8)" fill="#fab60f"/></g><g id="g28"><path id="path30" d="M30.52,20.84h.66c.08-.55-.09-1-.65-.87a2.82,2.82,0,0,0-1.28.87h.86c.1-.06.29-.13.37-.08A.13.13,0,0,1,30.52,20.84Z" transform="translate(-0.55 -6.8)" fill="#d52736"/><path id="path32" d="M33.47,20.83h.81A5.6,5.6,0,0,0,33.72,18a2.62,2.62,0,0,0-2-1.45,5.24,5.24,0,0,0-3.65,1.13,13.81,13.81,0,0,0-3,3.14h1.08c1-1.37,3.21-3.47,4.85-3.48a2.15,2.15,0,0,1,1.45.47A1.78,1.78,0,0,1,33.1,19c0,.24-.23.31-.43.24a.91.91,0,0,1-.38-.35,1.53,1.53,0,0,0-1.52-.65,4.9,4.9,0,0,0-2.22,1.18,14.73,14.73,0,0,0-1.41,1.44h1.17a5.86,5.86,0,0,1,1.45-1.31,3.46,3.46,0,0,1,.64-.31c.6-.21,1.19-.16,1.46.59a2.42,2.42,0,0,1,.08,1h.79v0c0-.26,0-.43,0-.68s.09-.45.3-.48c.43-.09.41.87.42,1.18Z" transform="translate(-0.55 -6.8)" fill="#d52736"/><path id="path34" d="M35.14,20.83H36A8.72,8.72,0,0,0,35.64,18c-.06-.18-.12-.36-.19-.53a4.94,4.94,0,0,0-1.8-2.07l-.39-.21h0L32.85,15h0a5.61,5.61,0,0,0-4.59.57c-.26.15-.52.31-.76.47s-.48.34-.69.52h0a9,9,0,0,0-.91.83l-.18.2c-.16.19-.41.45-.34.71s.33.15.43.08a3.05,3.05,0,0,0,.44-.32c.18-.16.36-.33.54-.48a9.13,9.13,0,0,1,2.28-1.48l.5-.2.49-.15h0a3.79,3.79,0,0,1,3.95,1,6.13,6.13,0,0,1,1.13,4.08ZM24.92,19.58a2.86,2.86,0,0,0,.27-.31.42.42,0,0,0,.09-.45.21.21,0,0,0-.08-.11.23.23,0,0,0-.12-.06.36.36,0,0,0-.34.15,1.58,1.58,0,0,0-.33.63.24.24,0,0,0,0,.12.2.2,0,0,0,0,.11h0a.15.15,0,0,0,.14.08h.09A.61.61,0,0,0,24.92,19.58Z" transform="translate(-0.55 -6.8)" fill="#d52736"/><path id="path36" d="M37.21,20.84h0a.35.35,0,0,0,.33-.18.51.51,0,0,0,0-.1.44.44,0,0,0,0-.13h0a7.58,7.58,0,0,0-1.82-5.47,5.36,5.36,0,0,0-.75-.68,5.75,5.75,0,0,0-.85-.53h0a6,6,0,0,0-3.25-.62c-.22,0-.43.05-.65.09l-.63.15h0a7.25,7.25,0,0,0-3.08,1.9c-.17.17-.33.35-.49.54s-.15.18-.22.28a10.15,10.15,0,0,1,1.95-1.35c.15-.09.31-.16.46-.24l.47-.2h0a7.54,7.54,0,0,1,1.8-.45,6.33,6.33,0,0,1,1.79.05,5.17,5.17,0,0,1,1.23.34l.22.09.21.11h0a6,6,0,0,1,2.66,3.92,8.54,8.54,0,0,1,.18,1,8.72,8.72,0,0,1,.06,1h0v0a.51.51,0,0,0,.18.41l.06,0h.08Z" transform="translate(-0.55 -6.8)" fill="#d52736"/><path id="path38" d="M34.82,13.21a8.07,8.07,0,0,1,5.54,7.62H38.77a8.43,8.43,0,0,0-4-7.62Z" transform="translate(-0.55 -6.8)" fill="#fab60f"/></g><path id="path40" d="M25.52,23.33h-.64l-.16.56h-.51l.67-2.14h.65l.7,2.14h-.54ZM25,23h.49c-.13-.42-.21-.71-.25-.86h0l-.1.4L25,23Zm2.92.36h-.64l-.16.56h-.51l.68-2.14h.65l.69,2.14h-.53ZM27.31,23h.49c-.13-.42-.22-.71-.25-.86h0l-.1.4-.13.46Zm1.76.91v-2.1a3.69,3.69,0,0,1,.68-.05,1.38,1.38,0,0,1,1,.28,1,1,0,0,1,.3.75,1.06,1.06,0,0,1-.34.85,1.52,1.52,0,0,1-1,.3A5,5,0,0,1,29.07,23.88Zm.49-1.75v1.39h.18a.83.83,0,0,0,.57-.19.77.77,0,0,0,.2-.56.65.65,0,0,0-.18-.5.74.74,0,0,0-.53-.17.82.82,0,0,0-.24,0Zm2-.38h.49v.82h.84v-.82h.49v2.14h-.49V23h-.84v.89h-.49Zm3.61,1.58h-.64l-.16.56h-.51l.67-2.14h.65l.7,2.14h-.54l-.17-.56ZM34.6,23h.49c-.13-.42-.21-.71-.25-.86h0l-.1.4L34.6,23Zm2.92.36h-.64l-.16.56h-.51l.68-2.14h.65l.69,2.14H37.7l-.18-.56ZM37,23h.5c-.13-.42-.22-.71-.25-.86h0l-.1.4L37,23Zm1.77.92V21.78a3.16,3.16,0,0,1,.66-.05,1.15,1.15,0,0,1,.7.16.56.56,0,0,1,.22.46.54.54,0,0,1-.11.32.63.63,0,0,1-.28.2h0a.56.56,0,0,1,.29.4l.18.61h-.5a2.06,2.06,0,0,1-.16-.5.57.57,0,0,0-.12-.27.33.33,0,0,0-.24-.07h-.15v.84Zm.49-1.78v.58h.2a.43.43,0,0,0,.29-.08.28.28,0,0,0,.11-.22.27.27,0,0,0-.1-.22.41.41,0,0,0-.27-.08,1,1,0,0,0-.23,0Z" transform="translate(-0.55 -6.8)" fill="#d52736"/></g></g><path d="M41.59,37.06H28.32A1.3,1.3,0,0,1,27,35.76V27.61a1.3,1.3,0,0,1,1.29-1.3H41.59a1.3,1.3,0,0,1,1.3,1.3v8.15A1.3,1.3,0,0,1,41.59,37.06ZM28.32,27.18a.43.43,0,0,0-.43.43v8.15a.43.43,0,0,0,.43.43H41.59a.44.44,0,0,0,.44-.43V27.61a.44.44,0,0,0-.44-.43Z" transform="translate(-0.55 -6.8)" fill="#db2032"/><path d="M38,35.27H32c-.32,0-.58-.4-.58-.89v-5.6c0-.49.26-.89.58-.89h6c.33,0,.59.4.59.89v5.6C38.55,34.87,38.29,35.27,38,35.27Zm-6-6.79c-.1,0-.19.14-.19.3v5.6c0,.16.09.3.19.3h6c.11,0,.2-.14.2-.3v-5.6c0-.16-.09-.3-.2-.3Z" transform="translate(-0.55 -6.8)" fill="#db2032"/><rect x="34.11" y="19.66" width="0.59" height="1.78" fill="#db2032"/><rect x="34.11" y="28.3" width="0.59" height="1.78" fill="#db2032"/><rect x="29.13" y="27.5" width="0.59" height="4.13" transform="translate(-0.69 52.18) rotate(-90)" fill="#db2032"/><rect x="29.15" y="31.52" width="0.59" height="4.13" transform="translate(-4.69 56.22) rotate(-90)" fill="#db2032"/><rect x="40.08" y="27.51" width="0.59" height="4.13" transform="translate(10.26 63.15) rotate(-90)" fill="#db2032"/><rect x="40.1" y="31.53" width="0.59" height="4.13" transform="translate(6.26 67.18) rotate(-90)" fill="#db2032"/></svg>