<svg id="Layer_1" data-name="Layer 1" xmlns="http://www.w3.org/2000/svg" viewBox="0 0 46.96 33.73"><title>Pan Card</title><path d="M44.17,7.13H3.82a3.27,3.27,0,0,0-3.3,3.24V37.63a3.27,3.27,0,0,0,3.3,3.24H44.17a3.27,3.27,0,0,0,3.3-3.24V10.37A3.27,3.27,0,0,0,44.17,7.13Zm1.74,30.5a1.72,1.72,0,0,1-1.74,1.7H3.82a1.72,1.72,0,0,1-1.74-1.7V10.37a1.72,1.72,0,0,1,1.74-1.7H44.17a1.72,1.72,0,0,1,1.74,1.7Z" transform="translate(-0.52 -7.13)" fill="#69090a"/><path d="M18.36,28.79l-2.79-1.43v-.29a5.57,5.57,0,0,0,2.61-3.35,2.26,2.26,0,0,0,1.22-2v-.77a2.28,2.28,0,0,0-.88-1.8c-.48-2.9-2.5-4.36-6-4.36H12a3.86,3.86,0,0,1-2.47-.56,3.45,3.45,0,0,1-.7-.61.92.92,0,0,0-1.64.67c0,.29.08.62.15,1,.15.75.15.75,0,1.2-.08.17-.18.37-.29.65a8.19,8.19,0,0,0-.54,2,2.32,2.32,0,0,0-.87,1.79v.77a2.26,2.26,0,0,0,1.22,2,5.57,5.57,0,0,0,2.61,3.35v.29L6.54,28.78a3.3,3.3,0,0,0-1.71,2.88v1c0,.61,0,2,7.67,2s7.67-1.44,7.67-2v-1A3.27,3.27,0,0,0,18.36,28.79Zm.27,3.71c-.48.3-2.42.7-6.13.7s-5.65-.4-6.13-.7v-.84a1.74,1.74,0,0,1,.88-1.52l3-1.46A1.35,1.35,0,0,0,11,27.47V26.08l-.47-.19A4.08,4.08,0,0,1,8.19,23l-.11-.41-.4-.12a.78.78,0,0,1-.55-.73v-.77a.77.77,0,0,1,.42-.67l.36-.19,0-.41a7.48,7.48,0,0,1,.48-2c.1-.24.19-.43.26-.58A2.24,2.24,0,0,0,9,15.67a5.55,5.55,0,0,0,3.17.64h.36c2.87,0,4.27,1,4.55,3.37l0,.4.36.19a.76.76,0,0,1,.42.67v.77a.78.78,0,0,1-.55.73l-.4.12-.11.41a4,4,0,0,1-2.31,2.92l-.47.2v1.39a1.35,1.35,0,0,0,.74,1.21l2.9,1.48a1.75,1.75,0,0,1,1,1.56Z" transform="translate(-0.52 -7.13)" fill="#69090a"/><path d="M24,18.63h7.67a.77.77,0,0,0,0-1.53H24a.77.77,0,1,0,0,1.53Z" transform="translate(-0.52 -7.13)" fill="#f1bc31"/><path d="M34.73,18.63h.77a.77.77,0,1,0,0-1.53h-.77a.77.77,0,0,0,0,1.53Z" transform="translate(-0.52 -7.13)" fill="#f1bc31"/><path d="M24.77,30.13H24a.77.77,0,0,0,0,1.54h.77a.77.77,0,0,0,0-1.54Z" transform="translate(-0.52 -7.13)" fill="#f1bc31"/><path d="M29.37,30.13H27.83a.77.77,0,0,0,0,1.54h1.54a.77.77,0,0,0,0-1.54Z" transform="translate(-0.52 -7.13)" fill="#f1bc31"/><path d="M33.2,30.13h-.77a.77.77,0,0,0,0,1.54h.77a.77.77,0,1,0,0-1.54Z" transform="translate(-0.52 -7.13)" fill="#f1bc31"/><path d="M37.8,30.13H36.27a.77.77,0,0,0,0,1.54H37.8a.77.77,0,1,0,0-1.54Z" transform="translate(-0.52 -7.13)" fill="#f1bc31"/><path d="M40.32,30.36a.77.77,0,0,0,0,1.08.83.83,0,0,0,.55.23.78.78,0,0,0,.54-.23.77.77,0,0,0,0-1.08A.79.79,0,0,0,40.32,30.36Z" transform="translate(-0.52 -7.13)" fill="#f1bc31"/><path d="M40.87,21.7H24a.77.77,0,1,0,0,1.53H40.87a.77.77,0,0,0,0-1.53Z" transform="translate(-0.52 -7.13)" fill="#f1bc31"/><path d="M40.87,26.3H24a.77.77,0,1,0,0,1.53H40.87a.77.77,0,0,0,0-1.53Z" transform="translate(-0.52 -7.13)" fill="#f1bc31"/></svg>