<svg id="Layer_1" data-name="Layer 1" xmlns="http://www.w3.org/2000/svg" viewBox="0 0 22.5 22.96"><title>request</title><path d="M2,23.48l13.12-.07v-.57L2,22.92a.69.69,0,0,1-.7-.68h0V1.76A.69.69,0,0,1,2,1.09H16.3a.69.69,0,0,1,.68.67V9.23h.56V1.76A1.24,1.24,0,0,0,16.29.52H2A1.24,1.24,0,0,0,.75,1.76V22.24A1.24,1.24,0,0,0,2,23.48Z" transform="translate(-0.75 -0.52)" fill="#ea9600"/><path d="M2.64,3.21H8.47a.29.29,0,0,0,.28-.28.28.28,0,0,0-.28-.28H2.64a.27.27,0,0,0-.28.28A.28.28,0,0,0,2.64,3.21Z" transform="translate(-0.75 -0.52)" fill="#ea9600"/><path d="M1.92,20.21a.28.28,0,0,0,.28.28H8a.28.28,0,0,0,.26-.31A.29.29,0,0,0,8,19.93H2.2a.27.27,0,0,0-.28.28Z" transform="translate(-0.75 -0.52)" fill="#ea9600"/><path d="M14.52,4.81H2.37a.28.28,0,0,0-.28.28.29.29,0,0,0,.28.28H14.52a.28.28,0,0,0,.28-.28.27.27,0,0,0-.28-.28Z" transform="translate(-0.75 -0.52)" fill="#ea9600"/><path d="M14.52,7H2.37a.28.28,0,0,0-.28.28.29.29,0,0,0,.28.28H14.52a.28.28,0,0,0,.28-.28A.27.27,0,0,0,14.52,7Z" transform="translate(-0.75 -0.52)" fill="#ea9600"/><path d="M14.52,9.13H2.37a.28.28,0,1,0,0,.56H14.52a.28.28,0,0,0,0-.56Z" transform="translate(-0.75 -0.52)" fill="#ea9600"/><path d="M14.52,11.29H2.37a.28.28,0,0,0,0,.56H14.52a.28.28,0,0,0,.26-.31A.29.29,0,0,0,14.52,11.29Z" transform="translate(-0.75 -0.52)" fill="#ea9600"/><path d="M14.8,13.73a.27.27,0,0,0-.28-.28H2.37a.28.28,0,0,0-.28.28.29.29,0,0,0,.28.28H14.52a.28.28,0,0,0,.28-.28Z" transform="translate(-0.75 -0.52)" fill="#ea9600"/><path d="M13.5,15.89a.29.29,0,0,0-.28-.28H2.37a.28.28,0,0,0,0,.56H13.22a.28.28,0,0,0,.28-.28Z" transform="translate(-0.75 -0.52)" fill="#ea9600"/><path d="M4.27,17.88a.7.7,0,0,0,0-.71.73.73,0,0,0-.52-.31,1.19,1.19,0,0,0-.88.2,1.11,1.11,0,0,0-.38.92h0a.29.29,0,0,0-.37.16h0a.29.29,0,0,0,.16.36,1.93,1.93,0,0,0,.34.11,1.27,1.27,0,0,0,.6.67,1.1,1.1,0,0,0,.53.11,1.4,1.4,0,0,0,.74-.2,1.64,1.64,0,0,0,.39-.4A.27.27,0,0,1,5,18.71a1,1,0,0,0,.24.17,1.55,1.55,0,0,0,.75.19,1.66,1.66,0,0,0,.9-.23.28.28,0,0,0,0-.4.28.28,0,0,0-.31-.08,1.16,1.16,0,0,1-1.1,0l-.17-.12A.41.41,0,0,0,5,18.13a.6.6,0,0,0-.52.33.81.81,0,0,1-.27.25.8.8,0,0,1-.72.07.62.62,0,0,1-.18-.14,1.2,1.2,0,0,0,.6-.26,1.31,1.31,0,0,0,.4-.5Zm-.74.06a.81.81,0,0,1-.47.16.7.7,0,0,1,.16-.59.67.67,0,0,1,.34-.1h.1a.34.34,0,0,1,.15.06A.66.66,0,0,1,3.53,17.94Z" transform="translate(-0.75 -0.52)" fill="#ea9600"/><path d="M23.15,18.27a.35.35,0,0,0-.24-.06l-1.81.45-1-1.71a1,1,0,0,1-.06-.71v0l.8-3.38a4.39,4.39,0,0,0-.25-2.77l0,0L17.5,5.18a.27.27,0,0,0-.38-.08h0a.28.28,0,0,0-.09.38h0l3.06,4.84a3.77,3.77,0,0,1,.21,2.39l-.8,3.36a1.58,1.58,0,0,0,.1,1.15h0l.92,1.58-3.72.92a2.38,2.38,0,0,0-.48-.95l-.47-.58a3.43,3.43,0,0,1-.18-3.63l.13-.24a2.86,2.86,0,0,0,.36-1.28l.11-2.26a1.43,1.43,0,0,1,1.21-1.32l-.15,1.61a9,9,0,0,0,0,1.8.28.28,0,1,0,.55-.05h0a9.54,9.54,0,0,1,0-1.69l.19-1.93a.29.29,0,0,0-.25-.31h0a2,2,0,0,0-2.1,1.87L15.61,13a2.53,2.53,0,0,1-.29,1l-.13.23a4,4,0,0,0,.21,4.23l0,0,.47.59a1.93,1.93,0,0,1,.37.71l-1.06.26a.3.3,0,0,0-.22.26l-.13,2.73a.28.28,0,0,0,.26.3h0l7.65-.55a.28.28,0,0,0,.26-.26l.2-4.1a.28.28,0,0,0-.1-.24Zm-.65,4.05-7.08.5.1-2.2L21,19.26h0l1.66-.41Z" transform="translate(-0.75 -0.52)" fill="#ea9600"/><path d="M20.69,20.65a.83.83,0,0,0,.22.6.84.84,0,0,0,.58.26h0a.83.83,0,0,0,.83-.79.76.76,0,0,0-.21-.59A.85.85,0,0,0,21,20.08a.88.88,0,0,0-.27.56Zm1.11.05a.26.26,0,0,1-.28.25h0a.25.25,0,0,1-.2-.09.26.26,0,0,1-.07-.19.27.27,0,0,1,.28-.25h0a.25.25,0,0,1,.19.09.23.23,0,0,1,.07.19Z" transform="translate(-0.75 -0.52)" fill="#ea9600"/></svg>