<?xml version="1.0" encoding="utf-8"?>
<!-- Generator: Adobe Illustrator 16.0.0, SVG Export Plug-In . SVG Version: 6.00 Build 0)  -->
<!DOCTYPE svg PUBLIC "-//W3C//DTD SVG 1.1//EN" "http://www.w3.org/Graphics/SVG/1.1/DTD/svg11.dtd">
<svg version="1.1" id="Layer_1" xmlns="http://www.w3.org/2000/svg" xmlns:xlink="http://www.w3.org/1999/xlink" x="0px" y="0px"
	 width="150px" height="150px" viewBox="0 0 150 150" enable-background="new 0 0 150 150" xml:space="preserve">
<path fill="#F39D36" d="M91.949,68.622h5.437c1.225-0.11,2.141-1.169,2.078-2.398c-0.134-1.089-0.992-1.947-2.078-2.079h-5.437
	c-1.225,0.11-2.143,1.169-2.078,2.398C90.053,67.606,90.887,68.44,91.949,68.622z"/>
<path fill="#F39D36" d="M119.125,68.622c1.228-0.11,2.145-1.169,2.078-2.398c-0.132-1.089-0.989-1.947-2.078-2.079h-15.023
	c-1.227,0.11-2.145,1.169-2.078,2.398c0.131,1.088,0.989,1.947,2.078,2.079H119.125z"/>
<path fill="#F39D36" d="M91.949,79.012h39.164c1.243,0.067,2.307-0.887,2.371-2.13c0.061-1.151-0.755-2.164-1.892-2.347H91.947
	c-1.235,0.148-2.118,1.27-1.97,2.506C90.104,78.075,90.917,78.888,91.949,79.012z"/>
<path fill="#F39D36" d="M91.949,87.005h39.164c1.236,0.088,2.311-0.843,2.399-2.078c0.088-1.236-0.842-2.31-2.079-2.398l0,0H91.949
	c-1.225,0.11-2.143,1.17-2.078,2.398C90.053,85.99,90.887,86.823,91.949,87.005z"/>
<path fill="#F39D36" d="M91.949,94.838h39.164c1.236,0.088,2.311-0.842,2.399-2.078c0.088-1.236-0.842-2.31-2.079-2.398l0,0H91.949
	c-1.21,0.141-2.074,1.237-1.935,2.447c0.005,0.036,0.011,0.073,0.016,0.109C90.209,93.896,90.973,94.661,91.949,94.838z"/>
<path fill="#F39D36" d="M91.949,102.512h18.861c1.237,0.088,2.31-0.843,2.4-2.079c0.089-1.235-0.842-2.31-2.078-2.397l0,0H91.949
	c-1.235,0.146-2.117,1.27-1.97,2.506C90.104,101.573,90.917,102.387,91.949,102.512z"/>
<path fill="#F39D36" d="M112.571,42.565h-9.592c-6.732-0.007-13.348,1.757-19.182,5.116C78.885,31.568,64.036,20.544,47.19,20.505
	h-9.751C16.294,21.872,0.262,40.121,1.628,61.265C2.872,80.504,18.2,95.831,37.439,97.076h6.714v8.472
	c-0.027,1.599,1.247,2.917,2.844,2.943c0.792,0.015,1.555-0.298,2.112-0.865l13.108-13.428c0.28-0.265,0.604-0.483,0.959-0.639
	c1.119-0.479,2.078-1.118,3.197-1.6c1.567,5.036,4.121,9.71,7.514,13.748c0.84,0.923,2.268,0.996,3.197,0.159
	c0.879-0.736,0.995-2.047,0.259-2.925c-0.032-0.038-0.065-0.075-0.1-0.109c-3.357-3.868-5.766-8.466-7.033-13.429
	c2.951-2.256,5.538-4.953,7.671-7.993c0.707-0.97,0.492-2.33-0.479-3.035c-0.972-0.707-2.331-0.491-3.038,0.479l0,0
	c-3.392,4.662-7.899,8.399-13.108,10.87c-0.808,0.44-1.56,0.975-2.238,1.598l-10.551,10.709v-5.115
	c0.018-2.188-1.743-3.979-3.932-3.996c-0.021,0-0.043,0-0.063,0h-7.034C18.716,92.296,3.935,76.805,4.189,58.073
	c0.45-18.147,15.1-32.729,33.25-33.09h9.592c18.69-0.028,33.865,15.101,33.892,33.791c0.005,3.844-0.645,7.662-1.921,11.288
	c-0.442,1.147,0.131,2.437,1.278,2.878c1.148,0.441,2.436-0.132,2.878-1.28l0,0c2.204-6.199,2.755-12.866,1.598-19.342
	c5.433-3.493,11.767-5.326,18.224-5.275h9.592c18.673,0,33.811,15.138,33.811,33.811c0,18.671-15.138,33.809-33.811,33.809h-7.034
	c-2.188-0.017-3.977,1.743-3.995,3.934c0,0.021,0,0.043,0,0.063v5.114l-10.551-10.551c-0.638-0.672-1.396-1.215-2.238-1.598
	c-1.504-0.677-2.948-1.478-4.316-2.398c-1.097-0.488-2.381,0.006-2.869,1.103c-0.004,0.005-0.006,0.011-0.008,0.017
	c-0.331,0.876-0.145,1.861,0.479,2.558c1.599,0.96,3.195,1.919,4.795,2.719c0.319,0.159,0.641,0.481,0.961,0.642l13.105,13.266
	c0.568,0.522,1.312,0.805,2.078,0.801c0.38,0.025,0.763-0.028,1.12-0.159c1.104-0.441,1.809-1.53,1.756-2.719v-8.474h6.716
	c21.1-1.221,37.217-19.315,35.994-40.415C147.442,59.164,131.968,43.688,112.571,42.565z"/>
<path fill="#F39D36" d="M40.956,71.5c-1.854,0-3.356,1.503-3.356,3.356c0,1.854,1.503,3.357,3.356,3.357
	c1.854,0,3.357-1.503,3.357-3.357l0,0l0,0c0.045-1.81-1.386-3.313-3.195-3.356C41.064,71.498,41.01,71.498,40.956,71.5z"/>
<path fill="#F39D36" d="M45.911,60.949c1.119-0.96,4.956-3.996,4.956-8.153c0-4.156-3.837-7.353-9.432-7.353
	c-6.074,0-8.792,3.517-8.792,5.915c-0.018,1.396,1.098,2.54,2.493,2.558c0.021,0,0.043,0,0.064,0l0,0
	c2.398,0,1.439-3.356,5.915-3.356c2.238,0,3.996,0.959,3.996,3.037c0,2.397-2.397,3.836-3.996,4.955
	c-2,1.646-3.122,4.127-3.037,6.714c0,2.238,0.639,3.037,2.398,3.037c2.238,0,2.558-0.958,2.558-1.759
	C43.011,64.317,44.088,62.224,45.911,60.949z"/>
</svg>
