<?xml version="1.0" encoding="utf-8"?>
<!-- Generator: Adobe Illustrator 16.0.0, SVG Export Plug-In . SVG Version: 6.00 Build 0)  -->
<!DOCTYPE svg PUBLIC "-//W3C//DTD SVG 1.1//EN" "http://www.w3.org/Graphics/SVG/1.1/DTD/svg11.dtd">
<svg version="1.1" id="Layer_1" xmlns="http://www.w3.org/2000/svg" xmlns:xlink="http://www.w3.org/1999/xlink" x="0px" y="0px"
	 width="150px" height="150px" viewBox="0 0 150 150" enable-background="new 0 0 150 150" xml:space="preserve">
<path fill="#F39D36" d="M136.807,45.497h-28.012c1.798-1.199,3.446-2.546,4.944-3.895c7.04-7.189,7.04-18.725,0-25.915
	c-7.19-6.891-18.575-6.891-25.915,0c-3.745,3.895-13.931,19.474-12.583,29.958h-0.6c1.499-10.485-8.688-26.064-12.583-29.958
	c-7.189-6.891-18.574-6.891-25.914,0c-7.191,7.189-7.191,18.725-0.15,25.915c1.499,1.499,3.146,2.847,4.942,3.895H13.227
	c-4.794,0-8.839,3.895-8.839,8.837v22.02c0,2.397,1.948,4.345,4.344,4.345h4.344v52.877c0,4.943,3.895,8.838,8.839,8.838h105.904
	c4.944,0,8.839-3.895,8.839-8.838V80.85h4.344c2.396,0,4.347-1.948,4.347-4.493v-22.02
	C145.495,49.542,141.602,45.497,136.807,45.497z M42.436,21.83c3.596-3.745,9.587-3.745,13.182-0.149l0,0l0.15,0.149
	c5.991,5.992,11.833,21.271,9.737,23.368c-0.449,0.301-1.049,0.301-1.647,0.301c-6.141,0-17.676-6.292-21.57-10.187
	C38.692,31.716,38.692,25.574,42.436,21.83z M70.598,133.727H22.064V80.85h48.534V133.727z M70.598,72.011H13.227V54.334h57.371
	V72.011z M94.115,21.83c3.895-3.596,9.887-3.295,13.481,0.599c3.295,3.596,3.295,9.288,0,12.882
	c-3.745,3.745-15.428,10.187-21.572,10.187c-1.2,0-1.647-0.301-1.647-0.301C82.281,43.1,88.124,27.821,94.115,21.83z
	 M127.969,133.727H79.437V80.85h48.532V133.727z M136.807,72.011H79.436V54.334h57.371V72.011z"/>
</svg>
