<?xml version="1.0" encoding="utf-8"?>
<!-- Generator: Adobe Illustrator 16.0.0, SVG Export Plug-In . SVG Version: 6.00 Build 0)  -->
<!DOCTYPE svg PUBLIC "-//W3C//DTD SVG 1.1//EN" "http://www.w3.org/Graphics/SVG/1.1/DTD/svg11.dtd">
<svg version="1.1" id="Layer_1" xmlns="http://www.w3.org/2000/svg" xmlns:xlink="http://www.w3.org/1999/xlink" x="0px" y="0px"
	 width="150px" height="150px" viewBox="0 0 150 150" enable-background="new 0 0 150 150" xml:space="preserve">
<path fill="#F39D36" stroke="#FFFFFF" stroke-width="1.5" stroke-miterlimit="10" d="M132.809,5.979H63.195
	c-6.394,0-11.578,5.182-11.578,11.578l0,0v20.259c-0.017,1.547,1.197,2.829,2.743,2.895h5.94c1.547,0.017,2.828-1.196,2.895-2.742
	V17.555h69.613v115.769H63.195v-20.259c0.067-1.528-1.118-2.826-2.647-2.894c-0.031,0-0.063,0-0.095-0.003h-5.941
	c-1.48-0.036-2.71,1.132-2.749,2.611c-0.002,0.094,0,0.19,0.007,0.285v20.258c0,6.393,5.184,11.576,11.577,11.576h69.462
	c6.333,0.062,11.517-5.028,11.576-11.362c0-0.071,0-0.143,0-0.214l0,0V17.555C144.385,11.161,139.201,5.979,132.809,5.979z"/>
<path fill="#F39D36" stroke="#FFFFFF" stroke-width="1.5" stroke-miterlimit="10" d="M70.049,99.354
	c-0.616,0.547-0.998,1.311-1.065,2.132v5.79c0,1.598,1.295,2.893,2.895,2.893l0,0c0.694,0.038,1.366-0.242,1.828-0.761l34.73-31.985
	c1.217-1.035,1.368-2.861,0.334-4.081c-0.01-0.011-0.02-0.022-0.028-0.033l-0.303-0.305L74.014,41.471
	c-1.027-1.137-2.781-1.224-3.916-0.197c-0.069,0.062-0.134,0.129-0.197,0.197c-0.573,0.562-0.903,1.329-0.915,2.133v5.788
	c-0.069,0.854,0.342,1.676,1.066,2.133l20.107,18.127H8.357c-1.506-0.009-2.733,1.206-2.742,2.711c0,0.01,0,0.021,0,0.031v5.942
	c0.097,1.473,1.269,2.646,2.742,2.74h81.951L70.049,99.354z"/>
</svg>
