<?xml version="1.0" encoding="utf-8"?>
<!-- Generator: Adobe Illustrator 16.0.0, SVG Export Plug-In . SVG Version: 6.00 Build 0)  -->
<!DOCTYPE svg PUBLIC "-//W3C//DTD SVG 1.1//EN" "http://www.w3.org/Graphics/SVG/1.1/DTD/svg11.dtd">
<svg version="1.1" id="Layer_1" xmlns="http://www.w3.org/2000/svg" xmlns:xlink="http://www.w3.org/1999/xlink" x="0px" y="0px"
	 width="150px" height="150px" viewBox="0 0 150 150" enable-background="new 0 0 150 150" xml:space="preserve">
<path fill="#F39D36" d="M26.526,70.591c3.11,0.011,6.101-1.203,8.322-3.38l11.951,6.256c-0.489,6.652,4.508,12.439,11.16,12.929
	c6.414,0.47,12.072-4.168,12.868-10.551v-1.001c-0.007-1.807-0.436-3.584-1.251-5.193l16.206-16.08
	c1.626,0.764,3.396,1.17,5.194,1.189c6.635,0.035,12.04-5.316,12.075-11.952l0,0l0,0l0,0c0.001-1.211-0.189-2.415-0.564-3.566
	l14.018-10.7c5.565,3.738,13.106,2.258,16.845-3.308c3.739-5.565,2.259-13.107-3.306-16.846c-5.567-3.739-13.108-2.258-16.848,3.308
	c-0.003,0.005-0.006,0.009-0.008,0.014c-1.337,2.026-2.053,4.394-2.065,6.82l0,0c0.02,1.235,0.229,2.459,0.625,3.629L97.73,32.295
	c-1.986-1.31-4.315-2.006-6.694-2.002c-6.587-0.071-12.001,5.177-12.14,11.764c-0.063,1.913,0.368,3.809,1.251,5.506L63.941,63.769
	c-4.544-2.277-10.037-1.396-13.64,2.19l-11.889-6.256c0.063-0.478,0.063-0.961,0-1.439c0.034-6.704-5.373-12.167-12.077-12.202
	c-6.704-0.034-12.167,5.372-12.201,12.077C14.1,64.843,19.506,70.306,26.21,70.34l0,0L26.526,70.591z"/>
<path fill="#F39D36" d="M139.718,135.665H135.4V50.443c0.005-2.118-1.641-3.873-3.753-4.005h-16.394
	c-2.212-0.035-4.032,1.729-4.067,3.941c0,0,0,0,0,0.001l0,0v85.287h-8.071V74.846c0-2.223-1.784-4.033-4.004-4.069H82.966
	c-2.244,0-4.066,1.821-4.066,4.069v61.008h-8.008v-28.784c-0.035-2.222-1.846-4.004-4.068-4.004H50.68
	c-2.212,0-4.005,1.792-4.005,4.004l0,0v28.784h-8.071V90.802c0-2.248-1.821-4.068-4.067-4.068H18.582
	c-2.246,0-4.068,1.82-4.068,4.068v44.863h-4.442c-2.212,0.393-3.687,2.504-3.294,4.715c0.298,1.681,1.614,2.996,3.294,3.295h129.651
	c2.229-0.278,3.811-2.311,3.532-4.541c-0.229-1.846-1.686-3.301-3.532-3.531v0.063H139.718z"/>
</svg>
