<?xml version="1.0" encoding="utf-8"?>
<!-- Generator: Adobe Illustrator 16.0.0, SVG Export Plug-In . SVG Version: 6.00 Build 0)  -->
<!DOCTYPE svg PUBLIC "-//W3C//DTD SVG 1.1//EN" "http://www.w3.org/Graphics/SVG/1.1/DTD/svg11.dtd">
<svg version="1.1" id="Layer_1" xmlns="http://www.w3.org/2000/svg" xmlns:xlink="http://www.w3.org/1999/xlink" x="0px" y="0px"
	 width="150px" height="150px" viewBox="0 0 150 150" enable-background="new 0 0 150 150" xml:space="preserve">
<path fill="#F39D36" d="M124.565,28.397c1.257,0,2.236-0.978,2.236-2.096l0,0l0,0v-4.473c0-6.148-4.892-11.04-11.042-11.04l0,0
	H36.239c-6.149,0-11.041,4.892-11.041,11.04v99.227h4.473V21.828c0-3.633,2.936-6.568,6.569-6.568h70.578
	c-1.398,1.956-2.236,4.193-2.236,6.568v110.27c-0.14,3.633-3.216,6.428-6.989,6.287c-3.354-0.139-6.149-2.934-6.288-6.287v-4.473
	c0-1.26-0.979-2.238-2.238-2.238H9.826c-1.258,0-2.237,0.979-2.237,2.098l0,0v4.473c0,6.15,4.892,11.041,11.041,11.041h79.382
	c6.148,0,11.04-4.891,11.04-11.041l0,0V28.397H124.565z M18.629,138.666c-3.633,0-6.569-2.936-6.569-6.568v-2.238H86.97v2.238
	c0,2.375,0.838,4.611,2.237,6.568H18.629z M115.62,15.261c3.634,0,6.57,2.934,6.57,6.568v2.237h-13.277v-2.238
	C109.052,18.195,111.987,15.261,115.62,15.261z"/>
<path fill="#F39D36" d="M56.084,45.029h22.083v4.333H56.084V45.029z"/>
<path fill="#F39D36" d="M62.792,36.083h22.082v4.473H62.792V36.083z"/>
<path fill="#F39D36" d="M49.516,36.083h8.944v4.473h-8.944V36.083z"/>
<path fill="#F39D36" d="M45.043,55.93h52.968v4.471H45.043V55.93z"/>
<path fill="#F39D36" d="M36.239,55.93h4.333v4.471h-4.333V55.93z"/>
<path fill="#F39D36" d="M45.043,64.874h35.359v4.474H45.043V64.874z"/>
<path fill="#F39D36" d="M84.735,64.874h13.276v4.474H84.735V64.874z"/>
<path fill="#F39D36" d="M45.043,73.679h52.968v4.471H45.043V73.679z"/>
<path fill="#F39D36" d="M36.239,73.679h4.333v4.471h-4.333V73.679z"/>
<path fill="#F39D36" d="M45.043,82.484h13.277v4.33H45.043V82.484z"/>
<path fill="#F39D36" d="M62.792,82.484h35.22v4.33h-35.22V82.484z"/>
<path fill="#F39D36" d="M45.043,91.289h35.359v4.471H45.043V91.289z"/>
<path fill="#F39D36" d="M36.239,91.289h4.333v4.471h-4.333V91.289z"/>
<path fill="#F39D36" d="M45.043,100.092h52.968v4.473H45.043V100.092z"/>
<path fill="#F39D36" d="M84.735,91.289h13.276v4.471H84.735V91.289z"/>
<path fill="#F39D36" d="M133.37,46.146h-2.237c0.14-4.891-3.635-8.944-8.524-9.084c-4.753-0.141-8.805,3.633-9.085,8.385v71.275
	c0,0.279,0.141,0.699,0.28,0.979l0,0l6.568,13.277c0.559,1.117,1.816,1.537,2.936,0.977l0,0c0.418-0.279,0.838-0.559,0.978-0.977
	l6.568-13.277l0,0c0.14-0.279,0.28-0.699,0.28-0.979V50.479h2.236c1.257,0,2.098,0.979,2.098,2.236v24.318h4.472V52.714
	C139.938,49.081,137.002,46.146,133.37,46.146z M122.33,41.674c2.376,0,4.332,1.956,4.472,4.472h-8.805
	C117.855,43.631,119.813,41.674,122.33,41.674L122.33,41.674L122.33,41.674z M126.662,114.488h-8.805V81.365h8.805V114.488z
	 M126.662,77.033h-8.805v-4.471h8.805V77.033z M122.33,124.971l-3.076-6.152h6.149L122.33,124.971z M126.662,68.088h-8.805V50.479
	h8.805V68.088z"/>
</svg>
