<?xml version="1.0" encoding="utf-8"?>
<!-- Generator: Adobe Illustrator 24.3.0, SVG Export Plug-In . SVG Version: 6.00 Build 0)  -->
<svg version="1.1" id="Layer_1" xmlns="http://www.w3.org/2000/svg" xmlns:xlink="http://www.w3.org/1999/xlink" x="0px" y="0px"
	 viewBox="0 0 110 110" style="enable-background:new 0 0 110 110;" xml:space="preserve">
<style type="text/css">
	.st0{fill:#603813;}
	.st1{fill:#B98840;}
	.st2{fill:#EBEBEB;}
	.st3{fill:#B27E2B;}
	.st4{fill:none;stroke:#B27E2B;stroke-width:0.5;stroke-miterlimit:10;}
	.st5{fill:#FFFFFF;}
	.st6{fill:none;stroke:#5E3714;stroke-width:0.75;stroke-miterlimit:10;}
	.st7{fill:#5E3714;}
	.st8{fill:#E1E1E1;}
	.st9{clip-path:url(#SVGID_6_);fill:url(#SVGID_7_);}
	.st10{clip-path:url(#SVGID_9_);fill:url(#SVGID_10_);}
	.st11{clip-path:url(#SVGID_12_);fill:url(#SVGID_13_);}
	.st12{clip-path:url(#SVGID_15_);fill:url(#SVGID_16_);}
	.st13{clip-path:url(#SVGID_18_);fill:url(#SVGID_19_);}
	.st14{clip-path:url(#SVGID_21_);fill:url(#SVGID_22_);}
	.st15{clip-path:url(#SVGID_24_);fill:url(#SVGID_25_);}
	.st16{clip-path:url(#SVGID_27_);fill:url(#SVGID_28_);}
	.st17{clip-path:url(#SVGID_30_);fill:url(#SVGID_31_);}
	.st18{clip-path:url(#SVGID_33_);fill:url(#SVGID_34_);}
	.st19{clip-path:url(#SVGID_36_);fill:url(#SVGID_37_);}
	.st20{clip-path:url(#SVGID_39_);fill:url(#SVGID_40_);}
	.st21{clip-path:url(#SVGID_42_);fill:url(#SVGID_43_);}
	.st22{clip-path:url(#SVGID_45_);fill:url(#SVGID_46_);}
	.st23{clip-path:url(#SVGID_48_);fill:url(#SVGID_49_);}
	.st24{clip-path:url(#SVGID_51_);fill:url(#SVGID_52_);}
	.st25{clip-path:url(#SVGID_54_);fill:url(#SVGID_55_);}
	.st26{clip-path:url(#SVGID_57_);fill:url(#SVGID_58_);}
	.st27{clip-path:url(#SVGID_60_);fill:url(#SVGID_61_);}
	.st28{clip-path:url(#SVGID_63_);fill:url(#SVGID_64_);}
	.st29{clip-path:url(#SVGID_66_);fill:url(#SVGID_67_);}
	.st30{clip-path:url(#SVGID_69_);fill:url(#SVGID_70_);}
	.st31{clip-path:url(#SVGID_72_);fill:url(#SVGID_73_);}
	.st32{clip-path:url(#SVGID_75_);fill:url(#SVGID_76_);}
	.st33{clip-path:url(#SVGID_78_);fill:url(#SVGID_79_);}
	.st34{clip-path:url(#SVGID_81_);fill:url(#SVGID_82_);}
	.st35{clip-path:url(#SVGID_84_);fill:url(#SVGID_85_);}
	.st36{clip-path:url(#SVGID_87_);fill:url(#SVGID_88_);}
	.st37{clip-path:url(#SVGID_90_);fill:url(#SVGID_91_);}
	.st38{clip-path:url(#SVGID_93_);fill:url(#SVGID_94_);}
	.st39{clip-path:url(#SVGID_96_);fill:url(#SVGID_97_);}
	.st40{clip-path:url(#SVGID_99_);fill:url(#SVGID_100_);}
	.st41{clip-path:url(#SVGID_102_);fill:url(#SVGID_103_);}
	.st42{clip-path:url(#SVGID_105_);fill:url(#SVGID_106_);}
	.st43{clip-path:url(#SVGID_108_);fill:url(#SVGID_109_);}
	.st44{clip-path:url(#SVGID_111_);fill:url(#SVGID_112_);}
	.st45{clip-path:url(#SVGID_114_);fill:url(#SVGID_115_);}
	.st46{clip-path:url(#SVGID_117_);fill:url(#SVGID_118_);}
	.st47{clip-path:url(#SVGID_120_);fill:url(#SVGID_121_);}
	.st48{clip-path:url(#SVGID_123_);fill:url(#SVGID_124_);}
	.st49{clip-path:url(#SVGID_126_);fill:url(#SVGID_127_);}
	.st50{clip-path:url(#SVGID_129_);fill:url(#SVGID_130_);}
	.st51{clip-path:url(#SVGID_132_);fill:url(#SVGID_133_);}
	.st52{clip-path:url(#SVGID_135_);fill:url(#SVGID_136_);}
	.st53{clip-path:url(#SVGID_138_);fill:url(#SVGID_139_);}
	.st54{clip-path:url(#SVGID_141_);fill:url(#SVGID_142_);}
	.st55{clip-path:url(#SVGID_144_);fill:url(#SVGID_145_);}
	.st56{clip-path:url(#SVGID_147_);fill:url(#SVGID_148_);}
	.st57{clip-path:url(#SVGID_150_);fill:url(#SVGID_151_);}
	.st58{clip-path:url(#SVGID_153_);fill:url(#SVGID_154_);}
	.st59{clip-path:url(#SVGID_156_);fill:url(#SVGID_157_);}
	.st60{clip-path:url(#SVGID_159_);fill:url(#SVGID_160_);}
	.st61{clip-path:url(#SVGID_162_);fill:url(#SVGID_163_);}
	.st62{clip-path:url(#SVGID_165_);fill:url(#SVGID_166_);}
	.st63{clip-path:url(#SVGID_168_);fill:url(#SVGID_169_);}
</style>
<circle class="st1" cx="55" cy="55" r="52.2"/>
<g>
	<path class="st2" d="M68.3,29.7c0.4,0.2,0.9,0.4,1.3,0.6c2,1.1,3.3,2.6,3.3,5c0,3.2,0,6.4,0,9.5c0,0.2,0,0.4-0.1,0.7
		c-1.3-1.1-2.4-2.1-3.7-3.2c0-0.4,0-0.8,0-1.3c0-1.8-0.1-3.7-0.2-5.5c-0.1-1.2-0.7-1.8-1.9-1.9c-0.9-0.1-1.9-0.1-2.8-0.1
		c-7.7,0-15.4,0-23.1,0c-2.7,0-3.1,0.4-3.1,3.1c0,12.1,0,24.2,0,36.4c0,0.2,0,0.4,0,0.7c0.1,1.7,0.6,2.3,2.3,2.3c8.7,0,17.4,0,26,0
		c0.2,0,0.4,0,0.7,0c1.2-0.1,1.8-0.7,1.9-1.9c0.1-1.7,0.1-3.4,0.2-5.2c0-0.5,0-1,0-1.6c1.2-1,2.4-2,3.6-3.1c0.1,0.3,0.2,0.5,0.2,0.7
		c0,3.1,0,6.2,0,9.3c0,2.6-1.4,4.3-3.7,5.4c-0.2,0.1-0.4,0.2-0.7,0.4c-10,0-19.9,0-29.9,0c-0.1-0.1-0.2-0.1-0.3-0.2
		c-2.8-1-4.2-2.9-4.2-6c0-12.9,0-25.7,0-38.6c0-2.9,2.4-5.4,5.3-5.6c0.4,0,0.8-0.1,1.2-0.2C49.9,29.7,59.1,29.7,68.3,29.7z"/>
	<path class="st2" d="M61.2,42.3c4.8,4.1,9.6,8.4,14.6,12.7c-4.9,4.3-9.7,8.4-14.4,12.6c-1.4,0.1-1.9-0.2-2-1.5
		c-0.1-1.3-0.1-2.5-0.1-3.8c0-0.4,0-0.8-0.1-1.3c-0.5,0-0.9,0-1.3,0c-3.2,0-6.4-0.1-9.6,0c-1.5,0-2.6-1-2.6-2.5c0.1-2.3,0-4.6,0-7
		c0-1.5,0.8-2.3,2.3-2.3c3.3,0,6.6,0,9.9,0c0.4,0,0.8,0,1.4,0c0-1.1,0-2.1,0-3.1c0-0.8,0-1.6,0.1-2.4C59.5,42.7,59.9,42.4,61.2,42.3
		z"/>
</g>
</svg>
