<svg width="125" height="126" viewBox="0 0 125 126" fill="none" xmlns="http://www.w3.org/2000/svg">
<g filter="url(#filter0_dddd)">
<rect x="28" y="22.6037" width="65" height="64.3019" rx="28.4907" fill="white"/>
</g>
<path d="M48.4998 33.7703H73.4998C75.71 33.7703 77.8296 34.6483 79.3924 36.2111C80.9552 37.7739 81.8332 39.8935 81.8332 42.1037V67.1037C81.8332 69.3138 80.9552 71.4334 79.3924 72.9962C77.8296 74.559 75.71 75.437 73.4998 75.437H48.4998C46.2897 75.437 44.1701 74.559 42.6073 72.9962C41.0445 71.4334 40.1665 69.3138 40.1665 67.1037V42.1037C40.1665 39.8935 41.0445 37.7739 42.6073 36.2111C44.1701 34.6483 46.2897 33.7703 48.4998 33.7703ZM48.4998 37.937C47.3948 37.937 46.335 38.376 45.5536 39.1574C44.7722 39.9388 44.3332 40.9986 44.3332 42.1037V67.1037C44.3332 68.2087 44.7722 69.2685 45.5536 70.0499C46.335 70.8313 47.3948 71.2703 48.4998 71.2703H73.4998C74.6049 71.2703 75.6647 70.8313 76.4461 70.0499C77.2275 69.2685 77.6665 68.2087 77.6665 67.1037V42.1037C77.6665 40.9986 77.2275 39.9388 76.4461 39.1574C75.6647 38.376 74.6049 37.937 73.4998 37.937H48.4998ZM63.9457 54.6037L69.8394 60.4953C70.2303 60.8862 70.45 61.4164 70.45 61.9693C70.45 62.5221 70.2303 63.0523 69.8394 63.4432C69.4485 63.8342 68.9183 64.0538 68.3655 64.0538C67.8126 64.0538 67.2824 63.8342 66.8915 63.4432L60.9998 57.5495L55.1082 63.4432C54.7173 63.8342 54.1871 64.0538 53.6342 64.0538C53.0814 64.0538 52.5512 63.8342 52.1603 63.4432C51.7693 63.0523 51.5497 62.5221 51.5497 61.9693C51.5497 61.6955 51.6036 61.4245 51.7084 61.1716C51.8131 60.9187 51.9667 60.6889 52.1603 60.4953L58.054 54.6037L52.1603 48.712C51.7693 48.3211 51.5497 47.7909 51.5497 47.238C51.5497 46.9643 51.6036 46.6932 51.7084 46.4403C51.8131 46.1874 51.9667 45.9576 52.1603 45.7641C52.3538 45.5705 52.5836 45.417 52.8365 45.3122C53.0894 45.2075 53.3605 45.1535 53.6342 45.1535C54.1871 45.1535 54.7173 45.3732 55.1082 45.7641L60.9998 51.6578L66.8915 45.7641C67.2824 45.3732 67.8126 45.1535 68.3655 45.1535C68.9183 45.1535 69.4485 45.3732 69.8394 45.7641C70.2303 46.155 70.45 46.6852 70.45 47.238C70.45 47.7909 70.2303 48.3211 69.8394 48.712L63.9457 54.6037Z" fill="#E79310" stroke="white" stroke-width="2"/>
<defs>
<filter id="filter0_dddd" x="0" y="0.603699" width="125" height="125.302" filterUnits="userSpaceOnUse" color-interpolation-filters="sRGB">
<feFlood flood-opacity="0" result="BackgroundImageFix"/>
<feColorMatrix in="SourceAlpha" type="matrix" values="0 0 0 0 0 0 0 0 0 0 0 0 0 0 0 0 0 0 127 0"/>
<feOffset dx="2" dy="9"/>
<feGaussianBlur stdDeviation="15"/>
<feColorMatrix type="matrix" values="0 0 0 0 0.808333 0 0 0 0 0.808333 0 0 0 0 0.808333 0 0 0 0.5 0"/>
<feBlend mode="normal" in2="BackgroundImageFix" result="effect1_dropShadow"/>
<feColorMatrix in="SourceAlpha" type="matrix" values="0 0 0 0 0 0 0 0 0 0 0 0 0 0 0 0 0 0 127 0"/>
<feOffset dx="-8" dy="5"/>
<feGaussianBlur stdDeviation="6"/>
<feColorMatrix type="matrix" values="0 0 0 0 0.991667 0 0 0 0 0.991667 0 0 0 0 0.991667 0 0 0 0.25 0"/>
<feBlend mode="normal" in2="effect1_dropShadow" result="effect2_dropShadow"/>
<feColorMatrix in="SourceAlpha" type="matrix" values="0 0 0 0 0 0 0 0 0 0 0 0 0 0 0 0 0 0 127 0"/>
<feOffset dx="-13" dy="-7"/>
<feGaussianBlur stdDeviation="7.5"/>
<feColorMatrix type="matrix" values="0 0 0 0 0.9875 0 0 0 0 0.9875 0 0 0 0 0.9875 0 0 0 0.5 0"/>
<feBlend mode="normal" in2="effect2_dropShadow" result="effect3_dropShadow"/>
<feColorMatrix in="SourceAlpha" type="matrix" values="0 0 0 0 0 0 0 0 0 0 0 0 0 0 0 0 0 0 127 0"/>
<feOffset dx="-7" dy="-7"/>
<feGaussianBlur stdDeviation="6"/>
<feColorMatrix type="matrix" values="0 0 0 0 1 0 0 0 0 1 0 0 0 0 1 0 0 0 0.0155704 0"/>
<feBlend mode="normal" in2="effect3_dropShadow" result="effect4_dropShadow"/>
<feBlend mode="normal" in="SourceGraphic" in2="effect4_dropShadow" result="shape"/>
</filter>
</defs>
</svg>
