<svg id="Layer_1" data-name="Layer 1" xmlns="http://www.w3.org/2000/svg" xmlns:xlink="http://www.w3.org/1999/xlink" viewBox="0 0 96 96"><defs><linearGradient id="linear-gradient" x1="50" y1="100" x2="50" y2="4" gradientTransform="matrix(1, 0, 0, -1, 0, 102)" gradientUnits="userSpaceOnUse"><stop offset="0" stop-color="#a06878"/><stop offset="1" stop-color="#6d3946"/></linearGradient></defs><title>contact us</title><path d="M50,2A48.05,48.05,0,0,0,2,50V69.89c0,4.91,4.31,8.91,9.6,8.91h4.8A4.81,4.81,0,0,0,21.2,74V49.31a4.81,4.81,0,0,0-4.8-4.8H12a38.35,38.35,0,0,1,75.92,0H83.6a4.81,4.81,0,0,0-4.8,4.8V78.8a9.62,9.62,0,0,1-9.6,9.6H59.6V83.6H40.4V98H69.2A19.22,19.22,0,0,0,88.4,78.8c5.29,0,9.6-4,9.6-8.91V50A48.05,48.05,0,0,0,50,2Z" transform="translate(-2 -2)" fill="url(#linear-gradient)"/></svg>