<?xml version="1.0" encoding="utf-8"?>
<!-- Generator: Adobe Illustrator 24.3.0, SVG Export Plug-In . SVG Version: 6.00 Build 0)  -->
<svg version="1.1" id="Layer_1" xmlns="http://www.w3.org/2000/svg" xmlns:xlink="http://www.w3.org/1999/xlink" x="0px" y="0px"
	 viewBox="0 0 110 110" style="enable-background:new 0 0 110 110;" xml:space="preserve">
<style type="text/css">
	.st0{fill:#603813;}
	.st1{fill:#B98840;}
	.st2{fill:#EBEBEB;}
	.st3{fill:#B27E2B;}
	.st4{fill:none;stroke:#B27E2B;stroke-width:0.5;stroke-miterlimit:10;}
	.st5{fill:#FFFFFF;}
	.st6{fill:none;stroke:#5E3714;stroke-width:0.75;stroke-miterlimit:10;}
	.st7{fill:#5E3714;}
	.st8{fill:#E1E1E1;}
	.st9{clip-path:url(#SVGID_6_);fill:url(#SVGID_7_);}
	.st10{clip-path:url(#SVGID_9_);fill:url(#SVGID_10_);}
	.st11{clip-path:url(#SVGID_12_);fill:url(#SVGID_13_);}
	.st12{clip-path:url(#SVGID_15_);fill:url(#SVGID_16_);}
	.st13{clip-path:url(#SVGID_18_);fill:url(#SVGID_19_);}
	.st14{clip-path:url(#SVGID_21_);fill:url(#SVGID_22_);}
	.st15{clip-path:url(#SVGID_24_);fill:url(#SVGID_25_);}
	.st16{clip-path:url(#SVGID_27_);fill:url(#SVGID_28_);}
	.st17{clip-path:url(#SVGID_30_);fill:url(#SVGID_31_);}
	.st18{clip-path:url(#SVGID_33_);fill:url(#SVGID_34_);}
	.st19{clip-path:url(#SVGID_36_);fill:url(#SVGID_37_);}
	.st20{clip-path:url(#SVGID_39_);fill:url(#SVGID_40_);}
	.st21{clip-path:url(#SVGID_42_);fill:url(#SVGID_43_);}
	.st22{clip-path:url(#SVGID_45_);fill:url(#SVGID_46_);}
	.st23{clip-path:url(#SVGID_48_);fill:url(#SVGID_49_);}
	.st24{clip-path:url(#SVGID_51_);fill:url(#SVGID_52_);}
	.st25{clip-path:url(#SVGID_54_);fill:url(#SVGID_55_);}
	.st26{clip-path:url(#SVGID_57_);fill:url(#SVGID_58_);}
	.st27{clip-path:url(#SVGID_60_);fill:url(#SVGID_61_);}
	.st28{clip-path:url(#SVGID_63_);fill:url(#SVGID_64_);}
	.st29{clip-path:url(#SVGID_66_);fill:url(#SVGID_67_);}
	.st30{clip-path:url(#SVGID_69_);fill:url(#SVGID_70_);}
	.st31{clip-path:url(#SVGID_72_);fill:url(#SVGID_73_);}
	.st32{clip-path:url(#SVGID_75_);fill:url(#SVGID_76_);}
	.st33{clip-path:url(#SVGID_78_);fill:url(#SVGID_79_);}
	.st34{clip-path:url(#SVGID_81_);fill:url(#SVGID_82_);}
	.st35{clip-path:url(#SVGID_84_);fill:url(#SVGID_85_);}
	.st36{clip-path:url(#SVGID_87_);fill:url(#SVGID_88_);}
	.st37{clip-path:url(#SVGID_90_);fill:url(#SVGID_91_);}
	.st38{clip-path:url(#SVGID_93_);fill:url(#SVGID_94_);}
	.st39{clip-path:url(#SVGID_96_);fill:url(#SVGID_97_);}
	.st40{clip-path:url(#SVGID_99_);fill:url(#SVGID_100_);}
	.st41{clip-path:url(#SVGID_102_);fill:url(#SVGID_103_);}
	.st42{clip-path:url(#SVGID_105_);fill:url(#SVGID_106_);}
	.st43{clip-path:url(#SVGID_108_);fill:url(#SVGID_109_);}
	.st44{clip-path:url(#SVGID_111_);fill:url(#SVGID_112_);}
	.st45{clip-path:url(#SVGID_114_);fill:url(#SVGID_115_);}
	.st46{clip-path:url(#SVGID_117_);fill:url(#SVGID_118_);}
	.st47{clip-path:url(#SVGID_120_);fill:url(#SVGID_121_);}
	.st48{clip-path:url(#SVGID_123_);fill:url(#SVGID_124_);}
	.st49{clip-path:url(#SVGID_126_);fill:url(#SVGID_127_);}
	.st50{clip-path:url(#SVGID_129_);fill:url(#SVGID_130_);}
	.st51{clip-path:url(#SVGID_132_);fill:url(#SVGID_133_);}
	.st52{clip-path:url(#SVGID_135_);fill:url(#SVGID_136_);}
	.st53{clip-path:url(#SVGID_138_);fill:url(#SVGID_139_);}
	.st54{clip-path:url(#SVGID_141_);fill:url(#SVGID_142_);}
	.st55{clip-path:url(#SVGID_144_);fill:url(#SVGID_145_);}
	.st56{clip-path:url(#SVGID_147_);fill:url(#SVGID_148_);}
	.st57{clip-path:url(#SVGID_150_);fill:url(#SVGID_151_);}
	.st58{clip-path:url(#SVGID_153_);fill:url(#SVGID_154_);}
	.st59{clip-path:url(#SVGID_156_);fill:url(#SVGID_157_);}
	.st60{clip-path:url(#SVGID_159_);fill:url(#SVGID_160_);}
	.st61{clip-path:url(#SVGID_162_);fill:url(#SVGID_163_);}
	.st62{clip-path:url(#SVGID_165_);fill:url(#SVGID_166_);}
	.st63{clip-path:url(#SVGID_168_);fill:url(#SVGID_169_);}
</style>
<g>
	<defs>
		<path id="SVGID_1_" d="M-416.4-141.2h-935.8c-22.2,0-40.1-18-40.1-40.1v-370.2c0-22.2,18-40.1,40.1-40.1h935.8
			c22.2,0,40.1,18,40.1,40.1v370.2C-376.2-159.1-394.2-141.2-416.4-141.2z"/>
	</defs>
	<clipPath id="SVGID_2_">
		<use xlink:href="#SVGID_1_"  style="overflow:visible;"/>
	</clipPath>
	<g transform="matrix(1 0 0 1 1.220703e-04 0)" style="clip-path:url(#SVGID_2_);">
		
			<image style="overflow:visible;" width="2304" height="4096" xlink:href="135753C9.jpg"  transform="matrix(0.7821 0 0 0.7821 -1793.9083 -1581.1245)">
		</image>
	</g>
</g>
<g>
	<defs>
		<path id="SVGID_3_" d="M84.1-49.6H23.9c-2.6,0-4.7-2.1-4.7-4.7v-21.5c0-2.6,2.1-4.7,4.7-4.7h60.2c2.6,0,4.7,2.1,4.7,4.7v21.5
			C88.8-51.7,86.7-49.6,84.1-49.6z"/>
	</defs>
	<clipPath id="SVGID_4_">
		<use xlink:href="#SVGID_3_"  style="overflow:visible;"/>
	</clipPath>
	<g style="clip-path:url(#SVGID_4_);">
		
			<image style="overflow:visible;" width="2304" height="4096" xlink:href="135753CB.jpg"  transform="matrix(5.357743e-02 0 0 5.357743e-02 -8.315 -148.2123)">
		</image>
	</g>
</g>
<g>
	<circle class="st1" cx="55" cy="55" r="52.2"/>
	<g>
		<path class="st2" d="M73.9,54.9c0-0.5,0-0.9,0-1.4c0-2.1,0-4.3,0-6.4c0-0.6,0.3-1,0.9-1c0.5,0,0.8,0.4,0.8,1c0,8.8,0,17.6,0,26.4
			c0,1.1-0.8,1.9-1.9,1.9c-6.3,0-12.7,0-19,0c-6.1,0-12.1,0-18.2,0c-1,0-1.8-0.5-2-1.4c0-0.2,0-0.3,0-0.5c0-8.5,0-16.9,0-25.4
			c0-1.1,0.8-1.9,1.9-1.9c3.4,0,6.8,0,10.2,0c0.6,0,0.9,0.3,0.9,0.9c0,0.5-0.4,0.8-0.9,0.8c-3.3,0-6.6,0-9.8,0
			c-0.5,0-0.6,0.1-0.6,0.6c0,2.8,0,5.6,0,8.5c0,0.1,0,0.2,0,0.3c0.3,0,0.6,0,0.8,0c3.3,0,6.5,0,9.8,0c0.6,0,1,0.3,1,0.9
			c0,0.5-0.4,0.9-1,0.9c-3.4,0-6.8,0-10.2,0c-0.1,0-0.3,0-0.4,0c0,1.6,0,3.2,0,4.8c0.1,0,0.3,0,0.4,0c2.6,0,5.2,0,7.9,0
			c1.2,0,2.1,0.8,2.1,2.1c0,2.5,0,5,0,7.5c0,0.1,0,0.1,0,0.3c2.7,0,5.4,0,8.1,0c0-0.2,0-0.3,0-0.5c0-2.3,0-4.7,0-7
			c0-1.6,1.2-2.8,2.8-2.8c2.9,0,5.7,0,8.6,0c1.8,0,3,1.2,3,3c0,2.4,0,4.9,0,7.3c0.1,0,0.2,0,0.3,0c1.4,0,2.9,0,4.3,0
			c0.1,0,0.3-0.2,0.3-0.4c0-3.9,0-7.9,0-11.8c0-0.1,0-0.2,0-0.4c-0.1,0-0.3,0-0.4,0c-3.3,0-6.6,0-9.8,0c-0.7,0-1.1-0.3-1.1-0.9
			c0-0.5,0.4-0.9,1.1-0.9c3.3,0,6.5,0,9.8,0c0.4,0,0.5-0.1,0.5-0.5c0-0.8,0-1.5,0-2.3c-0.2,0-0.3,0-0.4,0c-3.3,0-6.6,0-9.9,0
			c-0.6,0-1-0.3-1-0.9c0-0.5,0.4-0.9,1-0.9c3.3,0,6.6,0,9.9,0C73.6,54.9,73.7,54.9,73.9,54.9z M44.7,73.6c0-0.1,0-0.2,0-0.2
			c0-2.5,0-5.1,0-7.6c0-0.1-0.3-0.3-0.4-0.3c-2.6,0-5.3,0-7.9,0c-0.1,0-0.3,0.2-0.3,0.3c0,2.4,0,4.9,0,7.3c0,0.4,0.1,0.5,0.5,0.5
			c2.3,0,4.6,0,6.9,0C43.8,73.6,44.2,73.6,44.7,73.6z M67.2,68.5c0-0.9,0-1.7,0-2.5c0-0.5-0.5-0.9-1-0.9c-0.5,0-1,0-1.5,0
			c-2.4,0-4.8,0-7.3,0c-0.6,0-1.1,0.3-1.1,0.8c-0.1,0.9,0,1.7,0,2.6C59.9,68.5,63.6,68.5,67.2,68.5z M56.3,70.2c0,1.2,0,2.3,0,3.4
			c3.7,0,7.3,0,10.9,0c0-1.2,0-2.3,0-3.4C63.6,70.2,59.9,70.2,56.3,70.2z"/>
		<path class="st2" d="M55,81.7c-8.3,0-16.7,0-25,0c-1.6,0-2.4-0.8-2.4-2.4c0-12.6,0-25.3,0-37.9c0-1.2,0.9-2.1,2.1-2.1
			c7,0,13.9,0,20.9,0c1.4,0,2.9,0,4.3,0c0.7,0,1.1,0.3,1.1,0.9c0,0.5-0.4,0.8-1.1,0.8c-8.3,0-16.6,0-24.9,0c-0.5,0-0.7,0.2-0.7,0.7
			c0,12.5,0,25.1,0,37.6c0,0.5,0.2,0.7,0.7,0.7c6.9,0,13.9,0,20.8,0c9.6,0,19.3,0,28.9,0c1,0,1,0,1-1c0-9.4,0-18.7,0-28.1
			c0-3.3,0-6.5,0-9.8c0-0.5-0.1-0.7-0.7-0.7c-1,0-2.1,0-3.1,0c-0.6,0-1-0.3-1-0.8c0-0.6,0.4-0.9,1-0.9c1.2,0,2.3,0,3.5,0
			c1.1,0,2,0.9,2,2.1c0,12.8,0,25.6,0,38.4c0,1.7-0.8,2.4-2.5,2.4C71.6,81.7,63.3,81.7,55,81.7z"/>
		<path class="st2" d="M77.7,34.5c-0.3,0.5-0.5,1-0.8,1.4c-3.9,4-7.9,7.9-11.8,11.9c-1.3,1.3-2.6,2.6-3.9,3.8
			c-0.1,0.1-0.3,0.3-0.5,0.3c-2.6,0.8-5.2,1.7-7.8,2.5c-0.3,0.1-0.8,0-1-0.2c-0.2-0.2-0.3-0.7-0.2-1c0.7-2.6,1.5-5.3,2.3-7.9
			c0.1-0.3,0.3-0.6,0.5-0.8C59.6,39.4,64.8,34.2,70,29c0.9-0.9,2.1-0.9,3,0c1.4,1.4,2.8,2.7,4.1,4.2C77.4,33.5,77.5,34,77.7,34.5z
			 M60.6,49.8c3.6-3.6,7.2-7.2,10.7-10.7c-1.5-1.5-2.9-3-4.4-4.5c-3.6,3.6-7.2,7.2-10.8,10.8C57.6,46.8,59.1,48.3,60.6,49.8z
			 M72.6,37.8c1.1-1.1,2.2-2.1,3.2-3.2c0.1-0.1,0-0.3,0-0.4c-1.3-1.3-2.7-2.7-4-4c-0.1-0.1-0.4-0.1-0.5,0c-0.6,0.6-1.2,1.2-1.8,1.8
			c-0.4,0.4-0.9,0.9-1.3,1.2C69.6,34.8,71.1,36.3,72.6,37.8z M58.9,50.7c-1.2-1.2-2.4-2.4-3.6-3.6c-0.5,1.7-1,3.5-1.5,5.3
			C55.5,51.7,57.2,51.2,58.9,50.7z"/>
	</g>
</g>
</svg>
