<?xml version="1.0" encoding="utf-8"?>
<!-- Generator: Adobe Illustrator 24.3.0, SVG Export Plug-In . SVG Version: 6.00 Build 0)  -->
<svg version="1.1" id="Layer_1" xmlns="http://www.w3.org/2000/svg" xmlns:xlink="http://www.w3.org/1999/xlink" x="0px" y="0px"
	 viewBox="0 0 110 110" style="enable-background:new 0 0 110 110;" xml:space="preserve">
<style type="text/css">
	.st0{fill:#603813;}
	.st1{fill:#B98840;}
	.st2{fill:#EBEBEB;}
	.st3{fill:#B27E2B;}
	.st4{fill:none;stroke:#B27E2B;stroke-width:0.5;stroke-miterlimit:10;}
	.st5{fill:#FFFFFF;}
	.st6{fill:none;stroke:#5E3714;stroke-width:0.75;stroke-miterlimit:10;}
	.st7{fill:#5E3714;}
	.st8{fill:#E1E1E1;}
	.st9{clip-path:url(#SVGID_6_);fill:url(#SVGID_7_);}
	.st10{clip-path:url(#SVGID_9_);fill:url(#SVGID_10_);}
	.st11{clip-path:url(#SVGID_12_);fill:url(#SVGID_13_);}
	.st12{clip-path:url(#SVGID_15_);fill:url(#SVGID_16_);}
	.st13{clip-path:url(#SVGID_18_);fill:url(#SVGID_19_);}
	.st14{clip-path:url(#SVGID_21_);fill:url(#SVGID_22_);}
	.st15{clip-path:url(#SVGID_24_);fill:url(#SVGID_25_);}
	.st16{clip-path:url(#SVGID_27_);fill:url(#SVGID_28_);}
	.st17{clip-path:url(#SVGID_30_);fill:url(#SVGID_31_);}
	.st18{clip-path:url(#SVGID_33_);fill:url(#SVGID_34_);}
	.st19{clip-path:url(#SVGID_36_);fill:url(#SVGID_37_);}
	.st20{clip-path:url(#SVGID_39_);fill:url(#SVGID_40_);}
	.st21{clip-path:url(#SVGID_42_);fill:url(#SVGID_43_);}
	.st22{clip-path:url(#SVGID_45_);fill:url(#SVGID_46_);}
	.st23{clip-path:url(#SVGID_48_);fill:url(#SVGID_49_);}
	.st24{clip-path:url(#SVGID_51_);fill:url(#SVGID_52_);}
	.st25{clip-path:url(#SVGID_54_);fill:url(#SVGID_55_);}
	.st26{clip-path:url(#SVGID_57_);fill:url(#SVGID_58_);}
	.st27{clip-path:url(#SVGID_60_);fill:url(#SVGID_61_);}
	.st28{clip-path:url(#SVGID_63_);fill:url(#SVGID_64_);}
	.st29{clip-path:url(#SVGID_66_);fill:url(#SVGID_67_);}
	.st30{clip-path:url(#SVGID_69_);fill:url(#SVGID_70_);}
	.st31{clip-path:url(#SVGID_72_);fill:url(#SVGID_73_);}
	.st32{clip-path:url(#SVGID_75_);fill:url(#SVGID_76_);}
	.st33{clip-path:url(#SVGID_78_);fill:url(#SVGID_79_);}
	.st34{clip-path:url(#SVGID_81_);fill:url(#SVGID_82_);}
	.st35{clip-path:url(#SVGID_84_);fill:url(#SVGID_85_);}
	.st36{clip-path:url(#SVGID_87_);fill:url(#SVGID_88_);}
	.st37{clip-path:url(#SVGID_90_);fill:url(#SVGID_91_);}
	.st38{clip-path:url(#SVGID_93_);fill:url(#SVGID_94_);}
	.st39{clip-path:url(#SVGID_96_);fill:url(#SVGID_97_);}
	.st40{clip-path:url(#SVGID_99_);fill:url(#SVGID_100_);}
	.st41{clip-path:url(#SVGID_102_);fill:url(#SVGID_103_);}
	.st42{clip-path:url(#SVGID_105_);fill:url(#SVGID_106_);}
	.st43{clip-path:url(#SVGID_108_);fill:url(#SVGID_109_);}
	.st44{clip-path:url(#SVGID_111_);fill:url(#SVGID_112_);}
	.st45{clip-path:url(#SVGID_114_);fill:url(#SVGID_115_);}
	.st46{clip-path:url(#SVGID_117_);fill:url(#SVGID_118_);}
	.st47{clip-path:url(#SVGID_120_);fill:url(#SVGID_121_);}
	.st48{clip-path:url(#SVGID_123_);fill:url(#SVGID_124_);}
	.st49{clip-path:url(#SVGID_126_);fill:url(#SVGID_127_);}
	.st50{clip-path:url(#SVGID_129_);fill:url(#SVGID_130_);}
	.st51{clip-path:url(#SVGID_132_);fill:url(#SVGID_133_);}
	.st52{clip-path:url(#SVGID_135_);fill:url(#SVGID_136_);}
	.st53{clip-path:url(#SVGID_138_);fill:url(#SVGID_139_);}
	.st54{clip-path:url(#SVGID_141_);fill:url(#SVGID_142_);}
	.st55{clip-path:url(#SVGID_144_);fill:url(#SVGID_145_);}
	.st56{clip-path:url(#SVGID_147_);fill:url(#SVGID_148_);}
	.st57{clip-path:url(#SVGID_150_);fill:url(#SVGID_151_);}
	.st58{clip-path:url(#SVGID_153_);fill:url(#SVGID_154_);}
	.st59{clip-path:url(#SVGID_156_);fill:url(#SVGID_157_);}
	.st60{clip-path:url(#SVGID_159_);fill:url(#SVGID_160_);}
	.st61{clip-path:url(#SVGID_162_);fill:url(#SVGID_163_);}
	.st62{clip-path:url(#SVGID_165_);fill:url(#SVGID_166_);}
	.st63{clip-path:url(#SVGID_168_);fill:url(#SVGID_169_);}
</style>
<circle class="st1" cx="55" cy="55" r="52.2"/>
<g>
	<path class="st2" d="M36.5,33.5c0.2-1.1,0.4-2.1,0.7-3.3c0.8,0,1.6-0.1,2.3,0c5,1,9.9,2,14.9,3c1.1,0.2,2.1,0.3,3.2,0.3
		c4.3,0,8.6,0,12.9,0c2.9,0,3.9,0.8,4.3,3.8c0.6,0.2,1.2,0.4,2.2,0.7c-0.2,0.7-0.4,1.4-0.6,2.2c-12.5-2.5-24.8-5-37.2-7.5
		c-0.4,2.3-0.8,4.5-1.2,7c-0.8-0.2-1.4-0.3-2.1-0.5c0.1-1.1,0.1-2,0.2-3c-0.7,0-1.4,0.1-2.3,0.1c-0.2,0.8-0.5,1.6-0.7,2.5
		c2.9,2.1,6.1,1.2,8.9,1.6c0.3-1.6,0.5-3.1,0.8-4.5c1.8-0.5,12.6,1.9,13.6,3c-0.1,0.4-0.3,0.8-0.4,1.4c0.5,0,0.9,0.1,1.4,0.1
		c6.7-0.1,13.3-0.1,20-0.2c2.8,0,3.9,1.1,4,3.9c0,3.5,0,7.1,0,10.8c1.8,0.5,1.8,2,1.8,3.5c-0.1,1.2,0,2.4,0,3.5
		c0.1,1.5,0,2.8-1.8,3.3c0,3.7,0,7.3,0,10.8c0,2.6-1.2,3.8-3.8,3.8c-13.5,0-27,0-40.5,0c-6.1,0-9.8-3.6-9.8-9.8
		C27,60.6,27,51.1,27,41.6c0-4.2,3-7.3,7.5-7.9C35.1,33.7,35.7,33.6,36.5,33.5z M30.7,38.2c-1.1,1-1.3,2.3-1.3,3.6
		c0,9.4,0,18.7,0,28.1c0,4.9,2.6,7.5,7.5,7.5c13.4,0,26.8,0,40.2,0c0.5,0,1-0.2,1.6-0.2c0-4,0-7.9,0-11.9c-0.5,0-1-0.1-1.5-0.1
		c-2.2,0-4.3,0-6.5,0c-2.3,0-2.9-0.7-2.9-2.9c0-1.5,0-3.1,0-4.6c0-2,0.7-2.8,2.7-2.8c1.9-0.1,3.7,0,5.6,0c0.9,0,1.7,0,2.5,0
		c0-4.2,0-8.2,0-12.3c-0.8,0-1.4,0-2,0c-12.2,0-24.5,0.1-36.7,0.1c-1.5,0-3.1-0.1-4.6-0.3C33.1,41.9,31.2,41,30.7,38.2z M80.7,57.2
		c-3.6,0-7.1,0-10.6,0c0,2,0,3.9,0,5.8c3.6,0,7.1,0,10.6,0C80.7,61,80.7,59.1,80.7,57.2z M53.8,40.2c0-0.1,0-0.1,0-0.2
		c-3-0.7-6-1.3-9.1-2c-0.2,0.8-0.4,1.5-0.6,2.2C47.4,40.2,50.6,40.2,53.8,40.2z M72,36.8c0-0.1,0.1-0.3,0.1-0.4
		c-1-0.9-2.2-0.3-3.3-0.2C69.8,36.4,70.9,36.6,72,36.8z"/>
</g>
</svg>
