<svg id="Layer_1" data-name="Layer 1" xmlns="http://www.w3.org/2000/svg" xmlns:xlink="http://www.w3.org/1999/xlink" viewBox="0 0 84.19 96.07"><defs><linearGradient id="linear-gradient" x1="50" y1="100.03" x2="50" y2="3.97" gradientTransform="matrix(1, 0, 0, -1, 0, 102)" gradientUnits="userSpaceOnUse"><stop offset="0" stop-color="#a06878"/><stop offset="1" stop-color="#6d3946"/></linearGradient></defs><title>my scheme</title><path d="M71.05,31.88V23a21.17,21.17,0,0,0-1.6-8,21.06,21.06,0,0,0-38.9,0A21.17,21.17,0,0,0,29,23V44.06a3,3,0,1,0,6,0V37.9H59v-6H35V23A15,15,0,1,1,65,23v20.9a3,3,0,1,0,6,0v-6h15V92H13.92V37.9h9v-6H7.9V92.29A5.75,5.75,0,0,0,13.65,98h72.7a5.75,5.75,0,0,0,5.75-5.74V31.88Z" transform="translate(-7.9 -1.97)" fill="url(#linear-gradient)"/></svg>