<?xml version="1.0" encoding="utf-8"?>
<!-- Generator: Adobe Illustrator 24.3.0, SVG Export Plug-In . SVG Version: 6.00 Build 0)  -->
<svg version="1.1" id="Layer_1" xmlns="http://www.w3.org/2000/svg" xmlns:xlink="http://www.w3.org/1999/xlink" x="0px" y="0px"
	 viewBox="0 0 110 110" style="enable-background:new 0 0 110 110;" xml:space="preserve">
<style type="text/css">
	.st0{fill:#603813;}
	.st1{fill:#B98840;}
	.st2{fill:#EBEBEB;}
	.st3{fill:#B27E2B;}
	.st4{fill:none;stroke:#B27E2B;stroke-width:0.5;stroke-miterlimit:10;}
	.st5{fill:#FFFFFF;}
	.st6{fill:none;stroke:#5E3714;stroke-width:0.75;stroke-miterlimit:10;}
	.st7{fill:#5E3714;}
	.st8{fill:#E1E1E1;}
	.st9{clip-path:url(#SVGID_6_);fill:url(#SVGID_7_);}
	.st10{clip-path:url(#SVGID_9_);fill:url(#SVGID_10_);}
	.st11{clip-path:url(#SVGID_12_);fill:url(#SVGID_13_);}
	.st12{clip-path:url(#SVGID_15_);fill:url(#SVGID_16_);}
	.st13{clip-path:url(#SVGID_18_);fill:url(#SVGID_19_);}
	.st14{clip-path:url(#SVGID_21_);fill:url(#SVGID_22_);}
	.st15{clip-path:url(#SVGID_24_);fill:url(#SVGID_25_);}
	.st16{clip-path:url(#SVGID_27_);fill:url(#SVGID_28_);}
	.st17{clip-path:url(#SVGID_30_);fill:url(#SVGID_31_);}
	.st18{clip-path:url(#SVGID_33_);fill:url(#SVGID_34_);}
	.st19{clip-path:url(#SVGID_36_);fill:url(#SVGID_37_);}
	.st20{clip-path:url(#SVGID_39_);fill:url(#SVGID_40_);}
	.st21{clip-path:url(#SVGID_42_);fill:url(#SVGID_43_);}
	.st22{clip-path:url(#SVGID_45_);fill:url(#SVGID_46_);}
	.st23{clip-path:url(#SVGID_48_);fill:url(#SVGID_49_);}
	.st24{clip-path:url(#SVGID_51_);fill:url(#SVGID_52_);}
	.st25{clip-path:url(#SVGID_54_);fill:url(#SVGID_55_);}
	.st26{clip-path:url(#SVGID_57_);fill:url(#SVGID_58_);}
	.st27{clip-path:url(#SVGID_60_);fill:url(#SVGID_61_);}
	.st28{clip-path:url(#SVGID_63_);fill:url(#SVGID_64_);}
	.st29{clip-path:url(#SVGID_66_);fill:url(#SVGID_67_);}
	.st30{clip-path:url(#SVGID_69_);fill:url(#SVGID_70_);}
	.st31{clip-path:url(#SVGID_72_);fill:url(#SVGID_73_);}
	.st32{clip-path:url(#SVGID_75_);fill:url(#SVGID_76_);}
	.st33{clip-path:url(#SVGID_78_);fill:url(#SVGID_79_);}
	.st34{clip-path:url(#SVGID_81_);fill:url(#SVGID_82_);}
	.st35{clip-path:url(#SVGID_84_);fill:url(#SVGID_85_);}
	.st36{clip-path:url(#SVGID_87_);fill:url(#SVGID_88_);}
	.st37{clip-path:url(#SVGID_90_);fill:url(#SVGID_91_);}
	.st38{clip-path:url(#SVGID_93_);fill:url(#SVGID_94_);}
	.st39{clip-path:url(#SVGID_96_);fill:url(#SVGID_97_);}
	.st40{clip-path:url(#SVGID_99_);fill:url(#SVGID_100_);}
	.st41{clip-path:url(#SVGID_102_);fill:url(#SVGID_103_);}
	.st42{clip-path:url(#SVGID_105_);fill:url(#SVGID_106_);}
	.st43{clip-path:url(#SVGID_108_);fill:url(#SVGID_109_);}
	.st44{clip-path:url(#SVGID_111_);fill:url(#SVGID_112_);}
	.st45{clip-path:url(#SVGID_114_);fill:url(#SVGID_115_);}
	.st46{clip-path:url(#SVGID_117_);fill:url(#SVGID_118_);}
	.st47{clip-path:url(#SVGID_120_);fill:url(#SVGID_121_);}
	.st48{clip-path:url(#SVGID_123_);fill:url(#SVGID_124_);}
	.st49{clip-path:url(#SVGID_126_);fill:url(#SVGID_127_);}
	.st50{clip-path:url(#SVGID_129_);fill:url(#SVGID_130_);}
	.st51{clip-path:url(#SVGID_132_);fill:url(#SVGID_133_);}
	.st52{clip-path:url(#SVGID_135_);fill:url(#SVGID_136_);}
	.st53{clip-path:url(#SVGID_138_);fill:url(#SVGID_139_);}
	.st54{clip-path:url(#SVGID_141_);fill:url(#SVGID_142_);}
	.st55{clip-path:url(#SVGID_144_);fill:url(#SVGID_145_);}
	.st56{clip-path:url(#SVGID_147_);fill:url(#SVGID_148_);}
	.st57{clip-path:url(#SVGID_150_);fill:url(#SVGID_151_);}
	.st58{clip-path:url(#SVGID_153_);fill:url(#SVGID_154_);}
	.st59{clip-path:url(#SVGID_156_);fill:url(#SVGID_157_);}
	.st60{clip-path:url(#SVGID_159_);fill:url(#SVGID_160_);}
	.st61{clip-path:url(#SVGID_162_);fill:url(#SVGID_163_);}
	.st62{clip-path:url(#SVGID_165_);fill:url(#SVGID_166_);}
	.st63{clip-path:url(#SVGID_168_);fill:url(#SVGID_169_);}
</style>
<g>
	<defs>
		<path id="SVGID_1_" d="M-278.4-431.2h-935.8c-22.2,0-40.1-18-40.1-40.1v-370.2c0-22.2,18-40.1,40.1-40.1h935.8
			c22.2,0,40.1,18,40.1,40.1v370.2C-238.2-449.1-256.2-431.2-278.4-431.2z"/>
	</defs>
	<clipPath id="SVGID_2_">
		<use xlink:href="#SVGID_1_"  style="overflow:visible;"/>
	</clipPath>
	<g transform="matrix(1 0 0 1 -1.220703e-04 0)" style="clip-path:url(#SVGID_2_);">
		
			<image style="overflow:visible;" width="2304" height="4096" xlink:href="D5B0040D.jpg"  transform="matrix(0.7821 0 0 0.7821 -1655.9083 -1871.1245)">
		</image>
	</g>
</g>
<circle class="st1" cx="55" cy="55" r="52.2"/>
<g>
	<path class="st2" d="M38.4,71.6c-0.6,0-1.1,0-1.6,0c-2.1,0-3.7-1.6-3.8-3.7c0-0.5,0-1,0-1.6c-0.6,0-1.2,0-1.8,0
		c-1,0-1.9-0.4-2.7-1.1c-0.7-0.8-1.1-1.7-1.1-2.7c0-5,0-10,0-14.9c0-3.5,0-7,0-10.5c0-2.3,1.6-3.9,3.9-3.9c12.2,0,24.3,0,36.5,0
		c2.2,0,3.8,1.6,3.8,3.8c0,0.5,0,1,0,1.5c0.6,0,1.1,0,1.6,0c2.4,0,4,1.6,4,4c0,0.4,0,0.9,0,1.4c0.5,0,1,0,1.4,0c2.4,0,4,1.6,4,4
		c0,8.4,0,16.8,0,25.2c0,2.4-1.5,4-4,4c-12.1,0-24.1,0-36.2,0c-2.5,0-4-1.5-4-4C38.4,72.5,38.4,72.1,38.4,71.6z M41.7,75.3
		c0.1-0.2,0.2-0.4,0.2-0.6c2.8-7.3,5.6-14.7,8.4-22c0.1-0.4,0.3-0.7,0.8-0.7c0.4,0,0.6,0.3,0.8,0.6c1.1,2.8,2.3,5.7,3.4,8.5
		c0.5,1.3,1,2.6,1.6,4c0.1-0.3,0.3-0.5,0.4-0.7c1.2-2.5,2.3-5.1,3.5-7.6c0.1-0.3,0.5-0.5,0.7-0.6c0.2,0,0.6,0.2,0.7,0.5
		c2,3.7,4,7.4,6,11.2c0.2,0.4,0.5,0.9,0.8,1.4c0.1-0.3,0.1-0.4,0.2-0.6c0.8-2.8,1.6-5.6,2.4-8.4c0.1-0.4,0.3-0.7,0.7-0.7
		c0.5-0.1,0.7,0.2,0.9,0.6c2.4,4.6,4.7,9.3,7.1,13.9c0.1,0.1,0.2,0.3,0.3,0.5c0.4-0.5,0.5-1.1,0.5-1.6c0-8.5,0-16.9,0-25.4
		c0-1.4-0.9-2.3-2.3-2.3c-12.2,0-24.3,0-36.5,0c-1.4,0-2.3,0.9-2.3,2.3c0,3.1,0,6.1,0,9.2c0,5.3,0,10.6,0,15.9c0,0.2,0,0.4,0,0.6
		C40,74.3,40.7,75,41.7,75.3z M70,38.4c0-0.7,0-1.3,0-1.9c-0.1-1.1-1.1-1.9-2.4-1.9c-11.8,0-23.5,0-35.3,0c-0.4,0-0.9,0-1.3,0
		c-1.2,0-2.1,1-2.1,2.1c0,8.6,0,17.1,0,25.7c0,1.1,0.7,2,1.8,2.2c0.7,0.1,1.5,0,2.3,0c0-0.2,0-0.4,0-0.6c0-7.3,0-14.5,0-21.8
		c0-0.9,0.2-1.7,0.7-2.3c0.8-1,1.8-1.5,3.2-1.5c10.8,0,21.6,0,32.4,0C69.5,38.4,69.7,38.4,70,38.4z M75.6,43.7c0-0.5,0-0.9,0-1.4
		c0-1.6-0.9-2.4-2.4-2.4c-12.1,0-24.2,0-36.2,0c-1.6,0-2.4,0.9-2.4,2.5c0,6.6,0,13.3,0,19.9c0,1.8,0,3.7,0,5.5c0,0.9,0.5,1.8,1.4,2
		c0.8,0.2,1.6,0.2,2.5,0.2c0-0.3,0-0.5,0-0.7c0-7.2,0-14.5,0-21.7c0-0.3,0-0.6,0.1-0.9c0.4-1.9,1.9-3.1,3.8-3.1
		c10.9,0,21.7,0,32.6,0C75.1,43.7,75.4,43.7,75.6,43.7z M59.4,75.4c-2.8-6.8-5.5-13.6-8.3-20.5c-2.6,6.9-5.2,13.7-7.8,20.5
		C48.7,75.4,54,75.4,59.4,75.4z M70.5,75.4c-3-5.6-5.9-11.1-8.9-16.7c-0.1,0.1-0.1,0.1-0.1,0.2c-1.2,2.6-2.4,5.3-3.6,7.9
		c-0.1,0.2-0.1,0.4,0,0.6c1,2.5,2,5,3,7.5c0.1,0.3,0.3,0.4,0.6,0.4c2.4,0,4.9,0,7.3,0C69.3,75.4,69.9,75.4,70.5,75.4z M72.6,62.4
		c-0.1,0.2-0.1,0.2-0.1,0.3c-0.8,2.7-1.6,5.5-2.4,8.2c-0.1,0.2,0,0.4,0.1,0.6c0.6,1.2,1.3,2.3,1.9,3.5c0.1,0.3,0.3,0.4,0.6,0.4
		c2,0,4,0,6,0c0.2,0,0.3,0,0.5,0C77,71,74.8,66.8,72.6,62.4z"/>
	<path class="st2" d="M75.3,54.1c-1.6,0-2.8-1.3-2.8-2.9c0-1.6,1.3-2.9,2.9-2.9c1.6,0,2.9,1.3,2.9,2.9
		C78.1,52.9,76.9,54.1,75.3,54.1z M76.6,51.3c0-0.7-0.6-1.3-1.3-1.4c-0.7,0-1.3,0.6-1.3,1.3c0,0.8,0.6,1.4,1.3,1.4
		C76,52.6,76.6,52,76.6,51.3z"/>
</g>
</svg>
