<?xml version="1.0" encoding="utf-8"?>
<!-- Generator: Adobe Illustrator 22.1.0, SVG Export Plug-In . SVG Version: 6.00 Build 0)  -->
<svg version="1.1" id="Layer_1" xmlns="http://www.w3.org/2000/svg" xmlns:xlink="http://www.w3.org/1999/xlink" x="0px" y="0px"
	 viewBox="0 0 100 100" style="enable-background:new 0 0 100 100;" xml:space="preserve">
<style type="text/css">
	.st0{fill:url(#SVGID_1_);stroke:#FFFFFF;stroke-width:1.6063;}
	.st1{fill:#75404E;}
	.st2{fill:#774250;}
</style>
<linearGradient id="SVGID_1_" gradientUnits="userSpaceOnUse" x1="49.9375" y1="99.25" x2="49.9375" y2="2.875" gradientTransform="matrix(1 0 0 -1 0 101)">
	<stop  offset="0" style="stop-color:#A06878"/>
	<stop  offset="1" style="stop-color:#6D3946"/>
</linearGradient>
<path class="st0" d="M62,54.5c0,10,8.1,18.1,18.1,18.1s18.1-8.1,18.1-18.1h-2.7L83.7,24.6c0.7-0.6,1.3-1.3,1.7-2.1
	c0.4-0.8,0.6-1.7,0.6-2.7c0-3.3-2.7-6-6-6c-0.9,0-1.7,0.2-2.5,0.5c-1.2-0.5-2.5-1-3.7-1.5c-4.6-1.9-10-4.1-15.5-5.3
	c-0.7-1.7-1.8-3.2-3.3-4.2c-1.5-1-3.3-1.6-5.1-1.6c-1.8,0-3.6,0.6-5.1,1.6c-1.5,1-2.7,2.5-3.3,4.2C35.9,8.8,30.6,11,26,12.9
	c-1,0.4-2.5,1-3.7,1.5c-0.8-0.4-1.6-0.5-2.5-0.5c-1.6,0-3.1,0.6-4.3,1.8s-1.8,2.7-1.8,4.3c0,0.9,0.2,1.8,0.6,2.7
	c0.4,0.8,1,1.5,1.7,2.1L4.4,54.5H1.8c0,10,8.1,18.1,18.1,18.1c10,0,18.1-8.1,18.1-18.1h-2.7L23.5,24.6c0.7-0.6,1.3-1.3,1.7-2.1
	c0.4-0.8,0.6-1.7,0.6-2.7c0-0.1,0-0.3,0-0.4l1.5-0.6c4.2-1.7,9.1-3.7,14.1-5c0.5,1.3,1.2,2.4,2.1,3.3c0.9,0.9,2.1,1.7,3.4,2.1v9.2
	h-1.8v29h-2v14.2c-10,1.8-17.2,7.6-17.2,14.4h-3v6h-6v6h66.3v-6h-6v-6h-3c0-6.8-7.3-12.6-17.2-14.4V57.5h-2v-29h-1.8v-9.2
	c1.3-0.4,2.4-1.2,3.4-2.1c0.9-0.9,1.7-2.1,2.1-3.3c5,1.2,9.9,3.2,14.1,5c0.5,0.2,1,0.4,1.5,0.6c0,0.1,0,0.3,0,0.4
	c0,0.9,0.2,1.8,0.6,2.7c0.4,0.8,1,1.5,1.7,2.1L64.7,54.5L62,54.5z M19.8,16.8c0.4,0,0.8,0.1,1.2,0.2c0.4,0.1,0.7,0.4,1,0.6
	c0.3,0.3,0.5,0.6,0.7,1c0.2,0.4,0.2,0.8,0.2,1.2c0,0.4-0.1,0.8-0.2,1.2c-0.2,0.4-0.4,0.7-0.7,1c-0.3,0.3-0.6,0.5-1,0.6
	c-0.4,0.1-0.8,0.2-1.2,0.2c-0.8,0-1.5-0.3-2.1-0.9c-0.5-0.6-0.9-1.3-0.9-2.1c0-0.8,0.3-1.5,0.9-2.1C18.3,17.2,19,16.8,19.8,16.8z
	 M32.1,54.5H7.5l11.3-28.7c0.3,0.1,0.7,0.1,1,0.1c0.3,0,0.7,0,1-0.1L32.1,54.5z M80.1,16.8c0.4,0,0.8,0.1,1.2,0.2
	c0.4,0.1,0.7,0.4,1,0.6c0.3,0.3,0.5,0.6,0.7,1c0.2,0.4,0.2,0.8,0.2,1.2c0,0.4-0.1,0.8-0.2,1.2c-0.2,0.4-0.4,0.7-0.7,1
	c-0.3,0.3-0.6,0.5-1,0.6c-0.4,0.1-0.8,0.2-1.2,0.2c-0.8,0-1.5-0.3-2.1-0.9c-0.5-0.6-0.9-1.3-0.9-2.1c0-0.8,0.3-1.5,0.9-2.1
	C78.5,17.2,79.3,16.8,80.1,16.8z M79.1,25.7c0.3,0.1,0.7,0.1,1,0.1c0.3,0,0.7,0,1-0.1l11.3,28.7H67.8L79.1,25.7z"/>
<path class="st1" d="M36.7,53.2H7.9v-2.1h26.7V36.7h2.1V53.2z"/>
<path class="st1" d="M30.5,32.6V47H5.9V32.6H30.5z M32.6,30.5H3.8V49h28.8V30.5z"/>
<path class="st1" d="M10,36.7H7.9v6.2H10v2.1h8.2c-1.4,0-2.7-0.5-3.6-1.5c-1-1-1.5-2.3-1.5-3.6s0.5-2.7,1.5-3.6c1-1,2.3-1.5,3.6-1.5
	H10V36.7z"/>
<path class="st1" d="M26.4,36.7v-2.1h-8.2c1.4,0,2.7,0.5,3.6,1.5c1,1,1.5,2.3,1.5,3.6s-0.5,2.7-1.5,3.6c-1,1-2.3,1.5-3.6,1.5h8.2
	v-2.1h2.1v-6.2H26.4z"/>
<path class="st2" d="M64.1,52.6l1.6-10c0-0.2,0.2-0.3,0.3-0.3h10.5c0.2,0,0.3,0.1,0.3,0.3l1.6,10c0,0,0,0,0,0.1
	c0,0.2-0.1,0.3-0.3,0.3H64.4c0,0,0,0-0.1,0C64.2,53,64,52.8,64.1,52.6L64.1,52.6z M82.9,42.7c0-0.2,0.2-0.3,0.3-0.3h10.5
	c0.2,0,0.3,0.1,0.3,0.3l1.6,10c0,0,0,0,0,0.1c0,0.2-0.1,0.3-0.3,0.3H81.6c0,0,0,0-0.1,0c-0.2,0-0.3-0.2-0.3-0.4L82.9,42.7L82.9,42.7
	z M86.7,39.2H73c0,0,0,0-0.1,0c-0.2,0-0.3-0.2-0.3-0.4l1.6-10c0-0.2,0.2-0.3,0.3-0.3h10.5c0.2,0,0.3,0.1,0.3,0.3l1.6,10
	c0,0,0,0,0,0.1C87,39.1,86.9,39.2,86.7,39.2z"/>
</svg>
