<?xml version="1.0" encoding="utf-8"?>
<!-- Generator: Adobe Illustrator 24.3.0, SVG Export Plug-In . SVG Version: 6.00 Build 0)  -->
<svg version="1.1" id="Layer_1" xmlns="http://www.w3.org/2000/svg" xmlns:xlink="http://www.w3.org/1999/xlink" x="0px" y="0px"
	 viewBox="0 0 110 110" style="enable-background:new 0 0 110 110;" xml:space="preserve">
<style type="text/css">
	.st0{fill:#603813;}
	.st1{fill:#B98840;}
	.st2{fill:#EBEBEB;}
	.st3{fill:#B27E2B;}
	.st4{fill:none;stroke:#B27E2B;stroke-width:0.5;stroke-miterlimit:10;}
	.st5{fill:#FFFFFF;}
	.st6{fill:none;stroke:#5E3714;stroke-width:0.75;stroke-miterlimit:10;}
	.st7{fill:#5E3714;}
	.st8{fill:#E1E1E1;}
	.st9{clip-path:url(#SVGID_6_);fill:url(#SVGID_7_);}
	.st10{clip-path:url(#SVGID_9_);fill:url(#SVGID_10_);}
	.st11{clip-path:url(#SVGID_12_);fill:url(#SVGID_13_);}
	.st12{clip-path:url(#SVGID_15_);fill:url(#SVGID_16_);}
	.st13{clip-path:url(#SVGID_18_);fill:url(#SVGID_19_);}
	.st14{clip-path:url(#SVGID_21_);fill:url(#SVGID_22_);}
	.st15{clip-path:url(#SVGID_24_);fill:url(#SVGID_25_);}
	.st16{clip-path:url(#SVGID_27_);fill:url(#SVGID_28_);}
	.st17{clip-path:url(#SVGID_30_);fill:url(#SVGID_31_);}
	.st18{clip-path:url(#SVGID_33_);fill:url(#SVGID_34_);}
	.st19{clip-path:url(#SVGID_36_);fill:url(#SVGID_37_);}
	.st20{clip-path:url(#SVGID_39_);fill:url(#SVGID_40_);}
	.st21{clip-path:url(#SVGID_42_);fill:url(#SVGID_43_);}
	.st22{clip-path:url(#SVGID_45_);fill:url(#SVGID_46_);}
	.st23{clip-path:url(#SVGID_48_);fill:url(#SVGID_49_);}
	.st24{clip-path:url(#SVGID_51_);fill:url(#SVGID_52_);}
	.st25{clip-path:url(#SVGID_54_);fill:url(#SVGID_55_);}
	.st26{clip-path:url(#SVGID_57_);fill:url(#SVGID_58_);}
	.st27{clip-path:url(#SVGID_60_);fill:url(#SVGID_61_);}
	.st28{clip-path:url(#SVGID_63_);fill:url(#SVGID_64_);}
	.st29{clip-path:url(#SVGID_66_);fill:url(#SVGID_67_);}
	.st30{clip-path:url(#SVGID_69_);fill:url(#SVGID_70_);}
	.st31{clip-path:url(#SVGID_72_);fill:url(#SVGID_73_);}
	.st32{clip-path:url(#SVGID_75_);fill:url(#SVGID_76_);}
	.st33{clip-path:url(#SVGID_78_);fill:url(#SVGID_79_);}
	.st34{clip-path:url(#SVGID_81_);fill:url(#SVGID_82_);}
	.st35{clip-path:url(#SVGID_84_);fill:url(#SVGID_85_);}
	.st36{clip-path:url(#SVGID_87_);fill:url(#SVGID_88_);}
	.st37{clip-path:url(#SVGID_90_);fill:url(#SVGID_91_);}
	.st38{clip-path:url(#SVGID_93_);fill:url(#SVGID_94_);}
	.st39{clip-path:url(#SVGID_96_);fill:url(#SVGID_97_);}
	.st40{clip-path:url(#SVGID_99_);fill:url(#SVGID_100_);}
	.st41{clip-path:url(#SVGID_102_);fill:url(#SVGID_103_);}
	.st42{clip-path:url(#SVGID_105_);fill:url(#SVGID_106_);}
	.st43{clip-path:url(#SVGID_108_);fill:url(#SVGID_109_);}
	.st44{clip-path:url(#SVGID_111_);fill:url(#SVGID_112_);}
	.st45{clip-path:url(#SVGID_114_);fill:url(#SVGID_115_);}
	.st46{clip-path:url(#SVGID_117_);fill:url(#SVGID_118_);}
	.st47{clip-path:url(#SVGID_120_);fill:url(#SVGID_121_);}
	.st48{clip-path:url(#SVGID_123_);fill:url(#SVGID_124_);}
	.st49{clip-path:url(#SVGID_126_);fill:url(#SVGID_127_);}
	.st50{clip-path:url(#SVGID_129_);fill:url(#SVGID_130_);}
	.st51{clip-path:url(#SVGID_132_);fill:url(#SVGID_133_);}
	.st52{clip-path:url(#SVGID_135_);fill:url(#SVGID_136_);}
	.st53{clip-path:url(#SVGID_138_);fill:url(#SVGID_139_);}
	.st54{clip-path:url(#SVGID_141_);fill:url(#SVGID_142_);}
	.st55{clip-path:url(#SVGID_144_);fill:url(#SVGID_145_);}
	.st56{clip-path:url(#SVGID_147_);fill:url(#SVGID_148_);}
	.st57{clip-path:url(#SVGID_150_);fill:url(#SVGID_151_);}
	.st58{clip-path:url(#SVGID_153_);fill:url(#SVGID_154_);}
	.st59{clip-path:url(#SVGID_156_);fill:url(#SVGID_157_);}
	.st60{clip-path:url(#SVGID_159_);fill:url(#SVGID_160_);}
	.st61{clip-path:url(#SVGID_162_);fill:url(#SVGID_163_);}
	.st62{clip-path:url(#SVGID_165_);fill:url(#SVGID_166_);}
	.st63{clip-path:url(#SVGID_168_);fill:url(#SVGID_169_);}
</style>
<circle class="st1" cx="55" cy="55" r="52.2"/>
<g>
	<path class="st2" d="M87.6,44.4c-0.7,0.3-1.3,0.8-2,0.8c-3.3,0.1-6.7,0-10,0.1c-0.6,0-1.3,0.3-1.7,0.8c-2.1,2.4-4.5,4-7.8,4
		c-0.5,0-1,0.4-1.4,0.8c-3.8,3.8-7.7,7.6-11.5,11.4c-1.4,1.4-1.7,1.4-3.1,0C42.5,54.7,34.9,47,27.2,39.4c-1.4-1.4-1.4-1.7-0.1-3.1
		c4.3-4.3,8.7-8.7,13-13c0.3-0.3,0.7-0.6,1.1-1c0.3,0,0.6,0,0.9,0c1.3,1.3,2.7,2.6,4,4c0.5,0.6,1,0.7,1.8,0.4c1.5-0.6,3-1.1,4.5-1.6
		c2.8-1.1,5.7-1,8.4,0.2c2.6,1.2,5.1,2.7,7.7,4c1.3,0.6,2.6,1.1,4,1.7c0.8-3.2,3.3-1.3,4.9-2.1c0.3-2.1,0.4-2.2,2.6-2.2
		c1.9,0,3.9-0.1,5.8,0c0.6,0,1.2,0.5,1.8,0.8C87.6,33.2,87.6,38.8,87.6,44.4z M48.5,29.1c1.3,1.2,2.4,2,3.3,2.9
		c1.2,1.3,2.5,2.1,4.2,2.6c2.1,0.5,4.2,1.3,6.3,2c0.8,0.3,1.5,0.7,1.1,1.7c-0.3,0.9-1,1.1-1.9,0.7c-0.3-0.1-0.6-0.2-0.8-0.3
		c-3.3-1.1-6.7-2.1-10-3.2c-1.3-0.4-2.5,0.1-3.1,1.2c-0.6,1.1-0.3,2.4,0.8,3.2c0.5,0.4,1.2,0.7,1.8,0.9c2.9,1,5.7,1.9,8.6,2.9
		c0.6,0.2,1.2,0.6,1.7,1c3.4,3.8,8.9,3.5,11.7-0.7c0.3-0.4,0.4-1.1,0.5-1.6c0-2.7,0-5.3,0-8c0-1-0.3-1.3-1.3-1.5
		c-1.3-0.2-2.6-0.8-3.8-1.4c-1.9-0.9-3.6-2-5.5-2.9c-1.4-0.7-2.9-1.3-4.4-1.7C54.5,26.3,51.9,28.2,48.5,29.1z M57.5,46
		c-0.9-0.3-2.3-0.8-3.7-1.3c-0.2,0.3-0.2,0.6-0.3,0.8c-1.4,3.3-4.5,5-8.1,4.4c-3-0.5-5.6-3.3-5.9-6.3c-0.3-3.6,1.6-6.5,5.1-7.7
		c0.4-0.1,0.7-0.4,1-0.7c1-0.9,2.1-1.7,3.1-2.6c-0.7-0.6-1.6-1.5-2.5-2.4c-3.1,1.9-6.2,1.9-9.3,0c-1,1-1.9,1.9-2.9,2.9
		c1.9,3.1,1.9,6.3,0,9.3c4.4,4.4,8.6,8.6,12.7,12.7c1.7-0.4,3.3-1.1,4.9-1.1c1.6,0,3.2,0.7,4.8,1.1c0.8-0.8,1.8-1.7,2.4-2.2
		C58.5,50.6,58,48.5,57.5,46z M84.9,42.8c0-4.5,0-9,0-13.5c-1.6,0-3.2,0-4.8,0c0,4.5,0,8.9,0,13.4c0.4,0,0.7,0.1,0.9,0.1
		C82.3,42.8,83.6,42.8,84.9,42.8z M44.9,38.6c-2.3,1-3.3,3-2.8,5.2c0.5,2.3,2.4,3.9,4.7,3.8c2.2-0.1,3.9-1.5,4.4-3.8
		C48.4,43,45.6,42.1,44.9,38.6z M77.4,42.7c0-3.7,0-7.4,0-11c-0.8,0-1.5,0-2.1,0c0,3.7,0,7.3,0,11C76,42.7,76.7,42.7,77.4,42.7z
		 M32.2,35.1c-1,0.9-1.9,1.8-2.8,2.6c1,1,1.8,2,2.7,2.9C33.3,38.8,33.3,37.1,32.2,35.1z M38.8,28.3c1.9,1.2,3.7,1.2,5.5,0
		c-0.9-0.9-1.8-1.9-2.7-2.8C40.7,26.5,39.8,27.4,38.8,28.3z M51.5,60c1.1-0.9,2-1.7,3.1-2.6c-2-1.1-3.8-1.1-5.6-0.1
		C49.9,58.3,50.8,59.2,51.5,60z M61.1,50.9c0.6-0.7,1-1.1,1.5-1.6c-0.9-0.4-1.5-0.7-2.4-1.2C60.5,49.2,60.8,49.9,61.1,50.9z"/>
	<path class="st2" d="M22.4,67.3c0.7-0.2,1.3-0.6,2-0.6c3.3-0.1,6.7,0,10-0.1c0.6,0,1.3-0.4,1.7-0.8c4.3-5,10.3-5.4,15.1-0.8
		c0.4,0.4,0.9,0.7,1.5,0.9c2.5,0.9,5.1,1.8,7.7,2.6c2.1,0.7,3.9,1.7,4.7,3.9c3.3-0.9,6.5-1.8,9.7-2.7c2.3-0.6,4.5,0.1,5.7,1.7
		c1.6,2.2,1.3,5.1-0.8,6.9c-0.7,0.6-1.5,1.1-2.4,1.4c-6.6,2.4-13.3,4.8-20,7.2c-0.6,0.2-1.2,0.4-1.7,0.6c-1.1,0-2.1,0-3.2,0
		c-1.7-0.7-3.4-1.2-5-2c-2.2-1-4.2-2.3-6.4-3.4c-1-0.5-2.2-0.8-3.3-1.2c-0.9,3.1-3.5,1.1-5,2c-0.2,2-0.4,2.2-2.4,2.2
		c-1.9,0-3.9,0.1-5.8,0c-0.7,0-1.3-0.5-2-0.8C22.4,78.7,22.4,73,22.4,67.3z M53.4,85.2c1.2-0.2,2.1-0.3,2.9-0.6
		c6.7-2.4,13.3-4.8,19.9-7.2c0.8-0.3,1.6-0.9,2.1-1.6c1-1.4,0.2-3.3-1.6-3.6c-0.6-0.1-1.4,0-2,0.1c-2.9,0.8-5.9,1.6-8.7,2.5
		c-0.5,0.2-1.1,0.6-1.3,1.1c-1.1,2.3-3.1,3.6-5.5,3c-4-1.1-8-2.4-12-3.8c-0.4-0.1-0.9-1-0.7-1.4c0.1-0.4,0.9-0.7,1.4-0.9
		c0.3-0.1,0.6,0.2,1,0.3c3.4,1.1,6.9,2.2,10.3,3.2c1.4,0.4,2.6-0.1,3.1-1.3c0.5-1.2,0.2-2.5-1.1-3.3c-0.5-0.3-1-0.5-1.6-0.7
		c-2.8-1-5.6-1.9-8.3-2.9c-0.8-0.3-1.6-0.8-2.2-1.4c-3.4-3.5-9-3-11.6,1.2c-0.2,0.4-0.3,0.9-0.3,1.4c0,2.8,0,5.5,0,8.3
		c0,0.8,0.3,1.1,1.1,1.3c1.4,0.4,2.9,0.8,4.2,1.5c2.4,1.1,4.7,2.5,7.1,3.6C50.9,84.6,52.3,84.9,53.4,85.2z M25,82.6
		c1.7,0,3.3,0,4.9,0c0-4.5,0-8.9,0-13.4c-1.7,0-3.2,0-4.9,0C25,73.7,25,78.1,25,82.6z M34.8,80.3c0-3.7,0-7.4,0-11.1
		c-0.8,0-1.4,0-2.2,0c0,3.7,0,7.4,0,11.1C33.3,80.3,34,80.3,34.8,80.3z"/>
	<path class="st2" d="M68.6,39.5c-0.9,0.5-1.4,1.1-1.9,1.1c-0.4,0-0.8-0.8-1.2-1.2c0.5-0.4,0.9-1,1.4-1.1
		C67.4,38.2,67.9,38.9,68.6,39.5z"/>
	<path class="st2" d="M44.9,72.4c-0.8,0.6-1.3,1.3-1.7,1.2c-0.5-0.1-0.9-0.7-1.4-1.1c0.4-0.4,0.7-1.1,1.1-1.2
		C43.5,71.4,44,71.9,44.9,72.4z"/>
</g>
</svg>
