<?xml version="1.0" encoding="utf-8"?>
<!-- Generator: Adobe Illustrator 16.0.0, SVG Export Plug-In . SVG Version: 6.00 Build 0)  -->
<!DOCTYPE svg PUBLIC "-//W3C//DTD SVG 1.1//EN" "http://www.w3.org/Graphics/SVG/1.1/DTD/svg11.dtd">
<svg version="1.1" id="Layer_1" xmlns="http://www.w3.org/2000/svg" xmlns:xlink="http://www.w3.org/1999/xlink" x="0px" y="0px"
	 width="150px" height="150px" viewBox="0 0 150 150" enable-background="new 0 0 150 150" xml:space="preserve">
<circle fill-rule="evenodd" clip-rule="evenodd" fill="#F39D36" cx="74" cy="75" r="73"/>
<path fill-rule="evenodd" clip-rule="evenodd" fill="#FFFFFF" d="M33.359,34.541c0,24.551,0,48.882,0,73.521
	c0.936,0.046,1.839,0.126,2.742,0.128c6.367,0.011,12.734-0.009,19.101,0.013c3.159,0.01,4.85,1.321,4.897,3.707
	c0.049,2.469-1.731,3.86-4.989,3.863c-7.485,0.008-14.971,0.012-22.457,0c-4.564-0.008-6.713-2.036-6.717-6.54
	c-0.026-25.296-0.025-50.592-0.001-75.888c0.004-4.358,2.001-6.342,6.293-6.346c20.822-0.017,41.644-0.016,62.465-0.001
	c4.309,0.003,6.288,1.991,6.305,6.333c0.03,7.743,0.024,15.487,0,23.231c-0.009,2.935-1.42,4.56-3.764,4.477
	c-2.228-0.079-3.51-1.67-3.52-4.479c-0.02-6.625-0.034-13.25,0.014-19.875c0.012-1.502-0.188-2.409-2.047-2.404
	c-18.929,0.049-37.857,0.032-56.786,0.043C34.479,34.324,34.065,34.438,33.359,34.541z"/>
<path fill-rule="evenodd" clip-rule="evenodd" fill="#FFFFFF" d="M64.322,94.129c0.001-15.967,12.866-28.862,28.806-28.874
	c16.105-0.012,28.967,12.869,28.954,28.999c-0.013,15.91-12.954,28.769-28.949,28.761C77.202,123.008,64.322,110.093,64.322,94.129z
	 M71.829,94.138c0.002,11.954,9.505,21.437,21.443,21.395c11.83-0.04,21.257-9.443,21.327-21.276
	c0.071-11.948-9.361-21.453-21.337-21.495C81.28,72.719,71.827,82.147,71.829,94.138z"/>
<path fill-rule="evenodd" clip-rule="evenodd" fill="#FFFFFF" d="M63.619,53.796c-6.359,0-12.717,0.009-19.076-0.004
	c-3.072-0.006-4.88-1.39-4.919-3.708c-0.038-2.328,1.79-3.838,4.808-3.842c12.889-0.019,25.778-0.019,38.667,0
	c2.912,0.004,4.549,1.385,4.593,3.725c0.047,2.436-1.632,3.816-4.739,3.824C76.508,53.808,70.063,53.796,63.619,53.796z"/>
<path fill-rule="evenodd" clip-rule="evenodd" fill="#FFFFFF" d="M51.642,75c-2.829,0-5.658,0.037-8.485-0.012
	c-2.335-0.041-3.883-1.443-3.991-3.485c-0.111-2.089,1.487-3.763,3.926-3.796c5.656-0.076,11.314-0.075,16.97-0.007
	c2.473,0.029,4.073,1.643,3.995,3.732c-0.081,2.142-1.663,3.523-4.185,3.558C57.129,75.032,54.385,75.001,51.642,75z"/>
<path fill-rule="evenodd" clip-rule="evenodd" fill="#FFFFFF" d="M47.904,96.256c-1.721,0.002-3.445,0.078-5.16-0.017
	c-2.136-0.12-3.585-1.669-3.577-3.64c0.009-1.979,1.461-3.534,3.625-3.59c3.353-0.089,6.711-0.082,10.064,0.003
	c2.178,0.056,3.228,1.503,3.41,3.509c0.18,1.99-1.322,3.573-3.459,3.712C51.179,96.339,49.539,96.254,47.904,96.256z"/>
<path fill-rule="evenodd" clip-rule="evenodd" fill="#FFFFFF" d="M90.325,95.992c3.751-3.812,7.048-7.19,10.379-10.536
	c2.146-2.153,4.445-2.419,6.086-0.774c1.618,1.623,1.331,3.919-0.816,6.086c-4.057,4.092-8.127,8.169-12.208,12.234
	c-2.402,2.393-4.179,2.375-6.588-0.029c-2.373-2.368-4.758-4.729-7.093-7.135c-1.79-1.843-1.946-4.252-0.459-5.728
	c1.572-1.559,3.762-1.421,5.682,0.494C86.946,92.24,88.471,93.99,90.325,95.992z"/>
</svg>
