<?xml version="1.0" encoding="utf-8"?>
<!-- Generator: Adobe Illustrator 23.0.5, SVG Export Plug-In . SVG Version: 6.00 Build 0)  -->
<svg version="1.1" id="Layer_1" xmlns="http://www.w3.org/2000/svg" xmlns:xlink="http://www.w3.org/1999/xlink" x="0px" y="0px"
	 viewBox="0 0 500 500" style="enable-background:new 0 0 500 500;" xml:space="preserve">
<style type="text/css">
	.st0{fill:#60340C;}
</style>
<g>
	<path class="st0" d="M128.4,230.2c0-50.2,0-100.5,0-150.7c0-19.5,2.1-21.7,21-21.7c56.7,0,113.4,0.1,170.1-0.2c9-0.1,15.6,2.5,22,9
		c20.5,21.2,41.4,42,62.6,62.6c6.4,6.3,9.1,12.9,9.1,22c-0.3,76.5-0.2,153-0.2,229.5c0,3.7,0.2,7.5-0.5,11
		c-1.1,5.4-4.3,9.2-10.3,9.4c-3.2,0.1-6.4,0.2-9.7,0.2c-81.1,0-162.2,0-243.4,0c-3.2,0-6.5,0-9.7-0.1c-6.6-0.3-10-4.3-10.8-10.5
		c-0.4-3.6-0.2-7.4-0.2-11C128.4,329.7,128.4,279.9,128.4,230.2z M390,379.3c0-75.7,0-150.1,0-225.5c-5.3-0.3-9.8-0.6-14.4-0.7
		c-13.8-0.2-27.6-0.2-41.5-0.5c-13.8-0.3-16.3-2.6-16.6-16.1c-0.3-14.3-0.1-28.6-0.3-42.9c-0.1-4.4-0.7-8.8-1-13
		c-56,0-110.5,0-165.3,0c0,100,0,198.9,0,298.6C230.8,379.3,309.8,379.3,390,379.3z M370.6,131.1c-10.3-10.7-20.6-21.4-30.6-31.9
		c0,10.1,0,20.7,0,31.9C351.4,131.1,361.7,131.1,370.6,131.1z"/>
	<path class="st0" d="M108.9,420.9c7.5,0,12.6,0,17.6,0c74.2,0,148.4,0,222.6,0c5.1,0,10.6-0.7,15,1.1c3.4,1.4,7,5.9,7.8,9.6
		c1.2,5.5-2.6,9.6-8.5,10.5c-3.2,0.5-6.4,0.3-9.7,0.3c-82.5,0-165,0-247.5,0c-17.4,0-19.3-1.9-19.3-18.9c0-104.6,0-209.3,0-313.9
		c0-3.2-0.2-6.5,0.5-9.6c1.2-5.5,4.7-9.2,10.6-9.1c5.8,0,9.5,3.6,10.5,9.2c0.7,4,0.5,8.3,0.5,12.4c0,96.8,0,193.6,0,290.4
		C108.9,408.3,108.9,413.7,108.9,420.9z"/>
	<path class="st0" d="M270,212.7c-22.1,0-44.2,0-66.3,0c-3.2,0-6.5,0.1-9.7-0.2c-5.9-0.5-9.3-4.5-9.7-9.9c-0.4-5.7,3.2-9.5,8.8-10.8
		c3.1-0.7,6.4-0.8,9.6-0.8c45.1,0,90.2,0,135.3,0c2.8,0,5.6,0,8.3,0.3c6.2,0.9,10.5,4.4,10.3,10.9c-0.2,6.2-4.1,10.1-10.7,10.4
		c-3.2,0.1-6.4,0.1-9.7,0.1C314.2,212.7,292.1,212.7,270,212.7z"/>
	<path class="st0" d="M269.8,342.3c-21.7,0-43.3,0-65,0c-3.2,0-6.5,0.1-9.7-0.2c-6.2-0.7-10.6-4.1-10.8-10.5
		c-0.2-6.5,4-10.1,10.2-11c3.2-0.5,6.4-0.3,9.7-0.3c44.2,0,88.4,0,132.7,0c3.2,0,6.5-0.2,9.7,0.3c6.2,1,10.2,4.6,10.1,11.1
		c-0.1,5.8-3.9,9.2-9.5,10.2c-3.1,0.6-6.4,0.4-9.6,0.4C314.9,342.4,292.4,342.3,269.8,342.3z"/>
	<path class="st0" d="M271.6,277.2c-22.1,0-44.1,0-66.2,0c-2.3,0-4.6,0.1-6.9-0.1c-9.4-0.5-14.8-4.7-14.3-11.2
		c0.5-6.1,5.3-9.7,14.2-9.7c39.1-0.1,78.2-0.1,117.2-0.1c9.7,0,19.3-0.2,29,0.1c7.7,0.3,12.2,4.4,12.2,10.3
		c0.1,5.8-4.5,10.3-12.2,10.4C320.4,277.3,296,277.1,271.6,277.2C271.6,277.1,271.6,277.2,271.6,277.2z"/>
</g>
</svg>
