<?xml version="1.0" encoding="utf-8"?>
<!-- Generator: Adobe Illustrator 23.0.5, SVG Export Plug-In . SVG Version: 6.00 Build 0)  -->
<svg version="1.1" id="Layer_1" xmlns="http://www.w3.org/2000/svg" xmlns:xlink="http://www.w3.org/1999/xlink" x="0px" y="0px"
	 viewBox="0 0 500 500" style="enable-background:new 0 0 500 500;" xml:space="preserve">
<style type="text/css">
	.st0{fill:#60340C;}
	.st1{fill:#FFFFFF;stroke:#FFFFFF;stroke-width:8;stroke-miterlimit:10;}
</style>
<path class="st0" d="M292.7,252.4c2,0.7,3.2,1.2,4.4,1.6c55.9,19.7,91,58.3,104.5,116c2.3,9.8,2.4,20.1,3.1,30.2
	c0.4,6.1-2.8,9.5-8,9.5s-8.2-3.4-8.3-9.3c-0.5-32.8-11-62-32.1-87.1c-22.8-27.2-52-43.5-87.3-48.4c-70.5-9.9-134.9,35.8-152.3,100.6
	c-3,11.3-4.8,22.8-4.8,34.6c0,5.6-2.8,9.1-7.3,9.5c-5.7,0.5-9.7-3.3-9.5-9.5c1-34.7,11.4-66.1,32.9-93.6
	c19.5-24.9,44.3-42.3,74.4-52.2c1.5-0.5,3-1.1,5.1-1.9c-26.8-16.7-41.9-40.2-43.8-71.1c-1.4-24,6.3-45.4,22.8-63
	c34.6-36.8,91.2-37.4,125.8-1.3c19.2,20.1,27.2,44.5,23.3,72C331.8,216.6,316.9,237.4,292.7,252.4z M250.2,246.4
	c35.8,1.5,70-29.7,69.8-69.5c-0.2-38.6-31.2-70-69.6-69.9c-41.6,0.1-70,34.8-70.1,69.6C180.2,216,214,247.9,250.2,246.4z"/>
<g>
	<circle class="st0" cx="363.9" cy="314.3" r="58.3"/>
	<g>
		<path class="st1" d="M368.9,287.4v22.1h21.2v9.4h-21.2v22.4H359v-22.4h-21.2v-9.4H359v-22.1H368.9z"/>
	</g>
</g>
</svg>
