<svg width="125" height="126" viewBox="0 0 125 126" fill="none" xmlns="http://www.w3.org/2000/svg">
<g filter="url(#filter0_dddd)">
<rect x="28" y="22.6037" width="65" height="64.3019" rx="28.4907" fill="white"/>
</g>
<path d="M76.0717 44.5737C76.2148 44.5737 76.352 44.5177 76.4531 44.4181C76.5543 44.3185 76.6111 44.1834 76.6111 44.0425V42.2734C76.6105 41.812 76.4242 41.3697 76.0929 41.0434C75.7616 40.7171 75.3125 40.5336 74.844 40.533H71.9451L71.2837 38.611C71.2388 38.4803 71.1439 38.3719 71.0193 38.3088C70.8947 38.2458 70.75 38.233 70.6159 38.2731L54.9153 42.9736C54.7854 43.0203 54.6785 43.1143 54.6168 43.2362C54.5551 43.3581 54.5432 43.4987 54.5836 43.629C54.624 43.7593 54.7135 43.8694 54.8338 43.9366C54.9541 44.0039 55.0961 44.0231 55.2303 43.9904L70.4303 39.4387L71.8793 43.6515C71.9252 43.7849 72.023 43.8949 72.1513 43.9573C72.2796 44.0196 72.4278 44.0293 72.5632 43.984C72.6987 43.9388 72.8104 43.8424 72.8737 43.7161C72.9371 43.5898 72.9469 43.4438 72.9009 43.3104L72.3108 41.5945H74.845C75.2248 41.5945 75.5333 41.8983 75.5333 42.2723V44.0425C75.5323 44.3357 75.7739 44.5737 76.0717 44.5737Z" fill="#E79310" stroke="#E79310"/>
<path d="M80.3783 52.5426C80.2352 52.5426 80.098 52.5985 79.9968 52.6982C79.8957 52.7978 79.8388 52.9329 79.8388 53.0738C79.8388 53.2147 79.8957 53.3498 79.9968 53.4495C80.098 53.5491 80.2352 53.6051 80.3783 53.6051C80.7569 53.6051 80.9177 53.7634 80.9177 54.1363V60.5113C80.9177 60.8842 80.7569 61.0425 80.3783 61.0425H71.7474C71.3687 61.0425 71.208 60.8842 71.208 60.5113V55.1988C71.208 54.8259 71.3687 54.6676 71.7474 54.6676H78.2205C78.3636 54.6676 78.5008 54.6116 78.602 54.512C78.7031 54.4123 78.76 54.2772 78.76 54.1363V47.7613C78.76 46.7934 78.1245 46.1676 77.1417 46.1676H44.2366C42.9063 46.1676 42.0789 45.3526 42.0789 44.0426C42.0789 42.7325 42.9063 41.9176 44.2366 41.9176H49.7128L46.4482 42.9779C46.3785 42.9977 46.3136 43.0312 46.2573 43.0763C46.201 43.1214 46.1545 43.1772 46.1207 43.2404C46.0868 43.3036 46.0662 43.3728 46.0601 43.444C46.0541 43.5152 46.0627 43.5869 46.0854 43.6548C46.1081 43.7226 46.1445 43.7853 46.1924 43.839C46.2403 43.8927 46.2987 43.9363 46.3641 43.9672C46.4295 43.9982 46.5005 44.0158 46.573 44.0191C46.6455 44.0223 46.7179 44.0112 46.7859 43.9862L66.3337 37.6399C66.401 37.618 66.4633 37.5833 66.5169 37.5377C66.5706 37.4921 66.6146 37.4365 66.6465 37.3742C66.6783 37.3118 66.6974 37.2439 66.7026 37.1743C66.7078 37.1046 66.699 37.0347 66.6768 36.9684C66.6545 36.9022 66.6193 36.8408 66.573 36.788C66.5267 36.7351 66.4702 36.6918 66.4069 36.6604C66.3436 36.629 66.2746 36.6103 66.2039 36.6051C66.1333 36.6 66.0622 36.6086 65.9949 36.6306L52.9408 40.8699C52.916 40.8657 52.8933 40.8551 52.8674 40.8551H44.2366C42.3011 40.8551 41 42.1364 41 44.0426V67.4175C41 69.3237 42.3011 70.605 44.2366 70.605H77.1417C78.1245 70.605 78.76 69.9792 78.76 69.0113V63.6988C78.76 63.5579 78.7031 63.4228 78.602 63.3231C78.5008 63.2235 78.3636 63.1675 78.2205 63.1675C78.0775 63.1675 77.9403 63.2235 77.8391 63.3231C77.738 63.4228 77.6811 63.5579 77.6811 63.6988V69.0113C77.6811 69.3842 77.5204 69.5425 77.1417 69.5425H44.2366C42.9063 69.5425 42.0789 68.7276 42.0789 67.4175V46.4991C42.6323 46.9591 43.3649 47.2301 44.2366 47.2301H77.1417C77.5204 47.2301 77.6811 47.3884 77.6811 47.7613V53.6051H71.7474C70.7646 53.6051 70.1291 54.2309 70.1291 55.1988V60.5113C70.1291 61.4792 70.7646 62.105 71.7474 62.105H80.3783C81.3611 62.105 81.9965 61.4792 81.9965 60.5113V54.1363C81.9965 53.1684 81.3611 52.5426 80.3783 52.5426Z" fill="#E79310" stroke="#E79310"/>
<defs>
<filter id="filter0_dddd" x="0" y="0.603699" width="125" height="125.302" filterUnits="userSpaceOnUse" color-interpolation-filters="sRGB">
<feFlood flood-opacity="0" result="BackgroundImageFix"/>
<feColorMatrix in="SourceAlpha" type="matrix" values="0 0 0 0 0 0 0 0 0 0 0 0 0 0 0 0 0 0 127 0"/>
<feOffset dx="2" dy="9"/>
<feGaussianBlur stdDeviation="15"/>
<feColorMatrix type="matrix" values="0 0 0 0 0.808333 0 0 0 0 0.808333 0 0 0 0 0.808333 0 0 0 0.5 0"/>
<feBlend mode="normal" in2="BackgroundImageFix" result="effect1_dropShadow"/>
<feColorMatrix in="SourceAlpha" type="matrix" values="0 0 0 0 0 0 0 0 0 0 0 0 0 0 0 0 0 0 127 0"/>
<feOffset dx="-8" dy="5"/>
<feGaussianBlur stdDeviation="6"/>
<feColorMatrix type="matrix" values="0 0 0 0 0.991667 0 0 0 0 0.991667 0 0 0 0 0.991667 0 0 0 0.25 0"/>
<feBlend mode="normal" in2="effect1_dropShadow" result="effect2_dropShadow"/>
<feColorMatrix in="SourceAlpha" type="matrix" values="0 0 0 0 0 0 0 0 0 0 0 0 0 0 0 0 0 0 127 0"/>
<feOffset dx="-13" dy="-7"/>
<feGaussianBlur stdDeviation="7.5"/>
<feColorMatrix type="matrix" values="0 0 0 0 0.9875 0 0 0 0 0.9875 0 0 0 0 0.9875 0 0 0 0.5 0"/>
<feBlend mode="normal" in2="effect2_dropShadow" result="effect3_dropShadow"/>
<feColorMatrix in="SourceAlpha" type="matrix" values="0 0 0 0 0 0 0 0 0 0 0 0 0 0 0 0 0 0 127 0"/>
<feOffset dx="-7" dy="-7"/>
<feGaussianBlur stdDeviation="6"/>
<feColorMatrix type="matrix" values="0 0 0 0 1 0 0 0 0 1 0 0 0 0 1 0 0 0 0.0155704 0"/>
<feBlend mode="normal" in2="effect3_dropShadow" result="effect4_dropShadow"/>
<feBlend mode="normal" in="SourceGraphic" in2="effect4_dropShadow" result="shape"/>
</filter>
</defs>
</svg>
