<svg id="Layer_1" data-name="Layer 1" xmlns="http://www.w3.org/2000/svg" viewBox="0 0 49.27 49.15"><title>adderss</title><path d="M20,44.56v5l-1.2-1a80.3,80.3,0,0,1-9.12-8.92C3.51,32.53.37,26.14.37,20.65V20.1a19.68,19.68,0,0,1,39.35,0v.55a13.26,13.26,0,0,1-.07,1.4l-3.84-3.51A15.84,15.84,0,0,0,4.21,20.1v.55C4.21,29.92,16.15,41.15,20,44.56ZM31.85,41.8h5.76V36H31.85ZM20,12a8.16,8.16,0,1,1-8.15,8.15A8.17,8.17,0,0,1,20,12Zm0,3.83a4.32,4.32,0,1,0,4.32,4.32A4.33,4.33,0,0,0,20,15.78Zm27,23.41L46,38.2v6.17a5.21,5.21,0,0,1-5.21,5.2H28.6a5.2,5.2,0,0,1-5.2-5.2V38.2l-1.08,1-2.59-2.84,15-13.64,15,13.64ZM42.13,34.7l-7.45-6.79L27.24,34.7v9.67a1.36,1.36,0,0,0,1.36,1.36H40.76a1.37,1.37,0,0,0,1.37-1.36Z" transform="translate(-0.37 -0.43)"/></svg>