<?xml version="1.0" encoding="utf-8"?>
<!-- Generator: Adobe Illustrator 25.4.1, SVG Export Plug-In . SVG Version: 6.00 Build 0)  -->
<svg version="1.1" id="Layer_1" xmlns="http://www.w3.org/2000/svg" xmlns:xlink="http://www.w3.org/1999/xlink" x="0px" y="0px"
	 viewBox="0 0 500 500" style="enable-background:new 0 0 500 500;" xml:space="preserve">
<style type="text/css">
	.st0{fill:#FFFFFF;}
	.st1{fill:#302C82;}
	.st2{fill:#B88417;}
	.st3{fill:#3C3C3B;}
	.st4{fill:#302D82;}
	.st5{fill:#2A3885;}
	.st6{fill:#B1812A;}
	.st7{fill:#33A968;}
	.st8{fill:#030405;}
	.st9{fill:#FEFEFE;}
	.st10{fill:#3D4594;}
	.st11{fill:#666566;}
	.st12{fill:#5C5B5B;}
	.st13{fill:#707070;}
	.st14{fill:#EFEEEE;}
	.st15{fill:#8C8C8C;}
	.st16{fill:#2D3889;}
	.st17{fill:none;stroke:#595A5C;stroke-width:5;stroke-miterlimit:10;}
	.st18{fill:none;stroke:#595A5C;stroke-width:7;stroke-miterlimit:10;}
	.st19{fill:#595A5C;}
	.st20{fill:none;stroke:#FFFFFF;stroke-width:10;}
	.st21{fill:#F8AF41;}
	.st22{fill:none;stroke:#FFFFFF;stroke-width:2;}
</style>
<g>
	<path class="st7" d="M22.9,273.9c0-16,0-31.9,0-47.9c0.3,0.2,0.5,0.9,0.9,0.2c0.2-0.2,0.4-0.5,0.4-0.7c1-9.4,2.6-18.6,4.8-27.8
		C40.3,151,63.9,111.8,99.7,80c35.3-31.3,76.6-49.8,123.6-55.4c0.9-0.1,3.1,0.9,2.7-1.6c16,0,31.9,0,47.9,0
		c-0.2,0.3-0.9,0.5-0.2,0.9c0.2,0.2,0.5,0.4,0.7,0.4c9.4,1,18.6,2.6,27.8,4.8c46.2,11,85.3,34.3,116.8,69.6
		c31.9,35.6,50.8,77.4,56.3,125.1c0.1,0.9-0.5,2.7,1.7,2.3c0,16,0,31.9,0,47.9c-0.3-0.2-0.5-0.9-0.9-0.2c-0.1,0.1-0.2,0.2-0.3,0.3
		c-1,6.5-1.9,13.1-3.2,19.6c-9.8,49.4-33.5,91.1-70.8,124.8c-35.7,32.3-77.7,51.3-125.7,56.9c-0.9,0.1-2.7-0.5-2.3,1.7
		c-16,0-31.9,0-47.9,0c0.2-0.3,0.9-0.5,0.2-0.9c-0.2-0.2-0.5-0.4-0.7-0.4c-9.4-1-18.6-2.6-27.8-4.8c-46.2-11-85.3-34.3-116.8-69.6
		C49,365.7,30.1,323.9,24.6,276.2C24.5,275,24.5,275,22.9,273.9z M301.4,359.2c8.5,0.1,18.6-1.9,28.4-5.3
		c14.7-5,24.5-14.7,28.7-29.9c3.2-11.5,0.8-20.5-7.1-25.2c-12.8-7.5-25.8-14.8-38.6-22.3c-6.1-3.6-11.8-2.8-17.3,1.1
		c-2.4,1.7-4.5,3.7-6.4,6c-3.6,4.5-7.2,9-11,13.2c-2.3,2.5-5.1,4.1-9,2.1c-29.5-15.2-51.5-38-67.3-66.9c-2-3.6-1.3-6.5,1.2-9.2
		c1.7-1.8,3.6-3.5,5.6-5c4.6-3.6,9.6-6.8,13.6-11.2c5.2-5.7,6.1-11.8,2.5-17.8c-8.8-14.8-17.6-29.6-26.3-44.4
		c-1.1-1.9-2.5-3.3-4.8-3.5c-19.2-1.6-36.6,5.2-45.9,23.2c-9.9,19.2-8.9,39.3-3.3,59.3c9.2,32.8,29,58.9,52.6,82.5
		c15.2,15.2,32.9,27.2,51.6,37.7C264.4,352.6,280.9,359.3,301.4,359.2z"/>
</g>
</svg>
