<svg id="Layer_1" data-name="Layer 1" xmlns="http://www.w3.org/2000/svg" viewBox="0 0 21.77 20.68"><title>contact</title><path d="M6.74,2H21.88a.56.56,0,0,1,.56.56V13.75a.56.56,0,0,1-.56.56H6.74a.57.57,0,0,1-.57-.56V2.53A.57.57,0,0,1,6.74,2Z" transform="translate(-1.03 -1.61)" fill="#c52828"/><path d="M21.29,2.53V13.75a.54.54,0,0,1-.17.39.54.54,0,0,1-.4.17H6.64l-.1,0a.57.57,0,0,1-.37-.52V2.53a.51.51,0,0,1,.15-.37A.48.48,0,0,1,6.52,2l.09,0H20.72a.58.58,0,0,1,.4.16A.56.56,0,0,1,21.29,2.53Z" transform="translate(-1.03 -1.61)" fill="#f44335"/><path d="M21.29,3V2.53a.56.56,0,0,0-.17-.4.58.58,0,0,0-.4-.16h1.16a.57.57,0,0,1,.42.19Z" transform="translate(-1.03 -1.61)" fill="#d84315"/><path d="M21.29,2.53V3L16,7.52l-1.18,1a.85.85,0,0,1-1.08,0l-1.18-1L6.32,2.16A.48.48,0,0,1,6.52,2l.09,0H20.72a.58.58,0,0,1,.4.16A.56.56,0,0,1,21.29,2.53Z" transform="translate(-1.03 -1.61)" fill="#ff5722"/><path d="M22.24,14.17a.54.54,0,0,1-.36.14H20.72a.54.54,0,0,0,.4-.17.54.54,0,0,0,.17-.39v-.6Z" transform="translate(-1.03 -1.61)" fill="#d84315"/><path d="M21.29,13.15v.6a.54.54,0,0,1-.17.39.54.54,0,0,1-.4.17H6.64l-.1,0a.42.42,0,0,1-.17-.1l6.22-6.65,1.18,1a.85.85,0,0,0,1.08,0l1.18-1Z" transform="translate(-1.03 -1.61)" fill="#ff5722"/><path d="M17.65,19.54,16.79,21a1.71,1.71,0,0,1-.7.66,1.3,1.3,0,0,1-.32.14c-1.43.39-4.58.47-9.63-4.58S1.17,9,1.56,7.56a1.27,1.27,0,0,1,.13-.32,1.76,1.76,0,0,1,.67-.71l1.43-.86a.72.72,0,0,1,1,.22L6,7.75,7,9.32a.72.72,0,0,1-.15,1l-.51.39-.78.6a.79.79,0,0,0-.24.36.7.7,0,0,0,.05.55,11.8,11.8,0,0,0,2.51,3.24,11.53,11.53,0,0,0,3.24,2.5.7.7,0,0,0,.9-.19l.61-.77.39-.51a.71.71,0,0,1,1-.15l1.61,1.07,1.82,1.21A.71.71,0,0,1,17.65,19.54Z" transform="translate(-1.03 -1.61)" fill="#fdd834"/><path d="M16.9,20.3l-.81,1.33a1.3,1.3,0,0,1-.32.14c-1.43.39-4.58.47-9.63-4.58S1.17,9,1.56,7.56a1.27,1.27,0,0,1,.13-.32L3,6.43a.71.71,0,0,1,1,.22L5.23,8.51l1,1.56a.71.71,0,0,1,.09.6.7.7,0,0,1-.25.36l-.77.6-.51.4a.71.71,0,0,0-.19.91,11.83,11.83,0,0,0,2.5,3.24,12.06,12.06,0,0,0,3.24,2.5.71.71,0,0,0,.91-.19l.39-.51.61-.78a.7.7,0,0,1,.36-.24.71.71,0,0,1,.6.09l1.61,1.08,1.81,1.2A.73.73,0,0,1,16.9,20.3Z" transform="translate(-1.03 -1.61)" fill="#ffeb3a"/><path d="M21.88,1.61H6.67a.93.93,0,0,0-.92.93V6.73l-.7-1A1.07,1.07,0,0,0,3.6,5.36l-1.43.86a2.12,2.12,0,0,0-1,1.25c-.52,1.9-.13,5.17,4.67,10,3.82,3.81,6.67,4.84,8.63,4.84a5.55,5.55,0,0,0,1.35-.17,2.09,2.09,0,0,0,1.24-1L18,19.73a1.07,1.07,0,0,0-.32-1.45L14.21,16a1.08,1.08,0,0,0-1.45.24l-1,1.28a.34.34,0,0,1-.45.09l-.19-.1a11.42,11.42,0,0,1-3-2.33l-.47-.49H21.88a.92.92,0,0,0,.92-.92V2.54A.93.93,0,0,0,21.88,1.61ZM10.79,18.14l.18.1A1.07,1.07,0,0,0,12.34,18l1-1.29a.35.35,0,0,1,.47-.07l3.42,2.28a.34.34,0,0,1,.11.47l-.86,1.43a1.4,1.4,0,0,1-.81.64c-1.72.47-4.72.07-9.28-4.49S1.44,9.37,1.91,7.66a1.4,1.4,0,0,1,.63-.82L4,6a.36.36,0,0,1,.48.1L6.73,9.52a.35.35,0,0,1-.08.47L5.37,11a1.07,1.07,0,0,0-.28,1.37l.1.18a11.87,11.87,0,0,0,2.46,3.14A12.18,12.18,0,0,0,10.79,18.14Zm11.29-4.38a.2.2,0,0,1-.2.2H7a8.94,8.94,0,0,1-1.21-1.77L5.72,12a.34.34,0,0,1,.1-.44l1.28-1a1.07,1.07,0,0,0,.23-1.44l-.86-1.3V2.54a.17.17,0,0,1,.06-.14.2.2,0,0,1,.14-.06H21.88A.2.2,0,0,1,22,2.4a.17.17,0,0,1,.06.14V13.76Z" transform="translate(-1.03 -1.61)"/><path d="M21.14,3.36a.37.37,0,0,0-.51-.07l-6.07,4.6a.47.47,0,0,1-.57,0L7.92,3.29a.37.37,0,0,0-.51.07.37.37,0,0,0,.07.51l6.07,4.6a1.22,1.22,0,0,0,1.45,0l6.07-4.6a.42.42,0,0,0,.14-.24A.44.44,0,0,0,21.14,3.36Z" transform="translate(-1.03 -1.61)"/><path d="M11.18,8.5l-3.72,4a.37.37,0,0,0,0,.52A.37.37,0,0,0,8,13l3.72-4a.36.36,0,0,0,0-.49A.37.37,0,0,0,11.18,8.5Z" transform="translate(-1.03 -1.61)"/><path d="M17.4,8.5a.37.37,0,0,0-.52,0,.38.38,0,0,0,0,.52l3.72,4a.37.37,0,0,0,.51,0,.37.37,0,0,0,0-.52Z" transform="translate(-1.03 -1.61)"/></svg>