<?xml version="1.0" encoding="utf-8"?>
<!-- Generator: Adobe Illustrator 23.0.5, SVG Export Plug-In . SVG Version: 6.00 Build 0)  -->
<svg version="1.1" id="Layer_1" xmlns="http://www.w3.org/2000/svg" xmlns:xlink="http://www.w3.org/1999/xlink" x="0px" y="0px"
	 viewBox="0 0 512 512" style="enable-background:new 0 0 512 512;" xml:space="preserve">
<style type="text/css">
	.st0{fill:#FFFFFF;}
</style>
<g transform="translate(0.000000,512.000000) scale(0.100000,-0.100000)">
	<path class="st0" d="M205,5104c-112-41-170-187-116-293c11-21,397-569,857-1217c461-648,851-1203,867-1231c15-29,34-67,40-85
		c8-24,13-318,17-1073c6-1150,1-1075,70-1142c46-45,108-67,168-60c68,9,1027,378,1070,412c19,15,43,46,53,69c18,39,19,81,19,861
		c0,905,0,905,62,1016c18,33,409,589,869,1237c460,647,844,1192,853,1211c10,18,20,56,23,85c7,72-34,149-102,191l-48,30l-2331,2
		C556,5118,240,5117,205,5104z"/>
</g>
</svg>
