<?xml version="1.0" encoding="utf-8"?>
<!-- Generator: Adobe Illustrator 23.0.5, SVG Export Plug-In . SVG Version: 6.00 Build 0)  -->
<svg version="1.1" id="Layer_1" xmlns="http://www.w3.org/2000/svg" xmlns:xlink="http://www.w3.org/1999/xlink" x="0px" y="0px"
	 viewBox="0 0 500 500" style="enable-background:new 0 0 500 500;" xml:space="preserve">
<style type="text/css">
	.st0{fill:none;stroke:#FFFFFF;stroke-width:12;stroke-miterlimit:10;}
	.st1{fill:#FFFFFF;}
</style>
<path class="st0" d="M250,36.7c116.1-2.4,213.5,97.5,213.5,213.2c0,115.3-98,213.4-213.5,213.4c-116.3,0-213.7-98.8-213.6-213.8
	C36.6,134.2,134.6,34.3,250,36.7z"/>
<path class="st1" d="M270.6,318.3c0.7-3.5,1.1-6.5,1.7-9.4c3.1-13.8,6.4-27.5,9.4-41.3c1.1-4.6,2-9.2,2.9-13.8
	c0.4-1.9,1.2-2.7,3.2-2.7c25.2,0,50.4,0,75.6,0c2.3,0,3.1,1.1,3.3,2.9c3.5,16.3,7,32.7,10.5,49c1.1,4.9,2.3,9.7,3.6,15.3H270.6z
	 M248.8,324.3c-0.3,0-0.7,0-0.9,0c-5.3-24.2-10.6-48.2-16.1-72.9h33.3C259.6,275.8,254.1,300.1,248.8,324.3z M184,318.4L184,318.4
	l-56.1-0.1c-0.1,0-0.1-0.1-0.3-0.1l-0.1,0.1h-5l-0.1-0.1l-0.1,0.1h-3.7c-0.5-0.8-1.2-1.6-1.9-2.5c1.2-5.6,2.9-13.3,4.6-21
	c3.1-13.6,6.1-27.2,8.9-40.8c0.4-2,1.2-2.9,3.3-2.9c25.2,0,50.5,0,75.6,0c2,0,2.8,0.8,3.2,2.7c3.1,14.1,6.1,28,9.3,42.1
	c1.6,7.3,3.2,14.6,5,22.6L184,318.4L184,318.4z M194,227.3c2.4-10.8,4.6-21.5,7-32.3c1.7-7.8,3.5-15.5,5.3-23.2
	c1.9-7.6,2-7.6,9.8-7.6c23,0,46,0,69-0.1c2.9,0,4,1.1,4.5,3.6c2.8,13.6,5.7,27,8.6,40.5c1.5,6.6,3.1,13.3,4.5,20.1
	c0.3,0.9,0.4,1.9,0.7,3.3h-4c-34,0-68,0-102,0C193,231.5,193,231.4,194,227.3z M402.7,325.6c-1.6-7.3-3.3-14.6-5-22.1
	c-4.5-20.9-9-41.7-13.7-62.4c-1.6-7.3-4.8-9.6-12.4-9.6c-14.7,0-29.5-0.1-44.2,0c-2.7,0-3.9-0.9-4.4-3.5c-0.7-3.6-1.5-7-2.3-10.5
	c-4.6-21.1-9.3-42.2-14.1-63.4c-1.7-7.7-4.3-9.6-12.1-9.6c-30.6,0-61.2,0-91.8,0c-1.2,0-2.5,0-3.7,0.1c-3.7,0.4-7.3,3.2-8.1,6.6
	c-2,8.5-4,17-6,25.5c-3.7,16.7-7.4,33.5-10.9,50.4c-0.7,3.3-2,4.5-5.6,4.4c-14.9-0.3-29.8-0.1-44.6-0.1c-5.8,0-9.2,2.4-10.6,8
	c-2,7.7-3.6,15.5-5.3,23.2c-2.5,11.3-4.9,22.6-7.4,33.9c-2.3,10-4.5,19.9-6.6,29.9c-0.1,0.5-0.1,1.2-0.1,1.7l0,0c0,0,0,0,0,0.1
	c0,1.7,0.4,3.2,1.2,4.6c1.6,3.1,4.9,5.2,8.6,5.2h8.9c0.1,0,0.3,0.1,0.3,0.1v-0.1h6.4c0.7,0.1,1.3,0.1,2.1,0.1
	c38.7-0.1,77.5-0.1,116.1,0c5,0,8.6-1.9,11.2-7c2.9,6.1,7.7,7,13.3,7c27.1-0.1,54.2-0.1,81.4,0c16.6,0,33.1,0,49.7,0
	C400,338.2,404.3,332.5,402.7,325.6z"/>
</svg>
