<svg id="Layer_1" data-name="Layer 1" xmlns="http://www.w3.org/2000/svg" xmlns:xlink="http://www.w3.org/1999/xlink" viewBox="0 0 1729.54 1701.39"><defs><style>.cls-1{fill:none;}.cls-2{clip-path:url(#clip-path);}.cls-3{fill:url(#linear-gradient);}</style><clipPath id="clip-path" transform="translate(354.39 341.66)"><path id="SVGID" class="cls-1" d="M294.58,652.9s-12.51,120.41,90.7,193.91c0,0-147,12.51-365.92,81.31,0,0,187.65-137.61,275.22-275.22m103.21,97C360.26,696.68,358.7,618.5,400.92,570c40.66-48.48,103.21-48.48,118.84-46.91,65.68,3.12,106.34,45.35,114.16,54.73,9.38-7.82,18.77-17.2,28.15-25,23.45,40.66,53.17,84.44,87.57,129.79A1239.75,1239.75,0,0,0,1006.1,929.69c-1.57,0-201.73-71.94-370.62-78.19,0,0,84.45-56.3,71.94-187.65l-198.6-1.57v76.63l115.72-1.57c-4.69,17.2-14.08,39.1-34.41,54.74C572.93,806.15,549.48,814,524.46,814c-46.92-1.57-98.52-23.46-126.67-64.12M461.9,313.56c25-84.44,39.1-159.51,48.48-225.18A1831.67,1831.67,0,0,0,562,315.12c17.2,53.17,34.4,104.78,56.29,156.38-17.2-9.38-56.29-28.15-112.59-26.58-53.17,1.56-92.26,23.45-107.9,34.4,21.89-46.91,45.35-103.21,64.11-165.76M505.69,85.25,5.28,935.94h1010.2L515.07,85.25c-1.56-1.57-3.12-3.13-4.69-3.13s-3.13,1.56-4.69,3.13"/></clipPath><linearGradient id="linear-gradient" x1="-1167.02" y1="1493.12" x2="-1159.93" y2="1493.12" gradientTransform="matrix(119.24, -64.94, -64.94, -119.24, 236467.65, 103380.52)" gradientUnits="userSpaceOnUse"><stop offset="0" stop-color="#eabe53"/><stop offset="0.07" stop-color="#ecc561"/><stop offset="0.54" stop-color="#fcf6b3"/><stop offset="1" stop-color="#d5b26f"/></linearGradient></defs><title>IntroducingLogo</title><g class="cls-2"><polygon class="cls-3" points="0 619.25 1138.43 0 1729.54 1082.13 591.11 1701.39 0 619.25"/></g></svg>