<svg id="Layer_1" data-name="Layer 1" xmlns="http://www.w3.org/2000/svg" viewBox="0 0 37.55 47.38"><title>notification</title><path d="M26.59,16.61H21.41a2.91,2.91,0,0,1-2.91-2.9V5.59A5.29,5.29,0,0,1,23.78.31h.44A5.29,5.29,0,0,1,29.5,5.59v8.12A2.91,2.91,0,0,1,26.59,16.61Z" transform="translate(-5.22 -0.31)" fill="#186fa2"/><path d="M24.22.31H24v16.3h2.59a2.91,2.91,0,0,0,2.91-2.9V5.59A5.29,5.29,0,0,0,24.22.31Z" transform="translate(-5.22 -0.31)" fill="#063651"/><path d="M24,47.69a7.16,7.16,0,1,1,7.16-7.16A7.17,7.17,0,0,1,24,47.69Z" transform="translate(-5.22 -0.31)" fill="#fbac5b"/><path d="M24,33.37V47.69a7.16,7.16,0,0,0,0-14.32Z" transform="translate(-5.22 -0.31)" fill="#fd8f32"/><path d="M41.35,40.64H6.65a1.41,1.41,0,0,1-1.39-1.09A1.33,1.33,0,0,1,6,38,7.39,7.39,0,0,0,8.24,35c1.93-4.08,2.34-9.83,2.34-13.93A13.42,13.42,0,0,1,37.42,21V21c0,4.1.41,9.85,2.34,13.93A7.39,7.39,0,0,0,42,38a1.33,1.33,0,0,1,.74,1.53A1.41,1.41,0,0,1,41.35,40.64ZM42,38Z" transform="translate(-5.22 -0.31)" fill="#fddb8d"/><path d="M42,38A7.39,7.39,0,0,1,39.76,35c-1.93-4.08-2.34-9.83-2.34-13.93V21A13.43,13.43,0,0,0,24,7.62v33H41.35a1.41,1.41,0,0,0,1.39-1.09A1.33,1.33,0,0,0,42,38Z" transform="translate(-5.22 -0.31)" fill="#fbac5b"/></svg>