<svg width="19" height="24" viewBox="0 0 19 24" fill="none" xmlns="http://www.w3.org/2000/svg">
<path fill-rule="evenodd" clip-rule="evenodd" d="M16.7219 16.6154L18.3096 18.2031C19.085 18.9785 18.5434 20.3078 17.4357 20.3078H1.22644C0.131049 20.3078 -0.410491 18.9785 0.364896 18.2031L1.95259 16.6154V10.4616C1.95259 6.67079 3.95875 3.52001 7.49107 2.68309V1.84616C7.49107 0.824618 8.31569 0 9.33723 0C10.3588 0 11.1834 0.824618 11.1834 1.84616V2.68309C14.7034 3.52001 16.7219 6.6831 16.7219 10.4616V16.6154ZM4.41382 10.4613V17.846H14.26V10.4613C14.26 7.40902 12.4015 4.92286 9.33691 4.92286C6.27228 4.92286 4.41382 7.40902 4.41382 10.4613Z" fill="#9E2D34"/>
<path fill-rule="evenodd" clip-rule="evenodd" d="M9.33752 23.9999C10.6914 23.9999 11.7991 22.8922 11.7991 21.5383H6.87598C6.87598 22.8922 7.97136 23.9999 9.33752 23.9999Z" fill="#9E2D34"/>
</svg>
