<svg id="Layer_1" data-name="Layer 1" xmlns="http://www.w3.org/2000/svg" viewBox="0 0 23.21 23.21"><title>twitter</title><rect width="23.21" height="23.21" rx="3.5" ry="3.5" fill="#03a9f4"/><path d="M21.61,6a8,8,0,0,1-2.27.62,3.9,3.9,0,0,0,1.73-2.17,8,8,0,0,1-2.5,1,3.94,3.94,0,0,0-6.81,2.69,4.29,4.29,0,0,0,.09.9A11.17,11.17,0,0,1,3.73,4.91a3.94,3.94,0,0,0,1.21,5.27,3.89,3.89,0,0,1-1.78-.49v.05a4,4,0,0,0,3.16,3.87,4.27,4.27,0,0,1-1,.13,3.67,3.67,0,0,1-.75-.07,4,4,0,0,0,3.68,2.74,7.9,7.9,0,0,1-4.88,1.68A7.36,7.36,0,0,1,2.39,18a11.16,11.16,0,0,0,6,1.76A11.13,11.13,0,0,0,19.65,8.6c0-.18,0-.35,0-.51A8,8,0,0,0,21.61,6Z" transform="translate(-0.4 -0.4)" fill="#fff"/></svg>