<?xml version="1.0" encoding="utf-8"?>
<!-- Generator: Adobe Illustrator 17.1.0, SVG Export Plug-In . SVG Version: 6.00 Build 0)  -->
<!DOCTYPE svg PUBLIC "-//W3C//DTD SVG 1.1//EN" "http://www.w3.org/Graphics/SVG/1.1/DTD/svg11.dtd">
<svg version="1.1" id="Layer_1" xmlns="http://www.w3.org/2000/svg" xmlns:xlink="http://www.w3.org/1999/xlink" x="0px" y="0px"
	 viewBox="0 0 32 32" enable-background="new 0 0 32 32" xml:space="preserve">
<g>
	<path fill="#231F20" d="M30.2,18.7h-0.5v-4.2c0-0.7-0.3-1.3-0.8-1.6v-0.6c0-0.8-0.7-1.5-1.5-1.5H27l1.3-2c0.5-0.7,0.3-1.6-0.4-2
		c0,0,0,0,0,0l-9.1-6.2c-0.3-0.2-0.7-0.3-1.1-0.2c-0.4,0.1-0.7,0.3-0.9,0.6L9,12.5H6.8l0.5-5.4c0-0.1,0-0.1,0.1-0.1
		c0.7-0.3,1.3-0.7,1.7-1.4c0,0,0.1-0.1,0.1-0.1l3.4,0.3c0.2,0,0.5-0.2,0.5-0.4C13.2,5.3,13,5,12.8,5L9.3,4.7c-0.4,0-0.8,0.1-1,0.5
		C8,5.6,7.6,6,7.1,6.1C6.7,6.3,6.5,6.6,6.4,7l-0.5,5.4H5.3L6.2,4c0-0.3,0.3-0.5,0.6-0.5l6.9,0.7c0.2,0,0.5-0.2,0.5-0.4
		c0-0.2-0.2-0.4-0.4-0.5L6.9,2.6C6.1,2.5,5.4,3.1,5.3,3.9c0,0,0,0,0,0l-0.7,6.8H3.5c-0.8,0-1.5,0.7-1.5,1.5v0.4
		c-0.7,0.3-1.2,1-1.2,1.8v15.3c0,1.1,0.9,2,2,2c0,0,0,0,0,0h25c1.1,0,2-0.9,2-2v-4.2h0.5c0.6,0,1-0.5,1-1v-4.8
		C31.2,19.2,30.8,18.7,30.2,18.7C30.2,18.7,30.2,18.7,30.2,18.7z M27.4,11.6L27.4,11.6c0.3,0,0.6,0.3,0.6,0.6v0.2
		c-0.1,0-0.2,0-0.3,0h-1.9l0.6-0.8L27.4,11.6z M17.6,1.4c0.1-0.1,0.2-0.2,0.4-0.2H18c0.1,0,0.2,0,0.3,0.1l9.1,6.2
		c0.3,0.2,0.3,0.5,0.1,0.8l-2.9,4.2h-0.7l1.4-2.1c0.2-0.3,0.2-0.8,0-1.1c-0.3-0.5-0.4-1-0.3-1.5c0.1-0.4-0.1-0.8-0.5-1l-4.7-3.2
		c-0.3-0.2-0.8-0.2-1.1-0.1c-0.5,0.3-1,0.4-1.5,0.3c-0.4-0.1-0.8,0.1-1,0.5l-5.6,8.3h-0.7L17.6,1.4z M17.8,9c-1.9,0-3.5,1.5-3.7,3.4
		h-2.3l5.3-7.8l0,0c0,0,0.1-0.1,0.1-0.1h0c0.7,0.1,1.5,0,2.1-0.4c0.1,0,0.1,0,0.2,0l4.7,3.2c0,0,0.1,0.1,0.1,0.1
		c-0.1,0.7,0.1,1.5,0.4,2.1c0,0.1,0,0.1,0,0.2L23,12.5h-1.5C21.3,10.5,19.7,9,17.8,9L17.8,9z M20.6,12.5H15c0.1-1.5,1.5-2.7,3-2.5
		C19.4,10.1,20.5,11.1,20.6,12.5L20.6,12.5z M2.8,12.3c0-0.3,0.3-0.6,0.6-0.6h1.1l-0.1,0.8H2.9L2.8,12.3z M1.7,14.5
		c0-0.6,0.5-1.1,1.1-1.1h25c0.6,0,1.1,0.5,1.1,1.1l0,0v1.2H1.7V14.5z M28.8,29.7c0,0.6-0.5,1.1-1.1,1.1c0,0,0,0,0,0h-25
		c-0.6,0-1.1-0.5-1.1-1.1v-1.2h2.4c0.2,0,0.4-0.2,0.4-0.4c0-0.2-0.2-0.4-0.4-0.4c0,0,0,0,0,0H1.7v-11h27.2v2.1h-4.3
		c-1.3,0-2.5,0.7-3.1,1.9l0,0c0,0,0,0,0,0c-0.1,0.1-0.1,0.3-0.2,0.5l0,0c-0.6,1.8,0.4,3.7,2.2,4.2c0.3,0.1,0.7,0.2,1,0.2h4.3v2.1H7
		c-0.2,0-0.4,0.2-0.4,0.4c0,0.2,0.2,0.4,0.4,0.4h21.9V29.7z M30.3,24.5c0,0.1,0,0.1-0.1,0.1h-5.6c-0.9,0-1.8-0.5-2.2-1.3
		c0,0,0-0.1-0.1-0.1c0,0-0.1-0.1-0.1-0.2c-0.2-0.6-0.2-1.2,0-1.7c0-0.1,0.1-0.2,0.1-0.2c0-0.1,0-0.1,0.1-0.1
		c0.4-0.8,1.3-1.3,2.2-1.3h5.6c0.1,0,0.1,0,0.1,0.1V24.5L30.3,24.5z"/>
	<path fill="#231F20" d="M24.7,20.3c-1,0-1.8,0.8-1.8,1.8c0,1,0.8,1.8,1.8,1.8c1,0,1.8-0.8,1.8-1.8c0,0,0,0,0,0
		C26.5,21.1,25.7,20.3,24.7,20.3z M24.7,23c-0.5,0-0.9-0.4-0.9-0.9c0-0.5,0.4-0.9,0.9-0.9c0.5,0,0.9,0.4,0.9,0.9
		C25.6,22.6,25.2,23,24.7,23L24.7,23z"/>
</g>
</svg>
