<svg id="Layer_1" data-name="Layer 1" xmlns="http://www.w3.org/2000/svg" viewBox="0 0 24 24"><title>whatsapp</title><rect width="24" height="24" rx="4.61" fill="#1bd741"/><path d="M4.61,20.4l1.17-4.17a8.4,8.4,0,1,1,3.13,3.06Zm4.52-2.63.26.16a7,7,0,1,0-2.24-2.19l.17.26-.67,2.41Z" fill="#fff"/><path d="M10.66,8.08l-.55,0a.67.67,0,0,0-.47.16,2.5,2.5,0,0,0-.81,1.25,3.79,3.79,0,0,0,.88,3,8.78,8.78,0,0,0,4.75,3.46,2.33,2.33,0,0,0,2-.24,1.77,1.77,0,0,0,.76-1.12l.09-.4a.29.29,0,0,0-.16-.32L15.28,13a.28.28,0,0,0-.34.08l-.72.94a.2.2,0,0,1-.23.07,5.68,5.68,0,0,1-3.06-2.62.2.2,0,0,1,0-.23l.69-.8a.29.29,0,0,0,0-.3L10.9,8.25A.27.27,0,0,0,10.66,8.08Z" fill="#fff"/></svg>