<svg id="Layer_1" data-name="Layer 1" xmlns="http://www.w3.org/2000/svg" viewBox="0 0 20 23.45"><title>about</title><path d="M6,11.86c.3.24.69.57,1.28,1l1.13-1.1A10.65,10.65,0,0,1,6.4,10a1.39,1.39,0,0,1-.33-.87,1.45,1.45,0,0,1,.52-1.1,1.84,1.84,0,0,1,1.32-.49,2.83,2.83,0,0,1,1.37.36,2.6,2.6,0,0,1,1,1,2.93,2.93,0,0,1,.3.69l.48-.48V7h-.29a1,1,0,0,1-.2.48.47.47,0,0,1-.32.12,1.7,1.7,0,0,1-.61-.19A4.44,4.44,0,0,0,7.9,7a3.06,3.06,0,0,0-2.19.81A2.55,2.55,0,0,0,4.85,9.7a2.4,2.4,0,0,0,.29,1.18A3,3,0,0,0,6,11.86Z" transform="translate(-2 -0.27)" fill="#b16d03"/><path d="M10.39,15.72a1.53,1.53,0,0,1-.55,1,2.14,2.14,0,0,1-1.51.51,3.32,3.32,0,0,1-1.53-.37,2.54,2.54,0,0,1-1-.93,4.86,4.86,0,0,1-.54-1.67H5v3.57h.28a.93.93,0,0,1,.17-.48.37.37,0,0,1,.3-.11,4.52,4.52,0,0,1,1,.24,10.19,10.19,0,0,0,1,.28,5.87,5.87,0,0,0,.86.07A3.33,3.33,0,0,0,10.85,17a3.49,3.49,0,0,0,.48-.56Z" transform="translate(-2 -0.27)" fill="#b16d03"/><path d="M12.34,8.29a1,1,0,0,0,.22-.56.45.45,0,0,0-.17-.33.91.91,0,0,0-.57-.14h-.25V7h4v.3a2.6,2.6,0,0,0-.65.1,4,4,0,0,0-.71.34,6.4,6.4,0,0,0-1,.83c-.12.1-.67.65-1.64,1.65L9.39,12.5s5.75,4.39,6.2,4.67a2.07,2.07,0,0,0,1.18.43v.3h-5v-.3c.39,0,.6-.05.74-.23a.45.45,0,0,0-.07-.62c-.64-.47-4.84-3.67-4.84-3.67S12,8.78,12.34,8.29Z" transform="translate(-2 -0.27)" fill="#b16d03"/><path d="M15.21,7.26V7h5.06v.3h-.39a1.15,1.15,0,0,0-1,.39,2.49,2.49,0,0,0-.18,1.22v8.47a5.93,5.93,0,0,1-.27,2,3.09,3.09,0,0,1-.91,1.31,2.37,2.37,0,0,1-1.58.56,1.68,1.68,0,0,1-1.16-.37,1.06,1.06,0,0,1-.43-.84.81.81,0,0,1,.2-.59.87.87,0,0,1,.61-.24.67.67,0,0,1,.45.16,2.51,2.51,0,0,1,.51.89c.12.29.28.43.47.43a.53.53,0,0,0,.4-.26,1.71,1.71,0,0,0,.18-.93V8.87a3.56,3.56,0,0,0-.1-1.08.62.62,0,0,0-.3-.35,1.54,1.54,0,0,0-.75-.18Z" transform="translate(-2 -0.27)" fill="#b16d03"/><path d="M5.8,19.47a.85.85,0,0,0,0,.25H5.71v-.07a.22.22,0,0,0,0-.1s-.05,0-.1-.05a.51.51,0,0,0-.17,0,.32.32,0,0,0-.23.07.25.25,0,0,0-.09.19.2.2,0,0,0,0,.13.24.24,0,0,0,.09.08l.25,0a.81.81,0,0,1,.25.05.24.24,0,0,1,.11.09.29.29,0,0,1,0,.16.4.4,0,0,1-.16.32.59.59,0,0,1-.41.13.5.5,0,0,1-.17,0A.61.61,0,0,1,5,20.66a2.27,2.27,0,0,0,0-.28H5v0c0,.06,0,.1,0,.12l0,0a.33.33,0,0,0,.12.05.34.34,0,0,0,.15,0,.35.35,0,0,0,.26-.08.27.27,0,0,0,.07-.33.24.24,0,0,0-.09-.08l-.22,0a1,1,0,0,1-.28-.05A.32.32,0,0,1,5,20a.39.39,0,0,1,0-.17.42.42,0,0,1,.13-.3.57.57,0,0,1,.36-.11l.18,0A.6.6,0,0,1,5.8,19.47Z" transform="translate(-2 -0.27)" fill="#b16d03"/><path d="M6.25,19.82l0,0V20c0,.18,0,.31,0,.39a1.34,1.34,0,0,0,0,.21.05.05,0,0,0,0,0l.06,0h.06v.05H6v-.05h.14a.55.55,0,0,0,0-.09c0-.08,0-.19,0-.33s0-.16,0-.22a.08.08,0,0,0,0,0H6V19.9l.17,0Zm-.07-.4a.1.1,0,1,1-.07,0A.09.09,0,0,1,6.18,19.42Z" transform="translate(-2 -0.27)" fill="#b16d03"/><path d="M6.78,20l.14-.12,0,0a.32.32,0,0,1,.13,0,.33.33,0,0,1,.17,0,.24.24,0,0,1,.1.1.49.49,0,0,1,0,.2v.29a.54.54,0,0,0,0,.17s0,0,.07,0h.06v.05H7.22a3.25,3.25,0,0,0,0-.48.59.59,0,0,0,0-.17A.16.16,0,0,0,7.15,20a.28.28,0,0,0-.13,0,.27.27,0,0,0-.15,0,.17.17,0,0,0-.07.1.67.67,0,0,0,0,.18v.32a.07.07,0,0,0,0,.05.15.15,0,0,0,.08,0h.06v.05H6.47v-.05h.07s.07,0,.08,0a2.58,2.58,0,0,0,0-.38V20a.05.05,0,0,0,0,0s0,0-.07,0H6.47V19.9l.15,0,.14,0h0a0,0,0,0,1,0,0V20Z" transform="translate(-2 -0.27)" fill="#b16d03"/><path d="M8.29,20.58l0,0,0,.05a.75.75,0,0,1-.13.06H8a.43.43,0,0,1-.23-.05.29.29,0,0,1-.14-.15.41.41,0,0,1,0-.23.46.46,0,0,1,0-.21A.28.28,0,0,1,7.74,20a.61.61,0,0,1,.18-.1.41.41,0,0,1,.16,0h.13l.1,0a1.94,1.94,0,0,0,0,.24H8.23v0a.22.22,0,0,0,0-.09l-.08,0-.13,0a.26.26,0,0,0-.2.08.34.34,0,0,0-.06.22.45.45,0,0,0,.1.31.28.28,0,0,0,.23.11l.1,0A.21.21,0,0,0,8.29,20.58Z" transform="translate(-2 -0.27)" fill="#b16d03"/><path d="M8.61,20.27a.37.37,0,0,0,.09.27.29.29,0,0,0,.23.1l.13,0,.13-.07v0l0,.07a.46.46,0,0,1-.16.07.41.41,0,0,1-.16,0,.38.38,0,0,1-.3-.12.41.41,0,0,1-.12-.32A.44.44,0,0,1,8.5,20a.41.41,0,0,1,.15-.14.49.49,0,0,1,.23-.06.33.33,0,0,1,.35.36v0l-.12,0h-.5Zm0-.07h.45v-.05A.37.37,0,0,0,9,20,.2.2,0,0,0,9,19.92a.2.2,0,0,0-.11,0,.23.23,0,0,0-.17.08A.35.35,0,0,0,8.61,20.2Z" transform="translate(-2 -0.27)" fill="#b16d03"/><path d="M9.91,20.71v-.06H10a.24.24,0,0,0,.15,0,1,1,0,0,0,0-.26v-.51a1.44,1.44,0,0,0,0-.28,0,0,0,0,0,0,0h-.05l-.21.1-.05,0s0,0,0,0v-.09a2.28,2.28,0,0,0,.49-.19h0v1c0,.08,0,.14,0,.17a.09.09,0,0,0,0,.06h.2v.06H9.91Z" transform="translate(-2 -0.27)" fill="#b16d03"/><path d="M10.88,20.74l-.06,0v0a.83.83,0,0,0,.3-.13.61.61,0,0,0,.19-.2,1.14,1.14,0,0,0,.09-.31l-.1.08a.46.46,0,0,1-.1.07h-.11a.32.32,0,0,1-.25-.1.38.38,0,0,1-.09-.27.5.5,0,0,1,.11-.33.41.41,0,0,1,.31-.12.38.38,0,0,1,.3.13.62.62,0,0,1,.11.39.81.81,0,0,1-.23.58.88.88,0,0,1-.25.18A1,1,0,0,1,10.88,20.74Zm0-1A.37.37,0,0,0,11,20a.2.2,0,0,0,.18.09.25.25,0,0,0,.18-.08.34.34,0,0,0,.06-.22.4.4,0,0,0-.07-.26.23.23,0,0,0-.18-.09.27.27,0,0,0-.12,0,.24.24,0,0,0-.09.11A.47.47,0,0,0,10.91,19.77Z" transform="translate(-2 -0.27)" fill="#b16d03"/><path d="M11.79,20.71v-.06h.07a.24.24,0,0,0,.15,0,1,1,0,0,0,0-.26v-.51a1.44,1.44,0,0,0,0-.28s0,0,0,0h0l-.21.1,0,0a0,0,0,0,1,0,0v-.09a2.38,2.38,0,0,0,.5-.19h0v1c0,.08,0,.14,0,.17a.09.09,0,0,0,0,.06h.2v.06h-.65Z" transform="translate(-2 -0.27)" fill="#b16d03"/><path d="M12.59,20.43l.05,0,0,0c.05.07.07.12.09.13s0,0,.08,0a.23.23,0,0,0,.12,0,.3.3,0,0,0,.24-.09.34.34,0,0,0,.09-.26.36.36,0,0,0-.08-.23A.29.29,0,0,0,13,20a.28.28,0,0,0-.13,0,.31.31,0,0,0-.11.09h0c0-.11,0-.24,0-.41a2.26,2.26,0,0,0,0-.27h.68a.2.2,0,0,0,0,.07.28.28,0,0,0,0,.08h-.58s0,.17,0,.38l.13-.08.14,0a.43.43,0,0,1,.28.1.41.41,0,0,1,.1.27.5.5,0,0,1-.16.36.56.56,0,0,1-.39.15h-.1l-.1,0,0-.08Z" transform="translate(-2 -0.27)" fill="#b16d03"/><polygon points="19.3 3.45 19.3 6.24 19.29 6.24 19.29 22.75 0.71 22.75 0.71 4.16 12.55 4.16 12.55 3.45 0 3.45 0 23.45 20 23.45 20 3.45 19.3 3.45" fill="#b16d03"/><path d="M16.79,2.45a4,4,0,0,1,.95.66,3.45,3.45,0,0,1,.26.28,3.45,3.45,0,0,1,.26-.28,4.18,4.18,0,0,1,.89-.63A10.35,10.35,0,0,0,18,.27,9.12,9.12,0,0,0,16.79,2.45Z" transform="translate(-2 -0.27)" fill="#b16d03"/><path d="M17.73,3.79a2,2,0,0,0-.3-.35,3.45,3.45,0,0,0-.78-.56,3.86,3.86,0,0,0-.16.94,2.49,2.49,0,0,0,.89,2,1.65,1.65,0,0,1-.08-.6A3,3,0,0,1,17.73,3.79Z" transform="translate(-2 -0.27)" fill="#b16d03"/><path d="M18.26,3.79a2.94,2.94,0,0,1,.44,1.45,1.8,1.8,0,0,1-.06.53,2.74,2.74,0,0,0,.8-2,4,4,0,0,0-.15-.89,3.24,3.24,0,0,0-.72.52A2.67,2.67,0,0,0,18.26,3.79Z" transform="translate(-2 -0.27)" fill="#b16d03"/><path d="M18,6a1.67,1.67,0,0,0,0-1.78A1.67,1.67,0,0,0,18,6Z" transform="translate(-2 -0.27)" fill="#b16d03"/><path d="M17.34,6.33A1.74,1.74,0,0,1,16.83,6,3.11,3.11,0,0,1,16,3.8a4.89,4.89,0,0,1,.2-1.12A8,8,0,0,0,15,2.24v.09C15.1,6.24,16.88,6.42,17.34,6.33Z" transform="translate(-2 -0.27)" fill="#b16d03"/><path d="M18.58,6.33A1.74,1.74,0,0,0,19.09,6a3.16,3.16,0,0,0,.79-2.16,4.89,4.89,0,0,0-.2-1.12,8,8,0,0,1,1.23-.44v.09C20.82,6.24,19,6.42,18.58,6.33Z" transform="translate(-2 -0.27)" fill="#b16d03"/></svg>