<?xml version="1.0" encoding="utf-8"?>
<!-- Generator: Adobe Illustrator 16.0.0, SVG Export Plug-In . SVG Version: 6.00 Build 0)  -->
<!DOCTYPE svg PUBLIC "-//W3C//DTD SVG 1.1//EN" "http://www.w3.org/Graphics/SVG/1.1/DTD/svg11.dtd">
<svg version="1.1" id="Layer_1" xmlns="http://www.w3.org/2000/svg" xmlns:xlink="http://www.w3.org/1999/xlink" x="0px" y="0px"
	 width="150px" height="150px" viewBox="0 0 150 150" enable-background="new 0 0 150 150" xml:space="preserve">
<path fill="#F39D36" d="M136.159,44.92h-32.414l-22.63-23.24c0-0.612,0-1.223,0-1.223c0-3.67-2.446-6.116-6.115-6.116
	c-3.669,0-6.116,2.446-6.116,6.116c0,0.611,0,1.223,0,1.223L46.255,44.92H13.841c-6.728,0-12.232,5.504-12.232,12.232v67.274
	c0,6.728,5.504,12.232,12.232,12.232h122.318c6.729,0,12.232-5.505,12.232-12.232V57.152
	C148.392,50.425,142.888,44.92,136.159,44.92z M73.777,26.573c0.612,0,1.223,0,1.223,0h1.223L94.571,44.92H54.817L73.777,26.573z
	 M142.274,124.427c0,3.671-2.446,6.117-6.115,6.117H13.841c-3.669,0-6.116-2.446-6.116-6.117V57.152c0-3.67,2.447-6.116,6.116-6.116
	h122.318c3.669,0,6.115,2.446,6.115,6.116V124.427L142.274,124.427z"/>
<path fill="#F39D36" d="M111.695,81.615c1.836,0,3.059-1.223,3.059-3.058s-1.223-3.058-3.059-3.058H99.464
	c-1.836,0-3.059,1.223-3.059,3.058v24.464c0,1.835,1.223,3.059,3.059,3.059h12.231c1.836,0,3.059-1.224,3.059-3.059
	c0-1.834-1.223-3.058-3.059-3.058h-9.172v-6.116h6.117c1.836,0,3.059-1.224,3.059-3.058c0-1.835-1.223-3.058-3.059-3.058h-6.117
	v-6.117H111.695L111.695,81.615z"/>
<path fill="#F39D36" d="M62.768,75.5c-4.893,0-9.174,4.282-9.174,9.174v12.231c0,4.893,4.281,9.172,9.174,9.172
	s9.174-4.283,9.174-9.172V84.674C71.942,79.782,67.661,75.5,62.768,75.5z M65.826,96.905c0,1.836-1.223,3.059-3.058,3.059
	s-3.058-1.223-3.058-3.059V84.674c0-1.835,1.223-3.059,3.058-3.059s3.058,1.224,3.058,3.059V96.905z"/>
<path fill="#F39D36" d="M23.015,81.615c1.834,0,3.058,1.224,3.058,3.059c0,1.834,1.223,3.061,3.058,3.061
	c1.834,0,3.058-1.227,3.058-3.061c0-4.892-4.281-9.172-9.174-9.172c-4.893,0-9.174,4.284-9.174,9.172v12.231
	c0,4.893,4.281,9.175,9.174,9.175c4.893,0,9.174-4.282,9.174-9.175c0-1.834-1.223-3.058-3.058-3.058
	c-1.835,0-3.058,1.224-3.058,3.058c0,1.836-1.224,3.059-3.058,3.059s-3.058-1.223-3.058-3.059V84.674
	C19.957,82.839,21.18,81.615,23.015,81.615z"/>
<path fill="#F39D36" d="M84.174,81.615h6.116c1.834,0,3.058-1.223,3.058-3.058S92.124,75.5,90.29,75.5h-6.116
	C79.282,75.5,75,79.782,75,84.674s4.282,9.172,9.174,9.172c1.834,0,3.059,1.226,3.059,3.06c0,1.836-1.225,3.059-3.059,3.059h-6.118
	c-1.835,0-3.058,1.224-3.058,3.058c0,1.835,1.223,3.059,3.058,3.059h6.118c4.893,0,9.172-4.282,9.172-9.175
	c0-4.892-4.281-9.171-9.172-9.171c-1.835,0-3.059-1.225-3.059-3.061C81.115,82.839,82.339,81.615,84.174,81.615z"/>
<path fill="#F39D36" d="M126.985,75.5h-6.116c-1.834,0-3.058,1.223-3.058,3.058v24.464c0,1.835,1.224,3.059,3.058,3.059h6.116
	c4.892,0,9.174-4.282,9.174-9.175V84.674C136.159,79.782,131.877,75.5,126.985,75.5z M130.044,96.905
	c0,1.836-1.224,3.059-3.059,3.059h-3.059V81.615h3.059c1.835,0,3.059,1.224,3.059,3.059V96.905L130.044,96.905z"/>
<path fill="#F39D36" d="M50.537,99.964h-9.174V78.558c0-1.835-1.224-3.058-3.059-3.058c-1.834,0-3.058,1.223-3.058,3.058v24.464
	c0,1.835,1.223,3.059,3.058,3.059h12.232c1.834,0,3.058-1.224,3.058-3.059C53.594,101.188,52.371,99.964,50.537,99.964z"/>
</svg>
