<?xml version="1.0" encoding="utf-8"?>
<!-- Generator: Adobe Illustrator 16.0.0, SVG Export Plug-In . SVG Version: 6.00 Build 0)  -->
<!DOCTYPE svg PUBLIC "-//W3C//DTD SVG 1.1//EN" "http://www.w3.org/Graphics/SVG/1.1/DTD/svg11.dtd">
<svg version="1.1" id="Layer_1" xmlns="http://www.w3.org/2000/svg" xmlns:xlink="http://www.w3.org/1999/xlink" x="0px" y="0px"
	 width="150px" height="150px" viewBox="0 0 150 150" enable-background="new 0 0 150 150" xml:space="preserve">
<path fill="#F39D36" d="M84.209,108.587c-1.665,0-3.017,1.349-3.017,3.015c0,1.667,1.349,3.015,3.017,3.015
	c1.663,0,3.015-1.347,3.015-3.015C87.224,109.936,85.872,108.587,84.209,108.587z"/>
<path fill="#F39D36" d="M112.547,105.42l-13.266-4.37l-4.823-9.496c4.346-4.347,7.241-9.927,8.291-15.979l0.603-3.466h5.126
	c4.562,0.017,8.273-3.668,8.29-8.231c0-0.021,0-0.041,0-0.061V45.88c0-23.061-18.694-41.755-41.754-41.755
	c-23.061,0-41.755,18.694-41.755,41.755v17.486c-0.007,3.571,2.222,6.765,5.577,7.989v3.316c-0.025,4.613,3.677,8.382,8.291,8.442
	h2.412c1.215,2.616,2.788,5.051,4.673,7.236c0.452,0.451,0.753,0.902,1.207,1.355l-4.673,9.495l-13.266,4.372
	c-15.375,4.974-26.529,21.104-26.529,38.438c-0.019,1.532,1.183,2.801,2.713,2.865h122.55c1.529-0.064,2.73-1.333,2.714-2.865
	C139.077,126.674,127.922,110.546,112.547,105.42z M111.189,63.365c0.009,1.491-1.194,2.705-2.682,2.713c-0.012,0-0.021,0-0.03,0
	h-4.221c0.753-5.426,1.206-11.305,1.506-17.033v-0.453h5.579L111.189,63.365z M41.549,66.229c-1.489,0.009-2.705-1.193-2.713-2.683
	c0-0.01,0-0.021,0-0.03V48.744h5.577v0.904l0,0c0.141,5.547,0.593,11.083,1.356,16.581L41.549,66.229L41.549,66.229z M47.127,77.385
	c-1.49,0.007-2.705-1.193-2.713-2.684c0-0.01,0-0.021,0-0.031l0,0v-2.863h2.261l0.603,3.767c0.151,0.755,0.301,1.356,0.453,1.96
	L47.127,77.385z M44.414,43.167h-5.427C40.114,23.377,57.071,8.248,76.86,9.376c0.138,0.008,0.278,0.017,0.414,0.025
	c18.115,1.232,32.535,15.652,33.765,33.766h-5.424C105.524,27.744,93,15.288,77.58,15.281h-4.975
	C57.127,15.223,44.521,27.692,44.414,43.167z M72.451,20.857h4.974c12.488,0,22.61,10.123,22.61,22.611v2.261l0,0l-3.466-0.453
	c-9.522-1.345-18.354-5.735-25.173-12.511c-0.534-0.491-1.235-0.76-1.959-0.754c-7.521,0.05-14.635,3.415-19.445,9.194
	C51.15,29.668,60.854,20.876,72.451,20.857z M53.458,77.385c-1.507-4.674-3.015-18.24-3.316-26.983l3.768-4.974
	c3.498-4.542,8.755-7.392,14.471-7.837c7.543,7.166,17.132,11.803,27.435,13.264l4.069,0.603
	c-0.253,5.703-0.806,11.388-1.656,17.033l0,0c-0.303,1.659-0.451,2.865-1.054,5.879c-1.509,8.895-8.14,16.882-16.733,18.993
	c-9.636,2.474-19.73-1.858-24.57-10.552H61.6c1.195,3.313,4.318,5.533,7.838,5.576h5.426c4.622-0.278,8.141-4.246,7.865-8.869
	c-0.258-4.233-3.634-7.609-7.865-7.863h-5.577c-3.534-0.001-6.682,2.238-7.838,5.577L53.458,77.385z M69.285,99.091
	c1.877,0.432,3.802,0.634,5.729,0.604c1.506,0,3.015-0.151,4.522-0.303l-4.976,5.275L69.285,99.091z M70.943,108.587l-8.743,9.347
	c-2.417-4.686-4.531-9.518-6.331-14.472l3.316-6.632L70.943,108.587z M90.541,95.924l3.768,7.538
	c-1.671,5.004-3.789,9.847-6.329,14.472l-9.496-9.498L90.541,95.924z M66.723,80.097c-0.008-1.489,1.193-2.705,2.683-2.712
	c0.01,0,0.021,0,0.031,0h5.577c1.582,0,2.864,1.284,2.861,2.864c0,1.582-1.281,2.864-2.861,2.865h-5.577
	C67.89,82.956,66.715,81.651,66.723,80.097z M16.678,141.146c1.205-13.866,10.25-26.379,22.61-30.447l11.758-3.92
	c2.136,5.958,4.811,11.71,7.989,17.184l0,0c2.28,4.049,4.85,7.928,7.688,11.607l3.466,5.576H16.678z M75.014,138.734l-3.769-6.029
	l-0.151-0.15c-2.261-3.016-4.371-6.179-6.331-9.346l9.948-10.55l10.552,10.399c-1.96,3.317-4.07,6.33-6.33,9.496
	C78.782,132.555,78.934,132.252,75.014,138.734z M79.988,141.146l3.466-5.576c2.84-3.731,5.409-7.659,7.689-11.758l0,0
	c3.128-5.426,5.753-11.128,7.838-17.033l11.76,3.92c12.36,4.068,21.555,16.581,22.606,30.447H79.988z"/>
<path fill="#F39D36" d="M104.558,124.866c-1.983-3.938-4.813-7.386-8.291-10.1c-1.236-1.115-3.141-1.016-4.256,0.223
	c-0.927,1.025-1.036,2.551-0.266,3.697c0.285,0.333,0.647,0.592,1.055,0.753c2.838,2.073,5.116,4.818,6.634,7.989
	c0.458,1.623,2.145,2.569,3.768,2.11s2.569-2.146,2.11-3.769C105.01,125.469,104.86,125.168,104.558,124.866z"/>
</svg>
