<?xml version="1.0" encoding="utf-8"?>
<!-- Generator: Adobe Illustrator 16.0.0, SVG Export Plug-In . SVG Version: 6.00 Build 0)  -->
<!DOCTYPE svg PUBLIC "-//W3C//DTD SVG 1.1//EN" "http://www.w3.org/Graphics/SVG/1.1/DTD/svg11.dtd">
<svg version="1.1" id="Layer_1" xmlns="http://www.w3.org/2000/svg" xmlns:xlink="http://www.w3.org/1999/xlink" x="0px" y="0px"
	 width="150px" height="150px" viewBox="0 0 150 150" enable-background="new 0 0 150 150" xml:space="preserve">
<path fill="#F39D36" d="M140.149,49.053H72.42c-3.904,0.034-7.061,3.191-7.096,7.096v84.5c0.034,3.905,3.191,7.063,7.096,7.097
	h67.729c3.905-0.034,7.063-3.191,7.097-7.097l0,0v-84.5C147.212,52.245,144.055,49.087,140.149,49.053z M142.73,140.649
	c-0.063,1.173-0.827,2.19-1.935,2.581H72.421c-1.384-0.094-2.486-1.196-2.58-2.581l0,0v-84.5c0.093-1.384,1.195-2.487,2.58-2.58
	h67.729c1.385,0.093,2.488,1.195,2.582,2.58l0,0v84.5H142.73z"/>
<path fill="#F39D36" d="M130.475,58.728H82.097c-3.905,0.036-7.063,3.191-7.097,7.096v7.096c0.034,3.905,3.191,7.06,7.097,7.096
	h48.378c3.904-0.035,7.061-3.191,7.096-7.096l0,0v-7.096C137.535,61.92,134.379,58.764,130.475,58.728z M133.055,72.92
	c-0.093,1.385-1.195,2.487-2.58,2.58H82.097c-1.385-0.094-2.487-1.195-2.581-2.58v-7.096c0.094-1.384,1.196-2.486,2.581-2.58h48.378
	c1.385,0.093,2.487,1.196,2.58,2.58V72.92z"/>
<path fill="#F39D36" d="M89.191,85.176H84.03c-2.53,0.016-4.568,2.078-4.554,4.606c0,0.183,0.013,0.371,0.034,0.555v5.159
	c-0.072,2.422,1.833,4.443,4.255,4.516c0.085,0.002,0.176,0.002,0.261,0h5.161c2.651,0.113,4.921-1.876,5.162-4.516l0,0v-5.159
	c0.225-2.629-1.725-4.938-4.352-5.163C89.73,85.153,89.46,85.153,89.191,85.176z M84.676,94.853v-5.161h5.161v5.161H84.676z"/>
<path fill="#F39D36" d="M108.542,85.176h-5.159c-2.581,0-4.516,1.937-5.162,5.161v5.159c0.017,2.533,2.079,4.568,4.606,4.556
	c0.182-0.002,0.37-0.014,0.551-0.035h5.162c2.65,0.113,4.92-1.876,5.161-4.516l0,0v-5.159c0.225-2.627-1.725-4.938-4.352-5.163
	C109.082,85.153,108.813,85.153,108.542,85.176z M104.026,94.853v-5.161h5.162v5.161H104.026z"/>
<path fill="#F39D36" d="M127.894,85.176h-4.515c-2.813-0.034-5.123,2.216-5.16,5.03c-0.001,0.044-0.001,0.087,0,0.131v5.159
	c-0.072,2.422,1.831,4.443,4.253,4.516c0.084,0.002,0.175,0.002,0.263,0h4.516c2.648,0.113,4.918-1.876,5.159-4.516v-5.805
	C133.055,87.112,131.119,85.176,127.894,85.176L127.894,85.176z M123.379,94.853v-5.161h4.515v5.161H123.379z"/>
<path fill="#F39D36" d="M89.191,104.527H84.03c-2.421-0.073-4.445,1.833-4.515,4.255c-0.003,0.086-0.003,0.173,0,0.26l0,0v5.162
	c-0.072,2.421,1.83,4.443,4.252,4.516c0.086,0.002,0.177,0.002,0.263,0h5.161c2.649,0.113,4.922-1.874,5.16-4.516l0,0v-4.516
	c0.225-2.627-1.725-4.938-4.351-5.161C89.73,104.505,89.46,104.505,89.191,104.527z M84.676,114.204v-4.516h5.161v4.516H84.676z"/>
<path fill="#F39D36" d="M108.542,104.527h-5.159c-2.815-0.034-5.126,2.216-5.162,5.031c-0.002,0.043-0.002,0.087,0,0.13v5.159
	c-0.036,2.815,2.217,5.124,5.029,5.161c0.043,0.001,0.084,0.001,0.128,0h5.162c2.65,0.114,4.92-1.873,5.161-4.516l0,0v-4.514
	C113.704,107.107,111.767,104.527,108.542,104.527z M104.026,114.204v-4.516h5.162v4.516H104.026z"/>
<path fill="#F39D36" d="M127.894,104.527h-4.515c-2.564,0.113-4.709,1.987-5.16,4.515l0,0v5.162
	c0.111,2.563,1.988,4.708,4.516,5.159h4.516c2.648,0.116,4.918-1.874,5.159-4.516v-5.159c0.507-2.294-0.943-4.568-3.239-5.073
	C128.753,104.52,128.321,104.49,127.894,104.527z M123.379,114.204v-4.516h4.515v4.516H123.379z"/>
<path fill="#F39D36" d="M89.191,123.879H84.03c-2.421-0.072-4.445,1.833-4.515,4.254c-0.003,0.088-0.003,0.175,0,0.262v5.16
	c0.11,2.565,1.987,4.71,4.515,5.161h5.161c2.813,0.036,5.124-2.217,5.16-5.028c0-0.044,0-0.087,0-0.13v-5.161
	c-0.016-2.529-2.079-4.567-4.606-4.554C89.56,123.843,89.376,123.854,89.191,123.879z M84.676,133.555v-5.16h5.161v5.16H84.676z"/>
<path fill="#F39D36" d="M108.542,123.879h-5.159c-2.566,0.111-4.711,1.987-5.162,4.516v5.16c0,2.58,1.935,4.516,5.162,5.161h5.159
	c2.651,0.113,4.923-1.875,5.162-4.514l0,0v-5.161c0.222-2.627-1.725-4.938-4.352-5.162
	C109.082,123.857,108.813,123.857,108.542,123.879z M104.026,133.555v-5.16h5.162v5.16H104.026z"/>
<path fill="#F39D36" d="M127.894,123.879h-4.515c-2.422-0.072-4.443,1.833-4.516,4.254c-0.003,0.088-0.003,0.175,0,0.262l0,0v5.16
	c-0.036,2.813,2.217,5.124,5.031,5.161c0.044,0,0.086,0,0.128,0h4.516c2.65,0.113,4.922-1.875,5.163-4.514l0,0v-5.161
	C133.43,126.057,130.888,123.799,127.894,123.879z M123.379,133.555v-5.16h4.515v5.16H123.379z"/>
<path fill="#F39D36" d="M7.27,135.49V36.797h21.932c3.905-0.035,7.06-3.191,7.096-7.096V7.77h59.989
	c1.173,0.064,2.189,0.828,2.582,1.935l0,0v33.543h5.16V10.351c-0.033-3.905-3.191-7.061-7.096-7.096H36.298
	c-1.905-0.048-3.756,0.645-5.161,1.935L5.334,30.992c-1.493,1.587-2.403,3.633-2.58,5.806v98.694
	c0.035,3.904,3.191,7.061,7.097,7.096h50.958v-4.516H9.851C8.466,137.978,7.363,136.875,7.27,135.49z M31.781,11.64v18.062
	c-0.093,1.385-1.195,2.488-2.58,2.58H11.14L31.781,11.64z"/>
<path fill="#F39D36" d="M55.649,63.245c0-10.688-8.665-19.351-19.352-19.351c-10.688,0-19.351,8.664-19.351,19.351
	c0,10.687,8.664,19.352,19.351,19.352C46.984,82.597,55.649,73.932,55.649,63.245z M33.716,49.053v9.675
	c0,1.291-0.645,2.58-1.935,2.58h-9.676C23.132,55.248,27.719,50.406,33.716,49.053z M36.297,78.081
	c-7.089-0.072-13.088-5.253-14.191-12.257h9.676c3.905-0.034,7.061-3.191,7.096-7.096v-9.675
	c7.944,1.509,13.163,9.174,11.653,17.118C49.229,73.024,43.272,78.006,36.297,78.081z"/>
<path fill="#F39D36" d="M54.359,29.701c2.071-0.154,3.716-1.8,3.87-3.87l0,0v-7.096c-0.154-2.07-1.799-3.716-3.87-3.871h-7.096
	c-2.07,0.154-3.716,1.8-3.871,3.871v7.096c0.155,2.07,1.801,3.716,3.871,3.87H54.359z M48.553,20.026h4.515v5.16h-4.515V20.026z"/>
<path fill="#F39D36" d="M62.744,15.51h5.161v4.516h-5.161V15.51z"/>
<path fill="#F39D36" d="M72.42,15.51h21.931v4.516H72.42V15.51z"/>
<path fill="#F39D36" d="M62.744,25.186h5.161v4.515h-5.161V25.186z"/>
<path fill="#F39D36" d="M72.42,25.186h21.931v4.515H72.42V25.186z"/>
<path fill="#F39D36" d="M43.392,34.216h4.516v5.161h-4.516V34.216z"/>
<path fill="#F39D36" d="M53.068,34.216H84.03v5.161H53.068V34.216z"/>
<path fill="#F39D36" d="M89.191,34.216h5.16v5.161h-5.16V34.216z"/>
<path fill="#F39D36" d="M56.938,87.756h-7.096c-2.069,0.154-3.716,1.801-3.87,3.871l0,0v7.097c0.154,2.069,1.801,3.715,3.87,3.869
	h7.096c2.07-0.154,3.716-1.8,3.87-3.869l0,0v-7.097c0.073-2.064-1.542-3.799-3.607-3.871C57.114,87.754,57.026,87.754,56.938,87.756
	z M55.649,97.432h-4.516v-5.16h4.516V97.432z"/>
<path fill="#F39D36" d="M36.297,87.756h4.515v4.516h-4.515V87.756z"/>
<path fill="#F39D36" d="M12.43,87.756h19.351v4.516H12.43V87.756z"/>
<path fill="#F39D36" d="M36.297,97.432h4.515v5.161h-4.515V97.432z"/>
<path fill="#F39D36" d="M12.43,97.432h19.351v5.161H12.43V97.432z"/>
<path fill="#F39D36" d="M12.43,127.104c0.154,2.072,1.8,3.717,3.87,3.871h7.741c1.945-0.204,3.376-1.92,3.225-3.871v-7.095
	c-0.049-1.88-1.385-3.481-3.225-3.87h-8.387c-2.069,0.154-3.716,1.799-3.87,3.87v7.095H12.43z M16.945,121.299h5.16v4.516h-5.16
	V121.299z"/>
<path fill="#F39D36" d="M31.781,116.785h4.516v4.514h-4.516V116.785z"/>
<path fill="#F39D36" d="M41.457,116.785h19.351v4.514H41.457V116.785z"/>
<path fill="#F39D36" d="M31.781,125.814h4.516v5.16h-4.516V125.814z"/>
<path fill="#F39D36" d="M41.457,125.814h19.351v5.16H41.457V125.814z"/>
<path fill="#F39D36" d="M55.649,107.107h5.159v5.162h-5.159V107.107z"/>
<path fill="#F39D36" d="M22.105,107.107h29.028v5.162H22.105V107.107z"/>
<path fill="#F39D36" d="M12.43,107.107h4.515v5.162H12.43V107.107z"/>
</svg>
