<svg id="Layer_1" data-name="Layer 1" xmlns="http://www.w3.org/2000/svg" viewBox="0 0 22 20.7"><title>existing</title><path d="M6.47,7.09H8.89a.29.29,0,1,0,0-.58H6.47a.29.29,0,1,0,0,.58Z" transform="translate(-1 -1.65)" fill="#ea9600"/><path d="M16.39,10.2a.29.29,0,0,0-.29-.29H12.49a.28.28,0,0,0-.26.31.29.29,0,0,0,.26.27H16.1A.29.29,0,0,0,16.39,10.2Z" transform="translate(-1 -1.65)" fill="#ea9600"/><path d="M11.27,10.49a.29.29,0,0,0,.31-.27.28.28,0,0,0-.26-.31H10.14a.29.29,0,0,0-.27.31.31.31,0,0,0,.27.27Z" transform="translate(-1 -1.65)" fill="#ea9600"/><path d="M6.47,10.49H8.89a.31.31,0,0,0,.32-.27.29.29,0,0,0-.27-.31H6.47a.29.29,0,0,0-.32.26.3.3,0,0,0,.26.32Z" transform="translate(-1 -1.65)" fill="#ea9600"/><path d="M12.78,13.32a.29.29,0,0,0,0,.58H14.2a.28.28,0,0,0,.29-.29.29.29,0,0,0-.29-.29Z" transform="translate(-1 -1.65)" fill="#ea9600"/><path d="M6.47,13.9h5.08a.29.29,0,0,0,0-.58H6.47a.29.29,0,1,0,0,.58Z" transform="translate(-1 -1.65)" fill="#ea9600"/><path d="M20.47,1.65H6.39A2.37,2.37,0,0,0,4,4L3.92,16.88H1.29a.29.29,0,0,0-.29.28v1.93a3.25,3.25,0,0,0,3,3.26H15.74a3.24,3.24,0,0,0,3.18-3,.28.28,0,0,0-.28-.3.3.3,0,0,0-.3.26,2.62,2.62,0,0,1-5.23-.21V17.17a.29.29,0,0,0-.29-.29H4.5L4.61,4A1.79,1.79,0,0,1,6.39,2.23H19a2.11,2.11,0,0,0-.66,1.52v7.32a.29.29,0,0,0,.58,0V7.89h3.33a.29.29,0,0,0,.3-.29h0V3.75A2.11,2.11,0,0,0,20.47,1.65ZM13.92,21.78H4.2a2.66,2.66,0,0,1-2.62-2.69V17.46h11v1.63A3.29,3.29,0,0,0,13.92,21.78ZM22,7.31h-3V3.75a1.53,1.53,0,0,1,3,0Z" transform="translate(-1 -1.65)" fill="#ea9600"/><path d="M16.1,6.5h-.7a.29.29,0,1,0,0,.58h.7a.29.29,0,1,0,0-.58Z" transform="translate(-1 -1.65)" fill="#ea9600"/><path d="M14.47,6.79a.29.29,0,0,0-.29-.29H10.09a.29.29,0,0,0,0,.58h4.09a.29.29,0,0,0,.29-.29Z" transform="translate(-1 -1.65)" fill="#ea9600"/><path d="M18.58,10.78a4.4,4.4,0,1,0,3.13,1.29A4.41,4.41,0,0,0,18.58,10.78Zm2.71,7.13a3.84,3.84,0,1,1,0-5.43h0A3.84,3.84,0,0,1,21.29,17.91Z" transform="translate(-1 -1.65)" fill="#ea9600"/><path d="M18.78,12.94a.28.28,0,0,0-.4,0L16.69,14.5a.29.29,0,1,0,.4.42l1.2-1.11v3.43a.29.29,0,1,0,.58,0V13.82l1.2,1.11a.29.29,0,0,0,.4-.42Z" transform="translate(-1 -1.65)" fill="#ea9600"/></svg>