<?xml version="1.0" encoding="utf-8"?>
<!-- Generator: Adobe Illustrator 16.0.0, SVG Export Plug-In . SVG Version: 6.00 Build 0)  -->
<!DOCTYPE svg PUBLIC "-//W3C//DTD SVG 1.1//EN" "http://www.w3.org/Graphics/SVG/1.1/DTD/svg11.dtd">
<svg version="1.1" id="Layer_1" xmlns="http://www.w3.org/2000/svg" xmlns:xlink="http://www.w3.org/1999/xlink" x="0px" y="0px"
	 width="150px" height="150px" viewBox="0 0 150 150" enable-background="new 0 0 150 150" xml:space="preserve">
<path fill="#F39D36" d="M140.183,42.933h-87c-4.059-0.052-7.392,3.197-7.444,7.256c-0.001,0.063-0.001,0.125,0,0.187v57.689
	c-0.052,4.061,3.196,7.393,7.257,7.445c0.062,0,0.125,0,0.187,0h54.433l23.263,23.262c0.449,0.574,1.133,0.917,1.861,0.93h0.93
	c0.872-0.445,1.414-1.35,1.396-2.326v-21.865h4.652c4.059,0.052,7.392-3.196,7.443-7.257c0-0.063,0-0.125,0-0.187V49.913
	c0.211-3.642-2.569-6.767-6.212-6.978C140.694,42.919,140.438,42.919,140.183,42.933z M142.974,108.067
	c0.079,1.205-0.833,2.246-2.038,2.326c-0.095,0.006-0.191,0.006-0.291,0h-7.443c-1.205-0.08-2.249,0.832-2.326,2.038
	c-0.006,0.097-0.006,0.191,0,0.29v18.61l-20.006-20.007c-0.45-0.574-1.134-0.917-1.861-0.93H53.179
	c-1.205,0.08-2.246-0.83-2.326-2.04c-0.006-0.093-0.006-0.188,0-0.288V49.913c-0.08-1.206,0.833-2.248,2.039-2.326
	c0.096-0.006,0.192-0.006,0.289,0h87.002c1.203-0.08,2.247,0.832,2.326,2.037c0.005,0.097,0.005,0.192,0,0.289
	C142.974,49.913,142.974,108.067,142.974,108.067z"/>
<path fill="#F39D36" d="M96.916,11.297h-87c-4.059-0.052-7.393,3.197-7.444,7.257c0,0.062,0,0.125,0,0.187v58.155
	c-0.052,4.059,3.198,7.395,7.257,7.446c0.062,0,0.125,0,0.187,0h4.652v21.865c-0.018,0.981,0.523,1.882,1.396,2.326h0.93
	c0.7-0.116,1.349-0.439,1.86-0.927l23.262-23.262h6.048c1.206,0.079,2.246-0.833,2.326-2.038c0.006-0.098,0.006-0.194,0-0.291
	v-31.64c-0.08-1.205,0.832-2.247,2.038-2.326c0.096-0.007,0.192-0.007,0.289,0H101.1c1.204,0.081,2.247-0.833,2.324-2.038
	c0.009-0.096,0.009-0.193,0-0.289V18.741c0.463-3.619-2.094-6.927-5.712-7.391C97.448,11.316,97.183,11.298,96.916,11.297z
	 M99.243,42.933H53.183c-4.059-0.052-7.392,3.197-7.444,7.256c-0.001,0.063-0.001,0.125,0,0.187v28.844h-4.652
	c-0.7,0.117-1.349,0.442-1.862,0.93L19.22,99.689V81.544c0.08-1.202-0.832-2.246-2.038-2.326c-0.096-0.006-0.192-0.006-0.289,0
	H9.916c-1.205,0.08-2.248-0.83-2.327-2.037c-0.006-0.096-0.006-0.193,0-0.291V18.738c-0.08-1.205,0.833-2.246,2.038-2.326
	c0.097-0.006,0.192-0.006,0.289,0h87c1.203-0.08,2.247,0.832,2.327,2.039c0.005,0.096,0.005,0.192,0,0.289V42.933L99.243,42.933z"/>
<path fill="#F39D36" d="M96.916,67.126c-6.683,0-12.098,5.416-12.098,12.096c0,6.682,5.415,12.098,12.098,12.098
	c6.681,0,12.097-5.416,12.097-12.098c0.049-6.628-5.279-12.043-11.908-12.096C97.039,67.125,96.977,67.125,96.916,67.126z
	 M96.916,86.2c-4.11,0-7.445-3.332-7.445-7.444c0-4.11,3.333-7.444,7.445-7.444c4.11,0,7.445,3.333,7.445,7.444
	C104.089,82.751,100.909,85.931,96.916,86.2z"/>
<path fill="#F39D36" d="M125.761,67.126c-6.681,0-12.096,5.416-12.096,12.096c0,6.682,5.415,12.098,12.096,12.098
	s12.096-5.416,12.096-12.098c0.052-6.628-5.279-12.043-11.907-12.096C125.885,67.125,125.822,67.125,125.761,67.126z M125.761,86.2
	c-4.109,0-7.445-3.332-7.445-7.444c0-4.11,3.333-7.444,7.445-7.444c4.11,0,7.445,3.333,7.445,7.444
	c0.053,4.059-3.198,7.394-7.257,7.444C125.885,86.202,125.822,86.202,125.761,86.2z"/>
<path fill="#F39D36" d="M67.604,67.126c-6.68,0-12.096,5.416-12.096,12.096c0,6.682,5.416,12.098,12.096,12.098
	c6.681,0,12.097-5.416,12.097-12.098c0.209-6.471-4.869-11.887-11.34-12.096C68.108,67.117,67.857,67.117,67.604,67.126z
	 M67.604,86.2c-4.111,0-7.444-3.332-7.444-7.444c0-4.11,3.333-7.444,7.444-7.444s7.444,3.333,7.444,7.444l0,0
	c0.052,4.059-3.198,7.394-7.257,7.444C67.729,86.202,67.667,86.202,67.604,86.2z"/>
</svg>
