<?xml version="1.0" encoding="utf-8"?>
<!-- Generator: Adobe Illustrator 16.0.0, SVG Export Plug-In . SVG Version: 6.00 Build 0)  -->
<!DOCTYPE svg PUBLIC "-//W3C//DTD SVG 1.1//EN" "http://www.w3.org/Graphics/SVG/1.1/DTD/svg11.dtd">
<svg version="1.1" id="Layer_1" xmlns="http://www.w3.org/2000/svg" xmlns:xlink="http://www.w3.org/1999/xlink" x="0px" y="0px"
	 width="150px" height="150px" viewBox="0 0 150 150" enable-background="new 0 0 150 150" xml:space="preserve">
<path fill="#F39D36" stroke="#FDFEFF" stroke-width="1.5" stroke-miterlimit="10" d="M140.4,66.52L140.4,66.52l-56.352-56.2
	c-4.86-4.949-12.815-5.021-17.764-0.159c-0.053,0.053-0.107,0.106-0.159,0.159l0,0L9.772,66.52l0,0
	c-4.949,4.861-5.021,12.816-0.159,17.765c0.051,0.053,0.106,0.106,0.159,0.159c2.28,2.327,5.4,3.641,8.658,3.646h2.582v41.464
	c0.018,8.216,6.672,14.87,14.886,14.888h21.872c2.248-0.041,4.06-1.854,4.101-4.101l0,0v-32.354
	c-0.018-3.76,3.016-6.819,6.774-6.836c0.021,0,0.04,0,0.06,0h12.912c3.757-0.02,6.817,3.017,6.834,6.773c0,0.021,0,0.041,0,0.063
	v32.504c0.041,2.247,1.854,4.061,4.102,4.101h22.026c8.213-0.017,14.867-6.671,14.885-14.884V88.09h1.823
	c6.946,0.017,12.589-5.601,12.604-12.547c0.001-0.02,0.001-0.041,0-0.06C143.986,72.146,142.727,68.914,140.4,66.52z
	 M134.478,78.672c-0.853,0.952-2.065,1.505-3.342,1.52h-6.078c-2.247,0.041-4.06,1.854-4.101,4.101v45.417
	c0.019,3.757-3.017,6.816-6.773,6.834c-0.023,0.001-0.041,0.001-0.062,0H96.35v-28.555c-0.017-8.216-6.67-14.87-14.885-14.887
	H68.554c-8.213,0.017-14.87,6.671-14.885,14.887v28.403H35.746c-3.641,0.053-6.635-2.856-6.688-6.495
	c-0.001-0.113,0-0.229,0.004-0.339V84.292c-0.041-2.247-1.852-4.06-4.101-4.101h-6.38c-2.517,0.001-4.559-2.039-4.56-4.555
	c0-0.052,0-0.103,0.002-0.154c-0.004-1.206,0.491-2.361,1.368-3.19l0,0L71.743,15.94c1.755-1.804,4.641-1.843,6.443-0.088
	c0.029,0.028,0.06,0.059,0.087,0.088l56.202,56.353l0,0c1.762,1.677,1.827,4.466,0.151,6.228
	C134.578,78.572,134.527,78.623,134.478,78.672z"/>
</svg>
