<?xml version="1.0" encoding="utf-8"?>
<!-- Generator: Adobe Illustrator 16.0.0, SVG Export Plug-In . SVG Version: 6.00 Build 0)  -->
<!DOCTYPE svg PUBLIC "-//W3C//DTD SVG 1.1//EN" "http://www.w3.org/Graphics/SVG/1.1/DTD/svg11.dtd">
<svg version="1.1" id="Layer_1" xmlns="http://www.w3.org/2000/svg" xmlns:xlink="http://www.w3.org/1999/xlink" x="0px" y="0px"
	 width="150px" height="150px" viewBox="0 0 150 150" enable-background="new 0 0 150 150" xml:space="preserve">
<path fill="#F39D36" d="M92.872,128.684c0.571-3.2,1.793-6.252,3.585-8.963l0,0c38.842-22.708,41.231-72.306,41.231-72.902
	c0-0.599-0.595-2.391-1.793-2.391c-4.585-1.002-8.88-3.047-12.546-5.976c0.42-2.636-0.474-5.312-2.391-7.17
	c-1.903-1.867-4.77-2.345-7.173-1.195c-2.896-2.771-5.322-6.001-7.17-9.561l0,0c-1.748-2.597-3.153-5.41-4.184-8.366
	c-2.391-5.379-15.536-8.367-27.488-8.367c-11.951,0-25.098,2.988-26.292,8.964c-1.031,2.769-2.438,5.384-4.182,7.768l0,0
	c-2.104,3.579-4.502,6.978-7.171,10.159c-2.608-1.092-5.609-0.63-7.768,1.195c-1.894,1.62-2.801,4.115-2.39,6.572
	c-3.936,2.474-8.148,4.479-12.548,5.976c-1.195,0.599-1.794,1.195-1.794,2.391s2.391,50.194,41.232,72.902l0,0
	c1.792,2.712,3.013,5.761,3.585,8.964c-14.94,1.195-22.708,4.181-22.708,8.964c0,8.963,34.062,9.561,40.634,9.561
	s40.633-0.598,40.633-9.561C115.579,133.463,107.811,130.475,92.872,128.684z M115.579,34.866c1.281,0.086,2.304,1.108,2.39,2.39
	c0.002,1.32-1.068,2.392-2.387,2.394c-1.319,0.001-2.392-1.068-2.394-2.386c0-0.002,0-0.005,0-0.008
	C113.276,35.974,114.296,34.953,115.579,34.866z M110.799,45.622c0.001,1.98-1.604,3.586-3.584,3.587
	c-1.98,0.002-3.587-1.603-3.587-3.583c0-0.001,0-0.002,0-0.004c-0.002-1.979,1.603-3.586,3.583-3.587
	c1.979-0.001,3.586,1.603,3.588,3.583C110.799,45.62,110.799,45.621,110.799,45.622z M74.945,8.573
	c13.745,0,20.915,3.586,21.512,4.78c-0.598,1.195-7.768,4.781-21.512,4.781c-13.743,0-20.915-3.586-21.512-4.781
	C54.031,12.159,61.202,8.573,74.945,8.573z M48.652,23.512L48.652,23.512c1.195-2.39,2.39-4.184,2.988-5.377
	c1.257,1.017,2.67,1.824,4.184,2.39h0.599c6.029,1.675,12.267,2.479,18.523,2.391c6.259,0.127,12.502-0.678,18.523-2.391h0.597
	c1.574-0.429,3.014-1.251,4.185-2.39c0.76,1.912,1.765,3.72,2.988,5.377l0,0c2.25,3.632,4.852,7.035,7.768,10.159
	c-0.485,1.129-0.691,2.359-0.598,3.585h-1.194c-4.385,0.019-8.025,3.396-8.366,7.77c-0.598,0-1.793-0.599-2.391-0.599
	c-4.564,0.162-8.468,3.333-9.561,7.768c-4.32-1.954-9.422-0.424-11.951,3.585c-1.975-2.633-5.075-4.184-8.366-4.184
	c-1.226-0.094-2.457,0.11-3.585,0.597c-0.872-4.571-4.908-7.849-9.561-7.767c-0.843-0.089-1.689,0.123-2.39,0.598
	c-0.342-4.373-3.981-7.75-8.366-7.769h-1.196c-0.124-1.27-0.533-2.495-1.195-3.585C43.394,30.56,46.195,27.158,48.652,23.512z
	 M101.237,53.988c0,2.64-2.14,4.78-4.78,4.78c-2.64,0-4.78-2.141-4.78-4.78c0-2.641,2.141-4.781,4.78-4.781
	C99.098,49.207,101.237,51.347,101.237,53.988z M89.286,62.354c0.205,3.095-2.139,5.771-5.234,5.976
	c-0.246,0.016-0.495,0.016-0.741,0c-3.3,0-5.976-2.676-5.976-5.976s2.676-5.976,5.976-5.976
	C86.611,56.378,89.286,59.054,89.286,62.354z M72.554,62.354c0.205,3.095-2.138,5.771-5.234,5.976c-0.246,0.016-0.494,0.016-0.742,0
	c-3.299,0-5.976-2.676-5.976-5.976s2.676-5.976,5.976-5.976c3.096-0.205,5.771,2.139,5.976,5.234
	C72.571,61.86,72.571,62.107,72.554,62.354z M58.213,53.988c-0.174,2.564-2.216,4.606-4.78,4.78
	c-2.566-0.174-4.608-2.216-4.781-4.78c0.174-2.566,2.216-4.608,4.781-4.781C55.997,49.38,58.039,51.422,58.213,53.988z
	 M42.677,42.037c1.918,0.142,3.443,1.667,3.585,3.585c-0.144,1.917-1.667,3.443-3.585,3.585c-1.917-0.142-3.443-1.667-3.585-3.585
	C39.234,43.705,40.758,42.179,42.677,42.037z M34.311,34.866c1.282,0.086,2.303,1.108,2.39,2.39
	c-0.087,1.283-1.107,2.304-2.39,2.391c-1.282-0.087-2.303-1.108-2.391-2.391C32.008,35.974,33.029,34.953,34.311,34.866z
	 M17.58,48.61c4.259-1.384,8.288-3.398,11.951-5.976c1.13,1.086,2.617,1.723,4.182,1.792l0,0v1.195
	c-0.101,4.521,3.484,8.266,8.003,8.366c0.122,0.002,0.241,0.002,0.363,0h1.195c-0.066,5.213,4.106,9.494,9.321,9.561
	c0.08,0.001,0.16,0.001,0.24,0c0.843,0.09,1.689-0.123,2.391-0.597c0.62,4.378,3.608,8.057,7.768,9.561
	c4.163,1.36,8.729-0.081,11.354-3.585c2.678,3.428,7.191,4.853,11.354,3.585c4.299-1.302,7.374-5.085,7.767-9.561
	c0.599,0,1.794,0.597,2.392,0.597c5.214,0.066,9.495-4.106,9.56-9.321c0.002-0.08,0.002-0.16,0-0.24h1.197
	c4.52,0.1,8.266-3.484,8.364-8.003c0.003-0.122,0.003-0.241,0-0.363v-1.195l0,0c1.59,0.043,3.118-0.613,4.184-1.792
	c3.796,2.348,7.797,4.347,11.951,5.976c-1.195,10.159-7.77,57.366-50.793,72.902c-4.098,1.195-8.451,1.195-12.549,0
	C25.348,105.974,18.774,58.769,17.58,48.61z M74.945,142.426c-20.915,0-32.866-2.987-35.257-4.777
	c5.625-2.615,11.728-4.037,17.927-4.184c-0.486,1.13-0.691,2.36-0.597,3.586c-0.09,0.843,0.123,1.688,0.597,2.39
	c0.599,0.596,1.195,0.596,2.391,0.596s1.195-0.596,1.792-1.793c1.096-4.985,0.679-10.188-1.195-14.938
	c1.794,0.596,4.184,1.793,5.976,2.391c5.229,1.794,10.905,1.794,16.135,0c2.031-0.693,4.026-1.49,5.976-2.391
	c-1.688,4.809-1.896,10.012-0.598,14.938c0,0.598,0.598,1.197,1.793,1.793c0.844,0.089,1.688-0.122,2.39-0.596
	c0.477-0.701,0.688-1.549,0.597-2.39c-0.484-1.13-0.69-2.36-0.597-3.586c6.2,0.146,12.302,1.568,17.927,4.184
	C107.811,139.438,95.859,142.426,74.945,142.426z"/>
</svg>
