<?xml version="1.0" encoding="utf-8"?>
<!-- Generator: Adobe Illustrator 16.0.0, SVG Export Plug-In . SVG Version: 6.00 Build 0)  -->
<!DOCTYPE svg PUBLIC "-//W3C//DTD SVG 1.1//EN" "http://www.w3.org/Graphics/SVG/1.1/DTD/svg11.dtd">
<svg version="1.1" id="Layer_1" xmlns="http://www.w3.org/2000/svg" xmlns:xlink="http://www.w3.org/1999/xlink" x="0px" y="0px"
	 width="150px" height="150px" viewBox="0 0 150 150" enable-background="new 0 0 150 150" xml:space="preserve">
<g>
	<path fill="#F39D36" d="M113.006,11.057c-13.283,0-24.599,8.364-29.517,20.662H29.378c-1.477,0-2.46,0.984-2.46,1.967
		l-0.492,77.234H10.683c-0.983,0-1.967,0.983-2.459,1.968l0,0v9.838c0,9.345,7.379,16.725,16.233,17.217l0,0h67.887l0,0
		c0.492,0,0.984,0,0.984,0l0,0c9.347,0,17.218-7.872,17.218-17.217l0,0V73.533c0.492,0,0.983,0,1.476,0
		c17.218-0.492,30.991-14.759,30.499-31.977C143.013,24.831,129.731,11.549,113.006,11.057L113.006,11.057z M25.932,135.516
		L25.932,135.516c-6.887,0-12.79-5.902-12.79-12.787v-7.38h63.953v7.38c0,4.427,1.968,8.854,4.918,12.296
		c0,0,0.492,0.491,0.984,0.491H25.932z M107.103,122.726c0,6.888-5.904,12.79-12.791,12.79l0,0l0,0
		c-6.886,0-12.791-5.904-12.791-12.79v-9.838c0-0.492,0-0.984-0.489-1.476c-0.494-0.492-0.985-0.492-1.478-0.492H30.852
		l0.492-74.775h51.161c-0.492,1.968-0.492,3.936-0.492,5.904c0,4.428,0.984,8.363,2.46,12.298H63.813
		c-0.984,0-1.967,0.983-1.967,1.967c0,0.983,0.983,1.967,1.967,1.967h23.12c4.429,6.887,11.805,12.297,20.171,13.774
		L107.103,122.726L107.103,122.726z M113.006,69.105c-14.758,0-26.564-11.807-26.564-26.564s11.807-26.565,26.564-26.565
		s26.563,11.806,26.563,26.564l0,0C140.061,56.807,127.764,69.105,113.006,69.105L113.006,69.105z"/>
	<path fill="#F39D36" d="M49.546,69.105c-3.936,0-6.887,3.444-6.395,6.887c0,3.936,3.444,6.887,6.887,6.395
		c3.443,0,6.395-2.951,6.395-6.887C56.433,72.057,53.48,69.105,49.546,69.105z M49.546,78.452c-1.475,0-2.459-1.476-1.967-2.46
		c0-1.476,1.476-2.459,2.459-1.967c1.475,0,1.967,0.983,1.967,2.459C52.005,77.469,51.021,78.452,49.546,78.452L49.546,78.452z"/>
	<path fill="#F39D36" d="M61.352,75.992c0,0.984,0.983,1.968,1.967,1.968l0,0h29.516c0.983,0,1.968-0.983,1.968-1.968
		s-0.984-1.967-1.968-1.967l0,0H63.319C62.336,74.025,61.352,75.008,61.352,75.992z"/>
	<path fill="#F39D36" d="M49.546,50.411c-3.936,0-6.887,3.444-6.395,6.887c0,3.935,3.444,6.887,6.887,6.396
		c3.443,0,6.395-2.952,6.395-6.887C56.433,53.362,53.48,50.411,49.546,50.411z M49.546,59.267c-1.475,0-2.459-1.476-1.967-2.459
		c0-1.476,1.476-2.459,2.459-1.967c1.475,0,1.967,0.983,1.967,2.459C52.005,58.282,51.021,59.267,49.546,59.267L49.546,59.267z"/>
	<path fill="#F39D36" d="M49.546,88.29c-3.936,0-6.887,3.443-6.395,6.888c0.492,3.442,3.444,6.887,6.887,6.395
		c3.443,0,6.395-2.952,6.395-6.886C56.433,91.241,53.48,88.29,49.546,88.29z M49.546,97.639c-1.475,0-2.459-1.478-1.967-2.461
		c0.492-0.983,1.476-2.46,2.459-1.968c1.475,0,1.967,0.984,1.967,2.46C52.005,96.653,51.021,97.639,49.546,97.639L49.546,97.639z"/>
	<path fill="#F39D36" d="M92.836,93.21H63.32c-0.984,0-1.968,0.984-1.968,1.968s0.983,1.968,1.968,1.968h29.516
		c0.984,0,1.968-0.984,1.968-1.968C95.296,94.194,94.312,93.21,92.836,93.21L92.836,93.21z"/>
	<path fill="#F39D36" d="M108.577,44.016L108.577,44.016h-5.902c-0.984,0-1.477,0.491-1.477,1.475c0,0.493,0,0.493,0.492,0.985
		l15.25,14.758c0.492,0.491,1.476,0,1.968-0.492c0.492-0.492,0.492-0.984,0-1.475l0,0l-13.283-12.299h2.952l0,0
		c5.412,0,9.839-3.936,10.331-8.854h4.92l0,0c0.982,0,0.982-0.983,0.982-1.475c0-0.493-0.49-0.984-0.982-0.984h-4.92
		c-0.492-2.459-1.476-4.918-3.445-6.395h8.364l0,0c0.982,0,0.982-0.985,0.982-1.477s-0.491-0.983-0.982-0.983l0,0h-15.251l0,0
		h-5.903c-0.984,0-1.477,0-1.477,0.983c0,0.985,0,1.477,0.984,1.477h0.492h5.903c3.937,0,6.89,2.951,7.382,6.395h-13.775l0,0
		c-0.984,0-0.984,0.984-0.984,1.477s0.492,0.983,0.984,0.983h13.775C115.466,41.557,112.021,44.016,108.577,44.016z"/>
</g>
</svg>
