<?xml version="1.0" encoding="utf-8"?>
<!-- Generator: Adobe Illustrator 16.0.0, SVG Export Plug-In . SVG Version: 6.00 Build 0)  -->
<!DOCTYPE svg PUBLIC "-//W3C//DTD SVG 1.1//EN" "http://www.w3.org/Graphics/SVG/1.1/DTD/svg11.dtd">
<svg version="1.1" id="Layer_1" xmlns="http://www.w3.org/2000/svg" xmlns:xlink="http://www.w3.org/1999/xlink" x="0px" y="0px"
	 width="150px" height="150px" viewBox="0 0 150 150" enable-background="new 0 0 150 150" xml:space="preserve">
<g opacity="0.1">
	<path fill="#F39D36" d="M37.519,53.522v9.864h5.446v-9.864H37.519z"/>
	<path fill="#F39D36" d="M51.981,26.049h-5.386c-5.013,0-9.077,4.063-9.077,9.077v4.055h5.446v-4.055
		C42.965,30.137,46.993,26.083,51.981,26.049z"/>
	<path fill="#F39D36" d="M37.519,41.359h5.446v9.924h-5.446V41.359z"/>
</g>
<path fill="#F39D36" d="M133.795,22.661H46.597c-6.972,0.034-12.614,5.677-12.647,12.647v29.469h3.509V53.522h105.534v32.617
	c0,5.079-4.117,9.198-9.199,9.198l0,0H58.577v3.448h75.216c6.973-0.033,12.614-5.676,12.648-12.646V35.248
	c0-6.951-5.636-12.586-12.586-12.586C133.836,22.661,133.814,22.661,133.795,22.661z M142.992,50.073H37.458v-8.956h105.534V50.073z
	 M142.992,37.971H37.458v-2.663c-0.033-5.046,4.03-9.164,9.077-9.198c0.02,0,0.041,0,0.061,0h87.197
	c5.048,0,9.138,4.091,9.138,9.138c0,0.02,0,0.041,0,0.06v2.361L142.992,37.971z"/>
<path fill="#F39D36" d="M118.061,86.26c4.967,2.471,10.977,1.248,14.584-2.965c3.87-5.45,2.59-13.004-2.858-16.876
	c-3.423-2.43-7.859-2.914-11.726-1.278c-5.781-3.354-13.187-1.386-16.54,4.396c-3.353,5.781-1.385,13.188,4.396,16.542
	c3.755,2.178,8.39,2.178,12.145,0V86.26L118.061,86.26z M131.797,75.851c-0.009,2.604-1.214,5.057-3.267,6.657
	c-2.112,1.529-4.796,2.04-7.322,1.392c4.084-4.588,4.084-11.508,0-16.096c2.526-0.683,5.225-0.17,7.322,1.392
	C130.606,70.776,131.816,73.243,131.797,75.851L131.797,75.851z M104.264,75.851c-0.032-4.612,3.679-8.377,8.291-8.411
	c4.612-0.034,8.378,3.679,8.411,8.291c0.032,4.61-3.679,8.376-8.292,8.409c-0.04,0.001-0.079,0.001-0.12,0
	C107.976,84.141,104.264,80.431,104.264,75.851L104.264,75.851z"/>
<path fill="#F39D36" d="M66.747,88.136c1.048-0.799,1.334-2.254,0.666-3.39l-6.656-11.194c-0.518-1.123-1.849-1.613-2.972-1.095
	c-0.082,0.037-0.16,0.08-0.236,0.127l-7.08,3.206c-1.576-1.096-3.234-2.068-4.962-2.904l-0.726-7.685l0,0
	c-0.271-1.166-1.286-2.007-2.481-2.057H29.229c-1.28-0.006-2.356,0.963-2.481,2.238l-0.666,7.807
	c-1.769,0.77-3.453,1.722-5.022,2.845l-7.019-3.208l0,0c-1.142-0.447-2.441-0.014-3.086,1.029L4.298,84.747
	c-0.662,1.169-0.351,2.648,0.726,3.45l0,0l6.354,4.537c-0.403,1.998-0.403,4.055,0,6.051l-6.656,4.479l0,0
	c-1.047,0.799-1.333,2.253-0.665,3.388l6.475,11.195c0.288,0.533,0.762,0.942,1.331,1.149c0.588,0.302,1.287,0.302,1.875,0
	l6.838-3.631c1.56,1.152,3.244,2.126,5.022,2.905l1.028,7.744l0,0c0.226,1.168,1.232,2.022,2.42,2.058h12.949
	c1.312,0.185,2.538-0.695,2.784-1.997l0.727-7.806c1.75-0.771,3.413-1.724,4.962-2.846l7.08,3.209l0,0
	c1.037,0.381,2.202,0.065,2.904-0.787l6.535-11.256c0.655-1.149,0.342-2.608-0.726-3.388l-6.051-4.479
	c0.395-1.998,0.395-4.053,0-6.052l6.414-4.537L66.747,88.136L66.747,88.136z M57.489,90.496c-0.503,0.386-0.775,1-0.726,1.633v0.484
	c0.378,1.999,0.378,4.052,0,6.051v0.424c-0.075,0.623,0.176,1.24,0.666,1.634l6.051,4.721l-5.688,9.802l-6.959-3.448
	c-0.554-0.353-1.261-0.353-1.815,0l-0.363,0.303c-1.585,1.196-3.313,2.193-5.144,2.965h-0.423c-0.6,0.239-1.002,0.809-1.028,1.452
	l-0.727,7.866H29.834l-0.726-7.866c-0.01-0.65-0.419-1.227-1.028-1.452h-0.363c-1.865-0.804-3.631-1.819-5.265-3.025h-0.423
	c-0.418-0.307-0.958-0.396-1.452-0.242l-7.201,3.267l-5.991-9.681l6.415-4.358l0,0h0.363c0.522-0.397,0.797-1.041,0.726-1.693
	v-0.423c-0.37-2.001-0.37-4.052,0-6.052v-0.425c0.255-0.661,0.114-1.411-0.363-1.936l-6.837-4.66l5.687-9.742l7.201,3.269
	c0.558,0.337,1.258,0.337,1.815,0l0.363-0.363c1.607-1.195,3.355-2.192,5.204-2.965h0.424c0.6-0.239,1.002-0.808,1.028-1.452
	l0.726-7.866h11.315l0.666,7.866c0.051,0.654,0.475,1.22,1.089,1.452h0.363c1.865,0.804,3.631,1.819,5.265,3.025h0.423
	c0.545,0.302,1.208,0.302,1.755,0l7.201-3.327l6.051,9.802L57.489,90.496z"/>
<path fill="#F39D36" d="M35.704,81.54c-7.886,0.073-14.22,6.527-14.145,14.414c0.075,7.888,6.528,14.221,14.415,14.146
	c7.887-0.074,14.22-6.527,14.145-14.415c-0.036-3.744-1.54-7.324-4.189-9.971C43.244,82.972,39.543,81.461,35.704,81.54z
	 M35.704,106.833c-6.048,0-10.952-4.904-10.951-10.954c0-6.049,4.905-10.951,10.954-10.951c6.05,0.002,10.952,4.906,10.951,10.954
	c0,2.905-1.155,5.691-3.208,7.745c-2.104,1.943-4.884,2.985-7.747,2.904V106.833z"/>
</svg>
