<?xml version="1.0" encoding="utf-8"?>
<!-- Generator: Adobe Illustrator 16.0.0, SVG Export Plug-In . SVG Version: 6.00 Build 0)  -->
<!DOCTYPE svg PUBLIC "-//W3C//DTD SVG 1.1//EN" "http://www.w3.org/Graphics/SVG/1.1/DTD/svg11.dtd">
<svg version="1.1" id="Layer_1" xmlns="http://www.w3.org/2000/svg" xmlns:xlink="http://www.w3.org/1999/xlink" x="0px" y="0px"
	 width="150px" height="150px" viewBox="0 0 150 150" enable-background="new 0 0 150 150" xml:space="preserve">
<path fill="#F39D36" d="M115.453,47.604c-2.205-0.126-4.42,0.075-6.567,0.597V27.299c-0.031-3.615-2.954-6.537-6.568-6.569H82.013
	c-0.945-2.833-3.584-4.752-6.57-4.777h-7.167c-1.103-6.102-6.944-10.155-13.046-9.051c-4.61,0.834-8.217,4.441-9.051,9.051h-7.167
	c-2.986,0.025-5.625,1.944-6.569,4.777h-20.31c-3.281-0.33-6.209,2.064-6.54,5.345c-0.021,0.208-0.031,0.418-0.03,0.627l0,0v112.278
	c0.032,3.614,2.954,6.537,6.569,6.569h89.583c3.614-0.032,6.537-2.955,6.569-6.569l0,0v-34.64
	c15.643,3.01,30.802-7.098,34.04-22.695c3.157-14.953-6.077-29.727-20.901-33.443C119.547,47.381,117.458,47.174,115.453,47.604z
	 M104.106,27.299v22.694c-1.572,0.43-3.011,1.251-4.181,2.39V29.688H82.011V24.91h20.305
	C103.341,25.271,104.048,26.212,104.106,27.299z M95.148,119.27H82.011v13.141H19.3V33.869h14.334
	c0.916,2.602,3.232,4.455,5.972,4.777H75.44c2.986-0.025,5.625-1.946,6.571-4.777h13.138v21.499
	c-11.338,11.215-11.863,29.357-1.196,41.209l0,0l0.6,0.597v22.096H95.148z M92.161,123.451l-5.971,5.972v-5.972H92.161z
	 M37.218,22.521c0.087-1.282,1.107-2.303,2.39-2.389h11.348V18.34c0-3.628,2.941-6.57,6.568-6.57c3.628,0,6.57,2.941,6.57,6.57
	v2.388h11.348c1.281,0.087,2.302,1.107,2.39,2.39l0,0v8.958c-0.088,1.282-1.109,2.303-2.39,2.389H39.607
	c-1.282-0.087-2.303-1.107-2.388-2.389l0,0v-9.555H37.218z M104.106,138.979c-0.085,1.281-1.106,2.304-2.389,2.388H12.133
	c-1.282-0.084-2.302-1.106-2.388-2.388l0,0V27.299c0.086-1.283,1.107-2.303,2.388-2.389h20.306v4.778H14.523v107.5h70.472
	l14.931-14.931v-20.903c1.256,1.017,2.668,1.824,4.181,2.39V138.979z M115.453,101.354c-13.521,0-24.485-10.963-24.485-24.485
	c0-13.523,10.964-24.486,24.485-24.486c13.524,0,24.486,10.963,24.486,24.486l0,0l0,0
	C139.875,90.365,128.95,101.289,115.453,101.354z"/>
<path fill="#F39D36" d="M68.871,58.354l-7.764-15.528H31.246l-8.361,15.528L45.58,88.813L68.871,58.354z M49.76,60.743
	l-3.583,16.125l-4.181-16.125H49.76z M42.592,56.563l2.987-5.972l2.986,5.972H42.592z M54.537,60.743h7.167l-10.75,14.333
	L54.537,60.743z M56.33,56.563l2.986-5.972l2.987,5.972H56.33z M52.745,53.576l-2.986-5.972h5.972L52.745,53.576z M39.009,53.576
	l-2.987-5.972h5.972L39.009,53.576z M35.426,56.563h-5.972l2.987-5.972L35.426,56.563z M37.218,60.743l3.583,14.333l-10.75-14.333
	H37.218z"/>
<path fill="#F39D36" d="M73.052,42.826h17.916v4.778H73.052V42.826z"/>
<path fill="#F39D36" d="M73.052,51.785h17.916v4.778H73.052V51.785z"/>
<path fill="#F39D36" d="M61.107,95.979l-3.584-2.987l-6.568,8.36H23.482v26.877h31.654v-24.486L61.107,95.979z M50.357,123.451
	H28.259v-17.917H47.37l-7.764,10.153l-4.778-4.778l-2.987,2.987l8.361,8.36l10.75-13.735L50.357,123.451z"/>
<path fill="#F39D36" d="M59.314,123.451H77.23v4.778H59.314V123.451z"/>
<path fill="#F39D36" d="M59.314,114.493H77.23v4.778H59.314V114.493z"/>
<path fill="#F39D36" d="M59.314,105.534h31.653v4.779H59.314V105.534z"/>
<path fill="#F39D36" d="M110.677,76.271h-5.972c-1.282,0.087-2.304,1.107-2.39,2.39l0,0c0,0.597,0.597,1.193,0.597,1.791
	l14.335,14.335c1.178,0.704,2.695,0.45,3.583-0.598c0.604-0.905,0.604-2.083,0-2.987l-10.152-9.557
	c5.093,0.061,9.553-3.407,10.749-8.359h3.586c1.318,0,2.388-1.07,2.388-2.39s-1.068-2.388-2.388-2.388h-3.586
	c-0.087-1.388-0.733-2.682-1.791-3.584h5.377c1.279-0.087,2.302-1.107,2.388-2.388l0,0c-0.086-1.283-1.108-2.303-2.388-2.39
	l-14.934-0.597h-5.971c-1.319,0-2.388,1.069-2.388,2.389c0,1.318,1.067,2.389,2.388,2.389h5.971c2.71-0.124,5.162,1.593,5.972,4.181
	h-11.944c-1.28,0.086-2.303,1.106-2.389,2.388l0,0c0.086,1.282,1.108,2.303,2.389,2.39h11.944
	C115.224,75.454,112.955,76.713,110.677,76.271z"/>
</svg>
