<?xml version="1.0" encoding="utf-8"?>
<!-- Generator: Adobe Illustrator 16.0.0, SVG Export Plug-In . SVG Version: 6.00 Build 0)  -->
<!DOCTYPE svg PUBLIC "-//W3C//DTD SVG 1.1//EN" "http://www.w3.org/Graphics/SVG/1.1/DTD/svg11.dtd">
<svg version="1.1" id="Layer_1" xmlns="http://www.w3.org/2000/svg" xmlns:xlink="http://www.w3.org/1999/xlink" x="0px" y="0px"
	 width="150px" height="150px" viewBox="0 0 150 150" enable-background="new 0 0 150 150" xml:space="preserve">
<rect x="55.46" y="20.799" fill="#F39D36" width="45.889" height="4.662"/>
<path fill="#F39D36" d="M123.199,95.387c-0.039-4.408-3.604-7.973-8.011-8.014h-4.518V55.179h-4.661v32.194h-5.683
	c-4.438,0.021-8.023,3.639-8.002,8.08c0.009,2.104,0.844,4.119,2.322,5.613c-2.673,2.617-3.159,6.742-1.165,9.906
	c-3.926,1.863-5.665,6.504-3.935,10.49v0.145H71.483c-0.012-6.789-3.328-13.148-8.886-17.043c5.344-2.006,8.885-7.113,8.886-12.82
	c0.033-1.246-0.941-2.283-2.185-2.33H50.943V66.688h-4.516v23.017c-3.774-0.008-6.839,3.043-6.848,6.816c0,0.012,0,0.021,0,0.031
	l0,0v50.404h4.516V96.406c-0.033-1.244,0.941-2.283,2.186-2.332h20.395c-1.009,4.094-4.671,6.975-8.886,6.994h-6.847
	c-1.254-0.047-2.309,0.934-2.355,2.188c-0.042,1.148,0.781,2.148,1.917,2.328h0.438c8.85,0,16.024,7.174,16.024,16.025l0,0v2.33
	c-0.016,1.27,1.001,2.314,2.272,2.33c0.02,0,0.039,0,0.059,0h13.404c-1.91,3.943-0.285,8.691,3.643,10.635
	c1.126,0.578,2.376,0.879,3.641,0.873v9.178h4.518v-9.178h10.344c4.38,0.033,7.964-3.484,8.013-7.867l0,0
	c0.004-1.268-0.296-2.516-0.875-3.643c4.415-0.148,7.871-3.848,7.722-8.262c0-0.014,0-0.027-0.002-0.043
	c-0.003-1.395-0.408-2.76-1.165-3.932c3.997-1.783,5.795-6.467,4.013-10.465c-0.025-0.059-0.054-0.113-0.078-0.17l0,0
	c-0.447-0.912-1.039-1.75-1.748-2.477C122.285,99.504,123.184,97.496,123.199,95.387z M104.847,133.262H89.84
	c-1.889-0.002-3.422-1.535-3.42-3.426c0.003-1.887,1.534-3.418,3.42-3.42h14.859c1.888,0.117,3.323,1.74,3.207,3.629
	c0,0.004,0,0.01-0.001,0.014C107.857,131.752,106.536,133.137,104.847,133.262z M111.692,121.754H96.688
	c-1.932,0-3.497-1.566-3.497-3.496c0-1.932,1.565-3.496,3.497-3.496h14.858c1.921,0.023,3.474,1.574,3.497,3.496
	C115.084,120.148,113.584,121.715,111.692,121.754L111.692,121.754z M115.043,110.246h-14.715c-1.889,0.121-3.521-1.314-3.641-3.205
	c-0.121-1.893,1.313-3.521,3.204-3.643l0,0h15.297c1.891-0.121,3.521,1.314,3.643,3.205c0.12,1.891-1.313,3.521-3.206,3.643l0,0
	H115.043z M115.043,98.883h-14.715c-1.92-0.102-3.408-1.719-3.351-3.643c0.12-1.717,1.487-3.084,3.206-3.203h14.859
	c1.889,0.115,3.322,1.738,3.207,3.627c-0.001,0.004-0.001,0.01-0.003,0.014C118.181,97.418,116.784,98.816,115.043,98.883z"/>
<path fill="#F39D36" d="M43.951,38.426c-0.013-0.645-0.34-1.243-0.874-1.603l-2.331-1.748c-0.663-3.386-3.946-5.595-7.334-4.933
	c-2.92,0.572-5.032,3.123-5.049,6.098c-1.833-0.281-3.578-0.979-5.099-2.039l-0.875-0.583c-1.049-0.708-2.472-0.449-3.205,0.583l0,0
	c-0.274,0.384-0.426,0.84-0.438,1.311v1.893c0.013,2.7,0.824,5.336,2.331,7.575l-1.747,1.747c-0.875,0.89-0.875,2.316,0,3.206
	c0.457,0.386,1.01,0.638,1.603,0.729H32.15c4.401-0.044,8.083-3.351,8.596-7.721l2.477-2.477
	C43.797,39.955,44.071,39.185,43.951,38.426z M36.958,40.32c-0.387,0.457-0.639,1.011-0.728,1.603
	c0.016,2.284-1.796,4.162-4.08,4.225h-5.827c0.387-0.835,0.213-1.824-0.438-2.476c-1.085-1.079-1.842-2.443-2.186-3.934
	c2.199,0.984,4.584,1.48,6.992,1.457c1.272,0.016,2.314-1.001,2.331-2.272c0-0.021,0-0.039,0-0.06l0,0v-2.477
	c0.111-0.917,0.947-1.572,1.866-1.46c0.009,0.001,0.019,0.002,0.028,0.003c0.784,0.049,1.407,0.675,1.457,1.457l0,0
	c-0.021,0.734,0.303,1.435,0.875,1.895l1.165,0.874L36.958,40.32z"/>
<path fill="#F39D36" d="M85.324,48.333V43.67h-6.847c-1.272-0.016-2.314,1.001-2.331,2.272c0,0.02,0,0.039,0,0.059l0,0v6.993H71.63
	v4.662h4.663v9.178h4.66v-9.178h4.371v-4.662h-4.662v-4.662H85.324z"/>
<path fill="#F39D36" d="M92.171,34.493H64.637c-3.773-0.008-6.838,3.043-6.847,6.817c0,0.01,0,0.02,0,0.029l0,0v27.678
	c-0.008,3.773,3.044,6.841,6.817,6.848c0.01,0,0.019,0,0.028,0H92.17c3.771,0.008,6.84-3.044,6.847-6.818c0-0.01,0-0.02,0-0.03
	V41.339c0.007-3.773-3.046-6.84-6.819-6.847C92.19,34.493,92.182,34.493,92.171,34.493z M94.503,69.019
	c0.016,1.272-1.002,2.314-2.273,2.332c-0.021,0-0.039,0-0.059,0H64.637c-1.156,0.055-2.14-0.837-2.195-1.995
	c-0.004-0.113-0.001-0.224,0.011-0.336V41.339c-0.016-1.271,1.001-2.314,2.272-2.331c0.02,0,0.039,0,0.059,0h27.534
	c1.243,0.047,2.218,1.086,2.186,2.331V69.019L94.503,69.019z"/>
<path fill="#F39D36" d="M43.951,20.799H16.417c-3.773-0.008-6.839,3.044-6.847,6.817c0,0.009,0,0.02,0,0.03l0,0v27.533
	c-0.008,3.773,3.044,6.838,6.817,6.847c0.009,0,0.019,0,0.028,0H43.95c3.773,0.008,6.838-3.044,6.847-6.817c0-0.009,0-0.021,0-0.029
	l0,0V27.646c0.056-3.726-2.917-6.791-6.642-6.847C44.087,20.797,44.019,20.797,43.951,20.799z M46.428,55.179
	c0.016,1.271-1.001,2.314-2.272,2.331c-0.02,0-0.039,0-0.059,0H16.417c-1.271,0.017-2.314-1.001-2.331-2.272c0-0.02,0-0.039,0-0.059
	l0,0V27.646c-0.016-1.272,1.001-2.315,2.272-2.331c0.02,0,0.039,0,0.059,0h27.534c1.244-0.033,2.283,0.941,2.331,2.185l0,0v27.679
	H46.428z"/>
<path fill="#F39D36" d="M140.392,9.29h-27.532c-3.774-0.008-6.841,3.044-6.848,6.817c0,0.009,0,0.019,0,0.028v27.533
	c-0.008,3.773,3.044,6.838,6.817,6.847c0.011,0,0.02,0,0.03,0h27.532c3.773,0.008,6.839-3.044,6.847-6.817c0-0.01,0-0.019,0-0.029
	V16.137c0.008-3.773-3.046-6.839-6.819-6.847C140.41,9.29,140.4,9.29,140.392,9.29z M142.576,43.67
	c0.016,1.271-1.001,2.315-2.271,2.332c-0.022,0-0.039,0-0.061,0h-27.387c-1.243-0.048-2.218-1.087-2.186-2.332V32.162h4.809
	c1.272,6.219,7.319,10.249,13.547,9.032c4.54-0.946,8.087-4.493,9.034-9.032h4.807V43.67H142.576z M119.704,29.977
	c0-3.782,3.065-6.847,6.847-6.847c3.782,0,6.848,3.065,6.848,6.847s-3.065,6.847-6.848,6.847l0,0l0,0
	c-3.773,0.009-6.838-3.044-6.847-6.817C119.704,29.997,119.704,29.986,119.704,29.977z M142.576,27.646h-4.808
	c-1.273-6.219-7.318-10.249-13.549-9.032c-4.539,0.946-8.085,4.493-9.031,9.032h-4.81V16.137c-0.016-1.271,1.004-2.314,2.274-2.331
	c0.02,0,0.039,0,0.059,0H140.1c1.271-0.016,2.314,1.001,2.329,2.272c0,0.02,0,0.039,0,0.059v11.509H142.576z"/>
<rect x="76.146" y="103.398" fill="#F39D36" width="4.662" height="4.662"/>
</svg>
