<?xml version="1.0" encoding="utf-8"?>
<!-- Generator: Adobe Illustrator 16.0.0, SVG Export Plug-In . SVG Version: 6.00 Build 0)  -->
<!DOCTYPE svg PUBLIC "-//W3C//DTD SVG 1.1//EN" "http://www.w3.org/Graphics/SVG/1.1/DTD/svg11.dtd">
<svg version="1.1" id="Layer_1" xmlns="http://www.w3.org/2000/svg" xmlns:xlink="http://www.w3.org/1999/xlink" x="0px" y="0px"
	 width="150px" height="150px" viewBox="0 0 150 150" enable-background="new 0 0 150 150" xml:space="preserve">
<path fill="#F39D36" d="M104.459,110.491c-1.233,1.854-1.852,3.086-3.087,4.939c-1.234,1.853-1.853,1.235-3.086,1.235
	c-1.236,0-1.236-1.853-1.236-3.086c0-0.342,0.277-0.616,0.618-0.616l0,0l3.086-4.941c0.618-1.234,1.854-1.234,3.087-0.617
	C105.075,108.022,105.076,109.876,104.459,110.491z"/>
<path fill="#F39D36" d="M76.061,2.455C47.83,2.386,24.89,25.217,24.821,53.449c0,0.082,0,0.164,0,0.248
	c0,1.234,1.235,1.852,2.469,1.852c0.996-0.061,1.791-0.855,1.852-1.852C29.146,27.784,50.155,6.781,76.068,6.785
	c25.907,0.003,46.905,21.005,46.911,46.911v0.618c0.024,6.16-1.238,12.259-3.705,17.903c-3.728,10.329-8.485,20.257-14.199,29.633
	c-0.616,1.235-0.616,2.469,0.617,3.088c1.234,0.617,2.468,0.617,3.088-0.618l0,0c5.606-9.864,10.355-20.191,14.199-30.867
	c2.472-6.292,3.729-12.995,3.704-19.755C126.822,25.581,104.175,2.659,76.061,2.455z"/>
<path fill="#F39D36" d="M95.199,120.988c-1.235-0.618-2.469-0.618-3.086,0.615l0,0C86.556,129.012,81,136.42,76.061,142.595
	C57.736,121.55,43.122,97.542,32.845,71.599c-0.7-1.562-1.117-3.232-1.234-4.939c-0.618-1.236-1.852-1.851-2.47-1.236l0,0
	c-1.235,0.618-1.852,1.236-1.235,2.47c0.618,1.235,1.235,3.087,1.851,4.938c10.874,27.314,26.323,52.575,45.685,74.699
	c0.934,0.625,2.153,0.625,3.086,0l0,0c6.501-7.397,12.48-15.235,17.903-23.459C96.294,122.956,95.869,121.894,95.199,120.988z"/>
<path fill="#F39D36" d="M55.071,41.348c-1.145-0.53-2.503-0.033-3.034,1.111c-0.019,0.042-0.036,0.082-0.054,0.125l0,0
	c-6.3,13.465-0.49,29.486,12.973,35.786c13.465,6.299,29.489,0.491,35.788-12.974c6.296-13.458,0.499-29.47-12.953-35.777
	c-8.982-4.499-19.735-3.544-27.782,2.469c-0.842,0.793-1.09,2.032-0.618,3.087c0.618,0.618,2.47,1.236,3.087,0.618l0,0
	c9.888-7.5,23.984-5.564,31.485,4.323s5.564,23.983-4.322,31.486c-9.888,7.499-23.984,5.565-31.484-4.322
	c-4.747-6.896-5.676-15.726-2.469-23.459C56.306,42.584,55.688,41.348,55.071,41.348L55.071,41.348z"/>
<path fill="#F39D36" d="M112.484,80.242c1.235-3.086,2.469-6.79,3.704-9.262c1.887-5.603,3.128-11.401,3.706-17.284
	c-0.063-0.997-0.857-1.792-1.853-1.852l0,0c-1.233,0-1.851,1.234-2.469,1.852c-0.076,5.29-1.121,10.521-3.088,15.434
	c-1.073,3.147-2.309,6.241-3.705,9.26c-0.53,1.146-0.032,2.504,1.111,3.035c0.042,0.02,0.083,0.036,0.127,0.052l0,0
	C111.013,81.607,111.991,81.118,112.484,80.242z"/>
</svg>
