<?xml version="1.0" encoding="utf-8"?>
<!-- Generator: Adobe Illustrator 16.0.0, SVG Export Plug-In . SVG Version: 6.00 Build 0)  -->
<!DOCTYPE svg PUBLIC "-//W3C//DTD SVG 1.1//EN" "http://www.w3.org/Graphics/SVG/1.1/DTD/svg11.dtd">
<svg version="1.1" id="Layer_1" xmlns="http://www.w3.org/2000/svg" xmlns:xlink="http://www.w3.org/1999/xlink" x="0px" y="0px"
	 width="150px" height="150px" viewBox="0 0 150 150" enable-background="new 0 0 150 150" xml:space="preserve">
<path fill="#F39D36" d="M142.353,75.459l-21.531-61.194c0-0.566-0.566-0.566-0.566-1.133c-0.568,0-0.568,0-1.134,0
	c-0.567,0-0.567,0.567-1.134,0.567c0,0.566,0,0.566,0,1.133l0,0l20.962,58.927H100.42l17.002-58.927v-0.567V13.7
	c0,0,0-0.567-0.568-0.567c0,0-0.567,0-0.567-0.566h-0.565h-0.569c0,0-0.565,0-0.565,0.566c0,0,0,0.567-0.567,0.567l0,0
	l-18.131,61.76v0.568l0,0c0,6.231,2.833,11.898,7.366,15.865c4.531,3.965,10.198,6.799,16.431,6.799s11.899-2.267,16.431-6.799
	c4.533-4.534,6.8-10.2,7.366-15.865c0,0,0,0,0-0.568C142.353,76.594,142.353,76.027,142.353,75.459L142.353,75.459z M132.72,90.759
	c-2.834,2.833-6.231,4.534-9.633,5.099c-3.966,0.567-7.365,0.567-11.331-0.564c-3.4-1.136-6.801-3.402-9.066-6.802
	c-2.268-2.833-3.965-6.799-3.965-10.198h40.229C138.386,82.826,136.687,87.358,132.72,90.759L132.72,90.759z"/>
<path fill="#F39D36" d="M53.394,76.594c0-0.566,0-0.566,0-1.134c0-0.566-0.567-0.566-0.567-1.132L31.296,14.266
	c0,0,0-0.566-0.567-0.566l-0.566-0.567h-0.567h-0.567c0,0-0.566,0-0.566,0.567l-0.566,0.566v0.567v0.567l20.398,58.928H10.898
	L27.33,15.399v-0.567v-0.567c0,0,0-0.566-0.566-0.566c0,0-0.566,0-0.566-0.567H25.63h-0.566L24.497,13.7v0.566L7.499,74.894
	c-0.566,0-0.566,0.566-0.566,0.566c0,0.568,0,0.568,0,1.134c0,6.232,2.833,11.897,7.366,15.865
	c3.399,4.532,9.632,6.799,15.298,6.799c6.233,0,11.899-2.267,16.432-6.799C50.561,88.491,52.827,82.826,53.394,76.594L53.394,76.594
	z M29.596,95.857c-5.099,0-9.632-1.699-13.599-5.099c-3.966-3.401-6.233-7.933-6.233-13.033h40.23
	c-0.567,5.101-2.833,9.632-6.233,13.033C40.362,94.158,34.696,95.857,29.596,95.857L29.596,95.857z"/>
<path fill="#F39D36" d="M26.197,16.532h38.529c0.567,1.701,1.133,3.4,2.267,4.533s2.833,2.267,4.533,2.267v77.626
	c-6.799,0.566-13.032,2.833-17.565,7.366c-5.1,4.532-7.933,10.198-9.066,16.997h-2.266c-1.7,0-3.966,0.567-5.1,2.268
	c-1.133,1.133-2.267,3.399-2.267,5.098v7.935c0,0.565,0,0.565,0,1.132c0,0,0,0.568,0.567,0.568c0.566,0,0.566,0,0.566,0
	s0.566,0,1.133,0h71.393c0.566,0,1.134,0,1.7-0.568c0.566-0.566,0.566-1.132,0.566-1.697v-7.934c0-1.699-0.566-3.966-2.267-5.101
	c-1.135-1.133-3.399-2.266-5.1-2.266h-2.266c-1.135-6.232-4.533-12.466-9.065-17c-5.101-4.532-11.332-7.365-17.566-7.365V22.765
	c1.7-0.566,3.399-1.133,4.533-2.266c1.134-1.133,2.267-2.833,2.267-4.533h37.396h0.565c0,0,0.569,0,0.569-0.566l0.566-0.567v-0.567
	V13.7c0,0,0-0.567-0.566-0.567c0,0-0.569,0-0.569-0.566h-0.565l0,0H81.725c-0.566-1.7-1.133-3.967-2.833-5.1
	c-1.7-1.133-3.4-1.133-5.667-1.133s-3.966,0.566-5.666,1.7c-1.7,1.133-2.833,2.833-2.833,5.1H26.197c-0.567,0-0.567,0-1.133,0.567
	c0,0.566-0.566,0.566-0.566,1.133s0,0.567,0.566,1.133C25.063,15.966,25.63,16.532,26.197,16.532L26.197,16.532z M107.787,132.687
	v6.802H38.663v-6.802c0-1.133,0.566-2.265,1.133-2.833c0.566-0.564,1.7-1.133,2.833-1.133h61.762c1.133,0,2.265,0.568,2.833,1.133
	C107.787,130.422,107.787,131.555,107.787,132.687L107.787,132.687z M98.724,125.321H48.295c1.133-5.666,3.966-10.764,8.499-14.164
	c4.533-4.533,10.765-6.801,16.999-6.801c6.232,0,12.465,2.268,16.998,6.801C94.756,114.558,97.589,119.655,98.724,125.321
	L98.724,125.321z M73.225,9.733c1.133,0,2.266,0.566,2.834,1.133c1.132,0.566,1.699,1.133,1.699,2.266
	c0.565,1.133,0.565,2.267,0.565,2.833c0,1.133-0.565,1.7-1.699,2.833c-0.565,0.567-1.7,1.133-2.833,1.7
	c-1.133,0-2.267,0-2.833-0.567c-0.566-0.566-1.7-1.133-2.267-2.267c-0.566-1.133-1.133-1.7-1.133-2.833c0-0.567,0-1.133,0.567-2.266
	c0-0.566,0.566-1.134,1.133-1.7c0.566-0.567,1.133-1.133,1.7-1.133C72.092,9.733,72.659,9.733,73.225,9.733L73.225,9.733z"/>
</svg>
