<?xml version="1.0" encoding="UTF-8" standalone="no"?>
<!-- Generator: Adobe Illustrator 19.0.0, SVG Export Plug-In . SVG Version: 6.00 Build 0)  -->

<svg
   version="1.1"
   id="Layer_1"
   x="0px"
   y="0px"
   viewBox="0 0 512.005 512.005"
   style="enable-background:new 0 0 512.005 512.005;"
   xml:space="preserve"
   sodipodi:docname="add.svg"
   inkscape:version="1.2.2 (732a01da63, 2022-12-09)"
   xmlns:inkscape="http://www.inkscape.org/namespaces/inkscape"
   xmlns:sodipodi="http://sodipodi.sourceforge.net/DTD/sodipodi-0.dtd"
   xmlns="http://www.w3.org/2000/svg"
   xmlns:svg="http://www.w3.org/2000/svg"><defs
   id="defs221" /><sodipodi:namedview
   id="namedview219"
   pagecolor="#ffffff"
   bordercolor="#000000"
   borderopacity="0.25"
   inkscape:showpageshadow="2"
   inkscape:pageopacity="0.0"
   inkscape:pagecheckerboard="0"
   inkscape:deskcolor="#d1d1d1"
   showgrid="false"
   inkscape:zoom="1.5898282"
   inkscape:cx="243.10803"
   inkscape:cy="256.317"
   inkscape:window-width="1920"
   inkscape:window-height="1001"
   inkscape:window-x="-9"
   inkscape:window-y="-9"
   inkscape:window-maximized="1"
   inkscape:current-layer="Layer_1" />
<circle
   style="fill:#60340c;fill-opacity:0.69999999"
   cx="256.002"
   cy="256.002"
   r="256.002"
   id="circle182" />
<path
   style="opacity:0.1;enable-background:new    ;"
   d="M57.825,256c0-131.607,99.318-240.001,227.088-254.365  C275.42,0.568,265.777,0,256,0C114.615,0,0,114.615,0,256s114.615,256,256,256c9.777,0,19.42-0.568,28.912-1.635  C157.143,496.001,57.825,387.607,57.825,256z"
   id="path184" />
<polygon
   style="fill:#FFFFFF;"
   points="410.011,209.897 302.103,209.897 302.103,101.989 209.897,101.989 209.897,209.897   101.989,209.897 101.989,302.103 209.897,302.103 209.897,410.011 302.103,410.011 302.103,302.103 410.011,302.103 "
   id="polygon186" />
<g
   id="g188">
</g>
<g
   id="g190">
</g>
<g
   id="g192">
</g>
<g
   id="g194">
</g>
<g
   id="g196">
</g>
<g
   id="g198">
</g>
<g
   id="g200">
</g>
<g
   id="g202">
</g>
<g
   id="g204">
</g>
<g
   id="g206">
</g>
<g
   id="g208">
</g>
<g
   id="g210">
</g>
<g
   id="g212">
</g>
<g
   id="g214">
</g>
<g
   id="g216">
</g>
</svg>
