<?xml version="1.0" encoding="utf-8"?>
<!-- Generator: Adobe Illustrator 16.0.0, SVG Export Plug-In . SVG Version: 6.00 Build 0)  -->
<!DOCTYPE svg PUBLIC "-//W3C//DTD SVG 1.1//EN" "http://www.w3.org/Graphics/SVG/1.1/DTD/svg11.dtd">
<svg version="1.1" id="Layer_1" xmlns="http://www.w3.org/2000/svg" xmlns:xlink="http://www.w3.org/1999/xlink" x="0px" y="0px"
	 width="150px" height="150px" viewBox="0 0 150 150" enable-background="new 0 0 150 150" xml:space="preserve">
<path fill="#F39D36" d="M135.112,51.951c5.407,0.068,9.848-4.259,9.916-9.667c0-0.083,0-0.167,0-0.249V25.302
	c0.07-5.407-4.256-9.846-9.663-9.915c-0.081-0.001-0.167-0.001-0.251,0H128.3c-1.507-7.673-8.3-13.161-16.116-13.014H32.239
	c-9.043-0.105-16.495,7.072-16.732,16.113l0,0v3.719H8.07c-1.769,0.372-3.051,1.911-3.098,3.718l0,0
	c-0.106,1.605,1.108,2.993,2.713,3.099c0.128,0.01,0.256,0.01,0.385,0h7.437v26.649H8.07c-1.711,0-3.098,1.387-3.098,3.099
	c0,1.711,1.387,3.099,3.098,3.099h7.437v26.647H8.07c-1.605-0.105-2.992,1.11-3.098,2.715c-0.009,0.129-0.009,0.256,0,0.385
	c0,2.479,1.238,3.72,3.098,3.72h7.437v26.646H8.07c-1.711,0-3.098,1.388-3.098,3.1c0,1.711,1.387,3.099,3.098,3.099h7.437v3.718
	c-0.104,9.044,7.071,16.495,16.112,16.733h79.944c7.817,0.146,14.61-5.341,16.113-13.015h7.436c5.407,0.071,9.848-4.258,9.916-9.665
	c0-0.08,0-0.167,0-0.248v-16.737c0.07-5.407-4.256-9.847-9.663-9.919c-0.081-0.001-0.167-0.001-0.251,0h-6.197v-5.577h6.197
	c5.407,0.071,9.851-4.256,9.919-9.664c0-0.083,0-0.167,0-0.248V66.824c0.068-5.408-4.259-9.846-9.665-9.917c-0.084,0-0.168,0-0.25,0
	h-6.198v-4.957H135.112z M122.099,131.894c0.067,5.406-4.258,9.848-9.666,9.917c-0.081,0-0.166,0-0.246,0H49.594v-26.649
	c-0.196-1.868-1.844-3.242-3.718-3.099c-1.24,0-2.479,1.24-3.099,3.099v26.649H32.242c-5.408,0.067-9.846-4.259-9.916-9.666
	c-0.001-0.081-0.001-0.167,0-0.249l0,0v-3.719h7.437c1.869-0.195,3.242-1.847,3.099-3.72c0-1.239-1.241-2.479-3.099-3.1h-7.437
	V95.331h7.437c1.869-0.195,3.242-1.846,3.099-3.72c0-1.238-1.241-2.479-3.099-3.1h-7.437V62.485h7.437
	c1.605,0.106,2.992-1.108,3.099-2.713c0.008-0.129,0.008-0.258,0-0.386c-0.148-1.988-1.729-3.57-3.72-3.719h-6.816V29.021h7.437
	c1.869-0.196,3.242-1.845,3.099-3.719c0-1.24-1.241-2.479-3.099-3.098h-7.437v-3.1c-0.068-5.407,4.259-9.846,9.666-9.915
	c0.083-0.001,0.167-0.001,0.25,0h10.535v95.436c-0.62,1.24,0.62,3.1,2.479,3.1c1.874,0.145,3.522-1.229,3.717-3.1V9.191h62.591
	c5.408-0.069,9.846,4.258,9.916,9.665c0.002,0.083,0.002,0.167,0,0.25l0,0L122.099,131.894z"/>
</svg>
