<?xml version="1.0" encoding="utf-8"?>
<!-- Generator: Adobe Illustrator 16.0.0, SVG Export Plug-In . SVG Version: 6.00 Build 0)  -->
<!DOCTYPE svg PUBLIC "-//W3C//DTD SVG 1.1//EN" "http://www.w3.org/Graphics/SVG/1.1/DTD/svg11.dtd">
<svg version="1.1" id="Layer_1" xmlns="http://www.w3.org/2000/svg" xmlns:xlink="http://www.w3.org/1999/xlink" x="0px" y="0px"
	 width="150px" height="150px" viewBox="0 0 150 150" enable-background="new 0 0 150 150" xml:space="preserve">
<path fill="#F39D36" d="M84.308,108.937c-1.684,0-3.049,1.363-3.049,3.046c0,1.685,1.362,3.047,3.049,3.047
	c1.681,0,3.046-1.361,3.046-3.047C87.354,110.3,85.988,108.937,84.308,108.937z"/>
<path fill="#F39D36" d="M112.944,105.736l-13.406-4.416l-4.874-9.597c4.392-4.393,7.317-10.033,8.378-16.148l0.609-3.503h5.18
	c4.61,0.017,8.361-3.706,8.378-8.317c0-0.021,0-0.042,0-0.063V45.568c0-23.305-18.892-42.195-42.195-42.195
	c-23.304,0-42.195,18.891-42.195,42.195v17.67c-0.007,3.609,2.246,6.837,5.636,8.073v3.351c-0.026,4.662,3.716,8.47,8.377,8.532
	h2.438c1.228,2.644,2.817,5.104,4.722,7.312c0.457,0.456,0.762,0.913,1.219,1.37l-4.723,9.596l-13.406,4.418
	c-15.538,5.026-26.809,21.327-26.809,38.844c-0.018,1.548,1.196,2.83,2.742,2.895h123.843c1.546-0.064,2.759-1.347,2.742-2.895
	C139.753,127.214,128.481,110.916,112.944,105.736z M111.571,63.237c0.01,1.506-1.206,2.733-2.708,2.742c-0.013,0-0.023,0-0.032,0
	h-4.265c0.761-5.484,1.219-11.424,1.522-17.213v-0.458h5.637L111.571,63.237z M41.196,66.131c-1.505,0.01-2.733-1.206-2.741-2.71
	c0-0.01,0-0.021,0-0.031V48.461h5.636v0.914l0,0c0.142,5.606,0.599,11.2,1.371,16.756L41.196,66.131L41.196,66.131z M46.834,77.404
	c-1.506,0.008-2.734-1.206-2.742-2.712c0-0.01,0-0.021,0-0.031l0,0v-2.893h2.285l0.609,3.807c0.153,0.763,0.305,1.371,0.458,1.98
	L46.834,77.404z M44.092,42.826h-5.484C39.747,22.827,56.882,7.539,76.881,8.678c0.14,0.008,0.282,0.017,0.419,0.026
	c18.307,1.245,32.877,15.817,34.12,34.122h-5.481C105.848,27.24,93.19,14.653,77.607,14.645H72.58
	C56.939,14.586,44.2,27.188,44.092,42.826z M72.425,20.281h5.026c12.619,0,22.85,10.23,22.85,22.85v2.284l0,0l-3.503-0.457
	c-9.622-1.359-18.547-5.795-25.439-12.643c-0.54-0.496-1.248-0.769-1.98-0.762c-7.6,0.05-14.789,3.451-19.65,9.292
	C50.899,29.184,60.705,20.3,72.425,20.281z M53.232,77.404c-1.522-4.723-3.047-18.432-3.351-27.267l3.807-5.027
	c3.535-4.59,8.848-7.469,14.624-7.919c7.622,7.242,17.312,11.927,27.723,13.404l4.112,0.609c-0.255,5.763-0.813,11.508-1.673,17.213
	l0,0c-0.307,1.676-0.456,2.895-1.065,5.94c-1.523,8.989-8.227,17.061-16.909,19.194c-9.738,2.5-19.938-1.878-24.83-10.663h5.789
	c1.207,3.348,4.364,5.592,7.921,5.636h5.483c4.671-0.282,8.227-4.292,7.948-8.963c-0.26-4.278-3.672-7.69-7.948-7.947h-5.635
	c-3.572-0.001-6.753,2.261-7.921,5.635L53.232,77.404z M69.226,99.34c1.897,0.437,3.841,0.641,5.788,0.609
	c1.522,0,3.046-0.152,4.571-0.307l-5.028,5.333L69.226,99.34z M70.901,108.937l-8.835,9.444c-2.442-4.734-4.579-9.618-6.397-14.624
	l3.351-6.702L70.901,108.937z M90.705,96.14l3.808,7.617c-1.688,5.057-3.829,9.951-6.396,14.624l-9.596-9.598L90.705,96.14z
	 M66.636,80.146c-0.008-1.506,1.206-2.733,2.711-2.741c0.01,0,0.021,0,0.031,0h5.636c1.599,0,2.894,1.299,2.892,2.895
	c0,1.599-1.296,2.896-2.892,2.896h-5.636C67.815,83.035,66.628,81.716,66.636,80.146z M16.063,141.838
	c1.218-14.012,10.358-26.658,22.849-30.768l11.882-3.962c2.159,6.021,4.862,11.834,8.073,17.364l0,0
	c2.305,4.093,4.901,8.012,7.769,11.73l3.503,5.635H16.063z M75.014,139.401l-3.808-6.093l-0.153-0.151
	c-2.285-3.048-4.418-6.244-6.398-9.445l10.053-10.66l10.663,10.51c-1.98,3.352-4.112,6.396-6.396,9.596
	C78.822,133.157,78.976,132.852,75.014,139.401z M80.041,141.838l3.503-5.635c2.87-3.771,5.466-7.739,7.771-11.882l0,0
	c3.16-5.483,5.813-11.245,7.921-17.213l11.884,3.962c12.49,4.109,21.782,16.756,22.846,30.768H80.041z"/>
<path fill="#F39D36" d="M104.87,125.387c-2.004-3.979-4.864-7.463-8.378-10.207c-1.25-1.126-3.174-1.025-4.302,0.227
	c-0.936,1.036-1.047,2.577-0.268,3.735c0.287,0.338,0.654,0.599,1.065,0.762c2.868,2.095,5.17,4.869,6.704,8.074
	c0.462,1.64,2.167,2.596,3.808,2.132c1.639-0.464,2.595-2.168,2.132-3.809C105.327,125.996,105.176,125.691,104.87,125.387z"/>
</svg>
