<?xml version="1.0" encoding="utf-8"?>
<!-- Generator: Adobe Illustrator 16.0.0, SVG Export Plug-In . SVG Version: 6.00 Build 0)  -->
<!DOCTYPE svg PUBLIC "-//W3C//DTD SVG 1.1//EN" "http://www.w3.org/Graphics/SVG/1.1/DTD/svg11.dtd">
<svg version="1.1" id="Layer_1" xmlns="http://www.w3.org/2000/svg" xmlns:xlink="http://www.w3.org/1999/xlink" x="0px" y="0px"
	 width="150px" height="150px" viewBox="0 0 150 150" enable-background="new 0 0 150 150" xml:space="preserve">
<path fill="#F39D36" stroke="#FFFFFF" stroke-width="1.5" stroke-miterlimit="10" d="M74.778,133.119H23.103
	c-3.199,0-5.792-2.593-5.792-5.791l0,0V23.672c0-3.199,2.593-5.792,5.792-5.792l0,0h51.675c3.076,0.202,5.732-2.126,5.934-5.202
	c0.006-0.096,0.009-0.191,0.012-0.286c0.153-3.128-2.26-5.788-5.387-5.941c-0.033-0.001-0.068-0.002-0.102-0.004H23.103
	C13.582,6.373,5.802,14.029,5.726,23.551c0,0.041,0,0.081,0,0.123v103.504c-0.009,9.587,7.758,17.368,17.348,17.376
	c0.01,0,0.021,0,0.03,0h51.675c3.156,0.126,5.818-2.331,5.945-5.488c0.127-3.156-2.33-5.817-5.488-5.945L74.778,133.119
	L74.778,133.119z"/>
<path fill="#F39D36" stroke="#FFFFFF" stroke-width="1.5" stroke-miterlimit="10" d="M142.61,71.383l-35.059-34.45
	c-2.325-2.122-5.923-1.986-8.08,0.305c-1.983,2.212-1.983,5.563,0,7.774l25.001,24.693h-66.92c-3.199,0.002-5.792,2.598-5.789,5.796
	c0.001,3.197,2.593,5.787,5.789,5.79h66.92l-24.848,24.388c-2.154,2.313-2.023,5.928,0.283,8.083c2.196,2.045,5.599,2.045,7.792,0
	l0,0l34.909-34.454C144.749,77.1,144.749,73.594,142.61,71.383z"/>
</svg>
