<?xml version="1.0" encoding="utf-8"?>
<!-- Generator: Adobe Illustrator 16.0.0, SVG Export Plug-In . SVG Version: 6.00 Build 0)  -->
<!DOCTYPE svg PUBLIC "-//W3C//DTD SVG 1.1//EN" "http://www.w3.org/Graphics/SVG/1.1/DTD/svg11.dtd">
<svg version="1.1" id="Layer_1" xmlns="http://www.w3.org/2000/svg" xmlns:xlink="http://www.w3.org/1999/xlink" x="0px" y="0px"
	 width="150px" height="150px" viewBox="0 0 150 150" enable-background="new 0 0 150 150" xml:space="preserve">
<path fill="#F39D36" d="M111.75,3.807H38.115c-2.313,0.049-4.531,0.934-6.24,2.496c-1.708,1.611-2.621,3.894-2.496,6.24V137.97
	c0.049,2.315,0.935,4.531,2.496,6.24c1.612,1.71,3.894,2.623,6.24,2.496h74.259c2.313-0.049,4.531-0.936,6.24-2.496
	c1.71-1.612,2.622-3.895,2.496-6.24V12.543c-0.049-2.314-0.936-4.531-2.496-6.24C116.758,4.575,114.28,3.674,111.75,3.807z
	 M33.122,26.27h82.994v95.476H33.122V26.27z M38.114,8.175h74.258c1.158,0.021,2.268,0.464,3.12,1.248
	c0.783,0.853,1.228,1.962,1.25,3.121v10.607H33.124V12.543c-0.082-0.686,0.146-1.374,0.625-1.873
	c0.058-0.664,0.584-1.19,1.248-1.248l1.248-1.248H38.114z M111.75,142.963H38.115c-2.342,0.069-4.297-1.772-4.367-4.115
	c-0.002-0.085-0.002-0.172,0-0.255v-13.726h82.993v13.729c0.081,0.684-0.145,1.371-0.624,1.872c-0.057,0.666-0.582,1.19-1.247,1.248
	l-1.25,1.251h-1.87V142.963L111.75,142.963z"/>
<path fill="#F39D36" d="M74.932,126.737c-1.524,0.122-3.01,0.548-4.369,1.251c-1.15,0.736-2.027,1.834-2.496,3.121
	c-0.513,1.398-0.725,2.886-0.625,4.367c0,1.251,1.248,2.496,1.871,3.746c0.856,1.21,2.262,1.915,3.745,1.872
	c1.483,0.101,2.972-0.112,4.369-0.623c1.285-0.468,2.38-1.347,3.12-2.497c0.781-1.326,1.21-2.83,1.247-4.367
	c0.098-1.079-0.117-2.163-0.621-3.12c-0.621-0.625-0.621-1.873-1.872-2.496c-0.712-0.771-1.56-1.406-2.495-1.873
	C76.804,126.737,76.179,126.737,74.932,126.737z M74.932,138.593c-0.879,0.095-1.764-0.129-2.497-0.623l-1.871-1.872
	c-0.636-0.71-0.636-1.785,0-2.495c0.156-0.938,0.591-1.809,1.248-2.495c0.602-0.772,1.52-1.23,2.496-1.25h2.496
	c0.624,0.625,1.248,0.625,1.872,1.872c0.496,0.732,0.719,1.618,0.623,2.497c0.083,0.686-0.145,1.371-0.623,1.871
	c-0.058,0.665-0.584,1.189-1.248,1.25l-1.249,1.249h-1.247V138.593z"/>
<path fill="#F39D36" d="M64.322,18.159h20.593c0.624,0,0.624,0,1.249-0.623c0.34-0.337,0.561-0.774,0.625-1.249
	c0-0.623,0-0.623-0.625-1.248c-0.337-0.339-0.772-0.558-1.249-0.623H64.324c-0.623,0-0.623,0-1.248,0.623
	c-0.339,0.337-0.558,0.774-0.623,1.248c0,0.624,0,0.624,0.623,1.249C63.4,17.89,63.844,18.113,64.322,18.159z"/>
<path fill="#F39D36" d="M59.332,18.159L59.332,18.159c0.624,0,0.624,0,1.249-0.623c0.339-0.337,0.558-0.774,0.623-1.249v-0.624
	l-0.623-0.625h-0.625c-0.344,0-0.624,0.279-0.624,0.625l0,0l-0.623,0.623v0.623C58.708,17.536,58.708,17.536,59.332,18.159z"/>
<path fill="#F39D36" d="M95.524,75.568V74.32l1.871-3.744c0.632-0.945,0.632-2.176,0-3.121c-0.623-0.625-1.247-1.871-1.871-2.496
	l-3.745-1.872c-0.345,0-0.624-0.279-0.624-0.623l0,0V61.84l-0.623-4.369c0-1.247-0.622-1.871-1.873-2.496
	c-0.8-0.851-2.053-1.101-3.12-0.625l-4.367,0.625h-0.623c-0.346,0-0.625-0.279-0.625-0.625l0,0l-3.12-3.121
	c-1.249-0.623-1.872-1.248-3.121-1.248c-1.157,0.022-2.267,0.465-3.121,1.248l-3.121,3.121c-0.344,0-0.623,0.279-0.623,0.625l0,0
	h-0.625l-4.367-1.248c-1.082-0.163-2.185,0.058-3.121,0.623c-0.625,1.249-1.248,1.874-1.873,3.121L56.21,61.84v0.625
	c0,0.344-0.28,0.623-0.624,0.623l0,0l-3.744,1.872c-1.249,0.625-1.872,1.248-1.872,2.496s0,2.496,0,3.121l1.872,3.744v1.248
	l-1.872,3.744c-0.631,0.943-0.631,2.176,0,3.121c0.467,0.938,1.101,1.785,1.872,2.495l3.744,1.872c0.344,0,0.624,0.28,0.624,0.625
	l0,0v0.622l0.623,4.367c0.019,0.978,0.478,1.894,1.248,2.494c0.689,0.659,1.558,1.094,2.496,1.251h0.624l4.369-0.624h0.623
	c0.346,0,0.625,0.28,0.625,0.624l0,0l3.121,3.121c1.74,1.681,4.499,1.681,6.24,0l3.12-3.121c0.346,0,0.625-0.28,0.625-0.624l0,0
	h0.621l4.368,0.624c1.084,0.162,2.185-0.059,3.121-0.624c0.763-0.95,1.392-2.001,1.874-3.121l0.624-4.367v-0.622
	c0-0.348,0.279-0.625,0.621-0.625l0,0l3.746-1.872c1.249-0.623,1.873-1.249,1.873-2.495c0-1.248,0-2.496,0-3.121L95.524,75.568z
	 M93.652,83.056l-3.744,1.873c-0.624,0.624-1.249,0.624-1.249,1.25c0,0.622-0.625,1.25-0.625,1.872l-0.622,4.368
	c0,0.622,0,0.622-0.623,1.25c-0.625,0.624-0.625,0.622-1.25,0l-4.367-0.623h-1.873c-0.623,0-1.247,0.623-1.871,1.248l-3.121,3.12
	c-0.337,0.341-0.774,0.56-1.248,0.625c-0.625,0-0.625,0-1.249-0.625l-2.496-3.12c-0.853-0.782-1.962-1.228-3.121-1.248h-0.623
	l-4.369,0.623h-1.247c-0.624,0-0.624-0.623-0.624-1.25v-4.37c0-0.623-0.623-1.248-0.623-1.873c0-0.623-0.625-1.247-1.248-1.247
	l-3.745-1.873c-0.344,0-0.623-0.281-0.623-0.625l0,0v-1.247l1.871-3.745c0-0.623,0.625-1.25,0.625-1.873
	c0.082-0.687-0.147-1.373-0.625-1.872l-2.496-4.369v-1.872l0.623-0.625l3.744-1.871c0.665-0.058,1.19-0.585,1.248-1.248
	c0.478-0.499,0.707-1.185,0.625-1.872l0.623-4.369c0-0.623,0-0.623,0.624-1.248c0.499,0.477,1.187,0.706,1.873,0.623l4.367,0.623
	h1.874c0.623,0,0.623-0.623,1.248-1.248l3.121-3.12c0.337-0.339,0.775-0.558,1.248-0.625c0.625,0,0.625,0,1.248,0.625l3.121,3.12
	c0,0.624,0.622,0.624,1.248,0.624h7.49c0.622,0,0.622,0.623,0.622,1.248l0.624,4.368c0,0.624,0.624,1.248,0.624,1.872
	c0,0.623,0.622,1.248,1.248,1.248l3.744,1.871c0.345,0,0.624,0.279,0.624,0.624l0,0v1.871l-1.871,3.745
	c0,0.623-0.625,1.248-0.625,1.871c-0.083,0.686,0.147,1.372,0.625,1.873l1.871,3.744v1.25L93.652,83.056z"/>
<path fill="#F39D36" d="M84.292,64.336c-0.338-0.339-0.772-0.558-1.248-0.625c-0.625,0-0.625,0-1.25,0.625L62.451,83.681
	c-0.339,0.338-0.558,0.775-0.623,1.248c0,0.624,0,0.624,0.623,1.25l0.623,0.622h0.625c0.623,0,0.623,0,1.248-0.622l19.345-19.344
	c0.339-0.336,0.558-0.774,0.621-1.248C84.292,64.959,84.292,64.959,84.292,64.336z"/>
<path fill="#F39D36" d="M67.443,61.84c-1.249,0-1.872,0.625-3.121,0.625c-0.771,0.71-1.405,1.556-1.871,2.496
	c-0.631,0.945-0.631,2.176,0,3.121c0.02,0.979,0.478,1.895,1.248,2.497c0.689,0.657,1.558,1.092,2.496,1.248h3.121
	c0.94-0.467,1.786-1.101,2.496-1.873c0.565-0.935,0.788-2.039,0.623-3.121c-0.128-1.326-0.555-2.606-1.248-3.744
	C70.147,62.206,68.805,61.759,67.443,61.84z M67.443,69.951c-0.624,0-1.249,0-1.249-0.623s-0.623-0.623-0.623-1.248v-1.248
	c0-0.624,0.623-0.624,0.623-1.248c0-0.625,0.625-0.625,1.249-0.625h1.248c0.623,0,0.623,0.625,1.248,0.625
	c0.623,0,0.623,0.623,0.623,1.248v0.625c0,0.344-0.279,0.623-0.623,0.623l0,0l-0.625,0.625
	C68.068,69.951,68.068,69.951,67.443,69.951z"/>
<path fill="#F39D36" d="M79.299,77.44c-1.077-0.097-2.16,0.12-3.12,0.624c-0.625,0.624-1.872,1.248-1.872,2.496
	c-0.631,0.941-0.631,2.176,0,3.12c0.019,0.978,0.477,1.893,1.248,2.495c0.689,0.658,1.56,1.093,2.497,1.25h3.121
	c0.937-0.467,1.786-1.103,2.496-1.873c0.565-0.935,0.785-2.039,0.623-3.122c-0.132-1.323-0.557-2.604-1.249-3.742
	C81.905,77.996,80.625,77.568,79.299,77.44z M79.299,85.553c-0.623,0-1.247,0-1.247-0.624c0-0.621-0.624-0.621-0.624-1.248v-1.25
	c0-0.622,0.624-0.622,0.624-1.247c0-0.628,0.621-0.623,1.247-0.623h1.25c0.623,0,0.623,0.623,1.249,0.623s0.621,0.622,0.621,1.247
	c0.083,0.688-0.145,1.375-0.621,1.874C80.549,84.929,79.924,85.553,79.299,85.553z"/>
</svg>
