<?xml version="1.0" encoding="utf-8"?>
<!-- Generator: Adobe Illustrator 16.0.0, SVG Export Plug-In . SVG Version: 6.00 Build 0)  -->
<!DOCTYPE svg PUBLIC "-//W3C//DTD SVG 1.1//EN" "http://www.w3.org/Graphics/SVG/1.1/DTD/svg11.dtd">
<svg version="1.1" id="Layer_1" xmlns="http://www.w3.org/2000/svg" xmlns:xlink="http://www.w3.org/1999/xlink" x="0px" y="0px"
	 width="150px" height="150px" viewBox="0 0 150 150" enable-background="new 0 0 150 150" xml:space="preserve">
<path fill="#F39D36" d="M113.492,8.375C99.85,8.466,87.691,17.006,82.979,29.812H26.114c-1.234-0.003-2.236,0.995-2.238,2.227
	c0,0.052,0.001,0.103,0.004,0.154l-0.596,80.233H7.21c-1.202,0.005-2.218,0.892-2.382,2.085v10.122
	c0.044,9.559,7.568,17.411,17.119,17.86h71.75c9.86-0.073,17.857-8.005,18.013-17.86l0,0V73.277h1.783
	c17.923-0.543,32.013-15.512,31.47-33.435C144.442,22.683,130.653,8.895,113.492,8.375z M22.84,138.178L22.84,138.178
	c-7.399,0-13.397-6-13.397-13.397v-7.739h66.242v7.739c-0.007,4.77,1.928,9.338,5.359,12.651c0.298,0.299,0.594,0.45,0.744,0.743
	H22.84V138.178z M107.094,124.782c0,7.398-5.998,13.397-13.397,13.397l0,0c-7.369,0.011-13.393-5.882-13.547-13.249v-10.27
	c0.029-0.604-0.184-1.194-0.598-1.64c-0.384-0.405-0.931-0.625-1.488-0.596H27.898l0.596-78h53.144
	c-0.419,2.107-0.618,4.253-0.596,6.401c-0.004,4.502,0.907,8.959,2.678,13.1H62.138c-1.267-0.2-2.456,0.667-2.655,1.934
	s0.667,2.456,1.934,2.654c0.091,0.015,0.183,0.024,0.274,0.026h24.413c4.676,7.437,12.219,12.609,20.839,14.29L107.094,124.782z
	 M113.492,68.811c-15.373,0-27.836-12.462-27.836-27.836s12.463-27.836,27.836-27.836s27.839,12.463,27.839,27.836l0,0l0,0
	C141.298,56.335,128.854,68.778,113.492,68.811z"/>
<path fill="#F39D36" d="M47.55,69.108c-3.903,0.124-6.967,3.388-6.843,7.291c0.123,3.902,3.388,6.967,7.291,6.845
	c3.843-0.121,6.886-3.293,6.846-7.139C54.654,72.207,51.453,69.136,47.55,69.108z M47.55,78.637
	c-1.348-0.209-2.273-1.471-2.066-2.819c0.189-1.231,1.267-2.129,2.513-2.095c1.296,0.118,2.276,1.229,2.232,2.531
	c-0.071,1.388-1.253,2.455-2.641,2.385C47.576,78.639,47.564,78.637,47.55,78.637z"/>
<path fill="#F39D36" d="M59.905,76.105c0.011,1.254,0.982,2.289,2.231,2.381h30.517c1.268-0.132,2.196-1.26,2.083-2.53
	c-0.072-1.121-0.964-2.012-2.083-2.084H62.138C60.918,73.904,59.936,74.885,59.905,76.105z"/>
<path fill="#F39D36" d="M47.55,49.162c-3.895,0.146-6.948,3.396-6.848,7.294c0.137,3.921,3.37,7.023,7.294,6.996
	c3.843-0.129,6.882-3.299,6.846-7.145C54.688,52.37,51.49,49.238,47.55,49.162z M47.55,58.837c-1.364-0.039-2.438-1.177-2.399-2.541
	c0.039-1.363,1.176-2.438,2.541-2.399c0.102,0.002,0.205,0.013,0.306,0.027c1.296,0.118,2.276,1.228,2.232,2.531
	C50.104,57.833,48.932,58.874,47.55,58.837z"/>
<path fill="#F39D36" d="M47.55,88.906c-3.879,0.097-6.946,3.32-6.851,7.197c0.001,0.031,0.002,0.065,0.003,0.097
	c0.082,3.904,3.314,7.005,7.22,6.922c3.905-0.082,7.004-3.315,6.921-7.22l0,0C54.654,92.004,51.453,88.934,47.55,88.906z
	 M47.55,98.583c-1.348-0.211-2.273-1.47-2.066-2.82c0.189-1.23,1.267-2.128,2.513-2.093c1.296,0.118,2.276,1.228,2.232,2.53
	C50.053,97.55,48.911,98.564,47.55,98.583z"/>
<path fill="#F39D36" d="M92.654,93.819H62.138c-1.267-0.199-2.456,0.666-2.655,1.933c-0.199,1.268,0.667,2.456,1.934,2.656
	c0.091,0.014,0.183,0.022,0.274,0.024h30.962c1.269-0.132,2.196-1.261,2.085-2.53C94.665,94.783,93.775,93.892,92.654,93.819z"/>
<path fill="#F39D36" d="M108.73,42.91h-6.4c-0.771-0.051-1.438,0.533-1.489,1.304c-0.003,0.061-0.003,0.123,0,0.185
	c-0.01,0.396,0.153,0.776,0.447,1.042l15.779,15.035c0.664,0.366,1.5,0.173,1.937-0.447c0.298-0.452,0.298-1.036,0-1.488l0,0
	l-13.249-12.95h2.979c5.423-0.069,10.007-4.026,10.867-9.379h5.062c0.775-0.274,1.179-1.125,0.905-1.9
	c-0.005-0.012-0.009-0.023-0.014-0.035c-0.13-0.428-0.465-0.763-0.892-0.893h-5.21c-0.267-2.581-1.49-4.97-3.425-6.698l8.635,0.149
	l0,0c0.772-0.218,1.231-1.007,1.041-1.787c-0.183-0.48-0.56-0.86-1.041-1.042l0,0l-15.78-0.149h-6.401
	c-0.771-0.051-1.437,0.532-1.488,1.303c-0.006,0.063-0.006,0.123,0,0.185c-0.003,0.546,0.278,1.053,0.743,1.339h7.146
	c3.977,0.055,7.351,2.929,8.038,6.847l-14.289-0.149l0,0c-0.773,0.218-1.232,1.008-1.042,1.787c0.182,0.479,0.56,0.859,1.042,1.042
	l14.289,0.149C115.992,40.15,112.63,42.839,108.73,42.91z"/>
</svg>
