<?xml version="1.0" encoding="utf-8"?>
<!-- Generator: Adobe Illustrator 16.0.0, SVG Export Plug-In . SVG Version: 6.00 Build 0)  -->
<!DOCTYPE svg PUBLIC "-//W3C//DTD SVG 1.1//EN" "http://www.w3.org/Graphics/SVG/1.1/DTD/svg11.dtd">
<svg version="1.1" id="Layer_1" xmlns="http://www.w3.org/2000/svg" xmlns:xlink="http://www.w3.org/1999/xlink" x="0px" y="0px"
	 width="150px" height="150px" viewBox="0 0 150 150" enable-background="new 0 0 150 150" xml:space="preserve">
<path fill="#F39D36" d="M122.763,108.665c2.935-2.349,5.281-5.575,6.455-9.094h1.173c2.054,0,3.813-0.59,5.574-1.765
	c1.468-1.173,2.641-2.931,3.229-4.692c0.587-2.053,0.293-3.814-0.292-5.867c-0.881-1.761-2.055-3.229-3.813-4.402V72.577
	c0-4.692-1.762-9.094-5.282-12.616c-3.229-3.227-7.922-5.281-12.616-5.281h-13.79c-4.695,0-9.096,1.76-12.618,5.281
	c-3.227,3.228-5.281,7.922-5.281,12.616v10.268c-1.761,0.883-2.935,2.642-3.813,4.402c-0.882,1.762-0.882,3.814-0.294,5.867
	c0.588,2.056,1.761,3.52,3.229,4.692c1.464,1.175,3.52,1.765,5.574,1.765h1.174c1.174,3.519,3.52,6.745,6.453,9.094
	c-6.453,0.292-12.323,2.934-16.723,7.627c-4.401,4.694-6.749,10.857-6.749,17.019v9.094c0,0.588,0.294,1.175,0.588,1.468
	c0.293,0.291,0.879,0.587,1.466,0.587h67.481c0.588,0,1.173-0.293,1.467-0.587c0.292-0.293,0.588-0.882,0.588-1.468v-9.094
	c0-6.456-2.348-12.323-6.749-17.019C134.792,111.891,128.925,108.957,122.763,108.665L122.763,108.665z M99.878,113.065l7.041,8.802
	l-7.041,6.747l-3.228-15.549h1.762H99.878z M114.549,113.065l-4.401,5.28l-4.108-5.28H114.549z M120.417,113.065h1.173h1.759
	l-3.226,15.549l-7.04-6.747L120.417,113.065z M130.391,95.46c0-0.88,0-1.466,0-2.348v-7.04c1.174,0,2.348,0.587,3.229,1.173
	c0.88,0.882,1.173,2.055,1.173,3.229c0,1.173-0.588,2.347-1.173,3.227C133.032,94.582,131.858,95.168,130.391,95.46L130.391,95.46z
	 M90.197,72.87c0-3.521,1.465-7.042,3.813-9.389c2.641-2.641,5.868-4.108,9.39-4.108h13.496c3.521,0,7.043,1.468,9.682,3.814
	c2.641,2.641,3.813,5.868,3.813,9.681v9.095h-9.389c-1.173,0-2.348-0.587-3.226-1.173c-0.881-0.88-1.173-2.054-1.173-3.228v-9.094
	h-4.402v2.346c0,2.934-1.173,5.867-3.228,7.921c-2.054,2.054-4.987,3.227-7.923,3.227H89.902L90.197,72.87z M90.197,95.46
	c-1.173,0-2.347-0.586-3.228-1.173c-0.882-0.881-1.174-2.054-1.174-3.228s0.586-2.347,1.174-3.226
	c0.881-0.881,2.055-1.177,3.228-1.177v6.455C90.197,93.701,90.197,94.582,90.197,95.46L90.197,95.46z M94.01,92.527v-6.455h6.749
	c2.347,0,4.4-0.587,6.453-1.466c2.056-0.881,3.814-2.348,5.283-4.109c0.588,1.762,1.761,2.935,3.228,4.109
	c1.467,0.88,3.227,1.466,4.986,1.466h4.402v6.455c-0.293,3.815-2.349,7.334-5.282,9.975c-2.934,2.64-6.746,4.108-10.562,4.108
	c-3.814,0-7.628-1.467-10.563-4.108C96.357,100.155,94.598,96.634,94.01,92.527z M141.541,140.058h-63.08v-6.748
	c0-4.401,1.468-8.51,3.814-12.029c2.64-3.521,6.16-6.161,10.27-7.335l3.813,19.657c0,0.293,0.293,0.881,0.588,1.174
	c0.293,0.293,0.587,0.587,0.879,0.587h0.589c0.587,0,1.174-0.294,1.465-0.587l9.682-9.682l9.685,9.682
	c0.292,0.293,0.88,0.587,1.465,0.587h0.589c0.292,0,0.879-0.294,0.879-0.587c0.295-0.293,0.59-0.588,0.59-1.174l3.813-19.657
	c4.107,1.174,7.628,3.813,10.269,7.335c2.641,3.52,3.813,7.628,3.813,12.029v6.748H141.541z"/>
<path fill="#F39D36" d="M8.925,95.168h67.481c0.586,0,1.175-0.292,1.468-0.588c0.292-0.296,0.587-0.88,0.587-1.468v-9.095
	c0-6.454-2.642-12.616-7.04-17.015c-4.402-4.695-10.563-7.336-16.725-7.628c3.227-2.347,5.575-5.282,6.749-9.095h1.174
	c2.054,0,3.814-0.587,5.575-1.761c1.467-1.173,2.641-2.934,3.228-4.693c0.584-1.76,0.292-3.814-0.294-5.868
	c-0.879-1.761-2.054-3.227-3.814-4.401V23.286c0-4.694-1.761-9.096-5.281-12.617c-3.227-3.521-7.922-5.281-12.616-5.281H35.919
	c-4.694,0-9.389,1.76-12.615,5.281c-3.227,3.521-5.282,7.922-5.282,12.617v10.269c-1.761,0.879-2.934,2.64-3.813,4.401
	c-0.88,1.76-0.88,3.813-0.294,5.868c0.588,1.761,1.761,3.521,3.228,4.693c1.467,1.174,3.521,1.761,5.575,1.761h1.173
	c1.174,3.52,3.227,6.455,6.161,8.802c-6.456,0.293-12.322,3.227-16.724,7.628C8.927,71.401,6.58,77.563,6.58,84.018v8.804
	c0,0.291,0,0.587,0,0.88s0.293,0.586,0.587,0.881c0.293,0.294,0.588,0.294,0.88,0.588C8.338,95.168,8.632,95.168,8.925,95.168
	L8.925,95.168z M32.397,63.774l7.042,8.801l-6.748,6.748l-3.227-15.549h1.76H32.397z M46.773,63.774l-4.108,5.282l-4.401-5.282
	H46.773z M52.641,63.774h1.173h1.761l-2.934,15.844L45.6,72.87L52.641,63.774z M62.617,45.877c0-0.879,0-1.466,0-2.346v-7.042
	c1.175,0,2.348,0.586,3.228,1.174c0.879,0.88,1.173,2.053,1.173,3.227s-0.587,2.347-1.173,3.228
	C64.964,45.29,64.084,45.584,62.617,45.877L62.617,45.877z M22.422,23.286c0-3.521,1.467-7.041,4.108-9.389
	c2.347-2.64,5.867-4.108,9.389-4.108h13.497c3.521,0,7.041,1.468,9.389,3.815c2.346,2.347,3.814,5.868,3.814,9.388v9.096h-9.096
	c-0.586,0-1.173,0-1.76-0.294c-0.588-0.293-1.174-0.587-1.468-0.879c-0.293-0.293-0.879-0.88-0.879-1.468
	c-0.293-0.586-0.293-1.173-0.293-1.76v-8.802H44.72v2.347c0,2.934-1.173,5.867-3.227,7.921s-4.989,3.227-7.922,3.227H22.424v-9.094
	H22.422z M22.422,45.584c-1.173,0-2.346-0.588-3.227-1.173c-0.879-0.879-1.466-2.054-1.466-3.227s0.587-2.347,1.173-3.228
	c0.879-0.881,2.053-1.174,3.227-1.174v6.749C22.422,44.117,22.422,44.998,22.422,45.584z M26.822,43.531v-6.749h6.748
	c2.347,0,4.402-0.587,6.455-1.467c2.053-0.88,3.814-2.347,5.281-4.108c0.587,1.761,1.761,2.935,3.227,4.108
	c1.468,0.879,3.227,1.467,4.987,1.467h4.988v6.749c-0.294,4.107-2.053,7.627-4.988,10.561c-2.934,2.641-6.748,4.402-10.855,4.402
	s-7.922-1.467-10.856-4.402C29.169,51.159,27.41,47.345,26.822,43.531L26.822,43.531z M11.272,84.018
	c0-4.399,1.467-8.508,3.815-12.028c2.64-3.521,6.162-6.161,10.268-7.334l3.814,19.657c0,0.294,0.294,0.881,0.588,1.174
	c0.294,0.294,0.587,0.587,1.173,0.587h0.587c0.588,0,1.174-0.291,1.467-0.587l9.977-9.684l9.681,9.684
	c0.294,0.294,0.879,0.587,1.467,0.587h0.587c0.294,0,0.88-0.291,1.173-0.587c0.294-0.295,0.588-0.588,0.588-1.174l3.814-19.657
	c4.108,1.173,7.627,3.813,10.269,7.334c2.64,3.52,3.813,7.628,3.813,12.028v6.748H11.272V84.018z"/>
<path fill="#F39D36" d="M65.551,142.404c0-0.589-0.293-1.172-0.587-1.467c-0.293-0.294-0.879-0.587-1.467-0.587
	c-5.575,0-10.855-2.056-14.962-5.867c-4.108-3.813-6.749-8.803-7.335-14.378h6.455c0.587,0,0.88,0,1.174-0.293
	c0.293-0.292,0.587-0.585,0.879-0.88c0-0.294,0-0.88,0-1.174s-0.293-0.586-0.588-0.879l-15.842-16.137
	c-0.294-0.295-0.587-0.295-0.587-0.589c-0.294,0-0.587-0.293-0.88-0.293c-0.292,0-0.587,0-0.879,0.293
	c-0.294,0-0.587,0.293-0.587,0.589L14.499,116.88c-0.293,0.293-0.587,0.585-0.587,1.173c0,0.293,0,0.88,0,1.175
	c0.294,0.293,0.587,0.878,0.879,0.878c0.294,0.295,0.881,0.295,1.173,0.295h6.749c0.587,6.746,3.52,12.909,8.508,17.604
	c4.987,4.693,11.443,7.04,18.19,7.04h13.496c0.294,0,0.587,0,0.88-0.291c0.293-0.296,0.588-0.296,0.88-0.591
	c0.294-0.291,0.294-0.586,0.588-0.878C65.549,142.989,65.551,142.698,65.551,142.404L65.551,142.404z M27.41,117.465
	c0-0.585-0.293-1.173-0.587-1.465c-0.293-0.293-0.88-0.587-1.467-0.587h-3.814l10.269-10.27l10.269,10.27h-3.521
	c-0.588,0-1.174,0.293-1.467,0.587c-0.294,0.294-0.587,0.881-0.587,1.465c0,4.402,1.173,8.803,3.228,12.618
	c2.053,3.814,4.987,7.335,8.801,9.682c-5.575-0.293-10.856-2.934-14.964-7.04C29.463,128.908,27.41,123.333,27.41,117.465
	L27.41,117.465z"/>
</svg>
