<?xml version="1.0" encoding="utf-8"?>
<!-- Generator: Adobe Illustrator 16.0.0, SVG Export Plug-In . SVG Version: 6.00 Build 0)  -->
<!DOCTYPE svg PUBLIC "-//W3C//DTD SVG 1.1//EN" "http://www.w3.org/Graphics/SVG/1.1/DTD/svg11.dtd">
<svg version="1.1" id="Layer_1" xmlns="http://www.w3.org/2000/svg" xmlns:xlink="http://www.w3.org/1999/xlink" x="0px" y="0px"
	 width="150px" height="150px" viewBox="0 0 150 150" enable-background="new 0 0 150 150" xml:space="preserve">
<path fill="#F39D36" d="M51.742,2.563C43.428,2.63,36.705,9.353,36.638,17.667v114.668c0.066,8.313,6.79,15.037,15.104,15.103
	h52.401c8.336-0.017,15.088-6.77,15.105-15.103V17.667c-0.068-8.314-6.791-15.037-15.105-15.104H51.742z M104.143,143.586H51.742
	c-6.102,0.026-11.071-4.9-11.096-11.004c0-0.03,0-0.063,0-0.095v-8.476h74.75v8.476
	C115.343,138.656,110.312,143.619,104.143,143.586z M115.394,17.667v4.624h-4.622c-1.07,0.155-1.861,1.077-1.85,2.158
	c0.118,0.967,0.881,1.73,1.85,1.849h4.622v93.708H40.645V26.143h53.481c1.068-0.155,1.86-1.077,1.849-2.158
	c-0.119-0.968-0.882-1.731-1.849-1.85H40.645v-4.624c0.051-6.168,5.083-11.13,11.251-11.097h52.402
	C110.421,6.572,115.322,11.543,115.394,17.667z"/>
<path fill="#F39D36" d="M100.444,22.291c-1.068,0.155-1.86,1.077-1.849,2.158c0.119,0.967,0.882,1.73,1.849,1.849h3.698
	c1.107,0.085,2.074-0.743,2.157-1.849c0.086-1.107-0.742-2.073-1.847-2.158H100.444z"/>
<path fill="#F39D36" d="M77.943,126.939c-3.831,0-6.936,3.105-6.936,6.936c0,3.832,3.105,6.937,6.936,6.937
	c3.829,0,6.936-3.104,6.936-6.937l0,0c0.017-3.813-3.061-6.917-6.875-6.936C77.984,126.939,77.964,126.939,77.943,126.939z
	 M77.943,136.649c-1.618,0-2.928-1.312-2.928-2.927l0,0c0.077-1.585,1.344-2.853,2.928-2.929c1.616,0,2.929,1.312,2.929,2.929l0,0
	l0,0c0.051,1.564-1.175,2.876-2.741,2.927C78.068,136.651,78.004,136.651,77.943,136.649z"/>
<path fill="#F39D36" d="M91.043,68.219h-1.232v-9.709c0-6.555-5.314-11.868-11.867-11.868c-6.554,0-11.867,5.314-11.869,11.868
	v9.709h-1.233c-2.868-0.026-5.215,2.28-5.24,5.148c0,0.03,0,0.062,0,0.093v24.66c-0.026,2.867,2.278,5.215,5.147,5.24
	c0.031,0.002,0.062,0.002,0.093,0h26.201c2.868,0.026,5.215-2.278,5.241-5.146c0-0.03,0-0.062,0-0.093l0,0V73.458
	c0.078-2.815-2.143-5.162-4.958-5.24C91.231,68.216,91.137,68.216,91.043,68.219z M70.083,58.509c0-4.341,3.519-7.86,7.86-7.86
	c4.34,0,7.86,3.519,7.86,7.86l0,0v9.709H70.082v-9.709H70.083z M92.43,98.118c0.01,0.674-0.529,1.226-1.201,1.233
	c-0.012,0-0.021,0-0.031,0h-26.2c-0.672,0.009-1.225-0.528-1.233-1.201c0-0.01,0-0.022,0-0.032v-24.66
	c-0.009-0.671,0.529-1.224,1.203-1.232c0.009,0,0.021,0,0.031,0h26.2c0.673-0.01,1.226,0.529,1.232,1.202c0,0.01,0,0.021,0,0.03
	V98.118L92.43,98.118z"/>
<path fill="#F39D36" d="M77.943,89.025c-1.1,0.017-1.988,0.902-2.005,2.004l0,0v2.62c0,1.106,0.897,2.002,2.005,2.002
	c1.105,0,2.004-0.896,2.004-2.002v-2.62c0.033-1.072-0.807-1.971-1.879-2.004C78.025,89.025,77.985,89.025,77.943,89.025z"/>
</svg>
