<?xml version="1.0" encoding="utf-8"?>
<!-- Generator: Adobe Illustrator 16.0.0, SVG Export Plug-In . SVG Version: 6.00 Build 0)  -->
<!DOCTYPE svg PUBLIC "-//W3C//DTD SVG 1.1//EN" "http://www.w3.org/Graphics/SVG/1.1/DTD/svg11.dtd">
<svg version="1.1" id="Layer_1" xmlns="http://www.w3.org/2000/svg" xmlns:xlink="http://www.w3.org/1999/xlink" x="0px" y="0px"
	 width="150px" height="150px" viewBox="0 0 150 150" enable-background="new 0 0 150 150" xml:space="preserve">
<path fill="#F39D36" d="M136.552,84.855h-2.169V66.639c0.138-2.761-1.178-5.393-3.469-6.938v-2.602
	c-0.092-3.554-2.952-6.414-6.506-6.506h-1.735l5.639-8.674c1.979-2.556,1.511-6.233-1.044-8.213c-0.221-0.17-0.45-0.323-0.69-0.46
	l0,0L87.108,6.355c-1.397-0.944-3.128-1.259-4.77-0.867c-1.586,0.336-2.982,1.267-3.903,2.603L44.607,57.967h-9.542l2.168-23.42
	c0-0.435,0-0.435,0.435-0.435c3.076-1.128,5.674-3.27,7.373-6.071l0.435-0.435l14.745,1.301c0.867,0,2.168-0.867,2.168-1.734
	s-0.434-1.734-1.301-1.734l-15.18-1.301c-1.752-0.229-3.468,0.628-4.336,2.168c-1.21,1.884-3.057,3.269-5.204,3.904
	c-1.572,0.749-2.697,2.195-3.037,3.904l-2.168,23.42H28.56l3.904-36.43c0.137-1.309,1.291-2.271,2.601-2.169l29.927,3.037
	c0.867,0,2.168-0.867,2.168-1.735c-0.167-0.974-0.821-1.794-1.735-2.168l-29.925-3.036c-3.471-0.354-6.574,2.168-6.939,5.638l0,0
	l-3.036,29.492h-4.771c-3.555,0.092-6.415,2.951-6.505,6.505v1.734c-3.114,1.358-5.148,4.409-5.206,7.807v66.356
	c0,4.791,3.884,8.676,8.675,8.676h108.426c4.789,0,8.674-3.885,8.674-8.676v-18.219h2.169c2.396,0,4.337-1.941,4.337-4.336V89.191
	C140.957,86.801,138.967,84.99,136.552,84.855z M124.408,54.063L124.408,54.063c1.393,0.103,2.497,1.21,2.602,2.602v0.867h-9.541
	l2.603-3.469H124.408z M81.904,9.825c0.421-0.536,1.058-0.854,1.735-0.867l0,0c0.478-0.058,0.956,0.101,1.303,0.433l39.466,26.89
	c1.057,0.661,1.375,2.052,0.715,3.109c-0.081,0.129-0.175,0.25-0.28,0.361l-12.579,18.215h-3.035l6.071-9.107
	c0.87-1.471,0.87-3.3,0-4.771c-1.252-1.92-1.718-4.25-1.301-6.505c0.406-1.778-0.503-3.596-2.169-4.337L91.445,19.367
	c-1.466-0.783-3.187-0.939-4.77-0.434c-1.922,1.252-4.25,1.719-6.504,1.301c-1.779-0.406-3.596,0.501-4.337,2.168L51.547,58.399
	H48.51L81.904,9.825z M82.772,42.786c-8.314,0.134-15.212,6.471-16.047,14.745H56.75l22.987-33.829l0,0l0.433-0.434l0,0
	c3.146,0.527,6.376-0.088,9.107-1.734h0.868l20.384,13.878l0.434,0.435c-0.31,3.14,0.293,6.302,1.735,9.107v0.867l-7.373,12.144
	h-6.505C98.173,49.53,91.23,42.963,82.772,42.786z M94.916,57.965H70.628c0.491-6.497,6.154-11.366,12.651-10.875
	c0.12,0.008,0.239,0.02,0.36,0.032C89.615,47.328,94.477,52.002,94.916,57.965z M17.717,57.099c0.104-1.392,1.211-2.498,2.603-2.602
	h4.771l-0.435,3.47h-6.505L17.717,57.099z M12.947,66.639c0.024-2.625,2.146-4.746,4.77-4.77h108.425
	c2.627,0.024,4.749,2.146,4.771,4.77l0,0v5.206H12.946L12.947,66.639L12.947,66.639z M130.479,132.563
	c-0.024,2.625-2.146,4.746-4.77,4.77H17.285c-2.625-0.023-4.747-2.146-4.771-4.77v-5.205h10.409c0.958,0,1.733-0.777,1.732-1.738
	c-0.001-0.955-0.775-1.73-1.732-1.732h-9.975V76.182h117.967v9.107h-18.651c-5.688-0.051-10.906,3.148-13.444,8.242l0,0
	c-0.432,0.432-0.432,1.301-0.866,2.168l0,0c-2.544,7.381,1.381,15.428,8.765,17.971c0.257,0.088,0.517,0.17,0.776,0.244
	c1.398,0.494,2.857,0.787,4.338,0.865h18.647v9.107H35.934c-0.958,0-1.736,0.773-1.737,1.732c-0.001,0.961,0.774,1.738,1.732,1.738
	c0.001,0,0.002,0,0.005,0h94.98v5.205H130.479z M136.984,110.01c0,0.434,0,0.434-0.433,0.434h-24.288
	c-3.979,0.029-7.647-2.139-9.54-5.639c0-0.24-0.195-0.434-0.435-0.434l0,0c-0.235-0.232-0.389-0.537-0.434-0.867
	c-0.867-2.381-0.867-4.992,0-7.373c0.045-0.328,0.198-0.633,0.434-0.867c0-0.432,0-0.432,0.435-0.432
	c1.893-3.5,5.561-5.668,9.54-5.639h24.288c0.433,0,0.433,0,0.433,0.434V110.01z"/>
<path fill="#F39D36" d="M112.699,91.795c-4.313,0-7.808,3.494-7.808,7.805c0,4.313,3.495,7.809,7.808,7.809
	c4.312,0,7.806-3.496,7.806-7.809l0,0l0,0c0.023-4.285-3.433-7.781-7.72-7.805C112.755,91.795,112.727,91.795,112.699,91.795z
	 M112.699,103.504c-2.155,0-3.903-1.746-3.903-3.904c0-2.154,1.748-3.9,3.903-3.9c2.154,0,3.901,1.746,3.901,3.9l0,0
	C116.601,101.758,114.854,103.504,112.699,103.504z"/>
</svg>
