<svg id="Layer_1" data-name="Layer 1" xmlns="http://www.w3.org/2000/svg" viewBox="0 0 23.21 23.21"><title>facebook</title><rect width="23.21" height="23.21" rx="3.5" ry="3.5" fill="#fff"/><path d="M20.48.4h-17A3.12,3.12,0,0,0,.4,3.52v17A3.12,3.12,0,0,0,3.52,23.6h8.36l0-8.29H9.74a.5.5,0,0,1-.5-.51V12.13a.5.5,0,0,1,.5-.51h2.15V9c0-3,1.84-4.63,4.51-4.63h2.19a.51.51,0,0,1,.51.51V7.17a.51.51,0,0,1-.51.51H17.24c-1.46,0-1.74.69-1.74,1.7v2.24h3.2a.51.51,0,0,1,.5.57l-.32,2.67a.5.5,0,0,1-.5.45H15.52l0,8.29h5a3.12,3.12,0,0,0,3.12-3.12v-17A3.12,3.12,0,0,0,20.48.4Z" transform="translate(-0.4 -0.4)" fill="#475993"/></svg>