<svg id="Layer_1" data-name="Layer 1" xmlns="http://www.w3.org/2000/svg" xmlns:xlink="http://www.w3.org/1999/xlink" viewBox="0 0 98.77 98.14"><defs><linearGradient id="linear-gradient" x1="5.36" y1="754.53" x2="64.1" y2="754.53" gradientTransform="translate(0 -688)" gradientUnits="userSpaceOnUse"><stop offset="0" stop-color="#b1802c"/><stop offset="0.05" stop-color="#b68730"/><stop offset="0.13" stop-color="#c39a3b"/><stop offset="0.22" stop-color="#d9b94c"/><stop offset="0.31" stop-color="#f3dd61"/><stop offset="0.53" stop-color="#f4e289"/><stop offset="0.75" stop-color="#f3dd61"/><stop offset="1" stop-color="#b1802c"/></linearGradient><linearGradient id="linear-gradient-2" x1="24.71" y1="753.32" x2="44.77" y2="753.32" xlink:href="#linear-gradient"/><linearGradient id="linear-gradient-3" x1="38.13" y1="774.14" x2="94.33" y2="774.14" xlink:href="#linear-gradient"/><linearGradient id="linear-gradient-4" x1="38.13" y1="774.09" x2="58.42" y2="774.09" gradientTransform="translate(0 -688)" gradientUnits="userSpaceOnUse"><stop offset="0" stop-color="#b1802c"/><stop offset="0.13" stop-color="#b68730"/><stop offset="0.32" stop-color="#c39a3b"/><stop offset="0.54" stop-color="#d9b94c"/><stop offset="0.75" stop-color="#f3dd61"/><stop offset="1" stop-color="#b1802c"/></linearGradient><linearGradient id="linear-gradient-5" x1="52.01" y1="774.13" x2="82.06" y2="774.13" xlink:href="#linear-gradient-4"/><linearGradient id="linear-gradient-6" x1="75.66" y1="774.57" x2="94.33" y2="774.57" xlink:href="#linear-gradient-4"/><linearGradient id="linear-gradient-7" x1="52.17" y1="756.08" x2="83.82" y2="756.08" xlink:href="#linear-gradient-4"/></defs><title>gift</title><g id="_Group_" data-name="&lt;Group&gt;"><g id="_Group_2" data-name="&lt;Group&gt;"><path d="M87.1,32.72c2.21-.16,3.67,1.26,2.82,3.71s-3.16,2.51-4.15.55l.3-.47s1.84,3.2,3.34,0S87,33.17,87,33.17Z" transform="translate(-0.62 -0.93)" fill="#0f80e0"/></g><g id="_Group_3" data-name="&lt;Group&gt;"><path id="_Path_" data-name="&lt;Path&gt;" d="M90.55,31.93l.89.23s-.15,2.18-1.89,2.67S87,33.19,87,33.19l.12-.47s1.16,2.43,2.66,1.5A2,2,0,0,0,90.55,31.93Z" transform="translate(-0.62 -0.93)" fill="#0feafc"/></g><g id="_Group_4" data-name="&lt;Group&gt;"><path id="_Path_2" data-name="&lt;Path&gt;" d="M86.07,36.53c2.65.06,2.06,2.72.89,4.07A2.37,2.37,0,0,1,82.77,39l.61,0a1.84,1.84,0,0,0,1.84,1.87c1.88.12,2.67-2.62,2.11-3.39a1.35,1.35,0,0,0-1.44-.5Z" transform="translate(-0.62 -0.93)" fill="#0feafc"/></g></g><g id="_Group_5" data-name="&lt;Group&gt;"><polygon id="_Path_3" data-name="&lt;Path&gt;" points="89.74 93.97 91.07 94.84 91.52 93.97 90 93.22 89.74 93.97" fill="#ffc534"/></g><g id="_Group_6" data-name="&lt;Group&gt;"><polygon id="_Path_4" data-name="&lt;Path&gt;" points="87.71 58.98 89.03 59.85 89.48 58.98 87.96 58.23 87.71 58.98" fill="#ffc534"/></g><g id="_Group_7" data-name="&lt;Group&gt;"><polygon id="_Path_5" data-name="&lt;Path&gt;" points="95.08 21.18 95.53 20.78 96.95 20.98 96.4 21.32 95.08 21.18" fill="#ffc534"/></g><g id="_Group_8" data-name="&lt;Group&gt;"><polygon id="_Path_6" data-name="&lt;Path&gt;" points="73.47 31.15 74.53 31.92 74.83 30.36 74.16 30.24 73.47 31.15" fill="#ffc534"/></g><g id="_Group_9" data-name="&lt;Group&gt;"><polygon id="_Path_7" data-name="&lt;Path&gt;" points="72.06 18.91 72.22 19.44 73.54 19.44 72.62 18.39 72.06 18.91" fill="#ffc534"/></g><g id="_Group_10" data-name="&lt;Group&gt;"><polygon id="_Path_8" data-name="&lt;Path&gt;" points="60.74 6.44 61.49 6.86 61.49 4.92 60.74 4.92 60.74 6.44" fill="#ffc534"/></g><g id="_Group_11" data-name="&lt;Group&gt;"><polygon id="_Path_9" data-name="&lt;Path&gt;" points="55.13 0.97 55.63 1.36 56.97 0.45 56.26 0 55.13 0.97" fill="#ffc534"/></g><g id="_Group_12" data-name="&lt;Group&gt;"><polygon id="_Path_10" data-name="&lt;Path&gt;" points="88.75 89.03 88.75 89.72 89.6 89.72 89.17 89.03 88.75 89.03" fill="#ffc534"/></g><g id="_Group_13" data-name="&lt;Group&gt;"><polygon id="_Path_11" data-name="&lt;Path&gt;" points="68.67 23.07 68.67 23.76 69.51 23.76 69.08 23.07 68.67 23.07" fill="#ffc534"/></g><g id="_Group_14" data-name="&lt;Group&gt;"><polygon id="_Path_12" data-name="&lt;Path&gt;" points="83.42 30.32 83.64 30.93 85.24 30.64 84.69 29.59 83.42 30.32" fill="#ffc534"/></g><g id="_Group_15" data-name="&lt;Group&gt;"><polygon id="_Path_13" data-name="&lt;Path&gt;" points="95.65 70.28 95.87 70.9 97.47 70.58 96.91 69.53 95.65 70.28" fill="#ffc534"/></g><g id="_Group_16" data-name="&lt;Group&gt;"><polygon id="_Path_14" data-name="&lt;Path&gt;" points="92.17 80.69 92.39 81.31 93.97 80.99 93.44 79.94 92.17 80.69" fill="#ffc534"/></g><g id="_Group_17" data-name="&lt;Group&gt;"><polygon id="_Path_15" data-name="&lt;Path&gt;" points="75.3 25.52 76.64 26.39 77.1 25.52 75.58 24.77 75.3 25.52" fill="#0feafc"/></g><g id="_Group_18" data-name="&lt;Group&gt;"><polygon id="_Path_16" data-name="&lt;Path&gt;" points="67.28 9.28 67.74 8.89 69.16 9.09 68.63 9.42 67.28 9.28" fill="#0feafc"/></g><g id="_Group_19" data-name="&lt;Group&gt;"><polygon id="_Path_17" data-name="&lt;Path&gt;" points="83.58 66.18 84.65 66.95 84.94 65.39 84.25 65.27 83.58 66.18" fill="#de305c"/></g><g id="_Group_20" data-name="&lt;Group&gt;"><polygon id="_Path_18" data-name="&lt;Path&gt;" points="86.5 47.69 87.57 48.46 87.87 46.9 87.19 46.78 86.5 47.69" fill="#0feafc"/></g><g id="_Group_21" data-name="&lt;Group&gt;"><polygon id="_Path_19" data-name="&lt;Path&gt;" points="94.96 89.01 96.02 89.8 96.32 88.24 95.63 88.12 94.96 89.01" fill="#0feafc"/></g><g id="_Group_22" data-name="&lt;Group&gt;"><polygon id="_Path_20" data-name="&lt;Path&gt;" points="97.11 19.44 97.27 19.95 98.59 19.95 97.64 18.91 97.11 19.44" fill="#0feafc"/></g><g id="_Group_23" data-name="&lt;Group&gt;"><polygon id="_Path_21" data-name="&lt;Path&gt;" points="87.49 19.95 87.79 18.89 88.44 19.42 88.24 20.17 87.49 19.95" fill="#0feafc"/></g><g id="_Group_24" data-name="&lt;Group&gt;"><polygon id="_Path_22" data-name="&lt;Path&gt;" points="88 71.31 88.3 70.25 88.95 70.78 88.75 71.55 88 71.31" fill="#0feafc"/></g><g id="_Group_25" data-name="&lt;Group&gt;"><polygon id="_Path_23" data-name="&lt;Path&gt;" points="90.18 23.55 90.67 23.94 92.03 23.03 91.32 22.58 90.18 23.55" fill="#0feafc"/></g><g id="_Group_26" data-name="&lt;Group&gt;"><polygon id="_Path_24" data-name="&lt;Path&gt;" points="96.93 60.37 97.41 60.74 98.77 59.85 98.06 59.4 96.93 60.37" fill="#de305c"/></g><g id="_Group_27" data-name="&lt;Group&gt;"><polygon id="_Path_25" data-name="&lt;Path&gt;" points="93.99 54.74 94.46 55.11 95.83 54.2 95.11 53.75 93.99 54.74" fill="#0feafc"/></g><g id="_Group_28" data-name="&lt;Group&gt;"><polygon id="_Path_26" data-name="&lt;Path&gt;" points="94.72 93.2 95.21 93.59 96.58 92.69 95.87 92.23 94.72 93.2" fill="#0feafc"/></g><g id="_Group_29" data-name="&lt;Group&gt;"><polygon id="_Path_27" data-name="&lt;Path&gt;" points="90.36 84.51 90.57 85.12 92.17 84.82 91.62 83.78 90.36 84.51" fill="#0feafc"/></g><g id="_Group_30" data-name="&lt;Group&gt;"><g id="_Group_31" data-name="&lt;Group&gt;"><path id="_Path_28" data-name="&lt;Path&gt;" d="M85.36,88.68l.12.87A2.66,2.66,0,0,0,88,86.78c.25-3.16,2.92-4.32,3.61-2.09v-.63a1.59,1.59,0,0,0-2.53-.58c-2.09,1.52-1,3.12-1.85,4.31A1.74,1.74,0,0,1,85.36,88.68Z" transform="translate(-0.62 -0.93)" fill="#fa8d4e"/></g><g id="_Group_32" data-name="&lt;Group&gt;"><path id="_Path_29" data-name="&lt;Path&gt;" d="M90.79,80.8c-1.36,1.68-3.12.33-3.16-1.66s2.25-1.68,3.16-1.07v.49s-1.76-1.18-2.55-.07.38,2.23.89,2.54,1.52-.61,1.52-.61Z" transform="translate(-0.62 -0.93)" fill="#fa8d4e"/></g><g id="_Group_33" data-name="&lt;Group&gt;"><path id="_Path_30" data-name="&lt;Path&gt;" d="M91.62,84.71c-.73,1.28-4.48.39-4.3-2.33s2.66-2.79,3.49-2.06v.48s-2-1.21-2.8.47a2.27,2.27,0,0,0,1,3.26,2.14,2.14,0,0,0,2.51-.26Z" transform="translate(-0.62 -0.93)" fill="#ffea3e"/></g><g id="_Group_34" data-name="&lt;Group&gt;"><path id="_Path_31" data-name="&lt;Path&gt;" d="M95.77,78.7v.52a5,5,0,0,1-.85-.44,5.56,5.56,0,0,1-1.7-1.5c-.59-.81-.69-1.44-1.7-1.74a1.83,1.83,0,0,0-2.58,1.33c-.22.94-.22,2.82,1.69,1.36l.14.33c-.33.89-2.61,1.33-2.47-1.18a2.61,2.61,0,0,1,4.82-1.25l.46.6A7.38,7.38,0,0,0,95.77,78.7Z" transform="translate(-0.62 -0.93)" fill="#ffea3e"/></g></g><g id="_Group_35" data-name="&lt;Group&gt;"><g id="_Group_36" data-name="&lt;Group&gt;"><path id="_Path_32" data-name="&lt;Path&gt;" d="M66.24,20.35l1,.28a2.12,2.12,0,0,0-2-2.83c-1.86-.3-2.75,2.15-1.68,3l.49.24a2.27,2.27,0,0,1,0-2.31C64.87,17.6,67.07,18.67,66.24,20.35Z" transform="translate(-0.62 -0.93)" fill="#c5073a"/></g><g id="_Group_37" data-name="&lt;Group&gt;"><path id="_Path_33" data-name="&lt;Path&gt;" d="M64.1,21c1.88-.55,1.25-4.07-1.16-5s-3.38,1.74-3.38,1.74L60,18s.9-2.35,2.84-1.4c3.85,1.91.81,4.2.81,4.2Z" transform="translate(-0.62 -0.93)" fill="#f72c53"/></g></g><path d="M64.1,38.35V94.72a1.18,1.18,0,0,1-1.18,1.19H6.54a1.18,1.18,0,0,1-1.18-1.19V38.35a1.17,1.17,0,0,1,1.18-1.19H62.92A1.16,1.16,0,0,1,64.1,38.35Z" transform="translate(-0.62 -0.93)" fill="url(#linear-gradient)"/><path d="M59.9,37.14v2.31a6.1,6.1,0,0,1-8.24,5.71l-9.07-3.42a5.36,5.36,0,0,1-1.72-1,3.81,3.81,0,0,1-3.65,2.72H32.4a3.83,3.83,0,0,1-3.54-2.41L18,45.16a6.1,6.1,0,0,1-8.24-5.71V37.14Z" transform="translate(-0.62 -0.93)" fill="#6c6cff"/><path d="M44.77,35.94v60H24.71V35.94a1.18,1.18,0,0,1,1.19-1.19H43.54a1.18,1.18,0,0,1,1.23,1.19Z" transform="translate(-0.62 -0.93)" fill="url(#linear-gradient-2)"/><path d="M44.77,35.94v6.63l-2.18-.81a5.36,5.36,0,0,1-1.72-1,3.81,3.81,0,0,1-3.65,2.72H32.4a3.83,3.83,0,0,1-3.54-2.41l-4.13,1.56V36a1.18,1.18,0,0,1,1.19-1.18H43.56A1.14,1.14,0,0,1,44.77,35.94Z" transform="translate(-0.62 -0.93)" fill="#ff2c2c"/><path d="M93.14,95.89H39.31a1.17,1.17,0,0,1-1.18-1.19V77.58a1.17,1.17,0,0,1,1.18-1.19H93.1a1.18,1.18,0,0,1,1.19,1.19V94.7A1.15,1.15,0,0,1,93.14,95.89Z" transform="translate(-0.62 -0.93)" fill="#ff9d33"/><path d="M94.33,77.58V94.7a1.19,1.19,0,0,1-1.19,1.19H39.31a2.09,2.09,0,0,1-.35,0,1.17,1.17,0,0,1-.83-1.15V77.58a1.17,1.17,0,0,1,1.18-1.19H93.1a1.17,1.17,0,0,1,1.15.89A.48.48,0,0,1,94.33,77.58Z" transform="translate(-0.62 -0.93)" fill="url(#linear-gradient-3)"/><path d="M58.42,76.37,39,95.83a1.17,1.17,0,0,1-.83-1.15V86.11l9.74-9.76H58.42Z" transform="translate(-0.62 -0.93)" fill="url(#linear-gradient-4)"/><path d="M82.06,76.37,62.54,95.89H52L71.53,76.37Z" transform="translate(-0.62 -0.93)" fill="url(#linear-gradient-5)"/><path d="M94.33,77.58V87.75l-8.14,8.14H75.66L94.29,77.26A1.55,1.55,0,0,1,94.33,77.58Z" transform="translate(-0.62 -0.93)" fill="url(#linear-gradient-6)"/><path d="M82.63,76.37H53.36a1.18,1.18,0,0,1-1.19-1.18V61a1.18,1.18,0,0,1,1.19-1.18H82.63A1.17,1.17,0,0,1,83.82,61V75.19A1.18,1.18,0,0,1,82.63,76.37Z" transform="translate(-0.62 -0.93)" fill="url(#linear-gradient-7)"/><path d="M71.89,76.37H64.12V59.44a1.18,1.18,0,0,1,1.19-1.18h5.37a1.18,1.18,0,0,1,1.19,1.18V76.37Z" transform="translate(-0.62 -0.93)" fill="#fff"/><path d="M31,36.8l-13,4.9A6.1,6.1,0,0,1,9.7,36V23.85a6.1,6.1,0,0,1,8.24-5.71L31,23Z" transform="translate(-0.62 -0.93)" fill="#ff2c2c"/><path d="M42.59,38.29l9.07,3.41A6.1,6.1,0,0,0,59.9,36V23.85a6.1,6.1,0,0,0-8.24-5.71l-9.07,3.41a6.11,6.11,0,0,0-4,5.71v5.36a6,6,0,0,0,4,5.67Z" transform="translate(-0.62 -0.93)" fill="#ff2c2c"/><path d="M37.22,40H32.4a3.79,3.79,0,0,1-3.79-3.79V23.61a3.79,3.79,0,0,1,3.79-3.79h4.82A3.79,3.79,0,0,1,41,23.61v12.6A3.77,3.77,0,0,1,37.22,40Z" transform="translate(-0.62 -0.93)" fill="#ff4d4d"/><path d="M10.87,23.83a4.91,4.91,0,0,1,4.86-4.92,5.12,5.12,0,0,1,1.74.31L27.38,23c0,.21,0,.43,0,.65v2.76l-5.17-1.1a1.19,1.19,0,1,0-.48,2.33l5.69,1.18V31l-5.69,1.18a1.21,1.21,0,0,0-.93,1.4,1.18,1.18,0,0,0,1.17,1,1,1,0,0,0,.24,0l5.17-1.1v2.76c0,.22,0,.44,0,.65l-9.91,3.74a4.88,4.88,0,0,1-6.6-4.58ZM60.69,38.35H62.9V58.59H53.36A2.4,2.4,0,0,0,51,61V75.19H46V40.85l5.27,2a7.07,7.07,0,0,0,2.55.45A7.33,7.33,0,0,0,57.92,42a7.17,7.17,0,0,0,2.77-3.65ZM73.07,61h9.56V75.19H73.07ZM39.31,77.58H93.1V94.7H39.31ZM62.9,75.19H53.36V61h9.56V75.19Zm7.78,0H65.31V59.44h5.37ZM58.69,36a4.88,4.88,0,0,1-6.6,4.59L43,37.16h0a4.28,4.28,0,0,1-.83-.41,5.24,5.24,0,0,0,0-.56V33.43l5.17,1.1a1,1,0,0,0,.24,0,1.19,1.19,0,0,0,.24-2.35L42.18,31V28.84l5.69-1.18a1.21,1.21,0,0,0,.93-1.4,1.2,1.2,0,0,0-1.41-.93l-5.17,1.1V23.61c0-.2,0-.38,0-.55a4.31,4.31,0,0,1,.83-.42l9.06-3.42a5.12,5.12,0,0,1,1.74-.31,4.67,4.67,0,0,1,2.77.89,4.8,4.8,0,0,1,2.09,4Zm-18.88.22a2.61,2.61,0,0,1-2.61,2.61H32.38a2.61,2.61,0,0,1-2.61-2.61V23.61A2.61,2.61,0,0,1,32.38,21H37.2a2.61,2.61,0,0,1,2.61,2.61ZM25.92,94.7V47.23a1.19,1.19,0,0,0-2.37,0V94.7h-17V38.35H8.87A7.33,7.33,0,0,0,11.62,42a7.21,7.21,0,0,0,4.15,1.28,6.87,6.87,0,0,0,2.54-.45l9.94-3.73a5,5,0,0,0,4.09,2.13h4.82a5,5,0,0,0,4.13-2.17c.26.13.55.25.83.37l1.4.53V75.19H39.27a2.4,2.4,0,0,0-2.39,2.39V94.7ZM19.66,17.41,17,16.64a7.23,7.23,0,0,0-8.45,7.19V35.94H6.6a2.4,2.4,0,0,0-2.39,2.39V94.68A2.4,2.4,0,0,0,6.6,97.07H93.18a2.36,2.36,0,0,0,2.1-1.24,2.28,2.28,0,0,0,.29-1.15V90l0-2.41v-10h0a1.51,1.51,0,0,0,0-.3s0-.08,0-.1a.85.85,0,0,0,0-.22v0s0-.08,0-.12,0-.08,0-.1,0-.08,0-.1,0-.08,0-.1,0,0,0-.1,0-.1-.08-.12a.07.07,0,0,0,0,0s-.08-.11-.12-.15L95,76a.55.55,0,0,1-.08-.1l-.08-.08-.08-.08-.1-.08s0,0-.08,0-.07,0-.09-.08,0,0,0,0a1.76,1.76,0,0,0-.44-.21s0,0,0,0l-.14,0s0,0-.08,0l-.11,0-.1,0-.12,0H85.1V60.92a2.4,2.4,0,0,0-2.39-2.39H73A2.39,2.39,0,0,0,70.78,57H65.41V38.27A2.4,2.4,0,0,0,63,35.88H61.18V23.77A7.27,7.27,0,0,0,51.34,17l-9.06,3.42c-.3.12-.58.24-.83.37a5,5,0,0,0-4.13-2.17H32.5a5,5,0,0,0-4.09,2.13l-8.93-3.35" transform="translate(-0.62 -0.93)" fill="#594800"/><g id="_Group_38" data-name="&lt;Group&gt;"><polygon id="_Path_34" data-name="&lt;Path&gt;" points="3.81 81.23 5.14 82.12 5.59 81.23 4.07 80.5 3.81 81.23" fill="#ffc534"/></g><g id="_Group_39" data-name="&lt;Group&gt;"><polygon id="_Path_35" data-name="&lt;Path&gt;" points="25.72 21.57 27.04 22.44 27.5 21.57 25.98 20.82 25.72 21.57" fill="#ffc534"/></g><g id="_Group_40" data-name="&lt;Group&gt;"><polygon id="_Path_36" data-name="&lt;Path&gt;" points="6.72 51.77 6.97 52.13 8.14 51.32 7.8 50.87 6.72 51.77" fill="#ffc534"/></g><g id="_Group_41" data-name="&lt;Group&gt;"><polygon id="_Path_37" data-name="&lt;Path&gt;" points="10.02 83.6 10.27 83.95 11.44 83.14 11.12 82.69 10.02 83.6" fill="#ffc534"/></g><g id="_Group_42" data-name="&lt;Group&gt;"><polygon id="_Path_38" data-name="&lt;Path&gt;" points="6.48 24.53 6.93 24.14 8.36 24.34 7.8 24.65 6.48 24.53" fill="#ffc534"/></g><g id="_Group_43" data-name="&lt;Group&gt;"><polygon id="_Path_39" data-name="&lt;Path&gt;" points="8.04 75.82 9.11 76.61 9.4 75.05 8.71 74.91 8.04 75.82" fill="#ffc534"/></g><g id="_Group_44" data-name="&lt;Group&gt;"><polygon id="_Path_40" data-name="&lt;Path&gt;" points="23.13 27.42 23.29 27.93 24.61 27.93 23.68 26.91 23.13 27.42" fill="#ffc534"/></g><g id="_Group_45" data-name="&lt;Group&gt;"><polygon id="_Path_41" data-name="&lt;Path&gt;" points="2.17 71.67 2.33 72.2 3.65 72.2 2.73 71.15 2.17 71.67" fill="#ffc534"/></g><g id="_Group_46" data-name="&lt;Group&gt;"><polygon id="_Path_42" data-name="&lt;Path&gt;" points="11.93 19.08 12.43 19.46 13.79 18.55 13.06 18.09 11.93 19.08" fill="#ffc534"/></g><g id="_Group_47" data-name="&lt;Group&gt;"><polygon id="_Path_43" data-name="&lt;Path&gt;" points="2.39 92.57 2.39 93.24 3.22 93.24 2.81 92.57 2.39 92.57" fill="#ffc534"/></g><g id="_Group_48" data-name="&lt;Group&gt;"><polygon id="_Path_44" data-name="&lt;Path&gt;" points="15.69 83.52 15.69 84.19 16.53 84.19 16.12 83.52 15.69 83.52" fill="#ffc534"/></g><g id="_Group_49" data-name="&lt;Group&gt;"><polygon id="_Path_45" data-name="&lt;Path&gt;" points="6.22 31.84 6.46 32.48 8.04 32.16 7.49 31.11 6.22 31.84" fill="#ffc534"/></g><g id="_Group_50" data-name="&lt;Group&gt;"><polygon id="_Path_46" data-name="&lt;Path&gt;" points="10.67 55.17 10.9 55.8 12.48 55.49 11.93 54.44 10.67 55.17" fill="#ffc534"/></g><g id="_Group_51" data-name="&lt;Group&gt;"><polygon id="_Path_47" data-name="&lt;Path&gt;" points="6.46 18.15 7.78 19.02 8.24 18.15 6.72 17.4 6.46 18.15" fill="#0feafc"/></g><g id="_Group_52" data-name="&lt;Group&gt;"><polygon id="_Path_48" data-name="&lt;Path&gt;" points="6.74 89.64 8.06 90.53 8.51 89.64 6.99 88.91 6.74 89.64" fill="#0feafc"/></g><g id="_Group_53" data-name="&lt;Group&gt;"><polygon id="_Path_49" data-name="&lt;Path&gt;" points="3.44 97.27 4.76 98.14 5.21 97.27 3.69 96.52 3.44 97.27" fill="#0feafc"/></g><g id="_Group_54" data-name="&lt;Group&gt;"><polygon id="_Path_50" data-name="&lt;Path&gt;" points="1.68 59.3 1.94 59.66 3.1 58.85 2.77 58.39 1.68 59.3" fill="#0feafc"/></g><g id="_Group_55" data-name="&lt;Group&gt;"><polygon id="_Path_51" data-name="&lt;Path&gt;" points="3.93 75.22 4.19 75.58 5.35 74.77 5.04 74.31 3.93 75.22" fill="#0feafc"/></g><g id="_Group_56" data-name="&lt;Group&gt;"><polygon id="_Path_52" data-name="&lt;Path&gt;" points="7.17 59.93 8.24 60.7 8.53 59.14 7.84 59.02 7.17 59.93" fill="#0feafc"/></g><g id="_Group_57" data-name="&lt;Group&gt;"><polygon id="_Path_53" data-name="&lt;Path&gt;" points="28.82 15.11 29.89 15.88 30.18 14.34 29.49 14.2 28.82 15.11" fill="#0feafc"/></g><g id="_Group_58" data-name="&lt;Group&gt;"><polygon id="_Path_54" data-name="&lt;Path&gt;" points="12.76 32.2 13.06 31.13 13.69 31.67 13.51 32.44 12.76 32.2" fill="#0feafc"/></g><g id="_Group_59" data-name="&lt;Group&gt;"><polygon id="_Path_55" data-name="&lt;Path&gt;" points="34.43 14.06 35.16 14.46 35.16 12.54 34.43 12.54 34.43 14.06" fill="#0feafc"/></g><g id="_Group_60" data-name="&lt;Group&gt;"><polygon id="_Path_56" data-name="&lt;Path&gt;" points="14.78 27.56 15.25 27.95 16.61 27.04 15.9 26.59 14.78 27.56" fill="#0feafc"/></g><g id="_Group_61" data-name="&lt;Group&gt;"><polygon id="_Path_57" data-name="&lt;Path&gt;" points="1.48 42.1 1.7 42.71 3.3 42.39 2.75 41.34 1.48 42.1" fill="#0feafc"/></g><g id="_Group_62" data-name="&lt;Group&gt;"><polygon id="_Path_58" data-name="&lt;Path&gt;" points="45.14 1.42 45.35 2.04 46.94 1.72 46.38 0.67 45.14 1.42" fill="#0feafc"/></g><g id="_Group_63" data-name="&lt;Group&gt;"><g id="_Group_64" data-name="&lt;Group&gt;"><path id="_Path_59" data-name="&lt;Path&gt;" d="M12.63,91.82c.37-2,3.35-2.94,4.38-1.09s.22,3.32-1.28,3l-.3-.31s2.53-.06,1.19-2.41-3.5.3-3.6,1.1Z" transform="translate(-0.62 -0.93)" fill="#de305c"/></g><g id="_Group_65" data-name="&lt;Group&gt;"><path id="_Path_60" data-name="&lt;Path&gt;" d="M11.48,87.2l-.32-.4s2.28-2,4,.08,1,6.32-2.21,5.47l-.33-.53s2,.67,2.62-1.07.06-3.73-1.46-4.17A2.13,2.13,0,0,0,11.48,87.2Z" transform="translate(-0.62 -0.93)" fill="#f72c53"/></g><g id="_Group_66" data-name="&lt;Group&gt;"><path id="_Path_61" data-name="&lt;Path&gt;" d="M15.45,93.46c-.49-.73,1.28-2.91,3.48-1.32l-.12.59a2.09,2.09,0,0,0-2.31-.48c-1.19.66-.75,1.52-.75,1.52Z" transform="translate(-0.62 -0.93)" fill="#f72c53"/></g></g><g id="_Group_67" data-name="&lt;Group&gt;"><g id="_Group_68" data-name="&lt;Group&gt;"><path id="_Path_62" data-name="&lt;Path&gt;" d="M2.63,85.14a8.81,8.81,0,0,1-1.86,4c-.06.06-.1.12-.15.18V87.91a21.84,21.84,0,0,0,1.14-2.27c.24-.54.38-.89.38-.91h0Z" transform="translate(-0.62 -0.93)" fill="#0feafc"/></g><g id="_Group_69" data-name="&lt;Group&gt;"><path d="M3.93,89.78c-2.56,1-1.71,4,.32,4.67s2.63-2.14,2.63-2.14L6.48,92s-.55,2.47-2.33,1.83a1.86,1.86,0,0,1,.26-3.65Z" transform="translate(-0.62 -0.93)" fill="#0f80e0"/></g><g id="_Group_70" data-name="&lt;Group&gt;"><g id="_Group_71" data-name="&lt;Group&gt;"><path d="M.62,86.76v-.87a5.43,5.43,0,0,1,1.54-1.16h0l.49.41a3.24,3.24,0,0,0-.87.5A5.09,5.09,0,0,0,.62,86.76Z" transform="translate(-0.62 -0.93)" fill="#0f80e0"/></g><path id="_Path_63" data-name="&lt;Path&gt;" d="M2.65,93.72a3.51,3.51,0,0,1-2,1.12v-.39a2.84,2.84,0,0,0,1.73-1.23,11.31,11.31,0,0,0,1.58-3.46l.5.4C4.57,90.79,3.82,92.55,2.65,93.72Z" transform="translate(-0.62 -0.93)" fill="#0feafc"/></g><g id="_Group_72" data-name="&lt;Group&gt;"><path id="_Path_64" data-name="&lt;Path&gt;" d="M6.48,92c-2.27.15-2.31,3.53,1.8,2.86L8,94.29s-1.62.83-2.29-.4,1.21-1.56,1.21-1.56Z" transform="translate(-0.62 -0.93)" fill="#0feafc"/></g></g><g id="_Group_73" data-name="&lt;Group&gt;"><g id="_Group_74" data-name="&lt;Group&gt;"><path id="_Path_65" data-name="&lt;Path&gt;" d="M13.1,33.88C14.84,37,12,41.05,9.33,40.36S7.51,37.5,8.67,36.9l.62.3s-2.51,1.92.23,2.63,4.17-3,3-6.11Z" transform="translate(-0.62 -0.93)" fill="#fe9400"/></g><g id="_Group_75" data-name="&lt;Group&gt;"><path id="_Path_66" data-name="&lt;Path&gt;" d="M15.51,39.83l.69.51s-.81,2.55-3.79,1.5-3.34-6.85.06-8.12l.61.14s-4.62,2.92-1.72,6.5C13.75,43.32,15.51,39.83,15.51,39.83Z" transform="translate(-0.62 -0.93)" fill="#ffc534"/></g><g id="_Group_76" data-name="&lt;Group&gt;"><path id="_Path_67" data-name="&lt;Path&gt;" d="M9.31,37.12c.29,2.11-1.64,3-3,1.24a1.7,1.7,0,0,1,1.64-2.84l.12.57s-2.51.2-1.34,1.84,1.9.2,1.94-1Z" transform="translate(-0.62 -0.93)" fill="#ffc534"/></g></g><g id="_Group_77" data-name="&lt;Group&gt;"><g id="_Group_78" data-name="&lt;Group&gt;"><path id="_Path_68" data-name="&lt;Path&gt;" d="M45.2,11.24a4.65,4.65,0,0,1-3,1.35,2.38,2.38,0,0,1-1.48-.4,2.28,2.28,0,0,1-.44-.39,4.33,4.33,0,0,1-1-1.82,2.61,2.61,0,0,1-.08-.67v0a3.05,3.05,0,0,1,.06-.6A2.29,2.29,0,0,1,40,7.53a1.79,1.79,0,0,1,1.25-.46h1.05l.45.46a2.68,2.68,0,0,0-.59-.06,2.76,2.76,0,0,0-1.8.51,1.53,1.53,0,0,0-.55.83,2,2,0,0,0-.06.69,2.74,2.74,0,0,0,2.94,2.36,2.79,2.79,0,0,0,.57-.14,3.17,3.17,0,0,0,1.54-1.13,3.36,3.36,0,0,0,.56-2.29l.59.81A2.11,2.11,0,0,1,45.2,11.24Z" transform="translate(-0.62 -0.93)" fill="#c5073a"/></g><g id="_Group_79" data-name="&lt;Group&gt;"><path id="_Path_69" data-name="&lt;Path&gt;" d="M47.69,12c-2.37.34-2.55,2.49-.67,3.9s3.45-.93,3.45-.93l-.33-.42s-1.48,2-2.69,1.13-1.78-3.06.75-2.93Z" transform="translate(-0.62 -0.93)" fill="#c5073a"/></g><g id="_Group_80" data-name="&lt;Group&gt;"><path id="_Path_70" data-name="&lt;Path&gt;" d="M42.71,7.55s-.69,2.67-3,2c-.16-.06-.34-.11-.52-.19h0a4.14,4.14,0,0,1-.53-.3c-.22-.14-.43-.3-.67-.47a3.83,3.83,0,0,1-1.17-1.45h1s0,0,0,.06a2.51,2.51,0,0,0,1.38,1.56,1.29,1.29,0,0,0,.26.08l.24,0a2.62,2.62,0,0,0,2.35-1.34,1.13,1.13,0,0,0,.12-.4Z" transform="translate(-0.62 -0.93)" fill="#f72c53"/></g><g id="_Group_81" data-name="&lt;Group&gt;"><path id="_Path_71" data-name="&lt;Path&gt;" d="M45.34,8.3C42.2,9.58,42,11.5,43.66,13.71s4.9,1.07,4.52-1L47.71,12s.08,2.2-1.6,2.33A3,3,0,0,1,43.22,11c.3-1.58,2.2-1.86,2.2-1.86Z" transform="translate(-0.62 -0.93)" fill="#f72c53"/></g></g></svg>