<?xml version="1.0" encoding="utf-8"?>
<!-- Generator: Adobe Illustrator 25.4.1, SVG Export Plug-In . SVG Version: 6.00 Build 0)  -->
<svg version="1.1" id="Layer_1" xmlns="http://www.w3.org/2000/svg" xmlns:xlink="http://www.w3.org/1999/xlink" x="0px" y="0px"
	 viewBox="0 0 500 500" style="enable-background:new 0 0 500 500;" xml:space="preserve">
<style type="text/css">
	.st0{fill:#302C82;}
	.st1{fill:#B88417;}
	.st2{fill:#3C3C3B;}
	.st3{fill:#302D82;}
	.st4{fill:#FFFFFF;}
	.st5{fill:#2A3885;}
	.st6{fill:#2B3788;}
	.st7{fill:#B08129;}
	.st8{fill:#43AD4B;}
	.st9{fill:#030405;}
	.st10{fill:none;stroke:#FFFFFF;stroke-width:12;stroke-miterlimit:10;}
	.st11{fill:#B1812A;}
	.st12{fill:#FEFEFE;}
	.st13{fill:#3D4594;}
	.st14{fill:#666566;}
	.st15{fill:#5C5B5B;}
	.st16{fill:#707070;}
	.st17{fill:#EFEEEE;}
	.st18{fill:#8C8C8C;}
	.st19{fill:none;stroke:#FFFFFF;stroke-width:10;}
	.st20{fill:#F8AF41;}
	.st21{fill:none;stroke:#FFFFFF;stroke-width:2;}
	.st22{fill:#FFFFFF;stroke:#FFFFFF;stroke-width:8;stroke-miterlimit:10;}
	.st23{opacity:0.502;enable-background:new    ;}
	.st24{clip-path:url(#SVGID_00000176758741515193705920000001897744170443615930_);}
	.st25{clip-path:url(#SVGID_00000010997012640433508890000000380397330409993860_);enable-background:new    ;}
	.st26{clip-path:url(#SVGID_00000075155417203269108130000006048431758321175459_);fill:url(#);}
	.st27{fill:#D0D2D2;}
	.st28{fill:none;stroke:#595A5C;stroke-width:5;stroke-miterlimit:10;}
	.st29{fill:none;stroke:#595A5C;stroke-width:7;stroke-miterlimit:10;}
	.st30{fill:#595A5C;}
	.st31{fill:#2D3889;}
	.st32{fill:none;stroke:#404041;stroke-width:4;stroke-miterlimit:10;}
</style>
<path class="st10" d="M250,36.7c116.1-2.4,213.5,97.5,213.5,213.2c0,115.3-98,213.4-213.5,213.4c-116.3,0-213.7-98.8-213.6-213.8
	C36.6,134.2,134.6,34.3,250,36.7z M101.1,249.8c13.2,0,25.1,0.2,37-0.1c4.4-0.1,5.8,0.8,5.8,5.5c-0.2,39.2-0.1,78.5-0.2,117.7
	c0,3.7,0.8,4.7,4.6,4.6c21.8-0.2,43.6-0.2,65.3,0c3.7,0,4.6-0.9,4.6-4.6c-0.2-32.4,0-64.8-0.2-97.3c0-3.7,0.6-5.1,4.8-5
	c18.1,0.3,36.2,0.2,54.4,0c3.9,0,4.9,0.9,4.9,4.8c-0.2,32.6-0.1,65.2-0.2,97.8c0,3,0.4,4.3,3.9,4.2c22.1-0.2,44.2-0.2,66.3,0
	c3.7,0,4.4-1.2,4.2-4.5c-0.3-4-0.1-8-0.1-12c0-35.6,0.1-71.2-0.1-106.7c0-3.6,0.7-5,4.6-4.7c5.3,0.4,10.6,0.1,16,0.1
	c10.5,0,21.1,0,31.6,0c0.2-0.4,0.4-0.8,0.6-1.2c-0.8-0.5-1.7-0.9-2.4-1.6c-51.3-47.9-102.6-95.7-153.8-143.7
	c-2.8-2.6-3.9-1.3-5.8,0.6c-30.1,30.1-60.2,60.2-90.3,90.3C138.5,212.5,120.2,230.6,101.1,249.8z"/>
</svg>
