<svg id="Layer_1" data-name="Layer 1" xmlns="http://www.w3.org/2000/svg" xmlns:xlink="http://www.w3.org/1999/xlink" viewBox="0 0 23.53 23.53"><defs><linearGradient id="linear-gradient" x1="-25.27" y1="96.89" x2="-24.79" y2="97.41" gradientTransform="translate(-3809.6 -1046.36) rotate(-90) scale(42.28 39.34)" gradientUnits="userSpaceOnUse"><stop offset="0" stop-color="#fd5"/><stop offset="0.5" stop-color="#ff543e"/><stop offset="1" stop-color="#c837ab"/></linearGradient></defs><title>instagram</title><path d="M1.77,1.87C-.07,3.78.31,5.82.31,12c0,5.13-.9,10.27,3.79,11.48,1.46.38,14.42.38,15.89,0a5,5,0,0,0,3.75-4.84c0-.39,0-12.89,0-13.28a5,5,0,0,0-4.42-5A21.59,21.59,0,0,0,15.86.27C5.91.28,3.73-.17,1.77,1.87Z" transform="translate(-0.24 -0.23)" fill="url(#linear-gradient)"/><path d="M12,3.34c-3.55,0-6.92-.32-8.21,3C3.26,7.69,3.34,9.46,3.34,12c0,2.23-.07,4.32.45,5.67,1.29,3.31,4.69,3,8.21,3s6.9.35,8.2-3c.54-1.38.46-3.12.46-5.67,0-3.39.19-5.57-1.46-7.21S15.3,3.34,12,3.34ZM11.22,4.9c7.41,0,8.35-.84,7.83,10.6-.19,4-3.26,3.6-7,3.6-6.9,0-7.1-.2-7.1-7.11S5.45,4.9,11.22,4.9Zm5.4,1.44a1,1,0,1,0,1,1A1,1,0,0,0,16.62,6.34ZM12,7.55A4.45,4.45,0,1,0,16.45,12,4.45,4.45,0,0,0,12,7.55Zm0,1.56c3.82,0,3.82,5.78,0,5.78S8.18,9.11,12,9.11Z" transform="translate(-0.24 -0.23)" fill="#fff"/></svg>