<?xml version="1.0" encoding="utf-8"?>
<!-- Generator: Adobe Illustrator 25.4.1, SVG Export Plug-In . SVG Version: 6.00 Build 0)  -->
<svg version="1.1" id="Layer_1" xmlns="http://www.w3.org/2000/svg" xmlns:xlink="http://www.w3.org/1999/xlink" x="0px" y="0px"
	 viewBox="0 0 500 500" style="enable-background:new 0 0 500 500;" xml:space="preserve">
<style type="text/css">
	.st0{fill:#FFFFFF;}
	.st1{fill:#302C82;}
	.st2{fill:#B88417;}
	.st3{fill:#3C3C3B;}
	.st4{fill:#302D82;}
	.st5{fill:#2A3885;}
	.st6{fill:#B1812A;}
	.st7{fill:#33A968;}
	.st8{fill:#030405;}
	.st9{fill:#FEFEFE;}
	.st10{fill:#3D4594;}
	.st11{fill:#666566;}
	.st12{fill:#5C5B5B;}
	.st13{fill:#707070;}
	.st14{fill:#EFEEEE;}
	.st15{fill:#8C8C8C;}
	.st16{fill:#2D3889;}
	.st17{fill:none;stroke:#595A5C;stroke-width:5;stroke-miterlimit:10;}
	.st18{fill:none;stroke:#595A5C;stroke-width:7;stroke-miterlimit:10;}
	.st19{fill:#595A5C;}
	.st20{fill:none;stroke:#FFFFFF;stroke-width:10;}
	.st21{fill:#F8AF41;}
	.st22{fill:none;stroke:#FFFFFF;stroke-width:2;}
</style>
<path class="st6" d="M250,36.7c116.1-2.4,213.5,97.5,213.5,213.2c0,115.3-98,213.4-213.5,213.4c-116.3,0-213.7-98.8-213.6-213.8
	C36.6,134.2,134.6,34.3,250,36.7z"/>
<g>
	<path class="st0" d="M130.8,250c0-16.1,11.2-28.2,26.8-28.2S184,233.5,184,250c0,16.1-10.7,28.2-27.3,28.2
		C141.6,278.2,130.8,266.1,130.8,250z"/>
	<path class="st0" d="M223.4,250c0-16.1,11.2-28.2,26.8-28.2s26.4,11.6,26.4,28.2c0,16.1-10.7,28.2-27.3,28.2
		C234.1,278.2,223.4,266.1,223.4,250z"/>
	<path class="st0" d="M316,250c0-16.1,11.2-28.2,26.8-28.2s26.4,11.6,26.4,28.2c0,16.1-10.7,28.2-27.3,28.2
		C326.7,278.2,316,266.1,316,250z"/>
</g>
</svg>
