<?xml version="1.0" encoding="utf-8"?>
<!-- Generator: Adobe Illustrator 25.4.1, SVG Export Plug-In . SVG Version: 6.00 Build 0)  -->
<svg version="1.1" id="Layer_1" xmlns="http://www.w3.org/2000/svg" xmlns:xlink="http://www.w3.org/1999/xlink" x="0px" y="0px"
	 viewBox="0 0 500 500" style="enable-background:new 0 0 500 500;" xml:space="preserve">
<style type="text/css">
	.st0{fill:#FFFFFF;}
	.st1{fill:#302C82;}
	.st2{fill:#B88417;}
	.st3{fill:#3C3C3B;}
	.st4{fill:#302D82;}
	.st5{fill:#2A3885;}
	.st6{fill:#B1812A;}
	.st7{fill:#33A968;}
	.st8{fill:#030405;}
	.st9{fill:#FEFEFE;}
	.st10{fill:#3D4594;}
	.st11{fill:#666566;}
	.st12{fill:#5C5B5B;}
	.st13{fill:#707070;}
	.st14{fill:#EFEEEE;}
	.st15{fill:#8C8C8C;}
	.st16{fill:#2D3889;}
	.st17{fill:none;stroke:#595A5C;stroke-width:5;stroke-miterlimit:10;}
	.st18{fill:none;stroke:#595A5C;stroke-width:7;stroke-miterlimit:10;}
	.st19{fill:#595A5C;}
	.st20{fill:none;stroke:#FFFFFF;stroke-width:10;}
	.st21{fill:#F8AF41;}
	.st22{fill:none;stroke:#FFFFFF;stroke-width:2;}
</style>
<path class="st6" d="M265.1,454.6c-10.7,0-21.3,0-32,0c-0.2-0.9-0.9-0.8-1.6-0.8c-6.6-0.3-13.2-1.4-19.7-2.7
	c-36.3-7-68.6-22.5-96.3-47c-37.3-32.9-60-73.9-67.9-123.1c-0.8-4.7-0.5-9.6-2.3-14.2c0-11.2,0-22.4,0-33.5c0.9-0.2,0.8-0.9,0.8-1.6
	c0.5-8,1.7-15.9,3.4-23.6c10.6-48,34.7-87.9,73.5-118.3C173,50.8,229.7,37.5,291.7,49.9c48.6,9.8,88.6,35,119.1,74.2
	c38.7,49.8,51.7,106.3,39.2,168c-9.8,48.5-35.1,88.1-74,118.8c-28.1,22.3-60,36-95.5,41.4C275.4,453.2,270.1,453,265.1,454.6z
	 M218.4,283.6c-1.4-1.7-2.3-2.9-3.3-3.9c-13.6-13.7-27.2-27.3-41-40.9c-9.6-9.6-22.5-11.9-33.6-6.5c-17.7,8.5-22.4,32.3-7,47.4
	c21.2,20.9,42.2,42.1,63.3,63.2c3.5,3.5,7.4,6.4,12.2,8c12,3.8,22.2,0.7,30.9-8.1c42-42,84-84,125.9-125.9c1-1,2-2.1,2.9-3.3
	c12.1-15,7.2-36.3-10.2-44.6c-11.1-5.3-23.9-2.5-33.8,7.4c-34.4,34.3-68.7,68.7-103.1,103.1C220.7,280.5,219.8,281.8,218.4,283.6z"
	/>
</svg>
