<svg id="Layer_1" data-name="Layer 1" xmlns="http://www.w3.org/2000/svg" viewBox="0 0 23.21 23.21"><title>web</title><rect width="23.21" height="23.21" rx="3.5" ry="3.5" fill="#fff"/><path d="M22.36,10.29H22a10.12,10.12,0,0,0-20,.06H1.66a.79.79,0,0,0-.81.79h0v2.94a.81.81,0,0,0,.78.87h.66a9.94,9.94,0,0,0,3.14,4.87.31.31,0,0,0,.44,0h0a.32.32,0,0,0,0-.46,8.64,8.64,0,0,1-1.08-1.1c.49-.23,1-.43,1.5-.61a11,11,0,0,0,.81,1.24,13.25,13.25,0,0,0,2.23,2.26,8.67,8.67,0,0,1-1.91-.8.33.33,0,0,0-.45.13.31.31,0,0,0,.1.43h0a10.12,10.12,0,0,0,12-1.69A9.79,9.79,0,0,0,21.7,15h.64a.81.81,0,0,0,.82-.8V11.11A.84.84,0,0,0,22.36,10.29Zm-1.07,0H19l-.09-.5A11.3,11.3,0,0,0,18,7.13h.18a11.51,11.51,0,0,0,1.43-.5A9.3,9.3,0,0,1,21.29,10.29Zm-2.93,0H15V9.81a18.46,18.46,0,0,0-.29-2.11,22.55,22.55,0,0,0,2.71-.46,10.74,10.74,0,0,1,.92,2.64,2,2,0,0,0,0,.46Zm.33-4.89a4.5,4.5,0,0,1,.55.6c-.44.17-.87.3-1.22.4l-.3.13a10.67,10.67,0,0,0-.67-1.07,11.24,11.24,0,0,0-2.33-2.39,9.28,9.28,0,0,1,4,2.37ZM13,2.69a10.46,10.46,0,0,1,3.51,3.14c.2.28.38.57.56.87a23.6,23.6,0,0,1-2.52.4,13.11,13.11,0,0,0-1.68-4.39Zm-1,0h0a11.84,11.84,0,0,1,1.85,4.48H10.14A11.72,11.72,0,0,1,12,2.67Zm-.84,0A13.17,13.17,0,0,0,9.48,7.11,19.81,19.81,0,0,1,7,6.73a10.41,10.41,0,0,1,4.06-4ZM9.35,7.82c-.11.68-.21,1.43-.27,2.1v.49H5.66A.83.83,0,0,1,5.74,10,10.31,10.31,0,0,1,6.63,7.4,21,21,0,0,0,9.35,7.82Zm-4-2.38a9.4,9.4,0,0,1,4-2.38A11.14,11.14,0,0,0,7,5.44,10.65,10.65,0,0,0,6.3,6.55,12.76,12.76,0,0,1,4.79,6,5,5,0,0,1,5.33,5.44Zm-1,1.13A13.6,13.6,0,0,0,6,7.15,11.23,11.23,0,0,0,5.1,9.79a3.53,3.53,0,0,1-.1.55H2.72A9.17,9.17,0,0,1,4.36,6.57Zm-2.7,7.68a.16.16,0,0,1-.16-.16V11.15A.16.16,0,0,1,1.66,11h9.45a.33.33,0,0,0,.33-.31.33.33,0,0,0-.33-.33H9.68V9.92A13.23,13.23,0,0,1,10,7.81H14c.11.69.21,1.43.28,2.12v.43H13.15a.34.34,0,0,0-.33.31.33.33,0,0,0,.33.33h5.08v3.24ZM18.15,15a10,10,0,0,1-.79,2,22.39,22.39,0,0,0-2.7-.46c.09-.5.17-1,.23-1.57Zm-3.92,0c-.07.52-.14,1-.22,1.51H10c-.09-.5-.16-1-.23-1.51ZM4.36,17.64A8.86,8.86,0,0,1,2.93,14.9H5.19A11.62,11.62,0,0,0,6,17.06,15.62,15.62,0,0,0,4.36,17.64ZM5.87,15H9.15a9.94,9.94,0,0,0,.23,1.56A19,19,0,0,0,6.66,17,11,11,0,0,1,5.87,15ZM11,21.54a11.24,11.24,0,0,1-3.35-3,9.11,9.11,0,0,1-.69-1,21.75,21.75,0,0,1,2.53-.38c.13.6.29,1.16.46,1.7a12.89,12.89,0,0,0,1.23,2.7Zm1,0h0a10.41,10.41,0,0,1-1.43-2.94c-.16-.48-.3-1-.43-1.54h3.74c-.13.5-.28,1-.45,1.54A10.69,10.69,0,0,1,12,21.54Zm.84,0a13.25,13.25,0,0,0,1.23-2.71,16.67,16.67,0,0,0,.45-1.68,19.16,19.16,0,0,1,2.5.41c-.2.33-.42.66-.65,1a11.49,11.49,0,0,1-3.36,3Zm5.84-2.72a9.5,9.5,0,0,1-4,2.38,12.29,12.29,0,0,0,2.23-2.27,9.81,9.81,0,0,0,.81-1.21l.32.08a12.82,12.82,0,0,1,1.22.42l-.55.57Zm1-1.15a14.23,14.23,0,0,0-1.43-.5h-.18A11.34,11.34,0,0,0,18.82,15H21a9.34,9.34,0,0,1-1.38,2.68Zm2.85-3.55a.16.16,0,0,1-.15.16H18.87V11h3.49a.16.16,0,0,1,.15.16Z" transform="translate(-0.4 -0.4)" fill="#516800"/><path d="M3.33,13.25s0,.1-.16.1-.15,0-.15-.1V11.64s0-.1.15-.1.16,0,.16.1v.74a.32.32,0,0,1,.3-.19.46.46,0,0,1,.41.49v.57s0,.1-.15.1-.15,0-.15-.1v-.57a.23.23,0,0,0-.21-.22.22.22,0,0,0-.2.22Z" transform="translate(-0.4 -0.4)" fill="#516800"/><path d="M4.73,13c0,.1,0,.13.14.13H5a.13.13,0,1,1,0,.26H4.87c-.28,0-.44-.12-.44-.39V11.79s.07-.1.14-.1.16,0,.16.1v.42H5s.09,0,.09.11,0,.11-.09.11H4.73Z" transform="translate(-0.4 -0.4)" fill="#516800"/><path d="M5.71,13c0,.1,0,.13.15.13H6a.13.13,0,0,1,0,.26h-.1c-.29,0-.45-.12-.45-.39V11.79s.09-.1.15-.1.15,0,.15.1v.42H6s.08,0,.08.11,0,.11-.08.11H5.71Z" transform="translate(-0.4 -0.4)" fill="#516800"/><path d="M6.68,12.31h0A.39.39,0,0,1,7,12.12a.47.47,0,0,1,.44.49v.2a.48.48,0,0,1-.42.5.35.35,0,0,1-.32-.19v.6a.27.27,0,0,1-.17.1c-.08,0-.14,0-.14-.1V12.29s0-.1.14-.1S6.68,12.25,6.68,12.31Zm.46.37a.24.24,0,0,0-.23-.22.22.22,0,0,0-.2.22v.24a.25.25,0,0,0,.22.19.23.23,0,0,0,.21-.23Z" transform="translate(-0.4 -0.4)" fill="#516800"/><path d="M8.34,13c0-.21-.57-.08-.57-.48,0-.17.1-.36.43-.36s.38,0,.38.16,0,.14-.11.14H8.2c-.15,0-.17,0-.17.12s.58,0,.58.48c0,.22-.16.36-.44.36s-.44-.17-.44-.29,0-.14.1-.14.12.11.32.11S8.34,13.08,8.34,13Z" transform="translate(-0.4 -0.4)" fill="#516800"/><path d="M9.25,12.51a.14.14,0,0,1-.1.15A.16.16,0,0,1,9,12.52H9a.17.17,0,0,1,.17-.17h0A.16.16,0,0,1,9.25,12.51Zm0,.7a.14.14,0,0,1-.1.15A.16.16,0,0,1,9,13.22H9A.18.18,0,0,1,9.15,13h0A.17.17,0,0,1,9.25,13.21Z" transform="translate(-0.4 -0.4)" fill="#516800"/><path d="M10.58,11.61h0l-.83,1.78a.09.09,0,0,1-.1,0,.11.11,0,0,1-.11-.1h0l.88-1.75a.08.08,0,0,1,.09,0A.1.1,0,0,1,10.58,11.61Z" transform="translate(-0.4 -0.4)" fill="#516800"/><path d="M11.37,11.61h0l-.89,1.78a.09.09,0,0,1-.1,0,.11.11,0,0,1-.11-.1h0l.88-1.75a.07.07,0,0,1,.09,0A.13.13,0,0,1,11.37,11.61Z" transform="translate(-0.4 -0.4)" fill="#516800"/><path d="M12.76,13.32a.13.13,0,0,1-.12,0h-.13l-.19-.53-.18.53H12a.15.15,0,0,1-.13,0l-.37-1h0c0-.07.11-.12.2-.12a.06.06,0,0,1,.08,0l.22.69.18-.59a.1.1,0,0,1,.1-.1.09.09,0,0,1,.1.1l.19.59.24-.69a.07.07,0,0,1,.09,0c.08,0,.21,0,.21.12h0Z" transform="translate(-0.4 -0.4)" fill="#516800"/><path d="M14.58,13.32h-.25l-.18-.53-.19.53h-.25l-.37-1h0c0-.07.12-.12.19-.12a.09.09,0,0,1,.1,0l.25.68.18-.6a.11.11,0,0,1,.1-.1.1.1,0,0,1,.1.1l.19.6.24-.7h.09c.08,0,.2,0,.2.13h0Z" transform="translate(-0.4 -0.4)" fill="#516800"/><path d="M16.4,13.32h-.25L16,12.79l-.18.53h-.25l-.37-1h0c0-.07.12-.12.2-.12h.09l.24.68.19-.6s0-.07.11-.07a.08.08,0,0,1,.1.07h0l.17.6.26-.7h.08c.09,0,.2,0,.2.13h0Z" transform="translate(-0.4 -0.4)" fill="#516800"/><path d="M21.64,11.92h-.35l-.16-.33a.47.47,0,0,0-.43-.27.45.45,0,0,0-.44.27l-.16.33h-.36a.51.51,0,0,0-.4.34.51.51,0,0,0,.13.5l.25.25v.35a.44.44,0,0,0,.2.47.47.47,0,0,0,.51,0l.31-.15.32.15a.45.45,0,0,0,.23,0,.37.37,0,0,0,.28-.1.47.47,0,0,0,.2-.47v-.35l.24-.25a.58.58,0,0,0-.37-.74Zm-.5.69A.48.48,0,0,0,21,13v.12h-.11a.53.53,0,0,0-.46,0h-.1V13a.51.51,0,0,0-.14-.42l-.09-.09h.11a.56.56,0,0,0,.38-.27v0a.49.49,0,0,0,.37.27h.1Z" transform="translate(-0.4 -0.4)" fill="#516800"/></svg>