<svg id="Layer_1" data-name="Layer 1" xmlns="http://www.w3.org/2000/svg" viewBox="0 0 23.21 23.21"><title>youtube</title><rect width="23.21" height="23.21" rx="3.5" ry="3.5" fill="#d42428"/><path d="M17.48,16.4H16.43v-.61a.49.49,0,0,1,.49-.49H17a.49.49,0,0,1,.49.49Zm-3.92-1.3a.45.45,0,0,0-.48.4v2.94a.49.49,0,0,0,1,0V15.5A.45.45,0,0,0,13.56,15.1Zm6.36-1.65v5.61a2.53,2.53,0,0,1-2.59,2.44H6.67a2.53,2.53,0,0,1-2.59-2.44V13.45A2.53,2.53,0,0,1,6.67,11H17.33A2.53,2.53,0,0,1,19.92,13.45ZM7.38,19.66v-5.9H8.7v-.87H5.18v.86h1.1v5.92Zm4-5h-1.1v3.15a5.69,5.69,0,0,1,0,.77c-.09.24-.49.5-.65,0a5.78,5.78,0,0,1,0-.77V14.64H8.49v3.12c0,.48,0,.84,0,1s0,.62.28.81A1.33,1.33,0,0,0,10.46,19v.65h.88v-5Zm3.52,3.61V15.63c0-1-.75-1.6-1.76-.79V12.89H12v6.73h.9l.08-.42C14.14,20.25,14.87,19.52,14.86,18.25Zm3.45-.35h-.83v.57a.45.45,0,0,1-.45.45h-.16a.45.45,0,0,1-.45-.45V17.27h1.89v-.71a9.89,9.89,0,0,0-.06-1.34c-.13-.94-1.45-1.09-2.12-.61a1.21,1.21,0,0,0-.46.62,3.33,3.33,0,0,0-.14,1.11v1.57C15.53,20.51,18.69,20.14,18.31,17.9ZM14.08,9.41a.66.66,0,0,0,.26.33.73.73,0,0,0,.45.13.68.68,0,0,0,.42-.13,1,1,0,0,0,.31-.4l0,.44h1.23V4.56h-1V8.62a.4.4,0,0,1-.8,0V4.56H14V8.08c0,.44,0,.74,0,.9A1.3,1.3,0,0,0,14.08,9.41ZM10.36,6.46a4.46,4.46,0,0,1,.12-1.17,1.41,1.41,0,0,1,.45-.68,1.33,1.33,0,0,1,.83-.26,1.56,1.56,0,0,1,.74.17A1.22,1.22,0,0,1,13,5a1.66,1.66,0,0,1,.22.54,4.48,4.48,0,0,1,.06.86V7.67a7,7,0,0,1-.05,1.06,1.84,1.84,0,0,1-.24.64,1.16,1.16,0,0,1-.48.43,1.53,1.53,0,0,1-.66.14,1.85,1.85,0,0,1-.71-.12.91.91,0,0,1-.45-.36,1.49,1.49,0,0,1-.23-.59,5.29,5.29,0,0,1-.07-1V6.46Zm1,2.08a.49.49,0,1,0,1,0V5.76a.49.49,0,1,0-1,0Zm-3.4,1.4H9.08v-4l1.37-3.43H9.18L8.46,5.05,7.72,2.5H6.46L7.92,5.94Z" transform="translate(-0.4 -0.4)" fill="#fff"/></svg>