<svg id="Layer_1" data-name="Layer 1" xmlns="http://www.w3.org/2000/svg" xmlns:xlink="http://www.w3.org/1999/xlink" viewBox="0 0 98.27 64"><defs><linearGradient id="linear-gradient" x1="32.33" y1="69.69" x2="32.33" y2="20" gradientTransform="matrix(1, 0, 0, -1, 0, 102)" gradientUnits="userSpaceOnUse"><stop offset="0" stop-color="#a06878"/><stop offset="1" stop-color="#6d3946"/></linearGradient><linearGradient id="linear-gradient-2" x1="67.67" y1="84" x2="67.67" y2="34.31" xlink:href="#linear-gradient"/></defs><title>collections</title><path d="M63.8,32.31H57.17a24.84,24.84,0,0,1-49.68,0H.86A31.79,31.79,0,0,0,31.34,63.77c-2,3-5.63,8.95-5.63,11.6,0,8.84,13.24,8.84,13.24,0,0-2.65-3.64-8.61-5.63-11.6A31.79,31.79,0,0,0,63.8,32.31Z" transform="translate(-0.86 -18)" fill="url(#linear-gradient)"/><path d="M99.14,18H92.51a24.84,24.84,0,0,1-49.68,0H36.2A31.8,31.8,0,0,0,66.68,49.47c-2,3-5.63,8.94-5.63,11.59,0,8.84,13.24,8.84,13.24,0,0-2.65-3.64-8.61-5.63-11.59A31.8,31.8,0,0,0,99.14,18Z" transform="translate(-0.86 -18)" fill="url(#linear-gradient-2)"/></svg>