<svg id="Layer_1" data-name="Layer 1" xmlns="http://www.w3.org/2000/svg" viewBox="0 0 100 100"><title>invite</title><circle id="_Ellipse_" data-name="&lt;Ellipse&gt;" cx="50.54" cy="49.47" r="47.36" fill="#fdd8a1"/><path d="M42.81,38.86V32.71a4.09,4.09,0,0,1,4.09-4.09h0a9.24,9.24,0,0,0,8.2,0h0a4.09,4.09,0,0,1,4.09,4.09v6.15a2,2,0,0,1-2,2H44.85A2,2,0,0,1,42.81,38.86Z" fill="#f45656"/><circle cx="51" cy="20.42" r="5.12" fill="#ffd4b0"/><path d="M27.45,46a1,1,0,0,1-1-1,24.54,24.54,0,0,1,15-22.62,1,1,0,0,1,.8,1.88h0A22.5,22.5,0,0,0,28.47,45,1,1,0,0,1,27.45,46Z" fill="#f1ffb6"/><path d="M74.55,46a1,1,0,0,1-1-1A22.5,22.5,0,0,0,59.81,24.26a1,1,0,1,1,.81-1.88A24.56,24.56,0,0,1,75.58,45,1,1,0,0,1,74.55,46Z" fill="#f1ffb6"/><path d="M51,69.58a24.45,24.45,0,0,1-9.62-2,1,1,0,1,1,.8-1.88,22.75,22.75,0,0,0,17.63,0,1,1,0,0,1,1.35.54,1,1,0,0,1-.54,1.34A24.48,24.48,0,0,1,51,69.58Z" fill="#f1ffb6"/><path d="M43.83,71.62a1,1,0,0,1-.91-.54l-2.05-3.92a1,1,0,0,1,.44-1.39l.18-.07,4.1-1.2a1,1,0,0,1,.58,2l-2.9.85,1.47,2.82a1,1,0,0,1-.44,1.38A1,1,0,0,1,43.83,71.62Z" fill="#f5ffae"/><path d="M74.55,46a1,1,0,0,1-.72-.3l-3.07-3.07A1,1,0,0,1,72.2,41.2l2.35,2.35L76.9,41.2a1,1,0,0,1,1.45,1.45l-3.07,3.07A1,1,0,0,1,74.55,46Z" fill="#f5ffae"/><path d="M39.73,28.62a1,1,0,0,1-.44-.11,1,1,0,0,1-.48-1.36l1.6-3.33-3.15-1.44a1,1,0,0,1,.85-1.86l4.1,1.87a1,1,0,0,1,.5,1.36h0l-2,4.28A1.05,1.05,0,0,1,39.73,28.62Z" fill="#f5ffae"/><path d="M54.06,16.34a5.1,5.1,0,0,1-7.14,7.14,5.1,5.1,0,1,0,8.19-6.09A5.22,5.22,0,0,0,54.06,16.34Z" fill="#edc4a2"/><circle cx="72.5" cy="54.22" r="5.12" fill="#ffd4b0"/><path d="M75.56,50.13a5.1,5.1,0,0,1-7.14,7.15,5.11,5.11,0,1,0,7.14-7.15Z" fill="#edc4a2"/><circle cx="29.49" cy="54.22" r="5.12" fill="#ffd4b0"/><path d="M32.55,50.13a5.1,5.1,0,0,1-7.14,7.15,5.11,5.11,0,1,0,7.14-7.15Z" fill="#edc4a2"/><path d="M21.3,72.65V66.5a4.1,4.1,0,0,1,4.1-4.09h0a9.15,9.15,0,0,0,8.19,0h0a4.1,4.1,0,0,1,4.1,4.09v6.15a2.05,2.05,0,0,1-2,2H23.35A2.05,2.05,0,0,1,21.3,72.65Z" fill="#ffa511"/><path d="M64.31,72.65V66.5a4.1,4.1,0,0,1,4.1-4.09h0a9.15,9.15,0,0,0,8.19,0h0a4.1,4.1,0,0,1,4.1,4.09v6.15a2.05,2.05,0,0,1-2,2H66.36A2.05,2.05,0,0,1,64.31,72.65Z" fill="#4db5ff"/><path d="M57.14,20.42A6.15,6.15,0,1,0,51,26.57,6.14,6.14,0,0,0,57.14,20.42Zm-10.24,0a4.1,4.1,0,1,1,4.1,4.1A4.1,4.1,0,0,1,46.9,20.42Z" fill="#727272"/><path d="M41.78,32.71v6.15a3.08,3.08,0,0,0,3.07,3.07H57.14a3.08,3.08,0,0,0,3.08-3.07V32.71a5.14,5.14,0,0,0-5.12-5.12h-.25l-.21.11a8.18,8.18,0,0,1-7.28,0l-.22-.11H46.9A5.14,5.14,0,0,0,41.78,32.71Zm2,0a3.07,3.07,0,0,1,2.85-3.06,10.25,10.25,0,0,0,8.63,0,3.07,3.07,0,0,1,2.86,3.06v6.15a1,1,0,0,1-1,1H44.85a1,1,0,0,1-1-1Z" fill="#727272"/><path d="M72.5,48.07a6.15,6.15,0,1,0,6.15,6.15A6.14,6.14,0,0,0,72.5,48.07Zm0,10.24a4.1,4.1,0,1,1,4.1-4.09A4.09,4.09,0,0,1,72.5,58.31Z" fill="#727272"/><path d="M76.6,61.38h-.24l-.22.11a8.15,8.15,0,0,1-7.27,0l-.22-.11h-.24a5.13,5.13,0,0,0-5.12,5.12v6.15a3.06,3.06,0,0,0,3.07,3.07H78.65a3.07,3.07,0,0,0,3.07-3.07V66.5A5.13,5.13,0,0,0,76.6,61.38Zm3.07,11.27a1,1,0,0,1-1,1H66.36a1,1,0,0,1-1-1V66.5a3.07,3.07,0,0,1,2.85-3.06,10.25,10.25,0,0,0,8.63,0,3.07,3.07,0,0,1,2.85,3.06v6.15Z" fill="#727272"/><path d="M29.49,48.07a6.15,6.15,0,1,0,6.15,6.15A6.14,6.14,0,0,0,29.49,48.07Zm0,10.24a4.1,4.1,0,1,1,4.1-4.09A4.09,4.09,0,0,1,29.49,58.31Z" fill="#727272"/><path d="M23.35,75.72H35.64a3.06,3.06,0,0,0,3.07-3.07V66.5a5.13,5.13,0,0,0-5.12-5.12h-.24l-.22.11a8.15,8.15,0,0,1-7.27,0l-.22-.11H25.4a5.13,5.13,0,0,0-5.12,5.12v6.15A3.06,3.06,0,0,0,23.35,75.72Zm-1-9.22a3.07,3.07,0,0,1,2.85-3.06,10.25,10.25,0,0,0,8.63,0,3.07,3.07,0,0,1,2.85,3.06v6.15a1,1,0,0,1-1,1H23.35a1,1,0,0,1-1-1Z" fill="#727272"/></svg>