<?xml version="1.0" encoding="utf-8"?>
<!-- Generator: Adobe Illustrator 24.3.0, SVG Export Plug-In . SVG Version: 6.00 Build 0)  -->
<svg version="1.1" id="Layer_1" xmlns="http://www.w3.org/2000/svg" xmlns:xlink="http://www.w3.org/1999/xlink" x="0px" y="0px"
	 viewBox="0 0 110 110" style="enable-background:new 0 0 110 110;" xml:space="preserve">
<style type="text/css">
	.st0{fill:#603813;}
	.st1{fill:#B98840;}
	.st2{fill:#EBEBEB;}
	.st3{font-family:'Calibri';}
	.st4{font-size:17.3828px;}
	.st5{fill:#B27E2B;}
	.st6{fill:none;stroke:#B27E2B;stroke-width:0.5;stroke-miterlimit:10;}
	.st7{fill:#FFFFFF;}
	.st8{fill:none;stroke:#5E3714;stroke-width:0.75;stroke-miterlimit:10;}
	.st9{fill:#5E3714;}
	.st10{fill:#E1E1E1;}
	.st11{clip-path:url(#SVGID_6_);fill:url(#SVGID_7_);}
	.st12{clip-path:url(#SVGID_9_);fill:url(#SVGID_10_);}
	.st13{clip-path:url(#SVGID_12_);fill:url(#SVGID_13_);}
	.st14{clip-path:url(#SVGID_15_);fill:url(#SVGID_16_);}
	.st15{clip-path:url(#SVGID_18_);fill:url(#SVGID_19_);}
	.st16{clip-path:url(#SVGID_21_);fill:url(#SVGID_22_);}
	.st17{clip-path:url(#SVGID_24_);fill:url(#SVGID_25_);}
	.st18{clip-path:url(#SVGID_27_);fill:url(#SVGID_28_);}
	.st19{clip-path:url(#SVGID_30_);fill:url(#SVGID_31_);}
	.st20{clip-path:url(#SVGID_33_);fill:url(#SVGID_34_);}
	.st21{clip-path:url(#SVGID_36_);fill:url(#SVGID_37_);}
	.st22{clip-path:url(#SVGID_39_);fill:url(#SVGID_40_);}
	.st23{clip-path:url(#SVGID_42_);fill:url(#SVGID_43_);}
	.st24{clip-path:url(#SVGID_45_);fill:url(#SVGID_46_);}
	.st25{clip-path:url(#SVGID_48_);fill:url(#SVGID_49_);}
	.st26{clip-path:url(#SVGID_51_);fill:url(#SVGID_52_);}
	.st27{clip-path:url(#SVGID_54_);fill:url(#SVGID_55_);}
	.st28{clip-path:url(#SVGID_57_);fill:url(#SVGID_58_);}
	.st29{clip-path:url(#SVGID_60_);fill:url(#SVGID_61_);}
	.st30{clip-path:url(#SVGID_63_);fill:url(#SVGID_64_);}
	.st31{clip-path:url(#SVGID_66_);fill:url(#SVGID_67_);}
	.st32{clip-path:url(#SVGID_69_);fill:url(#SVGID_70_);}
	.st33{clip-path:url(#SVGID_72_);fill:url(#SVGID_73_);}
	.st34{clip-path:url(#SVGID_75_);fill:url(#SVGID_76_);}
	.st35{clip-path:url(#SVGID_78_);fill:url(#SVGID_79_);}
	.st36{clip-path:url(#SVGID_81_);fill:url(#SVGID_82_);}
	.st37{clip-path:url(#SVGID_84_);fill:url(#SVGID_85_);}
	.st38{clip-path:url(#SVGID_87_);fill:url(#SVGID_88_);}
	.st39{clip-path:url(#SVGID_90_);fill:url(#SVGID_91_);}
	.st40{clip-path:url(#SVGID_93_);fill:url(#SVGID_94_);}
	.st41{clip-path:url(#SVGID_96_);fill:url(#SVGID_97_);}
	.st42{clip-path:url(#SVGID_99_);fill:url(#SVGID_100_);}
	.st43{clip-path:url(#SVGID_102_);fill:url(#SVGID_103_);}
	.st44{clip-path:url(#SVGID_105_);fill:url(#SVGID_106_);}
	.st45{clip-path:url(#SVGID_108_);fill:url(#SVGID_109_);}
	.st46{clip-path:url(#SVGID_111_);fill:url(#SVGID_112_);}
	.st47{clip-path:url(#SVGID_114_);fill:url(#SVGID_115_);}
	.st48{clip-path:url(#SVGID_117_);fill:url(#SVGID_118_);}
	.st49{clip-path:url(#SVGID_120_);fill:url(#SVGID_121_);}
	.st50{clip-path:url(#SVGID_123_);fill:url(#SVGID_124_);}
	.st51{clip-path:url(#SVGID_126_);fill:url(#SVGID_127_);}
	.st52{clip-path:url(#SVGID_129_);fill:url(#SVGID_130_);}
	.st53{clip-path:url(#SVGID_132_);fill:url(#SVGID_133_);}
	.st54{clip-path:url(#SVGID_135_);fill:url(#SVGID_136_);}
	.st55{clip-path:url(#SVGID_138_);fill:url(#SVGID_139_);}
	.st56{clip-path:url(#SVGID_141_);fill:url(#SVGID_142_);}
	.st57{clip-path:url(#SVGID_144_);fill:url(#SVGID_145_);}
	.st58{clip-path:url(#SVGID_147_);fill:url(#SVGID_148_);}
	.st59{clip-path:url(#SVGID_150_);fill:url(#SVGID_151_);}
	.st60{clip-path:url(#SVGID_153_);fill:url(#SVGID_154_);}
	.st61{clip-path:url(#SVGID_156_);fill:url(#SVGID_157_);}
	.st62{clip-path:url(#SVGID_159_);fill:url(#SVGID_160_);}
	.st63{clip-path:url(#SVGID_162_);fill:url(#SVGID_163_);}
	.st64{clip-path:url(#SVGID_165_);fill:url(#SVGID_166_);}
	.st65{clip-path:url(#SVGID_168_);fill:url(#SVGID_169_);}
</style>
<g>
	<defs>
		<path id="SVGID_1_" d="M-416.4-431.2h-935.8c-22.2,0-40.1-18-40.1-40.1v-370.2c0-22.2,18-40.1,40.1-40.1h935.8
			c22.2,0,40.1,18,40.1,40.1v370.2C-376.2-449.1-394.2-431.2-416.4-431.2z"/>
	</defs>
	<clipPath id="SVGID_2_">
		<use xlink:href="#SVGID_1_"  style="overflow:visible;"/>
	</clipPath>
	<g transform="matrix(1 0 0 1 1.220703e-04 0)" style="clip-path:url(#SVGID_2_);">
		
			<image style="overflow:visible;" width="2304" height="4096" xlink:href="6F81214D.jpg"  transform="matrix(0.7821 0 0 0.7821 -1793.9083 -1871.1245)">
		</image>
	</g>
</g>
<circle class="st1" cx="55" cy="55" r="52.2"/>
<g>
	<g>
		<path class="st2" d="M72.7,74c-0.9,0-1.7,0-2.6,0c-0.8,0-1.3,0.4-1.6,1.1c-0.4,1.2-0.8,2.4-1.2,3.5c-0.3,0.8-0.6,1.6-1.1,2.4
			c-1.1,1.8-2.9,2.4-4.9,1.6c-1.1-0.5-2.2-1.3-3.2-2c-0.8-0.5-1.5-1-2.2-1.5c-0.6-0.4-1.2-0.4-1.7,0c-0.9,0.6-1.8,1.3-2.7,1.9
			c-0.8,0.5-1.6,1.1-2.5,1.5c-2.2,1-4.1,0.4-5.3-1.7c-0.6-1-0.9-2.2-1.3-3.3c-0.3-0.8-0.6-1.6-0.9-2.4c-0.3-0.7-0.8-1-1.5-1.1
			c-1.1,0-2.2,0-3.3-0.1c-0.9,0-1.8-0.1-2.7-0.2c-2.5-0.4-3.8-2.3-3.3-4.8c0.3-1.4,0.7-2.7,1.1-4c0.8-2.6,0.8-2.8-1.4-4.4
			c-1-0.7-2-1.4-2.9-2.3c-2.3-2.1-2.3-4.6,0-6.7c1.1-1,2.3-1.7,3.4-2.6c1.6-1.2,1.7-1.5,1.1-3.4c-0.4-1.5-1-2.9-1.2-4.4
			c-0.5-2.8,0.9-4.7,3.8-5c1.3-0.1,2.7-0.1,4-0.1c2.5,0,2.7-0.2,3.5-2.5c0.4-1.1,0.7-2.2,1.1-3.3c0.2-0.5,0.5-1,0.8-1.5
			c1-1.5,2.6-2.1,4.3-1.4c1,0.4,1.9,0.9,2.8,1.5c1,0.6,1.9,1.3,2.9,2c0.7,0.5,1.4,0.5,2,0c1-0.7,1.9-1.4,2.9-2
			c0.9-0.6,1.8-1.1,2.8-1.5c1.7-0.6,3.3-0.1,4.3,1.4c0.6,1,1.1,2.2,1.5,3.4c0.3,0.8,0.6,1.7,0.9,2.6c0.3,0.9,0.9,1.3,1.8,1.3
			c0.8,0,1.6,0,2.4,0c1.2,0.1,2.4,0,3.5,0.3c2.3,0.5,3.6,2.2,3.1,4.6c-0.3,1.4-0.7,2.8-1.1,4.1c-0.8,2.6-0.7,2.7,1.4,4.3
			c1,0.7,2,1.4,3,2.3c2.3,2.1,2.3,4.6,0,6.7c-1,0.9-2.2,1.7-3.3,2.6c-1.7,1.3-1.8,1.5-1.2,3.6c0.4,1.4,0.9,2.7,1.2,4.1
			c0.6,3.1-0.9,4.9-4,5.2C74.4,74,73.5,74,72.7,74C72.7,74,72.7,74,72.7,74z M38.6,38.6C38.6,38.6,38.6,38.6,38.6,38.6
			c-0.6,0-1.1-0.1-1.7,0c-0.6,0-1.1,0.1-1.7,0.3c-1.1,0.3-1.7,1.1-1.7,2.3c0,0.6,0.1,1.2,0.3,1.7c0.3,1.3,0.8,2.5,1.1,3.8
			c0.4,1.3,0.1,2.4-1.1,3.2c-0.7,0.5-1.5,1-2.2,1.6c-0.7,0.6-1.5,1.2-2.1,1.9c-0.9,1-0.9,2.2,0,3.2c0.6,0.7,1.4,1.3,2.1,1.9
			c0.8,0.7,1.7,1.3,2.6,2c0.6,0.5,0.9,1.3,0.7,2.1c-0.2,0.8-0.4,1.7-0.6,2.5c-0.3,1.2-0.7,2.3-0.9,3.5c-0.2,1.4,0.5,2.3,1.9,2.6
			c1,0.2,2,0.2,3,0.3c1,0.1,2,0,2.9,0.1c1,0.1,1.7,0.6,2.1,1.5c0.4,0.9,0.7,1.9,1,2.8c0.4,1,0.7,1.9,1.2,2.8
			c0.7,1.1,1.7,1.4,2.9,0.9c0.6-0.2,1.1-0.6,1.7-0.9c0.6-0.4,1.2-0.9,1.8-1.3c2.5-1.8,3.3-1.8,5.8,0c0.6,0.4,1.2,0.9,1.8,1.3
			c0.5,0.3,1,0.6,1.5,0.8c1.4,0.6,2.5,0.3,3.2-1c0.4-0.7,0.7-1.4,0.9-2.2c0.4-1,0.7-2.1,1.1-3.2c0.4-1,1.1-1.6,2.2-1.7
			c0.9-0.1,1.9,0,2.8-0.1c1-0.1,2.1-0.1,3.1-0.3c1.3-0.3,1.9-1.2,1.8-2.5c-0.1-0.7-0.2-1.3-0.4-2c-0.3-1.1-0.7-2.3-1-3.4
			c-0.4-1.3,0-2.4,1-3.2c0.5-0.4,1.1-0.8,1.6-1.2c0.8-0.7,1.7-1.2,2.4-2c1.2-1.2,1.2-2.5,0-3.8c-0.6-0.6-1.3-1.1-2-1.6
			c-0.7-0.5-1.4-1-2.1-1.6C75,49.1,74.7,48,75,46.7c0.3-0.9,0.6-1.8,0.8-2.7c0.2-0.9,0.5-1.7,0.6-2.6c0.2-1.4-0.5-2.3-1.9-2.6
			c-0.6-0.1-1.2-0.2-1.8-0.2c-1.3-0.1-2.6,0-3.9-0.1c-1.2,0-2-0.6-2.5-1.7c-0.3-0.9-0.6-1.8-0.9-2.7c-0.3-0.8-0.5-1.6-0.9-2.4
			c-0.8-1.6-2-1.9-3.6-1.1c-0.6,0.3-1.2,0.7-1.7,1.1c-0.6,0.4-1.1,0.8-1.7,1.2c-2.1,1.5-3,1.5-5.1,0c-0.6-0.4-1.2-0.9-1.8-1.3
			c-0.6-0.4-1.3-0.9-2-1.2c-1.3-0.6-2.3-0.3-3,0.9c-0.5,0.8-0.8,1.8-1.2,2.7c-0.3,0.9-0.6,1.8-1,2.7c-0.4,1.1-1.2,1.7-2.4,1.7
			C40.3,38.5,39.4,38.6,38.6,38.6z"/>
	</g>
	<text transform="matrix(1 0 0 1 37.4108 61.4042)" class="st2 st3 st4">NEW</text>
</g>
</svg>
