<?xml version="1.0" encoding="utf-8"?>
<!-- Generator: Adobe Illustrator 24.3.0, SVG Export Plug-In . SVG Version: 6.00 Build 0)  -->
<svg version="1.1" id="Layer_1" xmlns="http://www.w3.org/2000/svg" xmlns:xlink="http://www.w3.org/1999/xlink" x="0px" y="0px"
	 viewBox="0 0 110 110" style="enable-background:new 0 0 110 110;" xml:space="preserve">
<style type="text/css">
	.st0{fill:#603813;}
	.st1{fill:#B98840;}
	.st2{fill:#EBEBEB;}
	.st3{fill:#B27E2B;}
	.st4{fill:none;stroke:#B27E2B;stroke-width:0.5;stroke-miterlimit:10;}
	.st5{fill:#FFFFFF;}
	.st6{fill:none;stroke:#5E3714;stroke-width:0.75;stroke-miterlimit:10;}
	.st7{fill:#5E3714;}
	.st8{fill:#E1E1E1;}
	.st9{clip-path:url(#SVGID_6_);fill:url(#SVGID_7_);}
	.st10{clip-path:url(#SVGID_9_);fill:url(#SVGID_10_);}
	.st11{clip-path:url(#SVGID_12_);fill:url(#SVGID_13_);}
	.st12{clip-path:url(#SVGID_15_);fill:url(#SVGID_16_);}
	.st13{clip-path:url(#SVGID_18_);fill:url(#SVGID_19_);}
	.st14{clip-path:url(#SVGID_21_);fill:url(#SVGID_22_);}
	.st15{clip-path:url(#SVGID_24_);fill:url(#SVGID_25_);}
	.st16{clip-path:url(#SVGID_27_);fill:url(#SVGID_28_);}
	.st17{clip-path:url(#SVGID_30_);fill:url(#SVGID_31_);}
	.st18{clip-path:url(#SVGID_33_);fill:url(#SVGID_34_);}
	.st19{clip-path:url(#SVGID_36_);fill:url(#SVGID_37_);}
	.st20{clip-path:url(#SVGID_39_);fill:url(#SVGID_40_);}
	.st21{clip-path:url(#SVGID_42_);fill:url(#SVGID_43_);}
	.st22{clip-path:url(#SVGID_45_);fill:url(#SVGID_46_);}
	.st23{clip-path:url(#SVGID_48_);fill:url(#SVGID_49_);}
	.st24{clip-path:url(#SVGID_51_);fill:url(#SVGID_52_);}
	.st25{clip-path:url(#SVGID_54_);fill:url(#SVGID_55_);}
	.st26{clip-path:url(#SVGID_57_);fill:url(#SVGID_58_);}
	.st27{clip-path:url(#SVGID_60_);fill:url(#SVGID_61_);}
	.st28{clip-path:url(#SVGID_63_);fill:url(#SVGID_64_);}
	.st29{clip-path:url(#SVGID_66_);fill:url(#SVGID_67_);}
	.st30{clip-path:url(#SVGID_69_);fill:url(#SVGID_70_);}
	.st31{clip-path:url(#SVGID_72_);fill:url(#SVGID_73_);}
	.st32{clip-path:url(#SVGID_75_);fill:url(#SVGID_76_);}
	.st33{clip-path:url(#SVGID_78_);fill:url(#SVGID_79_);}
	.st34{clip-path:url(#SVGID_81_);fill:url(#SVGID_82_);}
	.st35{clip-path:url(#SVGID_84_);fill:url(#SVGID_85_);}
	.st36{clip-path:url(#SVGID_87_);fill:url(#SVGID_88_);}
	.st37{clip-path:url(#SVGID_90_);fill:url(#SVGID_91_);}
	.st38{clip-path:url(#SVGID_93_);fill:url(#SVGID_94_);}
	.st39{clip-path:url(#SVGID_96_);fill:url(#SVGID_97_);}
	.st40{clip-path:url(#SVGID_99_);fill:url(#SVGID_100_);}
	.st41{clip-path:url(#SVGID_102_);fill:url(#SVGID_103_);}
	.st42{clip-path:url(#SVGID_105_);fill:url(#SVGID_106_);}
	.st43{clip-path:url(#SVGID_108_);fill:url(#SVGID_109_);}
	.st44{clip-path:url(#SVGID_111_);fill:url(#SVGID_112_);}
	.st45{clip-path:url(#SVGID_114_);fill:url(#SVGID_115_);}
	.st46{clip-path:url(#SVGID_117_);fill:url(#SVGID_118_);}
	.st47{clip-path:url(#SVGID_120_);fill:url(#SVGID_121_);}
	.st48{clip-path:url(#SVGID_123_);fill:url(#SVGID_124_);}
	.st49{clip-path:url(#SVGID_126_);fill:url(#SVGID_127_);}
	.st50{clip-path:url(#SVGID_129_);fill:url(#SVGID_130_);}
	.st51{clip-path:url(#SVGID_132_);fill:url(#SVGID_133_);}
	.st52{clip-path:url(#SVGID_135_);fill:url(#SVGID_136_);}
	.st53{clip-path:url(#SVGID_138_);fill:url(#SVGID_139_);}
	.st54{clip-path:url(#SVGID_141_);fill:url(#SVGID_142_);}
	.st55{clip-path:url(#SVGID_144_);fill:url(#SVGID_145_);}
	.st56{clip-path:url(#SVGID_147_);fill:url(#SVGID_148_);}
	.st57{clip-path:url(#SVGID_150_);fill:url(#SVGID_151_);}
	.st58{clip-path:url(#SVGID_153_);fill:url(#SVGID_154_);}
	.st59{clip-path:url(#SVGID_156_);fill:url(#SVGID_157_);}
	.st60{clip-path:url(#SVGID_159_);fill:url(#SVGID_160_);}
	.st61{clip-path:url(#SVGID_162_);fill:url(#SVGID_163_);}
	.st62{clip-path:url(#SVGID_165_);fill:url(#SVGID_166_);}
	.st63{clip-path:url(#SVGID_168_);fill:url(#SVGID_169_);}
</style>
<g>
	<defs>
		<path id="SVGID_1_" d="M-278.4-287.2h-935.8c-22.2,0-40.1-18-40.1-40.1v-370.2c0-22.2,18-40.1,40.1-40.1h935.8
			c22.2,0,40.1,18,40.1,40.1v370.2C-238.2-305.1-256.2-287.2-278.4-287.2z"/>
	</defs>
	<clipPath id="SVGID_2_">
		<use xlink:href="#SVGID_1_"  style="overflow:visible;"/>
	</clipPath>
	<g transform="matrix(1 0 0 1 -1.220703e-04 -1.220703e-04)" style="clip-path:url(#SVGID_2_);">
		
			<image style="overflow:visible;" width="2304" height="4096" xlink:href="677A0557.jpg"  transform="matrix(0.7821 0 0 0.7821 -1655.9083 -1727.1245)">
		</image>
	</g>
</g>
<circle class="st1" cx="55" cy="55" r="52.2"/>
<g>
	<path class="st2" d="M45.3,21c0.2,0.2,0.4,0.5,0.6,0.7c0.1,0.1,0.2,0.2,0.4,0.2c-0.2-0.2-0.4-0.4-0.5-0.5c0-0.1,0.1-0.2,0.1-0.4
		c0.2,0,0.3,0,0.5,0c0,0.1,0,0.2,0,0.4c0.1,0.1,0.2,0.1,0.3,0.2c0.2-0.1,0.3-0.2,0.4-0.4c0-0.1,0-0.2-0.1-0.2c0.1,0,0.1,0,0.1,0
		c0.3,0,0.5,0,0.8,0c7.3,0,14.7,0,22,0c0.7,0,1.3,0.3,1.8,0.8c0.3,0.4,0.4,0.8,0.4,1.3c0,1.5,0,3.1,0,4.6c0,3.4,0,6.8,0,10.2
		c0,0.7,0,1.4,0,2.1c0,0.1-0.1,0.3-0.1,0.4c-0.1,0.2-0.1,0.3-0.1,0.5c-0.3,0.2-0.5,0.5-0.8,0.7c-0.3,0.2-0.7,0.3-1.1,0.3
		c-2.2,0-4.4,0-6.6,0c-7.8,0-15.6,0-23.4,0c-0.4,0-0.8,0-1.2-0.2c-0.6-0.4-1-0.9-1-1.7c0-0.1,0-0.2,0-0.3c0-3.9,0-7.8,0-11.8
		c0-1.6,0-3.1,0-4.7c0-0.9,0.4-1.5,1.1-1.9c0.3-0.1,0.6-0.2,0.9-0.3c1.7,0,3.5,0,5.2,0C45.2,21,45.2,21,45.3,21z M39.8,26.7
		C39.7,26.7,39.7,26.7,39.8,26.7c-0.1,0.2-0.2,0.2-0.2,0.3c0.3,0.3,0.3,0.3,0.5,0c0,0,0-0.1,0.1-0.1c0.1,0,0.1,0,0.2,0
		c-0.2-0.2-0.3-0.3-0.4-0.5c-0.1-0.1-0.3-0.1-0.4,0c-0.1,0.1-0.2,0.2-0.2,0.4c0.1-0.1,0.1-0.4,0.4-0.3
		C39.8,26.5,39.8,26.5,39.8,26.7C39.8,26.6,39.8,26.7,39.8,26.7z M38.9,28.6c0,0.2,0,0.4,0,0.5c0,3.3,0,6.5,0,9.8c0,0.3,0,0.5,0,0.8
		c0,0.3,0.1,0.5,0.3,0.7c0.3,0.3,0.6,0.3,1,0.3c7.4,0,14.9,0,22.3,0c2.5,0,5.1,0,7.6,0c0.7,0,1.1-0.4,1.1-1.1c0-0.2,0-0.4,0-0.7
		c0-3.3,0-6.6,0-9.9c0-0.2,0-0.3,0-0.5C60.3,28.6,49.6,28.6,38.9,28.6z M71.1,24.2c0-0.5,0-0.9,0-1.3c0-0.4-0.3-0.7-0.7-0.8
		c-0.2,0-0.4-0.1-0.6-0.1c-5.7,0-11.4,0-17.1,0c-2.2,0-4.3,0-6.5,0c-0.1,0-0.3,0-0.4-0.1c-0.2,0-0.4-0.1-0.6-0.2c0,0,0,0,0,0.1
		c0-0.1-0.1-0.1-0.1-0.2c0.1,0,0.2-0.1,0.3-0.1c0,0,0,0,0-0.1c-0.1,0-0.2,0-0.3,0.1c0,0.2,0,0.3,0,0.5c-0.2,0-0.5,0-0.7,0
		c-0.2,0-0.3,0-0.5,0c-1.2,0-2.4,0-3.6,0c-0.2,0-0.4,0-0.6,0.1c-0.3,0.1-0.5,0.3-0.6,0.5c-0.1,0.3-0.1,1.2,0,1.5c0.9,0,1.8,0,2.6,0
		c0.4,0.2,0.5,0.5,0.8,0.6c-0.1-0.2-0.3-0.4-0.4-0.6c0.4-0.2,0.6,0,0.9,0.2c0-0.1,0-0.2,0-0.3c0.6,0,1.2,0,1.9,0
		C53.5,24.2,62.3,24.2,71.1,24.2z M38.4,28.5C38.4,28.5,38.5,28.5,38.4,28.5c0.1-0.1,0-0.3,0-0.4c0.1-0.1,0.3-0.2,0.3-0.3
		c0.2,0,0.3,0.1,0.5,0c-0.4-0.2-0.7-0.5-1-0.7c-0.1,0-0.1,0-0.3,0C38.1,27.6,38.3,28.1,38.4,28.5z M41.3,24.3c-0.1,0-0.1-0.1-0.1,0
		c-0.2,0-0.5,0.3-0.4,0.5c0.1,0.2,0.2,0.2,0.5,0.2c0.2,0,0.3-0.1,0.5,0c0.1,0.1,0.1,0.3,0,0.3c-0.1,0.1-0.2,0.1-0.4,0.2
		c0.3,0,0.5-0.1,0.6-0.3c0.1-0.2,0-0.3-0.3-0.4c-0.6,0.1-0.6,0.1-0.7,0C41,24.5,41,24.5,41.3,24.3z M40.9,26.7
		c0.1-0.3-0.2-1.1-0.5-1.3c0.1,0.2,0.2,0.4,0.3,0.7c-0.3,0-0.5-0.2-0.7-0.1c0.3,0.1,0.5,0.3,0.8,0.4C40.8,26.5,40.9,26.6,40.9,26.7z
		 M39.6,27.9c0-0.3-0.4-0.9-0.8-1C39.1,27.2,39.4,27.6,39.6,27.9z M38.6,26.6C38.6,26.6,38.6,26.6,38.6,26.6c0,0.1,0,0.1,0.1,0.1
		c0,0,0-0.1,0-0.1C38.7,26.6,38.7,26.6,38.6,26.6z"/>
	<path class="st2" d="M65.7,68.9c0.3,0.1,0.4,0.3,0.5,0.6c0.1,0.4,0.3,0.8,0.3,1.1c0.3,1,0.3,2,0.3,3.1c0,1.3-0.2,2.5-0.6,3.7
		c-0.7,1.9-1.7,3.5-3.2,4.9c-1,0.9-2.2,1.7-3.5,2.2c-0.7,0.3-1.4,0.5-2.1,0.7c-0.8,0.2-1.6,0.3-2.5,0.3c-0.8,0-1.7-0.1-2.5-0.3
		C52,85,51.5,84.9,51,84.7c-0.9-0.3-1.7-0.7-2.5-1.3c-1.8-1.2-3.1-2.7-4.1-4.6c-0.3-0.7-0.6-1.4-0.8-2.1c-0.4-1.5-0.5-2.9-0.4-4.4
		c0-0.7,0.2-1.3,0.4-2c0.2-0.9,0.6-1.7,1-2.5c0.6-1.1,1.3-2.1,2.2-2.9c1-1,2.1-1.7,3.4-2.3c0.8-0.4,1.6-0.6,2.4-0.8
		c1.2-0.2,2.3-0.3,3.5-0.2c0.8,0.1,1.5,0.2,2.3,0.4c1.1,0.3,2.2,0.8,3.1,1.4c1,0.6,1.9,1.4,2.6,2.3c0.4,0.5,0.8,1.1,1.2,1.7
		c0,0.1,0.1,0.1,0.1,0.2c-0.1,0.1-0.1,0.2-0.1,0.3c0,0.3,0.3,0.4,0.5,0.4c0.1,0.1,0.1,0.2,0.2,0.3C65.9,68.8,65.8,68.8,65.7,68.9z
		 M65,69.2C65,69.2,65,69.2,65,69.2c-0.1-0.1-0.2-0.2-0.2-0.3c-0.5-1.1-1.2-2-2-2.9c-1.4-1.4-3-2.4-5-2.9c-0.6-0.2-1.3-0.3-2-0.4
		c-1.4-0.1-2.7,0.1-4,0.4c-1,0.3-2,0.8-2.8,1.4c-0.8,0.6-1.6,1.2-2.2,2c-0.9,1-1.5,2.1-1.9,3.4c-0.3,1-0.6,2-0.6,3.1c0,1,0,2,0.3,3
		c0.2,0.8,0.5,1.5,0.8,2.2c0.6,1.3,1.5,2.4,2.6,3.4c0.9,0.8,1.9,1.4,3.1,1.9c0.5,0.2,1,0.4,1.5,0.5c0.6,0.1,1.1,0.2,1.7,0.3
		c0.9,0.1,1.8,0,2.6-0.1c0.9-0.1,1.8-0.4,2.6-0.8c1-0.4,1.9-1,2.7-1.7c1.3-1.1,2.3-2.4,2.9-4c0.5-1.2,0.8-2.4,0.8-3.6
		c0-1.2,0-2.4-0.4-3.5c0-0.1-0.1-0.3-0.1-0.4c0-0.5-0.2-0.9-0.3-1.3c0-0.1-0.1-0.1-0.1-0.2c0,0,0,0-0.1,0C64.9,68.8,64.9,69,65,69.2
		z"/>
	<path class="st2" d="M72.5,70.6c-0.2-0.3-0.5-0.5-0.7-0.8c5.3-4.6,8.4-10.3,9-17.2c0.6-7-1.4-13.1-5.8-18.5
		c0.3-0.2,0.5-0.5,0.9-0.7c3,3.7,5,7.8,5.8,12.4c0.8,4.7,0.4,9.2-1.2,13.7C78.8,63.9,76.2,67.6,72.5,70.6z"/>
	<path class="st2" d="M29,57.1c-0.1,0-0.1,0-0.2,0c-2.3-8-0.1-16.8,4.3-22.4c0.3,0.2,0.6,0.4,0.8,0.6c-4.6,6.5-6,13.6-4.2,21.3
		c0,0-0.1,0-0.1,0c0,0,0,0-0.1,0c0,0,0,0.1,0,0.1c0.4,0.5,0.5,1.1,0.7,1.6c0.2,0.7,0.4,1.3,0.7,2c0.4,0.9,0.8,1.8,1.3,2.6
		c0.4,0.7,0.9,1.5,1.4,2.2c0.9,1.3,2,2.6,3.2,3.7c0.7,0.7,1.5,1.3,2.3,1.9c0,0,0.1,0.1,0.1,0.1c0,0.3-0.2,0.5-0.6,0.9
		c-2.3-1.7-4.3-3.7-6-6.1c-2.3-3.2-3.6-6.9-3.8-7.9c0.5-0.2,0.6-0.2,0.8,0c0,0.3-0.2,0.4-0.4,0.4c0.2,0.1,0.4,0,0.5-0.2
		c0.1-0.2,0.1-0.3-0.2-0.5c-0.2,0-0.4,0.1-0.6,0.1C28.9,57.5,29,57.3,29,57.1C29.1,57.1,29.1,57.1,29,57.1c0.2-0.1,0.2-0.1,0.3-0.1
		c0,0,0,0,0-0.1C29.3,57,29.2,57,29,57.1C29.1,57.1,29.1,57.1,29,57.1z"/>
	<path class="st2" d="M70.5,71.4c0.6,0.1,1.2,0.2,1.7,0.3c0.1,0.4-0.1,0.7-0.1,1.1c-1-0.1-1.9-0.3-2.9-0.5c0-0.5,0.1-1,0.2-1.5
		c0.1-0.5,0-1,0.3-1.4c0.3,0.1,0.7,0.1,1,0.2C70.7,70.2,70.5,70.8,70.5,71.4z"/>
	<path class="st2" d="M35.1,35.3c-0.1-0.6-0.1-1.2-0.1-1.9c-0.6,0.1-1.2,0.1-1.9,0.2C33,33.2,33,32.9,33,32.5c1-0.1,2-0.2,3-0.2
		c0.1,1,0.1,1.9,0.2,2.9C35.8,35.2,35.5,35.4,35.1,35.3z"/>
	<path class="st2" d="M55,53.1c0.4,0.3,2.2,2.1,2.3,2.3c-0.2,0.2-0.3,0.4-0.6,0.5c-0.6-0.5-1.1-1.1-1.7-1.7
		c-0.3,0.3-0.6,0.6-0.8,0.9c-0.3,0.3-0.6,0.5-0.9,0.8c-0.2-0.2-0.4-0.3-0.5-0.5c0-0.1,0-0.1,0.1-0.2C53.5,54.5,54.3,53.8,55,53.1z"
		/>
	<path class="st2" d="M57.3,58.3c-0.2,0.2-0.3,0.3-0.5,0.5c-0.6-0.6-1.1-1.1-1.7-1.6c-0.6,0.5-1.1,1.1-1.7,1.6
		c-0.3-0.1-0.4-0.3-0.6-0.5c0.6-0.7,1.3-1.3,1.9-2c0.1-0.1,0.2-0.1,0.3-0.2c0.4,0.1,0.6,0.4,0.8,0.6c0.1,0.1,0.2,0.3,0.4,0.4
		c0.4,0.3,0.7,0.7,1.1,1.1C57.2,58.2,57.2,58.2,57.3,58.3z"/>
	<path class="st2" d="M57.3,52.5c-0.2,0.2-0.3,0.4-0.6,0.6c-0.5-0.5-1.1-1.1-1.7-1.6c-0.6,0.6-1.1,1.1-1.7,1.6
		c-0.3-0.1-0.4-0.3-0.6-0.6c0.7-0.8,1.5-1.5,2.3-2.3C55.8,51,56.5,51.7,57.3,52.5z"/>
	<path class="st2" d="M57.3,49.7c-0.2,0.2-0.4,0.4-0.6,0.6c-0.6-0.6-1.1-1.1-1.7-1.7c-0.6,0.5-1.1,1.1-1.7,1.6
		c-0.3-0.1-0.4-0.3-0.6-0.5c0.3-0.5,0.8-0.8,1.1-1.2c0.4-0.4,0.7-0.8,1.2-1.2C55.8,48.1,56.5,48.9,57.3,49.7z"/>
	<path class="st2" d="M55,45.7c-0.6,0.6-1.1,1.1-1.7,1.7c-0.3-0.1-0.4-0.3-0.6-0.5c0.7-0.8,1.5-1.5,2.3-2.3c0.8,0.8,1.5,1.5,2.3,2.3
		c-0.2,0.2-0.3,0.4-0.6,0.6C56.1,46.8,55.6,46.3,55,45.7z"/>
	<path class="st2" d="M56.7,89c-0.4,0.1-0.8,0-1.2,0c0-0.4,0-0.8,0-1.2c0.4,0,0.8,0,1.2,0C56.7,88.2,56.7,88.6,56.7,89z"/>
	<path class="st2" d="M53.3,89c0-0.4,0-0.8,0-1.2c0.4,0,0.8,0,1.2,0c0,0.4,0,0.8,0,1.2C54,89,53.7,89,53.3,89z"/>
	<path class="st2" d="M60.2,89c0-0.4,0-0.8,0-1.2c0.4,0,0.8,0,1.2,0c0,0.4,0,0.8,0,1.2C61,89,60.6,89,60.2,89z"/>
	<path class="st2" d="M48.6,89c0-0.4,0-0.8,0-1.2c0.4,0,0.8,0,1.2,0c0.1,0.4,0,0.8,0,1.2C49.4,89,49.1,89,48.6,89z"/>
	<path class="st2" d="M57.9,87.8c0.4,0,0.8,0,1.1,0c0.1,0.4,0.1,0.8,0,1.2c-0.4,0-0.8,0-1.2,0C57.9,88.6,57.9,88.2,57.9,87.8z"/>
	<path class="st2" d="M51,89c-0.1-0.4-0.1-0.8,0-1.2c0.4,0,0.7,0,1.1,0c0,0.4,0,0.8,0,1.2C51.8,89,51.4,89,51,89z"/>
	<path class="st2" d="M62.5,87.8c0.4,0,0.8,0,1.2,0c0.1,0.4,0.1,0.8,0,1.2c-0.4,0.1-0.7,0-1.1,0C62.4,88.6,62.5,88.2,62.5,87.8z"/>
	<path class="st2" d="M47.5,87.8c0,0.4,0,0.8,0,1.2c-0.4,0-0.7,0-1.1,0c-0.1-0.4-0.1-0.8,0-1.2C46.8,87.8,47.1,87.8,47.5,87.8z"/>
	<path class="st2" d="M74.4,33.5c-0.3-0.3-0.5-0.5-0.7-0.8c0.3-0.3,0.5-0.5,0.8-0.7c0.2,0.3,0.5,0.5,0.7,0.8
		C74.9,33,74.7,33.2,74.4,33.5z"/>
	<path class="st2" d="M41.1,71.9c-0.2,0.3-0.4,0.6-0.6,0.9c-0.3-0.2-0.6-0.4-0.9-0.6c0.2-0.3,0.4-0.6,0.6-0.9
		C40.5,71.5,40.8,71.7,41.1,71.9z"/>
	<path class="st2" d="M46.7,21c0.2,0.3,0.2,0.3-0.1,0.5c0-0.1-0.1-0.2-0.1-0.3C46.5,21.2,46.7,21.1,46.7,21z"/>
	<path class="st2" d="M65.5,67.9c0,0.1,0.1,0.2,0.1,0.3c-0.2,0-0.3-0.1-0.2-0.3C65.4,67.9,65.5,67.9,65.5,67.9z"/>
	<path class="st2" d="M45.7,21.1c0,0-0.1,0-0.1,0c0,0,0,0,0-0.1C45.6,21,45.7,21,45.7,21.1C45.7,21,45.7,21,45.7,21.1z"/>
	<path class="st2" d="M54.3,30.4c0.1,0.5,0.1,1.7-0.1,2c-4.7,0-9.5,0-14.2,0c-0.1-0.3-0.1-1.6,0-2c0,0,0,0,0,0c0,0,0,0,0,0
		c0,0,0.1,0,0.1,0c4.6,0,9.2,0,13.8,0c0.1,0,0.1,0,0.2,0C54.1,30.3,54.2,30.3,54.3,30.4C54.2,30.3,54.2,30.3,54.3,30.4z"/>
	<path class="st2" d="M63.9,35.1c0.9-0.6,1.7-0.6,2.6,0c0.5-0.4,1.1-0.6,1.7-0.5c0.5,0.1,0.9,0.4,1.2,0.8c0.5,0.7,0.5,1.7-0.2,2.4
		c-0.5,0.6-1.5,1-2.7,0.1c-0.8,0.6-1.7,0.7-2.6,0c-0.5,0.4-1.1,0.6-1.8,0.4c-0.5-0.1-0.8-0.4-1.1-0.7c-0.5-0.6-0.5-1.7,0.1-2.4
		c0.4-0.4,0.8-0.6,1.3-0.7C62.9,34.6,63,34.6,63.9,35.1z M63.9,35.3c-0.7,0.7-0.7,1.9,0,2.5C64.7,37,64.5,35.8,63.9,35.3z
		 M66.5,37.8c0.8-0.7,0.7-2,0-2.5C65.9,35.8,65.8,37,66.5,37.8z"/>
	<path class="st2" d="M54.3,33.5c0,0.4,0,0.8,0,1.2c-0.4,0.1-0.9,0-1.3,0c-0.4,0-0.8,0-1.2,0c-0.4,0-0.8,0-1.3,0c0-0.4,0-0.8,0-1.3
		c0.1,0,0.3,0,0.4-0.1c0.8,0,1.6,0,2.3,0c0.2,0,0.5,0,0.7,0C54.1,33.3,54.2,33.3,54.3,33.5z"/>
	<path class="st2" d="M38.4,27.9c-0.1-0.2-0.2-0.4-0.2-0.5c0,0,0,0,0.1-0.1c0.1,0.1,0.3,0.2,0.5,0.3C38.6,27.8,38.5,27.8,38.4,27.9z
		"/>
	<path class="st2" d="M39.7,26.8C39.7,26.7,39.7,26.7,39.7,26.8c0.1-0.1,0.1-0.1,0.1-0.1c0.2,0,0.3,0.1,0.3,0.2c0,0,0,0.1-0.1,0.1
		c-0.1,0-0.2,0.1-0.3,0.1C39.7,27,39.7,26.9,39.7,26.8z"/>
	<path class="st2" d="M56,81.2c0,0.3,0,0.7,0,1.1c0,0.4,0,0.8,0,1.2c-0.7,0.1-1.3,0-2,0c-0.1-0.7,0-1.4-0.1-2.2
		c-1.3-0.1-2.6-0.3-3.8-1c0.1-0.8,0.4-1.5,0.6-2.3c0.2,0.1,0.3,0.1,0.4,0.1c0.6,0.3,1.3,0.5,2,0.6c0.4,0.1,0.8,0.1,1.2,0.1
		c0.5,0,1-0.1,1.4-0.2c1-0.3,1.5-1.1,1.3-2.1c-0.1-0.7-0.5-1.1-1-1.5c-0.6-0.4-1.3-0.6-1.9-0.9c-0.9-0.4-1.7-0.7-2.4-1.4
		c-0.6-0.5-1.1-1.2-1.2-2c-0.1-0.7-0.1-1.4,0.1-2.2c0.4-1.3,1.4-2.1,2.6-2.6c0.2-0.1,0.5-0.2,0.8-0.3c0-0.1,0-0.2,0-0.3
		c0-0.5,0-1.1,0-1.6c0-0.1,0-0.2,0-0.4c0.7,0,1.3,0,2,0c0,0.7,0,1.4,0,2.1c0.6,0.1,1.2,0.2,1.7,0.3c0.6,0.1,1.1,0.3,1.6,0.6
		c-0.2,0.8-0.4,1.5-0.7,2.2c-0.5-0.2-1-0.4-1.4-0.5c-0.6-0.2-1.2-0.2-1.8-0.2c-0.4,0-0.8,0.1-1.2,0.2c-1.2,0.5-1.4,1.9-0.5,2.7
		c0.4,0.4,0.9,0.6,1.4,0.8c0.8,0.4,1.7,0.7,2.5,1.1c0.8,0.4,1.4,1,1.8,1.8c0.2,0.4,0.3,0.8,0.4,1.3c0,0.6,0.1,1.2-0.1,1.8
		c-0.3,1.2-1,2.1-2.2,2.7C57.1,80.8,56.6,81,56,81.2z"/>
	<polygon class="st2" points="40.2,24.2 45.7,24.2 46.2,26.6 43.7,28.1 39.1,28.5 37.8,29 37.8,24.5 	"/>
	<polygon class="st2" points="43.4,22.1 50.5,22.1 50.5,21 43,21 	"/>
</g>
</svg>
