<?xml version="1.0" encoding="utf-8"?>
<!-- Generator: Adobe Illustrator 23.0.5, SVG Export Plug-In . SVG Version: 6.00 Build 0)  -->
<svg version="1.1" id="Layer_1" xmlns="http://www.w3.org/2000/svg" xmlns:xlink="http://www.w3.org/1999/xlink" x="0px" y="0px"
	 viewBox="0 0 500 500" style="enable-background:new 0 0 500 500;" xml:space="preserve">
<style type="text/css">
	.st0{fill:#F0D175;}
</style>
<g>
	<g>
		<g>
			<g>
				<path class="st0" d="M249.6,418.7c75.1-0.3,139.1-55.3,148.8-130.2c8-62.3-16.1-111.2-67.4-146.9c-2.3-1.6-5-2.8-7.2-4.6
					c-5.4-4.4-6.5-10.6-3-16c3.4-5.3,10.1-7.8,15.7-4c11.8,8,23.9,15.8,34.1,25.6c36.8,35.5,54.9,79.4,53.8,130.4
					c-1.9,82-62,152.3-142.8,166.6c-102.3,18-188-52.4-203.4-141.6c-12-69.8,19.5-140.8,79.7-178.1c2.1-1.3,4.3-2.7,6.7-3.6
					c5.8-2.4,11.5-0.4,14.8,4.8c3.1,5,2.5,10.5-1.9,14.7c-2,1.9-4.6,3.3-7,4.9c-47.2,31.4-71.3,75.5-70.5,132.1
					c1,69.3,54.2,130.7,122.4,142.6C231.3,416.9,240.5,417.6,249.6,418.7z"/>
				<path class="st0" d="M238.1,165.1c0-30.1,0-60.2,0-90.3c0-11.7,3.6-17,11.6-17.2c8.1-0.2,12.1,5.3,12.1,16.6
					c0,61.1,0,122.3,0,183.4c0,10.7-4,16.1-11.6,16.4c-7.9,0.2-12.1-5.5-12.1-16.8C238,226.6,238.1,195.9,238.1,165.1z"/>
			</g>
		</g>
	</g>
</g>
</svg>
