<?xml version="1.0" encoding="UTF-8" standalone="no"?>
<svg
   version="1.1"
   viewBox="0 0 137.144 137.144"
   enable-background="new 0 0 137.144 137.144"
   id="svg5395"
   sodipodi:docname="useradd.svg"
   inkscape:version="1.2.1 (9c6d41e410, 2022-07-14)"
   xmlns:inkscape="http://www.inkscape.org/namespaces/inkscape"
   xmlns:sodipodi="http://sodipodi.sourceforge.net/DTD/sodipodi-0.dtd"
   xmlns="http://www.w3.org/2000/svg"
   xmlns:svg="http://www.w3.org/2000/svg">
  <defs
     id="defs5399" />
  <sodipodi:namedview
     id="namedview5397"
     pagecolor="#ffffff"
     bordercolor="#000000"
     borderopacity="0.25"
     inkscape:showpageshadow="2"
     inkscape:pageopacity="0.0"
     inkscape:pagecheckerboard="0"
     inkscape:deskcolor="#d1d1d1"
     showgrid="false"
     inkscape:zoom="3.8280932"
     inkscape:cx="26.775733"
     inkscape:cy="68.702612"
     inkscape:window-width="1366"
     inkscape:window-height="705"
     inkscape:window-x="-8"
     inkscape:window-y="-8"
     inkscape:window-maximized="1"
     inkscape:current-layer="g5393" />
  <g
     id="g5393">
    <g
       id="g5391"
       style="fill:#813528;fill-opacity:1">
      <path
         d="m109.715,0h-82.286c-15.149,0-27.429,12.28-27.429,27.429v82.286c0,15.149 12.28,27.429 27.429,27.429h82.286c15.148,0 27.429-12.28 27.429-27.429v-82.286c0-15.149-12.28-27.429-27.429-27.429zm13.715,102.858c0,11.361-9.21,20.571-20.571,20.571h-20.573 20.572c-26.858,0.291-10.597,0-27.429,0h-13.714c-16.831,0 4,0.291-27.429,0-11.362,0-20.572-9.21-20.572-20.571v-68.572c0-11.362 9.21-20.572 20.572-20.572h68.572c11.361,0 20.571,9.21 20.571,20.572v68.572zm-34.286-51.43c0-13.254-9.21-24-20.571-24-11.362,3.55271e-15-20.572,10.746-20.572,24 0,13.256 9.21,24.001 20.571,24.001 11.362,0 20.572-10.745 20.572-24.001zm-20.571,58.288v-27.43c0,0 7.765,0 13.5,0 0.546,0-0.03-4.903 0.349-5.327-3.145-0.987-6.521-1.531-10.039-1.531h-3.81-3.809c-16.832,0-30.477,12.281-30.477,27.429v20.572h48v-13.714h-13.714zm20.572-29.362v0.453c-0.046,0.673-0.219,1.466 0,1.48v6.858h-13.715v13.715h13.714v13.714h13.714v-6.857c0,0 0.311-2.994 0.06-6.857h13.655v-13.715h-13.714v-13.714l-13.714-.001v4.55c-0.997-0.593-2.022-1.15-3.096-1.636 1.436,0.687 2.446,1.311 2.909,1.567 0.119,0.064 0.169,0.232 0.187,0.443zm-6.643-3.423c-0.031-0.01-0.057,0.004-0.08,0.03 1.248,0.392 2.459,0.855 3.627,1.383-0.989-0.474-2.175-0.977-3.547-1.413z"
         id="path5389"
         style="fill:#813528;fill-opacity:1" />
    </g>
  </g>
</svg>
