<svg id="Layer_1" data-name="Layer 1" xmlns="http://www.w3.org/2000/svg" viewBox="0 0 47.57 47.26"><title>Bank</title><path d="M47.16,15,31.44,4.93a.68.68,0,1,0-.73,1.14l15.5,10H42.59L25,4.69a1.78,1.78,0,0,0-2,0L5.33,16H1.72L24,1.72l3.15,2a.68.68,0,0,0,.94-.21.69.69,0,0,0-.2-.94L24.7.59a1.33,1.33,0,0,0-1.46,0L.76,15a1.29,1.29,0,0,0-.53,1.44,1.27,1.27,0,0,0,1.22.91H4.86v4.37a1.13,1.13,0,0,0,.89,1.1v1.19a1.12,1.12,0,0,0,1.12,1.11H7v8.28a.68.68,0,0,0,1.36,0v-9a.68.68,0,0,0-.68-.67H7.1v-.93h4.78v.93h-.53a.67.67,0,0,0-.68.67V39.42a.67.67,0,0,0,.68.67h.53v1H7.1v-1h.54a.68.68,0,0,0,.68-.67V37.68a.68.68,0,0,0-1.36,0v1H6.87a1.12,1.12,0,0,0-1.12,1.11V41a1.12,1.12,0,0,0-.89,1.1v1.36H2.46a1.36,1.36,0,0,0-1.35,1.36v1.42a1.35,1.35,0,0,0,1.35,1.36h43a1.36,1.36,0,0,0,1.36-1.36V44.85a1.37,1.37,0,0,0-1.36-1.36h-2.4V42.13a1.13,1.13,0,0,0-.89-1.1V39.84a1.11,1.11,0,0,0-1.11-1.11H41V25.15h.09A1.11,1.11,0,0,0,42.17,24V22.85a1.12,1.12,0,0,0,.89-1.1V17.38h3.41a1.27,1.27,0,0,0,1.22-.91A1.24,1.24,0,0,0,47.16,15ZM23.7,5.82a.47.47,0,0,1,.51,0L40.08,16H7.83ZM6.21,17.39H41.72V19H6.21ZM27.71,41V39.85a1.12,1.12,0,0,0-1.12-1.11H26.5V25.15h.09A1.12,1.12,0,0,0,27.71,24V22.85a1.12,1.12,0,0,0,.89-1.1V20.39h5.2v1.36a1.13,1.13,0,0,0,.89,1.1V24a1.12,1.12,0,0,0,1.12,1.11h.09V38.73h-.09a1.12,1.12,0,0,0-1.12,1.11V41a1.12,1.12,0,0,0-.89,1.1v1.36H28.6V42.13A1.12,1.12,0,0,0,27.71,41ZM13.23,41V39.85a1.11,1.11,0,0,0-1.11-1.11H12V25.15h.1A1.11,1.11,0,0,0,13.23,24V22.85a1.12,1.12,0,0,0,.89-1.1V20.39h5.21v1.36a1.13,1.13,0,0,0,.89,1.1V24a1.11,1.11,0,0,0,1.11,1.11h.1V38.73h-.1a1.11,1.11,0,0,0-1.11,1.11V41a1.12,1.12,0,0,0-.89,1.1v1.36H14.12V42.13A1.12,1.12,0,0,0,13.23,41Zm12.59-1h.54v1H21.57v-1h.54a.67.67,0,0,0,.68-.67V24.48a.67.67,0,0,0-.68-.68h-.54v-.93h4.79v.93h-.54a.68.68,0,0,0-.68.68V39.41A.67.67,0,0,0,25.82,40.08ZM20.9,21.52h-.22V20.39h6.56v1.13H20.9Zm-.22,20.9a1.46,1.46,0,0,0,.22,0H27a.71.71,0,0,0,.21,0V43.5H20.68V42.42ZM6.42,21.52H6.21V20.39h6.56v1.13H6.42Zm-.21,20.9.21,0h6.14a.78.78,0,0,0,.22,0V43.5H6.21V42.42Zm39.25,2.44v1.42h-43V44.86Zm-4-2.41a.78.78,0,0,0,.22,0V43.5H35.16V42.42l.21,0ZM36.58,23.81H36v-.93h4.79v.93h-.54a.68.68,0,0,0-.68.67V39.42a.68.68,0,0,0,.68.67h.54v1H36v-1h.54a.68.68,0,0,0,.68-.67V24.48A.68.68,0,0,0,36.58,23.81Zm5.14-2.29H35.16V20.39h6.56v1.13Z" transform="translate(-0.18 -0.37)" fill="#69090a"/><path d="M-4.61,14.31" transform="translate(-0.18 -0.37)" fill="#69090a"/><path d="M25.82,9.24a.36.36,0,0,0,.36-.36.36.36,0,0,0-.36-.37H22.19a.37.37,0,0,0,0,.73h1a1.15,1.15,0,0,1,1.13.81H22.2a.35.35,0,0,0-.37.36.36.36,0,0,0,.37.36h2.17a1.21,1.21,0,0,1-1.13.85h-1a.38.38,0,0,0-.35.23.35.35,0,0,0,.1.4l2.59,2.45a.35.35,0,0,0,.51,0,.36.36,0,0,0,0-.51L23.1,12.35h.12a1.92,1.92,0,0,0,1.89-1.61h.7a.35.35,0,0,0,.36-.36.36.36,0,0,0-.36-.36h-.7a1.75,1.75,0,0,0-.39-.81Z" transform="translate(-0.18 -0.37)" fill="#f1bc31"/></svg>