<svg id="Layer_1" data-name="Layer 1" xmlns="http://www.w3.org/2000/svg" viewBox="0 0 35.8 47.22"><title>Pay EMA</title><path d="M37,33.23l-.12.06a2.55,2.55,0,0,0-3-.7h0l-.38.2a3.29,3.29,0,0,0-3.72-.3l-2.25,1.22h-3a4.39,4.39,0,0,1-1.85-.42l-.41-.18a7.23,7.23,0,0,0-7.51.74l0,0-1,.87a3.51,3.51,0,0,1-1.2.69L12,33.65a.54.54,0,0,0-.52-.38H6.64a.54.54,0,0,0-.4.17.52.52,0,0,0-.13.43L7.72,47.13a.53.53,0,0,0,.54.48h7.28A.54.54,0,0,0,16,47.4a.55.55,0,0,0,.08-.48l-.93-3.08L18,42a1.68,1.68,0,0,1,1.24-.16h0l6.06,1.11a7.87,7.87,0,0,0,4.87-.68l.07,0L40.8,35a.52.52,0,0,0,.16-.71,3,3,0,0,0-4-1.08Zm-2.61.31a1.45,1.45,0,0,1,1.5.28L32,35.91l-.15.08a3.57,3.57,0,0,0-.48-.85Zm-4.08-.11h0a2.22,2.22,0,0,1,2.12,0l-1.82,1a3.63,3.63,0,0,0-1.07-.51ZM8.73,46.55,7.24,34.34h3.84L14,43.75l.85,2.8Zm21-5.23a6.92,6.92,0,0,1-4.2.58l-6.05-1.11a2.82,2.82,0,0,0-2,.28h0l-2.68,1.69-2-6.29a4.32,4.32,0,0,0,1.6-.91l1-.88a6.15,6.15,0,0,1,6.38-.61l.41.2a5.52,5.52,0,0,0,2.32.54h4A2.46,2.46,0,0,1,31,36.73l-2.81-.13a17.05,17.05,0,0,0-3.19.15.54.54,0,0,0,.13,1.08h0a17.74,17.74,0,0,1,3-.14l3.44.16h0a.54.54,0,0,0,.54-.54h0v-.17l.42-.22,5-2.68a1.88,1.88,0,0,1,2.21.29Z" transform="translate(-6.1 -0.39)" fill="#fff"/><path d="M40.41.83a.48.48,0,0,0-.48-.44H33.21a.48.48,0,0,0-.4.2.49.49,0,0,0-.07.44l.86,2.85L30.87,5.59a1.53,1.53,0,0,1-1.15.14h0l-5.61-1a7.23,7.23,0,0,0-4.53.64l-.06,0L9.79,12a.47.47,0,0,0-.14.66,2.73,2.73,0,0,0,3.65,1l.11-.06a2.48,2.48,0,0,0,1.85.86,1.93,1.93,0,0,0,.91-.21h0l.34-.19a3,3,0,0,0,3.45.29L22,13.25h2.78a3.89,3.89,0,0,1,1.71.39l.38.18a6.67,6.67,0,0,0,7-.68l0,0,.93-.83a3.3,3.3,0,0,1,1.12-.64l.5,1.66a.47.47,0,0,0,.48.35h4.49a.47.47,0,0,0,.49-.47.19.19,0,0,0,0-.08ZM15.71,13.4a1.32,1.32,0,0,1-1.39-.26l3.58-1.92.14-.08a3.36,3.36,0,0,0,.43.79Zm3.78.1h0a2.06,2.06,0,0,1-2,.05l1.69-.91a3,3,0,0,0,1,.48Zm14.69-1.95-.92.81a5.68,5.68,0,0,1-5.89.57L27,12.74a5,5,0,0,0-2.14-.48H21.09a2.28,2.28,0,0,1-2.21-1.76l2.6.12a16.27,16.27,0,0,0,3-.14.49.49,0,0,0,.41-.55.49.49,0,0,0-.55-.41,15.19,15.19,0,0,1-2.78.13l-3.18-.14a.49.49,0,0,0-.36.13.57.57,0,0,0-.16.36v.15l-.39.22-4.61,2.48a1.76,1.76,0,0,1-2-.27L20,6.21a6.29,6.29,0,0,1,3.89-.54l5.59,1a2.47,2.47,0,0,0,1.86-.26h0l2.49-1.57,1.81,5.81A4.06,4.06,0,0,0,34.18,11.55Zm3.11,1.11L34.63,4l-.78-2.57h5.63l1.38,11.28Z" transform="translate(-6.1 -0.39)" fill="#fff"/><path d="M36.9,1.64A1.39,1.39,0,1,0,38.3,3a1.4,1.4,0,0,0-1.4-1.39Zm0,1.8A.41.41,0,1,1,37.3,3h0A.42.42,0,0,1,36.9,3.44Z" transform="translate(-6.1 -0.39)" fill="#f1bc31"/><path d="M30.6,23.76a6.69,6.69,0,1,0-6.69,6.68h0A6.69,6.69,0,0,0,30.6,23.76Zm-12.24,0a5.55,5.55,0,1,1,5.55,5.55h0A5.55,5.55,0,0,1,18.36,23.76Z" transform="translate(-6.1 -0.39)" fill="#fff"/><path d="M26.24,21.09a.44.44,0,0,0,0-.87H21.92a.44.44,0,0,0,0,.87h1.23a1.37,1.37,0,0,1,1.35,1H21.93a.43.43,0,0,0,0,.86h2.58a1.45,1.45,0,0,1-1.35,1H21.93a.45.45,0,0,0-.41.27.43.43,0,0,0,.11.48l3.08,2.91a.43.43,0,1,0,.6-.62L23,24.8h.15a2.28,2.28,0,0,0,2.24-1.91h.84a.43.43,0,1,0,0-.86H25.4a2.29,2.29,0,0,0-.45-1Z" transform="translate(-6.1 -0.39)" fill="#f1bc31"/></svg>