<svg id="Layer_1" data-name="Layer 1" xmlns="http://www.w3.org/2000/svg" viewBox="0 0 20.99 21.46"><title>Calender</title><path d="M9.09,13.11a.49.49,0,0,0-.49-.49H6.9a.49.49,0,0,0-.49.49v1.7a.49.49,0,0,0,.49.49H8.6a.49.49,0,0,0,.49-.49v-1.7Z" transform="translate(-1.51 -1.27)" fill="#ea9600"/><path d="M13.34,13.11a.49.49,0,0,0-.49-.49h-1.7a.49.49,0,0,0-.49.49v1.7a.49.49,0,0,0,.49.49h1.7a.49.49,0,0,0,.49-.49Z" transform="translate(-1.51 -1.27)" fill="#ea9600"/><path d="M17.59,13.11a.49.49,0,0,0-.49-.49H15.4a.49.49,0,0,0-.49.49v1.7a.49.49,0,0,0,.49.49h1.7a.49.49,0,0,0,.49-.49Z" transform="translate(-1.51 -1.27)" fill="#ea9600"/><path d="M9.09,17.36a.49.49,0,0,0-.49-.49H6.9a.49.49,0,0,0-.49.49v1.7a.49.49,0,0,0,.49.49H8.6a.49.49,0,0,0,.49-.49v-1.7Z" transform="translate(-1.51 -1.27)" fill="#ea9600"/><path d="M13.34,17.36a.49.49,0,0,0-.49-.49h-1.7a.49.49,0,0,0-.49.49v1.7a.49.49,0,0,0,.49.49h1.7a.49.49,0,0,0,.49-.49Z" transform="translate(-1.51 -1.27)" fill="#ea9600"/><path d="M17.59,17.36a.49.49,0,0,0-.49-.49H15.4a.49.49,0,0,0-.49.49v1.7a.49.49,0,0,0,.49.49h1.7a.49.49,0,0,0,.49-.49v-1.7Z" transform="translate(-1.51 -1.27)" fill="#ea9600"/><path d="M20.63,3.66V6.25A2.12,2.12,0,0,1,18.5,8.37H17.16A2.13,2.13,0,0,1,15,6.25V3.65H9v2.6A2.13,2.13,0,0,1,6.84,8.37H5.5A2.12,2.12,0,0,1,3.37,6.25V3.66A1.93,1.93,0,0,0,1.51,5.58V20.8a1.93,1.93,0,0,0,1.92,1.93H20.57a1.93,1.93,0,0,0,1.92-1.93V5.58A1.93,1.93,0,0,0,20.63,3.66ZM20,19.85a.83.83,0,0,1-.83.83H4.79A.83.83,0,0,1,4,19.85V12a.83.83,0,0,1,.83-.83H19.17A.83.83,0,0,1,20,12v7.86Z" transform="translate(-1.51 -1.27)" fill="#ea9600"/><path d="M5.49,7H6.82a.73.73,0,0,0,.73-.73V2a.73.73,0,0,0-.73-.73H5.49A.72.72,0,0,0,4.77,2V6.25A.72.72,0,0,0,5.49,7Z" transform="translate(-1.51 -1.27)" fill="#ea9600"/><path d="M17.14,7h1.33a.73.73,0,0,0,.73-.73V2a.73.73,0,0,0-.73-.73H17.14a.73.73,0,0,0-.73.73V6.25A.73.73,0,0,0,17.14,7Z" transform="translate(-1.51 -1.27)" fill="#ea9600"/></svg>