<?xml version="1.0" encoding="utf-8"?>
<!-- Generator: Adobe Illustrator 16.0.0, SVG Export Plug-In . SVG Version: 6.00 Build 0)  -->
<!DOCTYPE svg PUBLIC "-//W3C//DTD SVG 1.1//EN" "http://www.w3.org/Graphics/SVG/1.1/DTD/svg11.dtd">
<svg version="1.1" id="Layer_1" xmlns="http://www.w3.org/2000/svg" xmlns:xlink="http://www.w3.org/1999/xlink" x="0px" y="0px"
	 width="150px" height="150px" viewBox="0 0 150 150" enable-background="new 0 0 150 150" xml:space="preserve">
<path fill-rule="evenodd" clip-rule="evenodd" fill="#F39C36" d="M65.367,3.522c6.336,0.001,12.672,0.003,19.008,0.004
	c0.784,1.025,1.871,0.814,2.931,0.716c30.177,6.734,49.752,24.719,57.34,54.882c9.795,38.939-17.661,80.111-57.283,86.372
	c-38.583,6.096-72.943-16.673-82.319-54.44c-0.387-1.558,0.014-3.547-1.682-4.685c0-7.627,0-15.255,0-22.882
	c1.66-0.967,1.187-2.823,1.556-4.221c8.052-30.523,27.64-48.746,58.431-55.133C64.127,4.28,64.87,4.308,65.367,3.522z
	 M19.599,71.691c0.181,1.521,0.486,4.193,0.816,6.86c2.907,23.475,21.58,42.675,45.495,46.786
	c23.774,4.089,48.336-8.649,58.546-30.579c7.959-17.094,7.471-34.028-1.511-50.694c-0.483-0.898-2.669-2.38-0.282-3.337
	c3.532-1.415,2.119-5.039,1.331-5.771c-2.151-2-5.587-1.37-8.097-0.555c-2.223,0.722-1.764,4.382-0.71,5.351
	c2.391,2.2,1.208,4.257,0.878,6.436c-3.023,20.004-19.179,34.533-39.351,35.416C56.851,82.471,38.645,68.92,34.25,49.754
	c-0.647-2.825-1.903-5.98-0.694-8.77c2.66-6.139,2.098-7.222-4.634-6.917c-1.177,0.053-2.817-0.546-3.274,1.087
	c-0.462,1.648-0.926,4.495,0.276,4.907c3.929,1.344,1.355,3.122,0.581,4.501C21.972,52.637,20.068,61.368,19.599,71.691z"/>
<path fill-rule="evenodd" clip-rule="evenodd" fill="#FFFFFF" d="M19.599,71.691c0.469-10.323,2.374-19.054,6.908-27.128
	c0.774-1.379,3.348-3.157-0.581-4.501c-1.203-0.412-0.738-3.259-0.276-4.907c0.457-1.633,2.097-1.034,3.274-1.087
	c6.731-0.305,7.293,0.778,4.634,6.917c-1.209,2.79,0.046,5.945,0.694,8.77c4.395,19.166,22.6,32.716,42.464,31.848
	c20.172-0.883,36.327-15.412,39.351-35.416c0.33-2.179,1.513-4.235-0.878-6.436c-1.054-0.969-1.513-4.629,0.71-5.351
	c2.51-0.814,5.945-1.445,8.097,0.555c0.788,0.732,2.201,4.356-1.331,5.771c-2.387,0.958-0.201,2.439,0.282,3.337
	c8.981,16.666,9.47,33.6,1.511,50.694c-10.21,21.93-34.771,34.668-58.546,30.579c-23.916-4.111-42.588-23.312-45.495-46.786
	C20.085,75.884,19.779,73.212,19.599,71.691z M74.902,104.069c0-4.752-0.036-9.504,0.018-14.255
	c0.022-1.925-0.135-3.475-2.667-3.429c-5.48,0.098-10.645-1.396-15.636-3.472c-1.884-0.783-2.919-0.161-3.962,1.318
	c-4.286,6.081-8.592,12.147-12.969,18.163c-1.323,1.818-1.483,3.229,0.346,4.86c9.017,8.039,19.261,13.09,31.532,13.705
	c2.979,0.15,3.438-1.121,3.372-3.588C74.819,112.94,74.903,108.504,74.902,104.069z M81.467,103.438
	c0,4.906,0.025,9.813-0.015,14.72c-0.014,1.71,0.318,2.713,2.414,2.287c10.016-2.034,18.734-6.51,26.161-13.544
	c1.401-1.326,1.557-2.476,0.4-4.074c-4.45-6.15-8.506-12.617-13.299-18.482c-3.851-4.712-7.508,1.555-11.509,1.164
	c-1.462-0.142-3.696-0.139-4.082,2.264c-0.149,0.929-0.073,1.895-0.074,2.844C81.457,94.891,81.461,99.164,81.467,103.438z
	 M29.123,51.476c-6.104,14.033-6.008,27.786,1.072,42.262c4.435-6.252,8.401-11.911,12.454-17.508
	c1.041-1.438,0.32-2.252-0.616-3.233C36.154,66.839,31.754,59.799,29.123,51.476z M120.583,51.432
	c-2.489,8.647-7.161,15.814-13.3,22.08c-0.8,0.815-0.905,1.518-0.225,2.464c4.094,5.685,8.155,11.392,12.623,17.646
	C126.465,79.104,126.821,65.416,120.583,51.432z"/>
<path fill-rule="evenodd" clip-rule="evenodd" fill="#F39C36" d="M74.903,104.069c0,4.435-0.084,8.871,0.032,13.304
	c0.065,2.467-0.393,3.738-3.372,3.588c-12.271-0.615-22.515-5.666-31.532-13.705c-1.83-1.632-1.669-3.042-0.346-4.86
	c4.376-6.016,8.683-12.082,12.969-18.163c1.042-1.479,2.078-2.102,3.962-1.318c4.991,2.075,10.156,3.569,15.636,3.472
	c2.533-0.046,2.69,1.504,2.667,3.429C74.866,94.565,74.902,99.317,74.903,104.069z"/>
<path fill-rule="evenodd" clip-rule="evenodd" fill="#F39C36" d="M81.464,103.438c-0.003-4.274-0.007-8.548,0-12.822
	c0.001-0.949-0.075-1.915,0.074-2.844c0.386-2.402,2.62-2.405,4.082-2.264c4.001,0.391,7.658-5.876,11.509-1.164
	c4.793,5.865,8.849,12.332,13.299,18.482c1.156,1.599,1.001,2.748-0.4,4.074c-7.427,7.034-16.146,11.51-26.161,13.544
	c-2.096,0.426-2.428-0.577-2.414-2.287C81.492,113.252,81.467,108.345,81.464,103.438z"/>
<path fill-rule="evenodd" clip-rule="evenodd" fill="#F39C36" d="M29.123,51.476c2.631,8.323,7.031,15.363,12.909,21.521
	c0.937,0.981,1.657,1.795,0.616,3.233c-4.053,5.597-8.019,11.256-12.454,17.508C23.115,79.262,23.019,65.509,29.123,51.476z"/>
<path fill-rule="evenodd" clip-rule="evenodd" fill="#F39C36" d="M120.583,51.432c6.238,13.984,5.882,27.672-0.901,42.189
	c-4.468-6.254-8.529-11.961-12.623-17.646c-0.681-0.946-0.575-1.648,0.225-2.464C113.422,67.246,118.094,60.079,120.583,51.432z"/>
</svg>
