<svg id="Layer_1" data-name="Layer 1" xmlns="http://www.w3.org/2000/svg" viewBox="0 0 100 100"><title>enquiry</title><rect x="11.1" y="13.06" width="58.24" height="78.99" rx="6" ry="6" fill="#e7ad27"/><rect x="11.1" y="10.7" width="58.24" height="78.99" rx="6" ry="6" fill="#fede3a"/><rect x="15.62" y="16.46" width="49.19" height="69.84" rx="4" ry="4" fill="#d1d3d4"/><rect x="15.62" y="15.28" width="49.19" height="69.84" rx="4" ry="4" fill="#fff"/><path d="M50.47,15.27v2.17a1.18,1.18,0,0,1-1.18,1.18H31.14A1.18,1.18,0,0,1,30,17.44V15.27H27.6v2.17A3.55,3.55,0,0,0,31.14,21H49.29a3.55,3.55,0,0,0,3.54-3.54V15.27Z" fill="#e6e7e8"/><path d="M49.29,19.8H31.14a3.55,3.55,0,0,1-3.54-3.54v-3.2a3.55,3.55,0,0,1,3.54-3.54H49.29a3.55,3.55,0,0,1,3.54,3.54v3.2A3.55,3.55,0,0,1,49.29,19.8ZM31.14,11.88A1.18,1.18,0,0,0,30,13.06v3.2a1.18,1.18,0,0,0,1.18,1.18H49.29a1.18,1.18,0,0,0,1.18-1.18v-3.2a1.18,1.18,0,0,0-1.18-1.18Z" fill="#1caee4"/><path d="M49.29,10.7H31.14a2.36,2.36,0,0,0-2.36,2.36v3.2a2.36,2.36,0,0,0,2.36,2.36H49.29a2.36,2.36,0,0,0,2.36-2.36v-3.2A2.36,2.36,0,0,0,49.29,10.7Zm1.18,5.56a1.18,1.18,0,0,1-1.18,1.18H31.14A1.18,1.18,0,0,1,30,16.26v-3.2a1.18,1.18,0,0,1,1.18-1.18H49.29a1.18,1.18,0,0,1,1.18,1.18Z" fill="#009add"/><rect x="30.48" y="7.95" width="19.48" height="5.51" rx="1.88" ry="1.88" fill="#1caee4"/><path d="M48.77,8H31.66a1.18,1.18,0,0,0-1.18,1.18V10a1.18,1.18,0,0,1,1.18-1.18H48.77A1.18,1.18,0,0,1,50,10V9.13A1.17,1.17,0,0,0,48.77,8Z" fill="#27c1e6"/><path d="M48.77,11.13H31.66A1.18,1.18,0,0,1,30.48,10v2.32a1.18,1.18,0,0,0,1.18,1.19H48.77A1.18,1.18,0,0,0,50,12.27V10A1.18,1.18,0,0,1,48.77,11.13Z" fill="#009add"/><rect x="21.26" y="29.01" width="37.92" height="15.78" rx="2" ry="2" fill="#e6e7e8"/><path d="M34.83,26.31H22.4a1.14,1.14,0,0,1-1.14-1.15h0A1.14,1.14,0,0,1,22.4,24H34.83A1.14,1.14,0,0,1,36,25.16h0A1.14,1.14,0,0,1,34.83,26.31Z" fill="#d1d3d4"/><path d="M45.71,26.31H39.48a1.15,1.15,0,0,1-1.15-1.15h0A1.15,1.15,0,0,1,39.48,24h6.23a1.15,1.15,0,0,1,1.15,1.14h0A1.15,1.15,0,0,1,45.71,26.31Z" fill="#d1d3d4"/><path d="M42.81,33.65H25.25A1.16,1.16,0,0,1,24.1,32.5h0a1.15,1.15,0,0,1,1.15-1.14H42.81A1.14,1.14,0,0,1,44,32.5h0A1.15,1.15,0,0,1,42.81,33.65Z" fill="#bcbec0"/><path d="M37.19,42.05H25.25A1.16,1.16,0,0,1,24.1,40.9h0a1.15,1.15,0,0,1,1.15-1.14H37.19a1.14,1.14,0,0,1,1.14,1.14h0A1.15,1.15,0,0,1,37.19,42.05Z" fill="#bcbec0"/><path d="M54.38,33.65H47.46a1.16,1.16,0,0,1-1.15-1.15h0a1.15,1.15,0,0,1,1.15-1.14h6.92a1.14,1.14,0,0,1,1.14,1.14h0A1.15,1.15,0,0,1,54.38,33.65Z" fill="#bcbec0"/><path d="M51,37.85H25.22a1.16,1.16,0,0,1-1.15-1.15h0a1.15,1.15,0,0,1,1.15-1.14H51a1.14,1.14,0,0,1,1.14,1.14h0A1.15,1.15,0,0,1,51,37.85Z" fill="#bcbec0"/><rect x="21.26" y="63.14" width="37.92" height="15.78" rx="2" ry="2" fill="#e6e7e8"/><path d="M44.16,60.44H22.4a1.14,1.14,0,0,1-1.14-1.14h0a1.15,1.15,0,0,1,1.14-1.15H44.16a1.16,1.16,0,0,1,1.15,1.15h0A1.15,1.15,0,0,1,44.16,60.44Z" fill="#d1d3d4"/><rect x="47.67" y="58.15" width="6.86" height="2.29" rx="0.78" ry="0.78" fill="#d1d3d4"/><path d="M42.81,68H25.25a1.16,1.16,0,0,1-1.15-1.15h0a1.15,1.15,0,0,1,1.15-1.14H42.81A1.14,1.14,0,0,1,44,66.83h0A1.15,1.15,0,0,1,42.81,68Z" fill="#bcbec0"/><path d="M37.19,76.38H25.25a1.15,1.15,0,0,1-1.15-1.15h0a1.15,1.15,0,0,1,1.15-1.14H37.19a1.14,1.14,0,0,1,1.14,1.14h0A1.14,1.14,0,0,1,37.19,76.38Z" fill="#bcbec0"/><path d="M54.38,68H47.46a1.16,1.16,0,0,1-1.15-1.15h0a1.15,1.15,0,0,1,1.15-1.14h6.92a1.14,1.14,0,0,1,1.14,1.14h0A1.15,1.15,0,0,1,54.38,68Z" fill="#bcbec0"/><path d="M51,72.18H25.22A1.16,1.16,0,0,1,24.07,71h0a1.15,1.15,0,0,1,1.15-1.14H51A1.14,1.14,0,0,1,52.13,71h0A1.15,1.15,0,0,1,51,72.18Z" fill="#bcbec0"/><rect x="15.62" y="51.38" width="49.19" height="1.67" fill="#e6e7e8"/><polygon points="64.81 62.96 64.81 74.79 69.33 70.26 69.33 58.44 64.81 62.96" fill="#e7ad27"/><path d="M64.81,63,55,72.79l-1.37,4.84L52.94,80a.54.54,0,0,0,.15.57h0a.58.58,0,0,0,.31.16h.1l.16,0,7.23-2,3.92-3.91Z" fill="#bcbec0"/><path d="M53.41,80.76h0Z" fill="#e7ad27"/><path d="M53.41,80.76h0Z" fill="#e7ad27"/><path d="M53.43,80.76h0Z" fill="#e7ad27"/><polygon points="53.39 80.76 53.4 80.76 53.4 80.76 53.39 80.76" fill="#e7ad27"/><rect x="82.09" y="42.79" width="8.36" height="3.33" transform="translate(56.7 -47.98) rotate(45)" fill="#fede3a"/><rect x="84.41" y="42.79" width="3.74" height="3.33" transform="translate(56.7 -47.98) rotate(45)" fill="#fff335"/><path d="M91.78,39h0a4.19,4.19,0,0,0-5.92,0l-1.37,1.37,5.92,5.92,1.37-1.37A4.19,4.19,0,0,0,91.78,39Z" fill="#1caee4"/><path d="M91.78,39h0A2,2,0,0,0,89,39l-3,3,2.74,2.74,3-3A2,2,0,0,0,91.78,39Z" fill="#27c1e6"/><path d="M60.89,75.75,55,69.84l-2,7.23a.58.58,0,0,0,.72.72Z" fill="#fff"/><path d="M53.21,77.74a.58.58,0,0,0,.45.05A.58.58,0,0,1,53.21,77.74Z" fill="#ef5a9d"/><path d="M53,77.52a.55.55,0,0,1-.08-.29A.55.55,0,0,0,53,77.52Z" fill="#ef5a9d"/><rect x="52.31" y="55.03" width="38.42" height="8.36" transform="translate(-20.92 67.91) rotate(-45)" fill="#ef5a9d"/><rect x="52.31" y="57.28" width="38.42" height="3.87" transform="translate(-20.92 67.91) rotate(-45)" fill="#f06ea9"/><path d="M53.61,74.68l-.67,2.39a.58.58,0,0,0,.72.72l2.39-.67Z" fill="#ef5a9d"/></svg>