<svg id="Layer_1" data-name="Layer 1" xmlns="http://www.w3.org/2000/svg" xmlns:xlink="http://www.w3.org/1999/xlink" viewBox="0 0 92.28 98"><defs><linearGradient id="linear-gradient" x1="50" y1="101" x2="50" y2="3" gradientTransform="matrix(1, 0, 0, -1, 0, 102)" gradientUnits="userSpaceOnUse"><stop offset="0" stop-color="#a06878"/><stop offset="1" stop-color="#6d3946"/></linearGradient></defs><title>join saving scheme</title><path d="M95.19,80.92H85.67V71.41a1,1,0,0,0-1-1H79a1,1,0,0,0-1,1v9.51H68.55a1,1,0,0,0-1,1v5.71a.94.94,0,0,0,1,1h9.51v9.52a1,1,0,0,0,1,1h5.71a1,1,0,0,0,1-1V88.53h9.52a1,1,0,0,0,1-1V81.87A1,1,0,0,0,95.19,80.92ZM33.52,48.38c-.1-1-.16-2.08-.16-3.14a29.7,29.7,0,0,1,.51-5.53,1,1,0,0,0-.54-1A15.23,15.23,0,1,1,50,13.64a15.59,15.59,0,0,1,2.43,2.91.94.94,0,0,0,1.1.38,29.52,29.52,0,0,1,6.58-1.48,1,1,0,0,0,.75-1.38A23.8,23.8,0,1,0,24.59,43.28,35.77,35.77,0,0,0,3.86,74.73a1,1,0,0,0,.07.37.79.79,0,0,0,.2.31.93.93,0,0,0,.31.22,1,1,0,0,0,.37.07h6.68a1,1,0,0,0,.95-.91A27.14,27.14,0,0,1,32.82,49.43,1,1,0,0,0,33.52,48.38ZM87.1,45.24a23.79,23.79,0,1,0-38.75,18.5A35.77,35.77,0,0,0,27.64,95.17a.78.78,0,0,0,.06.37,1,1,0,0,0,.21.32.85.85,0,0,0,.31.21.91.91,0,0,0,.37.08h6.66a1,1,0,0,0,1-.92A27.12,27.12,0,0,1,63.31,69,23.79,23.79,0,0,0,87.1,45.24ZM74.08,56a15.25,15.25,0,0,1-24.87-5A15.23,15.23,0,0,1,74,34.37,15.21,15.21,0,0,1,74.08,56Z" transform="translate(-3.86 -1)" fill="url(#linear-gradient)"/></svg>