<?xml version="1.0" encoding="utf-8"?>
<!-- Generator: Adobe Illustrator 16.0.0, SVG Export Plug-In . SVG Version: 6.00 Build 0)  -->
<!DOCTYPE svg PUBLIC "-//W3C//DTD SVG 1.1//EN" "http://www.w3.org/Graphics/SVG/1.1/DTD/svg11.dtd">
<svg version="1.1" id="Layer_1" xmlns="http://www.w3.org/2000/svg" xmlns:xlink="http://www.w3.org/1999/xlink" x="0px" y="0px"
	 width="150px" height="150px" viewBox="0 0 150 150" enable-background="new 0 0 150 150" xml:space="preserve">
<circle fill="#6C2529" cx="74.875" cy="75.125" r="73.875"/>
<g>
	<path fill="#F5C515" d="M373.365-37.939c2.295,0.008,4.5-0.887,6.139-2.493l8.816,4.616c-0.359,4.906,3.326,9.177,8.233,9.537
		c4.731,0.347,8.905-3.074,9.492-7.783v-0.739c-0.005-1.331-0.321-2.644-0.924-3.831l11.956-11.862
		c1.199,0.563,2.506,0.862,3.831,0.877c4.895,0.025,8.884-3.922,8.908-8.816l0,0l0,0l0,0c0.001-0.894-0.14-1.782-0.415-2.631
		l10.339-7.893c4.105,2.758,9.669,1.666,12.428-2.44c2.758-4.105,1.665-9.668-2.439-12.426c-4.106-2.758-9.67-1.666-12.427,2.439
		c-0.003,0.003-0.006,0.007-0.007,0.01c-0.985,1.494-1.515,3.242-1.524,5.031l0,0c0.015,0.911,0.171,1.814,0.462,2.677l-10.34,7.478
		c-1.465-0.966-3.183-1.479-4.938-1.477c-4.859-0.052-8.854,3.819-8.955,8.678c-0.046,1.411,0.271,2.81,0.924,4.062l-11.955,11.955
		c-3.354-1.681-7.404-1.03-10.063,1.616l-8.771-4.616c0.047-0.353,0.047-0.71,0-1.062c0.026-4.946-3.962-8.976-8.908-9.001
		c-4.945-0.026-8.975,3.963-9,8.908c-0.025,4.946,3.963,8.976,8.908,9l0,0L373.365-37.939z"/>
	<path fill="#F5C515" d="M456.867,10.066h-3.186v-62.869c0.003-1.562-1.21-2.856-2.77-2.954h-12.094
		c-1.631-0.025-2.975,1.276-3,2.908l0,0l0,0v62.915h-5.954v-44.867c0-1.639-1.315-2.975-2.954-3H415c-1.656,0-3,1.343-3,3v45.005
		h-5.908v-21.233c-0.024-1.639-1.361-2.955-3-2.954h-11.91c-1.631,0-2.953,1.322-2.953,2.954l0,0v21.233h-5.955v-33.235
		c0-1.655-1.343-3-3-3h-11.771c-1.657,0-3,1.345-3,3v33.097h-3.277c-1.632,0.29-2.72,1.847-2.43,3.478
		c0.22,1.24,1.19,2.211,2.43,2.431h95.642c1.644-0.205,2.81-1.704,2.604-3.349c-0.169-1.362-1.242-2.436-2.604-2.605V10.066z"/>
</g>
<g>
	<path fill-rule="evenodd" clip-rule="evenodd" fill="#F5C515" d="M118.751,113.535c0,1.875,0,3.648,0,5.465
		c-29.25,0-58.494,0-87.776,0c0-29.23,0-58.474,0-87.75c1.791,0,3.576,0,5.429,0c0,5.445,0,10.902,0,16.406c1.851,0,3.636,0,5.467,0
		c0,1.846,0,3.644,0,5.507c-1.789,0-3.588,0-5.416,0c0,3.678,0,7.292,0,10.976c1.804,0,3.603,0,5.43,0c0,1.854,0,3.639,0,5.492
		c-1.801,0-3.6,0-5.428,0c0,3.681,0,7.296,0,10.978c1.805,0,3.603,0,5.429,0c0,1.852,0,3.637,0,5.49c-1.805,0-3.603,0-5.43,0
		c0,3.684,0,7.299,0,10.978c1.802,0,3.602,0,5.43,0c0,1.847,0,3.634,0,5.485c-1.796,0-3.594,0-5.426,0c0,3.68,0,7.294,0,10.974
		C63.872,113.535,91.284,113.535,118.751,113.535z"/>
	<path fill-rule="evenodd" clip-rule="evenodd" fill="#F5C515" d="M55.639,97.088c-4.301,0.001-7.925-3.361-8.225-7.636
		c-0.306-4.356,2.807-8.162,7.14-8.755c1.034-0.143,2.045-0.086,3.041,0.201c0.355,0.102,0.561,0.035,0.784-0.265
		c2.185-2.932,4.381-5.856,6.584-8.775c0.214-0.284,0.232-0.489,0.048-0.821c-1.589-2.865-1.601-5.766,0.149-8.532
		c1.723-2.724,4.313-4.018,7.534-3.817c5.073,0.314,8.602,5.18,7.38,10.096c-0.103,0.415-0.038,0.649,0.315,0.911
		c2.895,2.144,5.778,4.303,8.65,6.479c0.35,0.266,0.592,0.261,0.962,0.046c1.463-0.846,3.041-1.208,4.738-1.051
		c0.16,0.015,0.425-0.171,0.506-0.331c1.322-2.606,2.624-5.224,3.93-7.839c1.739-3.481,3.475-6.965,5.227-10.44
		c0.154-0.309,0.132-0.492-0.09-0.765c-2.218-2.723-2.707-5.752-1.186-8.914c1.553-3.228,4.279-4.776,7.856-4.666
		c4.06,0.126,7.417,3.448,7.765,7.576c0.335,3.978-2.397,7.763-6.291,8.627c-0.809,0.18-1.664,0.188-2.498,0.194
		c-0.329,0.003-0.489,0.063-0.632,0.351c-1.281,2.588-2.571,5.169-3.862,7.751c-1.699,3.399-3.393,6.803-5.114,10.191
		c-0.261,0.51-0.292,0.839,0.111,1.328c2.246,2.729,2.443,6.472,0.563,9.522c-1.788,2.9-5.281,4.372-8.685,3.66
		c-3.361-0.703-5.938-3.476-6.428-6.889c-0.152-1.069-0.096-2.117,0.202-3.149c0.095-0.331,0.031-0.526-0.252-0.737
		c-2.946-2.196-5.885-4.405-8.82-6.615c-0.24-0.182-0.426-0.242-0.728-0.068c-1.953,1.127-4.023,1.505-6.226,0.876
		c-0.305-0.088-0.501-0.018-0.697,0.245c-2.197,2.946-4.398,5.889-6.616,8.818c-0.25,0.33-0.193,0.549-0.008,0.87
		C65.921,90.241,61.958,97.084,55.639,97.088z M110.528,53.172c1.492,0,2.732-1.227,2.744-2.715c0.01-1.528-1.212-2.762-2.742-2.77
		c-1.514-0.007-2.745,1.236-2.745,2.769C107.787,51.934,109.038,53.173,110.528,53.172z M94.047,80.623
		c-1.512,0.008-2.741,1.255-2.727,2.769c0.013,1.487,1.24,2.711,2.729,2.719c1.507,0.005,2.752-1.234,2.758-2.748
		C96.813,81.86,95.559,80.614,94.047,80.623z M72.093,69.642c1.497-0.003,2.746-1.229,2.756-2.708
		c0.01-1.53-1.211-2.771-2.734-2.777c-1.521-0.006-2.758,1.233-2.752,2.758C69.368,68.402,70.612,69.645,72.093,69.642z
		 M58.382,88.878c0.002-1.525-1.237-2.772-2.749-2.765c-1.521,0.007-2.739,1.241-2.738,2.773c0.001,1.471,1.26,2.714,2.748,2.712
		C57.133,91.595,58.378,90.357,58.382,88.878z"/>
</g>
</svg>
