<?xml version="1.0" encoding="utf-8"?>
<!-- Generator: Adobe Illustrator 16.0.0, SVG Export Plug-In . SVG Version: 6.00 Build 0)  -->
<!DOCTYPE svg PUBLIC "-//W3C//DTD SVG 1.1//EN" "http://www.w3.org/Graphics/SVG/1.1/DTD/svg11.dtd">
<svg version="1.1" id="Layer_1" xmlns="http://www.w3.org/2000/svg" xmlns:xlink="http://www.w3.org/1999/xlink" x="0px" y="0px"
	 width="150px" height="150px" viewBox="0 0 150 150" enable-background="new 0 0 150 150" xml:space="preserve">
<path fill-rule="evenodd" clip-rule="evenodd" fill="#F39C36" d="M85.013,4.58c25.039,4.781,43.351,18.338,54.294,41.551
	c4.613,9.785,5.259,20.116,5.493,30.785c0.401,18.116-6.217,33.27-18.026,46.242c-14.019,15.397-31.413,22.325-52.694,23.013
	C41.771,147.216,13.882,122.9,6.17,96.766c-1.312-4.445-2.376-8.964-3.555-13.447c0-5.365,0-10.729,0-16.095
	C3.506,66.833,3.416,66,3.54,65.24c4.134-25.484,17.894-43.711,41.117-54.986c6.715-3.261,14.02-4.246,21.012-6.409
	C72.122,3.959,78.603,3.36,85.013,4.58z M35.578,74.957c0,13.401,0.018,26.803-0.018,40.205c-0.005,2.204-0.03,3.761,3.067,4.003
	c16.262,1.272,32.559-2.123,48.957,2.324c8.959,2.43,19.12,0.329,28.735,0.494c3.136,0.055,4.05-1.001,3.984-4.083
	c-0.185-8.826-0.031-17.658-0.075-26.487c-0.035-7.368,0.7-6.405-6.267-6.18c-3.822,0.123-4.714-1.132-4.668-4.771
	c0.191-15.134,0.022-30.272,0.13-45.407c0.021-2.966-0.701-4.167-3.963-4.114c-7.237,0.117-14.483-0.199-21.725-0.394
	c-1.751-0.047-3.521,0.515-4.719-1.923c-0.864-1.755-12.662-1.496-13.638,0.28c-1.066,1.938-2.461,1.61-3.94,1.647
	c-7.242,0.181-14.488,0.51-21.726,0.389c-3.366-0.056-4.248,1.01-4.206,4.285C35.679,48.466,35.579,61.712,35.578,74.957z"/>
<path fill-rule="evenodd" clip-rule="evenodd" fill="#FFFFFF" d="M35.578,74.957c0-13.244,0.101-26.49-0.071-39.731
	c-0.042-3.275,0.84-4.341,4.206-4.285c7.238,0.121,14.484-0.208,21.726-0.389c1.479-0.037,2.875,0.291,3.94-1.647
	c0.976-1.776,12.774-2.035,13.638-0.28c1.198,2.438,2.968,1.876,4.719,1.923c7.241,0.195,14.487,0.51,21.725,0.394
	c3.262-0.053,3.983,1.148,3.963,4.114c-0.107,15.135,0.062,30.273-0.13,45.407c-0.046,3.639,0.846,4.894,4.668,4.771
	c6.967-0.226,6.231-1.188,6.267,6.18c0.044,8.829-0.109,17.661,0.075,26.487c0.065,3.082-0.849,4.138-3.984,4.083
	c-9.615-0.165-19.776,1.936-28.735-0.494c-16.398-4.447-32.695-1.052-48.957-2.324c-3.097-0.242-3.072-1.799-3.067-4.003
	C35.596,101.76,35.578,88.357,35.578,74.957z M40.474,74.815c0,11.667,0.083,23.333-0.057,34.998
	c-0.036,2.978,0.698,4.13,3.913,4.081c11.979-0.175,23.962-0.127,35.942-0.025c2.636,0.023,3.654-0.778,3.56-3.506
	c-0.174-5.039-0.309-10.106,0.037-15.128c0.261-3.766-1.211-4.424-4.584-4.339c-8.822,0.222-17.655,0.14-26.482,0.016
	c-1.637-0.021-4.653,1.127-4.54-1.645c0.101-2.494,3.054-1.353,4.71-1.377c8.669-0.123,17.341-0.049,26.011-0.068
	c1.255-0.002,3.252,0.329,3.643-0.289c2.44-3.879,6.145-2.085,9.315-2.347c2.976-0.245,5.993-0.176,8.979-0.017
	c2.436,0.13,3.308-0.718,3.293-3.211c-0.087-14.188-0.031-28.377-0.058-42.565c-0.001-1.05,0.437-2.646-0.745-2.988
	c-3.515-1.019-7.178-0.31-10.776-0.414c-2.614-0.076-1.708,2.085-2.028,3.43c-0.358,1.512-1.566,1.333-2.626,1.334
	c-10.404,0.018-20.81,0.003-31.214,0.021c-1.571,0.002-2.952-0.232-2.839-2.212c0.146-2.587-1.463-2.68-3.354-2.622
	c-2.048,0.063-4.116,0.18-6.145-0.027c-3.04-0.31-4.074,0.733-4.026,3.902C40.581,51.481,40.473,63.149,40.474,74.815z"/>
<path fill-rule="evenodd" clip-rule="evenodd" fill="#F39C36" d="M40.473,74.815c0-11.666,0.107-23.333-0.071-34.998
	c-0.048-3.168,0.986-4.211,4.026-3.902c2.029,0.207,4.097,0.09,6.145,0.027c1.891-0.058,3.5,0.035,3.354,2.622
	c-0.112,1.98,1.269,2.214,2.839,2.212c10.405-0.018,20.81-0.003,31.214-0.021c1.06-0.002,2.268,0.177,2.626-1.334
	c0.32-1.345-0.586-3.506,2.028-3.43c3.599,0.104,7.262-0.605,10.776,0.414c1.182,0.342,0.744,1.938,0.745,2.988
	c0.026,14.188-0.029,28.377,0.058,42.565c0.015,2.493-0.857,3.341-3.293,3.211c-2.986-0.159-6.004-0.229-8.979,0.017
	c-3.171,0.262-6.875-1.532-9.315,2.347c-0.391,0.618-2.388,0.287-3.643,0.289c-8.67,0.02-17.342-0.055-26.011,0.068
	c-1.656,0.024-4.609-1.117-4.71,1.377c-0.113,2.771,2.903,1.623,4.54,1.645c8.827,0.124,17.66,0.206,26.482-0.016
	c3.373-0.085,4.845,0.573,4.584,4.339c-0.346,5.021-0.211,10.089-0.037,15.128c0.095,2.728-0.924,3.529-3.56,3.506
	c-11.979-0.102-23.963-0.149-35.942,0.025c-3.215,0.049-3.949-1.104-3.913-4.081C40.557,98.147,40.474,86.481,40.473,74.815z
	 M72.198,57.79c-6.939,0-13.878-0.012-20.817,0.011c-1.376,0.004-3.219-0.25-3.267,1.737c-0.05,2.079,1.858,1.769,3.194,1.771
	c14.036,0.033,28.071,0.029,42.107,0.009c1.363-0.002,3.227,0.294,3.262-1.732c0.037-2.051-1.817-1.781-3.188-1.785
	C86.393,57.776,79.296,57.789,72.198,57.79z M72.624,76.615c-7.097,0-14.194-0.021-21.291,0.019
	c-1.329,0.008-3.227-0.373-3.204,1.729c0.022,1.958,1.87,1.867,3.23,1.871c13.878,0.04,27.757,0.038,41.636,0.018
	c1.56-0.003,3.608,0.064,3.435-2.16c-0.152-1.935-2.119-1.455-3.462-1.463C86.188,76.595,79.404,76.613,72.624,76.615z
	 M61.129,67.273c-3.46,0-6.921-0.007-10.382,0.005c-1.176,0.004-2.34,0.309-2.377,1.681c-0.038,1.409,1.193,1.77,2.321,1.779
	c6.606,0.052,13.214,0.06,19.82,0.033c1.297-0.005,2.741-0.275,2.585-1.984c-0.12-1.314-1.351-1.533-2.527-1.529
	C67.422,67.27,64.275,67.262,61.129,67.273z M59.336,100.428c3.137,0,6.274-0.001,9.412,0c1.176,0.001,2.42-0.312,2.537-1.554
	c0.154-1.638-1.287-2.036-2.579-2.045c-6.116-0.041-12.234-0.031-18.35,0.042c-1.099,0.013-2.283,0.397-2.273,1.846
	c0.011,1.481,1.168,1.682,2.313,1.691C53.376,100.436,56.356,100.417,59.336,100.428z M59.515,52.04
	c2.983,0,5.966,0.009,8.949-0.004c1.313-0.005,2.751-0.213,2.841-1.779c0.095-1.651-1.379-1.903-2.666-1.909
	c-5.966-0.03-11.932-0.031-17.898,0.018c-1.277,0.01-2.748,0.258-2.593,1.97c0.146,1.613,1.61,1.688,2.888,1.699
	C53.863,52.056,56.689,52.041,59.515,52.04z M90.048,67.103c-2.331,1.061-6.838-1.672-6.925,1.981
	c-0.072,3.136,4.373,1.545,6.753,1.59c2.162,0.041,6.113,1.553,6.117-1.835C95.996,65.923,92.126,67.904,90.048,67.103z"/>
<path fill-rule="evenodd" clip-rule="evenodd" fill="#FFFFFF" d="M72.198,57.79c7.098-0.001,14.194-0.014,21.291,0.011
	c1.37,0.004,3.225-0.266,3.188,1.785c-0.035,2.026-1.898,1.73-3.262,1.732c-14.036,0.02-28.071,0.023-42.107-0.009
	c-1.335-0.002-3.244,0.307-3.194-1.771c0.048-1.987,1.891-1.732,3.267-1.737C58.32,57.777,65.259,57.79,72.198,57.79z"/>
<path fill-rule="evenodd" clip-rule="evenodd" fill="#FFFFFF" d="M72.624,76.614c6.78-0.001,13.563-0.02,20.344,0.014
	c1.343,0.008,3.31-0.472,3.462,1.463c0.174,2.225-1.875,2.157-3.435,2.16c-13.879,0.021-27.757,0.022-41.636-0.018
	c-1.36-0.004-3.208,0.087-3.23-1.871c-0.023-2.102,1.875-1.721,3.204-1.729C58.43,76.595,65.527,76.615,72.624,76.614z"/>
<path fill-rule="evenodd" clip-rule="evenodd" fill="#FFFFFF" d="M61.129,67.268c3.146-0.006,6.293,0.002,9.439-0.01
	c1.176-0.004,2.408,0.215,2.527,1.529c0.155,1.708-1.289,1.979-2.585,1.984c-6.606,0.027-13.213,0.019-19.82-0.033
	c-1.128-0.009-2.358-0.37-2.321-1.779c0.037-1.372,1.201-1.676,2.377-1.681C54.208,67.266,57.668,67.273,61.129,67.268z"/>
<path fill-rule="evenodd" clip-rule="evenodd" fill="#FFFFFF" d="M59.336,100.422c-2.98-0.005-5.96,0.014-8.94-0.014
	c-1.144-0.01-2.302-0.21-2.313-1.691c-0.01-1.448,1.174-1.833,2.273-1.846c6.116-0.073,12.233-0.083,18.35-0.042
	c1.292,0.009,2.732,0.407,2.579,2.045c-0.116,1.242-1.36,1.555-2.537,1.554C65.611,100.427,62.474,100.428,59.336,100.422z"/>
<path fill-rule="evenodd" clip-rule="evenodd" fill="#FFFFFF" d="M59.515,52.041c-2.826,0-5.652,0.016-8.478-0.006
	c-1.278-0.011-2.743-0.086-2.888-1.699c-0.155-1.712,1.316-1.96,2.593-1.97c5.966-0.048,11.932-0.047,17.898-0.018
	c1.286,0.006,2.76,0.258,2.666,1.909c-0.09,1.566-1.529,1.773-2.841,1.779C65.481,52.049,62.498,52.04,59.515,52.041z"/>
<path fill-rule="evenodd" clip-rule="evenodd" fill="#FFFFFF" d="M90.048,67.103c2.078,0.802,5.948-1.18,5.945,1.736
	c-0.004,3.388-3.955,1.876-6.117,1.835c-2.38-0.045-6.825,1.546-6.753-1.59C83.21,65.43,87.717,68.163,90.048,67.103z"/>
<path fill-rule="evenodd" clip-rule="evenodd" fill="#F39C36" d="M87.347,102.834c0.002-8.289,6.681-14.984,14.957-14.99
	c8.361-0.007,15.039,6.681,15.033,15.057c-0.007,8.261-6.727,14.937-15.031,14.932C94.035,117.829,87.347,111.124,87.347,102.834z
	 M91.244,102.84c0.002,6.207,4.936,11.13,11.134,11.107c6.143-0.021,11.037-4.901,11.074-11.046
	c0.037-6.204-4.861-11.14-11.079-11.161C96.152,91.719,91.243,96.614,91.244,102.84z"/>
<path fill-rule="evenodd" clip-rule="evenodd" fill="#F39C36" d="M100.849,103.803c1.947-1.979,3.659-3.733,5.389-5.471
	c1.113-1.118,2.308-1.256,3.16-0.401c0.839,0.842,0.691,2.034-0.424,3.159c-2.107,2.125-4.22,4.241-6.339,6.353
	c-1.248,1.242-2.171,1.233-3.421-0.016c-1.232-1.229-2.471-2.455-3.684-3.705c-0.928-0.956-1.01-2.207-0.237-2.973
	c0.816-0.811,1.953-0.738,2.95,0.257C99.094,101.854,99.885,102.764,100.849,103.803z"/>
</svg>
