<?xml version="1.0" encoding="UTF-8" standalone="no"?>
<svg
   version="1.1"
   viewBox="0 0 137.144 137.144"
   enable-background="new 0 0 137.144 137.144"
   id="svg20"
   sodipodi:docname="reports.svg"
   inkscape:version="1.2.1 (9c6d41e410, 2022-07-14)"
   xmlns:inkscape="http://www.inkscape.org/namespaces/inkscape"
   xmlns:sodipodi="http://sodipodi.sourceforge.net/DTD/sodipodi-0.dtd"
   xmlns="http://www.w3.org/2000/svg"
   xmlns:svg="http://www.w3.org/2000/svg">
  <defs
     id="defs24" />
  <sodipodi:namedview
     id="namedview22"
     pagecolor="#ffffff"
     bordercolor="#000000"
     borderopacity="0.25"
     inkscape:showpageshadow="2"
     inkscape:pageopacity="0.0"
     inkscape:pagecheckerboard="0"
     inkscape:deskcolor="#d1d1d1"
     showgrid="false"
     inkscape:zoom="3.8280932"
     inkscape:cx="26.775733"
     inkscape:cy="68.702612"
     inkscape:window-width="1366"
     inkscape:window-height="705"
     inkscape:window-x="-8"
     inkscape:window-y="-8"
     inkscape:window-maximized="1"
     inkscape:current-layer="g16" />
  <g
     id="g18">
    <g
       id="g16">
      <path
         d="m27.429,48h13.714v-13.714h-13.714v13.714zm0,20.572h13.714v-13.715h-13.714v13.715zm0,20.571h13.714v-13.714h-13.714v13.714zm0,20.572h13.714v-13.714h-13.714v13.714zm27.429,0h54.858v-13.714h-54.858v13.714zm0-61.715h54.858v-13.714h-54.858v13.714zm54.857-48h-82.286c-15.149,0-27.429,12.28-27.429,27.428v82.287c0,15.149 12.28,27.429 27.429,27.429h82.286c15.148,0 27.429-12.28 27.429-27.429v-82.287c0-15.148-12.28-27.428-27.429-27.428zm13.715,102.858c0,11.361-9.21,20.571-20.571,20.571h-68.573c-11.362,0-20.572-9.211-20.572-20.571v-68.572c0-11.361 9.21-20.572 20.572-20.572h68.572c11.361,0 20.571,9.21 20.571,20.572v68.572zm-68.571-13.715h54.858v-13.714h-54.858v13.714zm0-20.571h54.858v-13.715h-54.858v13.715z"
         id="path14"
         style="fill:#813528;fill-opacity:1" />
    </g>
  </g>
</svg>
